<svg width="27" height="23" viewBox="0 0 27 23" xmlns="http://www.w3.org/2000/svg">
<path d="M26.9044 2.82386C26.8294 2.73487 26.7196 2.68366 26.6039 2.68366L4.46023 2.87989L3.69824 0.287104C3.64781 0.116611 3.49362 0 3.31857 0H0.396042C0.177163 0 0 0.179876 0 0.402107C0 0.624339 0.177163 0.804215 0.396042 0.804215H3.02338L7.83767 17.1845C7.8382 17.1863 7.83978 17.1879 7.84031 17.1898L8.43834 19.255C8.06078 19.636 7.82685 20.1633 7.82685 20.7447C7.82685 21.9055 8.75649 22.8499 9.89894 22.8499C11.0047 22.8499 11.9079 21.9631 11.9636 20.8525H17.1542C17.1539 20.8672 17.1521 20.8817 17.1521 20.8967C17.1521 22.0564 18.0812 23 19.2231 23C20.365 23 21.2944 22.0564 21.2944 20.8967C21.2944 19.737 20.365 18.7934 19.2231 18.7934C18.3785 18.7934 17.6516 19.3103 17.3297 20.0483H11.8506C11.7492 19.7547 11.5858 19.4848 11.3627 19.2583C10.9717 18.8612 10.4521 18.6422 9.89973 18.6422C9.62805 18.6422 9.36851 18.6969 9.13062 18.794L8.74778 17.4716L24.5271 17.2753C24.7227 17.2753 24.889 17.1303 24.9184 16.9341L26.9955 3.14635C27.0129 3.03055 26.9796 2.91286 26.9044 2.82386ZM19.2231 19.5979C19.9283 19.5979 20.5023 20.1807 20.5023 20.897C20.5023 21.6133 19.9283 22.1961 19.2231 22.1961C18.5179 22.1961 17.9441 21.6133 17.9441 20.897C17.9441 20.1807 18.5179 19.5979 19.2231 19.5979ZM9.8992 19.4467C10.2401 19.4467 10.5609 19.5818 10.8022 19.8271C11.0438 20.0724 11.1766 20.3986 11.1766 20.7452C11.1766 21.4626 10.6034 22.0462 9.89867 22.0462C9.19293 22.0462 8.61867 21.4626 8.61867 20.7452C8.61893 20.0292 9.19319 19.4467 9.8992 19.4467ZM24.1867 16.4714L8.51464 16.6676L7.76586 14.0813C7.75635 14.0486 7.74209 14.0188 7.72572 13.9907L4.69653 3.68411L26.1427 3.48788L24.1867 16.4714Z"/>
</svg>
