<svg width="28" height="24" viewBox="0 0 28 24" fill="none" xmlns="http://www.w3.org/2000/svg">
<path d="M26.9079 3.70109C26.8357 3.61596 26.7299 3.56698 26.6186 3.56698L5.29503 3.75468L4.56127 1.27462C4.51271 1.11154 4.36423 1 4.19566 1H1.38137C1.1706 1 1 1.17206 1 1.38462C1 1.59719 1.1706 1.76925 1.38137 1.76925H3.91141L8.54739 17.4373L8.54993 17.4424L9.1258 19.4179C8.76223 19.7822 8.53696 20.2866 8.53696 20.8428C8.53696 21.9531 9.43218 22.8564 10.5323 22.8564C11.5971 22.8564 12.4669 22.0082 12.5205 20.9459H17.5188C17.5186 20.96 17.5168 20.9738 17.5168 20.9882C17.5168 22.0974 18.4115 23 19.5111 23C20.6108 23 21.5057 22.0974 21.5057 20.9882C21.5057 19.8789 20.6108 18.9763 19.5111 18.9763C18.6978 18.9763 17.9978 19.4707 17.6879 20.1766H12.4117C12.3141 19.8958 12.1567 19.6376 11.9419 19.4209C11.5653 19.0412 11.065 18.8317 10.5331 18.8317C10.2715 18.8317 10.0215 18.884 9.79245 18.9768L9.42379 17.7119L24.6187 17.5242C24.8071 17.5242 24.9672 17.3855 24.9955 17.1978L26.9956 4.00956C27.0124 3.89879 26.9804 3.78622 26.9079 3.70109ZM19.5111 19.7458C20.1902 19.7458 20.743 20.3033 20.743 20.9884C20.743 21.6736 20.1902 22.231 19.5111 22.231C18.832 22.231 18.2795 21.6736 18.2795 20.9884C18.2795 20.3033 18.832 19.7458 19.5111 19.7458ZM10.5326 19.6012C10.8608 19.6012 11.1697 19.7304 11.4021 19.9651C11.6347 20.1997 11.7626 20.5117 11.7626 20.8433C11.7626 21.5295 11.2106 22.0877 10.5321 22.0877C9.85245 22.0877 9.29946 21.5295 9.29946 20.8433C9.29971 20.1584 9.8527 19.6012 10.5326 19.6012ZM24.2909 16.7552L9.19928 16.9429L8.47823 14.469C8.46908 14.4377 8.45535 14.4093 8.43959 14.3824L5.52258 4.52393L26.1744 4.33623L24.2909 16.7552Z" fill="black"/>
<path d="M26.9079 3.70109C26.8357 3.61596 26.7299 3.56698 26.6186 3.56698L5.29503 3.75468L4.56127 1.27462C4.51271 1.11154 4.36423 1 4.19566 1H1.38137C1.1706 1 1 1.17206 1 1.38462C1 1.59719 1.1706 1.76925 1.38137 1.76925H3.91141L8.54739 17.4373L8.54993 17.4424L9.1258 19.4179C8.76223 19.7822 8.53696 20.2866 8.53696 20.8428C8.53696 21.9531 9.43218 22.8564 10.5323 22.8564C11.5971 22.8564 12.4669 22.0082 12.5205 20.9459H17.5188C17.5186 20.96 17.5168 20.9738 17.5168 20.9882C17.5168 22.0974 18.4115 23 19.5111 23C20.6108 23 21.5057 22.0974 21.5057 20.9882C21.5057 19.8789 20.6108 18.9763 19.5111 18.9763C18.6978 18.9763 17.9978 19.4707 17.6879 20.1766H12.4117C12.3141 19.8958 12.1567 19.6376 11.9419 19.4209C11.5653 19.0412 11.065 18.8317 10.5331 18.8317C10.2715 18.8317 10.0215 18.884 9.79245 18.9768L9.42379 17.7119L24.6187 17.5242C24.8071 17.5242 24.9672 17.3855 24.9955 17.1978L26.9956 4.00956C27.0124 3.89879 26.9804 3.78622 26.9079 3.70109ZM19.5111 19.7458C20.1902 19.7458 20.743 20.3033 20.743 20.9884C20.743 21.6736 20.1902 22.231 19.5111 22.231C18.832 22.231 18.2795 21.6736 18.2795 20.9884C18.2795 20.3033 18.832 19.7458 19.5111 19.7458ZM10.5326 19.6012C10.8608 19.6012 11.1697 19.7304 11.4021 19.9651C11.6347 20.1997 11.7626 20.5117 11.7626 20.8433C11.7626 21.5295 11.2106 22.0877 10.5321 22.0877C9.85245 22.0877 9.29946 21.5295 9.29946 20.8433C9.29971 20.1584 9.8527 19.6012 10.5326 19.6012ZM24.2909 16.7552L9.19928 16.9429L8.47823 14.469C8.46908 14.4377 8.45535 14.4093 8.43959 14.3824L5.52258 4.52393L26.1744 4.33623L24.2909 16.7552Z" fill="black" fill-opacity="0.2"/>
<path d="M26.9079 3.70109C26.8357 3.61596 26.7299 3.56698 26.6186 3.56698L5.29503 3.75468L4.56127 1.27462C4.51271 1.11154 4.36423 1 4.19566 1H1.38137C1.1706 1 1 1.17206 1 1.38462C1 1.59719 1.1706 1.76925 1.38137 1.76925H3.91141L8.54739 17.4373L8.54993 17.4424L9.1258 19.4179C8.76223 19.7822 8.53696 20.2866 8.53696 20.8428C8.53696 21.9531 9.43218 22.8564 10.5323 22.8564C11.5971 22.8564 12.4669 22.0082 12.5205 20.9459H17.5188C17.5186 20.96 17.5168 20.9738 17.5168 20.9882C17.5168 22.0974 18.4115 23 19.5111 23C20.6108 23 21.5057 22.0974 21.5057 20.9882C21.5057 19.8789 20.6108 18.9763 19.5111 18.9763C18.6978 18.9763 17.9978 19.4707 17.6879 20.1766H12.4117C12.3141 19.8958 12.1567 19.6376 11.9419 19.4209C11.5653 19.0412 11.065 18.8317 10.5331 18.8317C10.2715 18.8317 10.0215 18.884 9.79245 18.9768L9.42379 17.7119L24.6187 17.5242C24.8071 17.5242 24.9672 17.3855 24.9955 17.1978L26.9956 4.00956C27.0124 3.89879 26.9804 3.78622 26.9079 3.70109ZM19.5111 19.7458C20.1902 19.7458 20.743 20.3033 20.743 20.9884C20.743 21.6736 20.1902 22.231 19.5111 22.231C18.832 22.231 18.2795 21.6736 18.2795 20.9884C18.2795 20.3033 18.832 19.7458 19.5111 19.7458ZM10.5326 19.6012C10.8608 19.6012 11.1697 19.7304 11.4021 19.9651C11.6347 20.1997 11.7626 20.5117 11.7626 20.8433C11.7626 21.5295 11.2106 22.0877 10.5321 22.0877C9.85245 22.0877 9.29946 21.5295 9.29946 20.8433C9.29971 20.1584 9.8527 19.6012 10.5326 19.6012ZM24.2909 16.7552L9.19928 16.9429L8.47823 14.469C8.46908 14.4377 8.45535 14.4093 8.43959 14.3824L5.52258 4.52393L26.1744 4.33623L24.2909 16.7552Z" fill="black" fill-opacity="0.2"/>
<path d="M26.9079 3.70109C26.8357 3.61596 26.7299 3.56698 26.6186 3.56698L5.29503 3.75468L4.56127 1.27462C4.51271 1.11154 4.36423 1 4.19566 1H1.38137C1.1706 1 1 1.17206 1 1.38462C1 1.59719 1.1706 1.76925 1.38137 1.76925H3.91141L8.54739 17.4373L8.54993 17.4424L9.1258 19.4179C8.76223 19.7822 8.53696 20.2866 8.53696 20.8428C8.53696 21.9531 9.43218 22.8564 10.5323 22.8564C11.5971 22.8564 12.4669 22.0082 12.5205 20.9459H17.5188C17.5186 20.96 17.5168 20.9738 17.5168 20.9882C17.5168 22.0974 18.4115 23 19.5111 23C20.6108 23 21.5057 22.0974 21.5057 20.9882C21.5057 19.8789 20.6108 18.9763 19.5111 18.9763C18.6978 18.9763 17.9978 19.4707 17.6879 20.1766H12.4117C12.3141 19.8958 12.1567 19.6376 11.9419 19.4209C11.5653 19.0412 11.065 18.8317 10.5331 18.8317C10.2715 18.8317 10.0215 18.884 9.79245 18.9768L9.42379 17.7119L24.6187 17.5242C24.8071 17.5242 24.9672 17.3855 24.9955 17.1978L26.9956 4.00956C27.0124 3.89879 26.9804 3.78622 26.9079 3.70109ZM19.5111 19.7458C20.1902 19.7458 20.743 20.3033 20.743 20.9884C20.743 21.6736 20.1902 22.231 19.5111 22.231C18.832 22.231 18.2795 21.6736 18.2795 20.9884C18.2795 20.3033 18.832 19.7458 19.5111 19.7458ZM10.5326 19.6012C10.8608 19.6012 11.1697 19.7304 11.4021 19.9651C11.6347 20.1997 11.7626 20.5117 11.7626 20.8433C11.7626 21.5295 11.2106 22.0877 10.5321 22.0877C9.85245 22.0877 9.29946 21.5295 9.29946 20.8433C9.29971 20.1584 9.8527 19.6012 10.5326 19.6012ZM24.2909 16.7552L9.19928 16.9429L8.47823 14.469C8.46908 14.4377 8.45535 14.4093 8.43959 14.3824L5.52258 4.52393L26.1744 4.33623L24.2909 16.7552Z" stroke="black" stroke-width="0.2"/>
<path d="M26.9079 3.70109C26.8357 3.61596 26.7299 3.56698 26.6186 3.56698L5.29503 3.75468L4.56127 1.27462C4.51271 1.11154 4.36423 1 4.19566 1H1.38137C1.1706 1 1 1.17206 1 1.38462C1 1.59719 1.1706 1.76925 1.38137 1.76925H3.91141L8.54739 17.4373L8.54993 17.4424L9.1258 19.4179C8.76223 19.7822 8.53696 20.2866 8.53696 20.8428C8.53696 21.9531 9.43218 22.8564 10.5323 22.8564C11.5971 22.8564 12.4669 22.0082 12.5205 20.9459H17.5188C17.5186 20.96 17.5168 20.9738 17.5168 20.9882C17.5168 22.0974 18.4115 23 19.5111 23C20.6108 23 21.5057 22.0974 21.5057 20.9882C21.5057 19.8789 20.6108 18.9763 19.5111 18.9763C18.6978 18.9763 17.9978 19.4707 17.6879 20.1766H12.4117C12.3141 19.8958 12.1567 19.6376 11.9419 19.4209C11.5653 19.0412 11.065 18.8317 10.5331 18.8317C10.2715 18.8317 10.0215 18.884 9.79245 18.9768L9.42379 17.7119L24.6187 17.5242C24.8071 17.5242 24.9672 17.3855 24.9955 17.1978L26.9956 4.00956C27.0124 3.89879 26.9804 3.78622 26.9079 3.70109ZM19.5111 19.7458C20.1902 19.7458 20.743 20.3033 20.743 20.9884C20.743 21.6736 20.1902 22.231 19.5111 22.231C18.832 22.231 18.2795 21.6736 18.2795 20.9884C18.2795 20.3033 18.832 19.7458 19.5111 19.7458ZM10.5326 19.6012C10.8608 19.6012 11.1697 19.7304 11.4021 19.9651C11.6347 20.1997 11.7626 20.5117 11.7626 20.8433C11.7626 21.5295 11.2106 22.0877 10.5321 22.0877C9.85245 22.0877 9.29946 21.5295 9.29946 20.8433C9.29971 20.1584 9.8527 19.6012 10.5326 19.6012ZM24.2909 16.7552L9.19928 16.9429L8.47823 14.469C8.46908 14.4377 8.45535 14.4093 8.43959 14.3824L5.52258 4.52393L26.1744 4.33623L24.2909 16.7552Z" stroke="black" stroke-opacity="0.2" stroke-width="0.2"/>
<path d="M26.9079 3.70109C26.8357 3.61596 26.7299 3.56698 26.6186 3.56698L5.29503 3.75468L4.56127 1.27462C4.51271 1.11154 4.36423 1 4.19566 1H1.38137C1.1706 1 1 1.17206 1 1.38462C1 1.59719 1.1706 1.76925 1.38137 1.76925H3.91141L8.54739 17.4373L8.54993 17.4424L9.1258 19.4179C8.76223 19.7822 8.53696 20.2866 8.53696 20.8428C8.53696 21.9531 9.43218 22.8564 10.5323 22.8564C11.5971 22.8564 12.4669 22.0082 12.5205 20.9459H17.5188C17.5186 20.96 17.5168 20.9738 17.5168 20.9882C17.5168 22.0974 18.4115 23 19.5111 23C20.6108 23 21.5057 22.0974 21.5057 20.9882C21.5057 19.8789 20.6108 18.9763 19.5111 18.9763C18.6978 18.9763 17.9978 19.4707 17.6879 20.1766H12.4117C12.3141 19.8958 12.1567 19.6376 11.9419 19.4209C11.5653 19.0412 11.065 18.8317 10.5331 18.8317C10.2715 18.8317 10.0215 18.884 9.79245 18.9768L9.42379 17.7119L24.6187 17.5242C24.8071 17.5242 24.9672 17.3855 24.9955 17.1978L26.9956 4.00956C27.0124 3.89879 26.9804 3.78622 26.9079 3.70109ZM19.5111 19.7458C20.1902 19.7458 20.743 20.3033 20.743 20.9884C20.743 21.6736 20.1902 22.231 19.5111 22.231C18.832 22.231 18.2795 21.6736 18.2795 20.9884C18.2795 20.3033 18.832 19.7458 19.5111 19.7458ZM10.5326 19.6012C10.8608 19.6012 11.1697 19.7304 11.4021 19.9651C11.6347 20.1997 11.7626 20.5117 11.7626 20.8433C11.7626 21.5295 11.2106 22.0877 10.5321 22.0877C9.85245 22.0877 9.29946 21.5295 9.29946 20.8433C9.29971 20.1584 9.8527 19.6012 10.5326 19.6012ZM24.2909 16.7552L9.19928 16.9429L8.47823 14.469C8.46908 14.4377 8.45535 14.4093 8.43959 14.3824L5.52258 4.52393L26.1744 4.33623L24.2909 16.7552Z" stroke="black" stroke-opacity="0.2" stroke-width="0.2"/>
</svg>
