<svg width="189" height="77" viewBox="0 0 189 77" xmlns="http://www.w3.org/2000/svg">
<path d="M166.81 76.9417C168.324 76.9417 169.514 76.401 170.379 75.4278L169.514 74.5626C168.757 75.3196 167.892 75.7522 166.81 75.7522C164.647 75.7522 163.133 74.2382 163.133 72.0754C163.133 70.0207 164.756 68.3986 166.81 68.3986C167.892 68.3986 168.757 68.723 169.514 69.48L170.379 68.6149C169.514 67.6416 168.216 67.1009 166.81 67.1009C163.89 67.1009 161.728 69.1556 161.728 71.9673C161.836 74.8871 163.999 76.9417 166.81 76.9417ZM175.137 75.644V72.6161H179.895V71.4265H175.137V68.5067H180.436V67.3172H173.731V76.8336H180.652V75.644H175.137ZM156.861 76.8336H158.267V67.3172H156.861V76.8336ZM152.752 67.3172L149.291 75.1033L145.831 67.3172H144.317L148.534 76.8336H149.832L153.941 67.3172H152.752ZM138.153 72.8324H135.882V68.6149H138.153C139.883 68.6149 140.748 69.3719 140.748 70.7777C140.856 71.9672 139.883 72.8324 138.153 72.8324ZM142.37 76.8336L140.099 73.6975C141.397 73.2649 142.154 72.1835 142.154 70.6695C142.154 68.6149 140.64 67.3172 138.153 67.3172H134.476V76.8336H135.882V73.9138H138.261C138.477 73.9138 138.693 73.9138 138.91 73.9138L140.964 76.8336H142.37ZM125.284 75.644V72.6161H130.042V71.4265H125.284V68.5067H130.583V67.3172H123.878V76.8336H130.799V75.644H125.284ZM116.741 76.9417C119.228 76.9417 120.418 75.644 120.418 74.2382C120.418 70.7777 114.686 72.1835 114.686 69.9125C114.686 69.0474 115.335 68.3986 116.957 68.3986C117.822 68.3986 118.687 68.6149 119.552 69.1556L119.985 68.0742C119.228 67.5334 118.038 67.209 116.957 67.209C114.47 67.209 113.28 68.5067 113.28 69.9125C113.28 73.4812 119.012 71.9672 119.012 74.2382C119.012 75.1033 118.255 75.7522 116.633 75.7522C115.443 75.7522 114.253 75.3196 113.496 74.6708L112.956 75.7522C113.929 76.5092 115.335 76.9417 116.741 76.9417ZM101.385 76.8336H102.682V68.5067H105.927V67.3172H98.0323V68.5067H101.277V76.8336H101.385ZM91.9764 72.8324H89.7054V68.6149H91.9764C93.7066 68.6149 94.5718 69.3719 94.5718 70.7777C94.5718 71.9672 93.7066 72.8324 91.9764 72.8324ZM96.0857 76.8336L93.8148 73.6975C95.1125 73.2649 95.8695 72.1835 95.8695 70.6695C95.8695 68.6149 94.3555 67.3172 91.8682 67.3172H88.1914V76.8336H89.5973V73.9138H91.9764C92.1927 73.9138 92.409 73.9138 92.6252 73.9138L94.6799 76.8336H96.0857ZM79.1076 75.644V72.6161H83.8658V71.4265H79.1076V68.5067H84.4065V67.3172H77.7017V76.8336H84.6228V75.644H79.1076ZM70.24 72.8324H67.969V68.6149H70.24C71.9702 68.6149 72.8354 69.3719 72.8354 70.7777C72.8354 71.9672 71.9702 72.8324 70.24 72.8324ZM70.24 67.3172H66.5632V76.8336H67.969V73.9138H70.3481C72.8354 73.9138 74.3494 72.6161 74.3494 70.5614C74.2412 68.6148 72.7272 67.3172 70.24 67.3172ZM63.7515 76.8336L60.1828 71.9673L63.5352 67.4253H62.0212L59.4258 71.1021L56.7223 67.4253H55.2083L58.5607 72.0754L54.992 76.9417H56.506L59.3177 73.0487L62.1294 76.9417H63.7515V76.8336ZM47.0977 75.644V72.6161H51.8559V71.4265H47.0977V68.5067H52.3967V67.3172H45.6919V76.8336H52.6129V75.644H47.0977ZM34.4452 75.644V68.5067H37.0406C39.4197 68.5067 40.9337 69.9125 40.9337 72.0754C40.9337 74.2382 39.4197 75.644 37.0406 75.644H34.4452ZM33.0394 76.8336H37.0406C40.0686 76.8336 42.1232 74.887 42.1232 72.0754C42.1232 69.2637 40.0686 67.3172 37.0406 67.3172H33.0394V76.8336ZM23.8474 75.644V72.6161H28.6056V71.4265H23.8474V68.5067H29.1463V67.3172H22.4415V76.8336H29.3626V75.644H23.8474ZM18.1159 76.8336V67.3172H17.0344L13.1414 74.0219L9.14013 67.3172H8.05872V76.8336H9.35642V69.9125L12.8169 75.644H13.4658L16.9263 69.9125V76.8336H18.1159Z" />
<path d="M131.231 26.656C130.907 26.0072 130.474 25.3584 129.933 24.7095C128.744 23.52 127.23 22.9792 125.824 22.9792C124.31 22.9792 122.796 23.52 121.715 24.7095L117.605 28.8189L121.715 32.9283C122.904 34.1178 124.418 34.6585 125.824 34.6585C127.338 34.6585 128.852 34.1178 129.933 32.9283C130.474 32.3876 130.907 31.7387 131.231 30.9817C131.555 30.2247 131.664 29.4677 131.664 28.7108C131.772 28.0619 131.555 27.3049 131.231 26.656Z" />
<path d="M57.8031 5.46026C57.1543 4.05442 57.695 2.43228 59.1008 1.78343C60.5067 1.13458 62.1288 1.6753 62.7776 3.08114L87.2176 52.8261C87.8664 54.232 87.3257 55.8541 85.9199 56.5029C84.514 57.1518 82.8919 56.6111 82.2431 55.2053L57.8031 5.46026Z" />
<path d="M24.6041 5.46026C23.9553 4.05442 24.496 2.43228 25.9018 1.78343C27.3077 1.13458 28.9298 1.6753 29.5787 3.08114L54.0186 52.8261C54.6674 54.232 54.1267 55.8541 52.7209 56.5029C51.3151 57.1518 49.6929 56.6111 49.0441 55.2053L24.6041 5.46026Z" />
<path d="M10.7621 31.4142C11.411 30.0084 13.0331 29.4677 14.4389 30.1165C15.8448 30.7653 16.3855 32.3875 15.7366 33.7933L5.24692 55.3134C4.59808 56.7193 2.97595 57.26 1.57011 56.6111C0.164272 55.9623 -0.376431 54.3402 0.272417 52.9343L10.7621 31.4142Z" />
<path d="M94.8964 3.62191C94.8964 2.10794 96.086 0.918381 97.6 0.918381C99.1139 0.918381 100.303 2.10794 100.303 3.62191V54.0158C100.303 55.5298 99.1139 56.7193 97.6 56.7193C96.086 56.7193 94.8964 55.5298 94.8964 54.0158V3.62191Z" />
<path d="M130.907 0.918381C132.421 0.918381 133.611 2.10794 133.611 3.62191C133.611 5.13589 132.421 6.32545 130.907 6.32545H97.6C96.086 6.32545 94.8964 5.13589 94.8964 3.62191C94.8964 2.10794 96.086 0.918381 97.6 0.918381H130.907Z" />
<path d="M130.907 51.3122C132.421 51.3122 133.611 52.5018 133.611 54.0158C133.611 55.5297 132.421 56.7193 130.907 56.7193H97.6C96.086 56.7193 94.8964 55.5297 94.8964 54.0158C94.8964 52.5018 96.086 51.3122 97.6 51.3122H130.907Z" />
<path d="M146.912 16.2745C146.912 17.7884 145.722 18.978 144.208 18.978C142.694 18.978 141.505 17.7884 141.505 16.2745C141.505 12.057 143.235 8.16386 146.047 5.46033C148.859 2.64866 152.643 0.918381 156.861 0.918381H181.301C182.815 0.918381 184.004 2.10794 184.004 3.62191C184.004 5.13589 182.815 6.32545 181.301 6.32545H156.861C154.157 6.32545 151.67 7.40687 149.94 9.24528C147.993 11.0837 146.912 13.5709 146.912 16.2745Z" />
<path d="M146.155 56.8274C144.641 56.8274 143.451 55.6378 143.451 54.1239C143.451 52.6099 144.641 51.4203 146.155 51.4203H173.515C176.218 51.4203 178.705 50.3389 180.436 48.5005C182.274 46.6621 183.355 44.283 183.355 41.5795C183.355 38.8759 182.274 36.3887 180.436 34.6584C178.597 32.82 176.218 31.7386 173.515 31.7386H156.861C155.347 31.7386 154.157 30.549 154.157 29.0351C154.157 27.5211 155.347 26.3315 156.861 26.3315H173.515C177.732 26.3315 181.625 28.0618 184.329 30.8735C187.14 33.6852 188.871 37.4701 188.871 41.6876C188.871 45.9051 187.14 49.7982 184.329 52.5017C181.517 55.3134 177.732 57.0437 173.515 57.0437H146.155V56.8274Z" />
</svg>
