<svg width="26" height="23" viewBox="0 0 26 23" fill="none" xmlns="http://www.w3.org/2000/svg">
<path d="M2.0171 1.97809L2.01713 1.97806C3.18753 0.835199 4.81568 0.25 6.93527 0.25C7.50561 0.25 8.09094 0.348829 8.69164 0.548995L2.0171 1.97809ZM2.0171 1.97809C0.84783 3.11944 0.249781 4.712 0.249828 6.78995C0.249828 8.8354 1.30863 10.9513 3.49744 13.1403L12.5349 21.8444L12.535 21.8444L12.5383 21.8478C12.6645 21.9739 12.8133 22.0359 12.9999 22.0359C13.1865 22.0359 13.3353 21.974 13.4616 21.8477L13.4615 21.8477L13.4647 21.8446L22.5183 13.1101L22.5266 13.1021L22.5356 13.0949C22.6198 13.0275 22.744 12.9107 22.9115 12.7384C23.0714 12.5738 23.3334 12.2656 23.7009 11.8062M2.0171 1.97809L23.9827 1.97806M10.3741 1.36231L10.3742 1.36241C10.9064 1.71212 11.3613 2.03899 11.7411 2.34248C12.1207 2.64632 12.4815 2.96913 12.8231 3.31068L12.9999 3.48738L13.1766 3.31072C13.5184 2.96915 13.8791 2.64636 14.2587 2.34256C14.6382 2.0391 15.0934 1.71241 15.6257 1.36236L15.6257 1.36234C16.1439 1.0214 16.7046 0.750374 17.3084 0.549011L10.3741 1.36231ZM10.3741 1.36231C9.85636 1.02152 9.29556 0.750305 8.69166 0.549003L10.3741 1.36231ZM23.9827 1.97806L23.9827 1.97807C25.1519 3.11964 25.75 4.71237 25.75 6.79015C25.75 7.40862 25.6414 8.04975 25.4216 8.71375L25.4216 8.71379C25.1987 9.38765 24.9468 9.95521 24.6683 10.4193L24.6683 10.4193C24.3843 10.8927 24.0618 11.3551 23.7009 11.8062M23.9827 1.97806C22.8124 0.835346 21.1842 0.25 19.0648 0.25C18.4945 0.25 17.9092 0.348867 17.3085 0.548984L23.9827 1.97806ZM23.7009 11.8062L23.8961 11.9624M23.7009 11.8062L23.8961 11.9624M23.8961 11.9624C23.5285 12.4218 23.2599 12.7385 23.0908 12.9126L24.8827 10.5479C24.5926 11.0314 24.2637 11.5029 23.8961 11.9624ZM4.41118 12.1352L4.41121 12.1351L12.8264 20.2456L12.9999 20.4128L13.1734 20.2456L21.603 12.1205L21.6062 12.1173L21.6062 12.1173C23.4359 10.2881 24.3926 8.51077 24.3926 6.78995C24.3926 5.98499 24.2858 5.26468 24.067 4.63344L24.0669 4.6334C23.8512 4.01144 23.5703 3.50205 23.2169 3.11706L4.41118 12.1352ZM4.41118 12.1352L4.40794 12.1319M4.41118 12.1352L4.40794 12.1319M4.40794 12.1319C2.56888 10.2932 1.60711 8.51107 1.607 6.78997C1.607 5.98498 1.71379 5.26471 1.93239 4.63351L1.93243 4.6334C2.14818 4.0114 2.42922 3.50202 2.78255 3.11705C3.12963 2.73888 3.55017 2.43267 4.04107 2.19735L4.04114 2.19732C4.5233 1.96636 4.99976 1.80846 5.47033 1.72673L5.47036 1.72672C5.93101 1.64677 6.41915 1.60712 6.93487 1.60712C7.47872 1.60712 8.05411 1.74032 8.65765 1.99693C9.25688 2.25149 9.80943 2.57142 10.3149 2.95671L10.3151 2.95682C10.808 3.33309 11.233 3.68636 11.5886 4.01718L11.5886 4.01723C11.9415 4.34569 12.2388 4.64994 12.4787 4.92987L12.4788 4.92982L12.4824 4.93423C12.6044 5.08339 12.7673 5.16185 12.9998 5.16185C13.2324 5.16185 13.3954 5.08333 13.5172 4.93434L13.5171 4.93429L13.5209 4.92985C13.7609 4.64995 14.0579 4.34587 14.4108 4.01727L14.4109 4.01714C14.7667 3.68637 15.1916 3.33295 15.6848 2.95676L15.6848 2.95673M4.40794 12.1319L15.6848 2.95673M21.9584 2.19736L21.9583 2.1973C21.4759 1.96636 20.9995 1.80852 20.5291 1.72674L20.5291 1.72673C20.0686 1.64677 19.5803 1.60712 19.0645 1.60712C18.5207 1.60712 17.9454 1.74028 17.3417 1.99695L21.9584 2.19736ZM21.9584 2.19736C22.4492 2.43271 22.8697 2.73869 23.2169 3.11705L21.9584 2.19736ZM15.6848 2.95673C16.1902 2.57143 16.7428 2.25151 17.3417 1.99696L15.6848 2.95673Z" fill="black" stroke="white" stroke-width="0.5"/>
</svg>
