<svg width="19" height="27" viewBox="0 0 19 27" fill="none" xmlns="http://www.w3.org/2000/svg">
<path d="M9.40928 0C4.221 0 0 4.221 0 9.40928C0 11.1622 0.485571 12.8729 1.40454 14.3571L8.87368 26.3935C9.01676 26.6241 9.26882 26.7642 9.53991 26.7642C9.54201 26.7642 9.54404 26.7642 9.54614 26.7642C9.81958 26.762 10.0722 26.6176 10.2126 26.383L17.4914 14.23C18.3597 12.7772 18.8186 11.1102 18.8186 9.40928C18.8186 4.221 14.5976 0 9.40928 0ZM16.1456 13.4249L9.52805 24.4739L2.73742 13.5309C1.9725 12.2955 1.55776 10.8703 1.55776 9.40928C1.55776 5.08572 5.08572 1.55776 9.40928 1.55776C13.7328 1.55776 17.2556 5.08572 17.2556 9.40928C17.2556 10.827 16.8682 12.2158 16.1456 13.4249Z" fill="white"/>
<path d="M9.40923 4.70459C6.81509 4.70459 4.70459 6.81509 4.70459 9.40923C4.70459 11.9868 6.78075 14.1139 9.40923 14.1139C12.0701 14.1139 14.1139 11.9585 14.1139 9.40923C14.1139 6.81509 12.0034 4.70459 9.40923 4.70459ZM9.40923 12.5561C7.67076 12.5561 6.26235 11.143 6.26235 9.40923C6.26235 7.67981 7.67981 6.26235 9.40923 6.26235C11.1387 6.26235 12.5509 7.67981 12.5509 9.40923C12.5509 11.1177 11.1752 12.5561 9.40923 12.5561Z" fill="white"/>
</svg>
