<svg width="20" height="24" viewBox="0 0 20 24" fill="none" xmlns="http://www.w3.org/2000/svg">
<path d="M9.1024 22.6319C10.4148 23.3668 11.7074 23.7359 12.9114 23.7359C13.9194 23.7356 14.8653 23.4768 15.7072 22.9571L18.8104 21.0428C18.9223 20.9738 19.0022 20.8636 19.0326 20.7355C19.063 20.6077 19.0408 20.473 18.9718 20.3611L16.282 16.0016C16.213 15.89 16.1024 15.8101 15.9747 15.7798C15.8459 15.7497 15.7118 15.7715 15.6003 15.8405L12.4737 17.7703C11.9929 18.0668 11.3762 18.1615 10.7829 18.0311C10.1896 17.9004 9.68315 17.5564 9.39327 17.0862L5.1438 10.1994C4.52937 9.20367 4.83906 7.8936 5.83416 7.27918C5.83416 7.27918 5.83449 7.27917 5.83449 7.27884L9.07962 5.27544C9.31238 5.13182 9.38436 4.82676 9.24074 4.59399L6.5506 0.235569C6.40699 0.00280703 6.10159 -0.0701582 5.86916 0.0741212L2.62667 2.07554C-0.987248 4.3061 -0.860467 10.1615 2.9357 16.315C4.67596 19.1365 6.86624 21.3799 9.1024 22.6319ZM3.14733 2.91811L5.9682 1.17718L8.13834 4.69271L5.31449 6.43595C5.31383 6.43628 5.3135 6.43661 5.31317 6.43694C3.85453 7.3386 3.40023 9.25914 4.30123 10.7191L8.5507 17.6055C8.98024 18.3025 9.7165 18.81 10.5703 18.9982C11.4125 19.1827 12.2964 19.0431 12.994 18.6125L15.699 16.9429L17.8688 20.4591L15.1869 22.1135C13.2284 23.3219 11.0602 22.5923 9.58641 21.7672C7.49486 20.5958 5.43203 18.4749 3.77859 15.7946C0.288815 10.1377 0.0293104 4.8426 3.14733 2.91811Z" fill="white"/>
</svg>
