<svg width="31" height="25" viewBox="0 0 31 25" fill="none" xmlns="http://www.w3.org/2000/svg">
<path d="M21.7903 17.452C21.7886 17.452 21.7866 17.452 21.785 17.452C21.6137 17.4501 21.4557 17.3593 21.3679 17.2122L16.6965 9.36702C16.6834 9.34507 16.6723 9.32246 16.6628 9.29887C16.0803 8.34251 15.7729 7.24658 15.7729 6.12313C15.7788 2.74491 18.5297 0 21.9062 0C21.9089 0 21.9112 0 21.9138 0C23.5529 0.00229343 25.0918 0.642488 26.247 1.80231C27.4016 2.96115 28.0359 4.50168 28.0336 6.13951C28.0336 7.24625 27.7276 8.33629 27.1477 9.29855C27.1366 9.33 27.1218 9.36014 27.1038 9.3893L22.2073 17.2214C22.1169 17.3645 21.9593 17.452 21.7903 17.452ZM17.5864 8.94012L21.8004 16.0173L26.2156 8.95519C26.2267 8.92505 26.2408 8.89556 26.2582 8.86771C26.7765 8.03978 27.0504 7.0962 27.0504 6.13918C27.0504 6.13886 27.0504 6.13886 27.0504 6.13853C27.0527 4.76247 26.52 3.46898 25.5505 2.49558C24.5807 1.52218 23.2885 0.984864 21.9125 0.982571C21.9105 0.982571 21.9082 0.982571 21.9059 0.982571C19.0702 0.982571 16.7604 3.28747 16.7558 6.12379C16.7558 7.09161 17.0281 8.03585 17.5428 8.85362C17.5605 8.88082 17.5749 8.90998 17.5864 8.94012Z" fill="white"/>
<path d="M21.9082 8.42522C21.9065 8.42522 21.9049 8.42522 21.9029 8.42522C21.211 8.42522 20.5593 8.15492 20.0695 7.66413C19.579 7.17268 19.3097 6.52003 19.311 5.82578C19.3117 5.13382 19.5823 4.48281 20.0731 3.99333C20.5633 3.50483 21.2139 3.23584 21.9062 3.23584C21.9069 3.23584 21.9079 3.23584 21.9088 3.23584C23.339 3.23748 24.5017 4.4032 24.5004 5.83462C24.4998 6.52757 24.2291 7.1789 23.7383 7.66838C23.2485 8.15656 22.5988 8.42522 21.9082 8.42522ZM21.9059 4.21874C21.476 4.21874 21.0714 4.38583 20.767 4.68955C20.4623 4.99326 20.2943 5.39756 20.2939 5.82742C20.2933 6.25891 20.4607 6.66452 20.7654 6.96987C21.0694 7.27457 21.4741 7.44232 21.9039 7.44232C21.9049 7.44232 21.9059 7.44232 21.9072 7.44232C22.3371 7.44232 22.7404 7.27555 23.0444 6.97249C23.3491 6.66878 23.5172 6.26415 23.5175 5.83397C23.5182 4.94477 22.7961 4.22005 21.9075 4.21907C21.9072 4.21874 21.9065 4.21874 21.9059 4.21874ZM24.009 5.8343H24.0122H24.009Z" fill="white"/>
<path d="M29.9318 24.4237H0.491337C0.32621 24.4237 0.172222 24.3408 0.0811403 24.2029C-0.00961398 24.0653 -0.0253404 23.891 0.0395309 23.7389L5.39469 11.2096C5.47201 11.0288 5.64992 10.9111 5.84649 10.9111H18.4826C18.7542 10.9111 18.9741 11.131 18.9741 11.4026C18.9741 11.6742 18.7542 11.894 18.4826 11.894H6.17085L1.23572 23.4405H29.1871L24.4043 12.2518C24.2975 12.0021 24.4134 11.7135 24.6631 11.6067C24.9118 11.5002 25.2014 11.6155 25.3082 11.8655L30.3836 23.7386C30.4484 23.8906 30.4327 24.0649 30.342 24.2025C30.2509 24.3408 30.0969 24.4237 29.9318 24.4237Z" fill="white"/>
<path d="M21.8486 24.3353C21.6022 24.3353 21.3896 24.1505 21.3611 23.8995C21.3581 23.8753 21.0443 21.4573 17.6588 20.883C17.344 20.8296 16.8417 20.7808 16.2598 20.7247C13.0559 20.4148 10.1334 20.0125 9.56991 18.5142C9.20624 17.5477 9.73766 16.8108 10.1642 16.2188C10.6314 15.5708 10.7854 15.2877 10.5469 14.8811C10.3959 14.6236 9.91491 14.4139 9.44967 14.2111C8.53885 13.814 7.29123 13.2701 7.28467 11.7794C7.28336 11.5078 7.50255 11.287 7.77383 11.2856C7.77448 11.2856 7.77547 11.2856 7.77612 11.2856C8.04675 11.2856 8.26626 11.5042 8.26757 11.7748C8.27118 12.5677 8.86517 12.8838 9.84283 13.3101C10.4522 13.5758 11.0823 13.8504 11.3952 14.3841C11.98 15.3814 11.3916 16.1978 10.962 16.7938C10.559 17.3527 10.3205 17.7181 10.4902 18.1682C10.885 19.2176 14.5794 19.5748 16.3549 19.7468C16.9554 19.8048 17.4741 19.8549 17.8233 19.9142C21.9292 20.6111 22.323 23.659 22.3378 23.7884C22.3686 24.0581 22.1749 24.3015 21.9053 24.3323C21.8863 24.3343 21.8673 24.3353 21.8486 24.3353Z" fill="white"/>
</svg>
