<svg width="22" height="24" viewBox="0 0 22 24" fill="none" xmlns="http://www.w3.org/2000/svg">
<path d="M21.9979 7.08896C21.9979 7.08738 21.9973 7.0858 21.9973 7.0839C21.997 7.06491 21.9942 7.04624 21.9918 7.02725C21.9903 7.0146 21.99 7.00162 21.9872 6.98896C21.9845 6.97662 21.9796 6.96428 21.9763 6.95194C21.9711 6.9339 21.9663 6.91555 21.959 6.89814C21.9584 6.89656 21.9581 6.89498 21.9575 6.8934C20.0877 2.57711 16.1853 0 11.5189 0C5.16748 0 0 5.38333 0 12.0002C0 18.617 5.16748 24 11.5189 24C13.9321 24 16.243 23.2304 18.2009 21.7751C18.4059 21.6232 18.4533 21.3264 18.3072 21.1131C18.1614 20.8995 17.8762 20.8501 17.6717 21.0023C15.8688 22.3422 13.7414 23.0507 11.5189 23.0507C5.66987 23.0507 0.911212 18.0933 0.911212 12.0002C0.911212 5.90673 5.66987 0.94933 11.5189 0.94933C15.8493 0.94933 19.3298 3.22709 21.0867 7.19908L21.0888 13.6001C21.0888 15.0117 19.9865 16.1604 18.6319 16.1604C17.31 16.1604 16.1069 14.9019 16.0598 13.4976C16.1977 13.0232 16.2736 12.5207 16.2736 12.0002C16.2736 9.14647 14.0451 6.82505 11.3063 6.82505C8.56752 6.82505 6.339 9.14647 6.339 12.0002C6.339 14.8538 8.56721 17.1753 11.3063 17.1753C13.0322 17.1753 14.5539 16.2525 15.4444 14.857C15.9978 16.1551 17.2511 17.1098 18.6319 17.1098C20.4889 17.1098 22 15.5351 22 13.5998L21.9979 7.08896ZM11.3063 16.2259C9.0699 16.2259 7.25021 14.3304 7.25021 12.0002C7.25021 9.67019 9.0699 7.77438 11.3063 7.77438C13.5427 7.77438 15.3624 9.67019 15.3624 12.0002C15.3624 12.4188 15.3017 12.8226 15.1923 13.2049C15.1732 13.2457 15.1592 13.289 15.1516 13.3352C14.6137 15.0124 13.0947 16.2259 11.3063 16.2259Z" fill="white"/>
</svg>
