<svg width="37" height="26" viewBox="0 0 37 26" fill="none" xmlns="http://www.w3.org/2000/svg">
<path d="M35.5367 19.7318H34.9513V13.2927C34.9498 11.896 34.3942 10.5568 33.4066 9.56917C32.4189 8.58151 31.0798 8.02596 29.683 8.02441H25.5854V1.58537C25.5854 1.43012 25.5238 1.28123 25.414 1.17145C25.3042 1.06167 25.1553 1 25.0001 1H1.58537C1.43012 1 1.28123 1.06167 1.17145 1.17145C1.06167 1.28123 1 1.43012 1 1.58537V20.3171C1 20.4724 1.06167 20.6213 1.17145 20.731C1.28123 20.8408 1.43012 20.9025 1.58537 20.9025H2.17074V21.4879C2.17074 21.9536 2.35575 22.4003 2.68509 22.7296C3.01442 23.0589 3.46109 23.244 3.92684 23.244H6.74363C7.05085 23.7777 7.49334 24.2211 8.02649 24.5294C8.55965 24.8377 9.16464 25 9.78051 25C10.3964 25 11.0014 24.8377 11.5345 24.5294C12.0677 24.2211 12.5102 23.7777 12.8174 23.244H26.6461C26.9534 23.7777 27.3958 24.2211 27.929 24.5294C28.4621 24.8377 29.0671 25 29.683 25C30.2989 25 30.9039 24.8377 31.437 24.5294C31.9702 24.2211 32.4127 23.7777 32.7199 23.244H34.366C34.8317 23.244 35.2784 23.0589 35.6077 22.7296C35.937 22.4003 36.1221 21.9536 36.1221 21.4879V20.3171C36.1221 20.1619 36.0604 20.013 35.9506 19.9032C35.8408 19.7934 35.6919 19.7318 35.5367 19.7318ZM33.7806 13.2927V14.4635H28.5123C28.357 14.4635 28.2081 14.4018 28.0984 14.292C27.9886 14.1822 27.9269 14.0333 27.9269 13.8781V9.19514H29.683C30.7694 9.19638 31.8109 9.62849 32.5791 10.3967C33.3472 11.1648 33.7793 12.2064 33.7806 13.2927ZM26.7562 9.19514V13.8781C26.7562 14.3438 26.9412 14.7905 27.2705 15.1198C27.5999 15.4492 28.0465 15.6342 28.5123 15.6342H33.7806V19.7318H32.7199C32.4127 19.198 31.9702 18.7546 31.437 18.4463C30.9039 18.138 30.2989 17.9757 29.683 17.9757C29.0671 17.9757 28.4621 18.138 27.929 18.4463C27.3958 18.7546 26.9534 19.198 26.6461 19.7318H25.5854V9.19514H26.7562ZM12.8174 19.7318C12.5102 19.198 12.0677 18.7546 11.5345 18.4463C11.0014 18.138 10.3964 17.9757 9.78051 17.9757C9.16464 17.9757 8.55965 18.138 8.02649 18.4463C7.49334 18.7546 7.05085 19.198 6.74363 19.7318H2.17074V17.3903H24.4147V19.7318H12.8174ZM2.17074 2.17073H24.4147V16.2196H2.17074V2.17073ZM3.92684 22.0732C3.77159 22.0732 3.6227 22.0116 3.51292 21.9018C3.40314 21.792 3.34147 21.6431 3.34147 21.4879V20.9025H6.32099C6.25074 21.2896 6.25074 21.6861 6.32099 22.0732H3.92684ZM9.78051 23.8293C9.31741 23.8293 8.86472 23.692 8.47966 23.4347C8.09461 23.1774 7.7945 22.8118 7.61728 22.3839C7.44006 21.9561 7.39369 21.4853 7.48403 21.0311C7.57438 20.5769 7.79738 20.1597 8.12484 19.8322C8.4523 19.5047 8.86951 19.2817 9.32372 19.1914C9.77792 19.101 10.2487 19.1474 10.6766 19.3246C11.1044 19.5018 11.4701 19.802 11.7274 20.187C11.9847 20.5721 12.122 21.0248 12.122 21.4879C12.122 22.1089 11.8753 22.7044 11.4362 23.1435C10.9971 23.5826 10.4015 23.8293 9.78051 23.8293ZM13.24 22.0732C13.3103 21.6861 13.3103 21.2896 13.24 20.9025H26.2235C26.1532 21.2896 26.1532 21.6861 26.2235 22.0732H13.24ZM29.683 23.8293C29.2199 23.8293 28.7672 23.692 28.3822 23.4347C27.9971 23.1774 27.697 22.8118 27.5198 22.3839C27.3426 21.9561 27.2962 21.4853 27.3865 21.0311C27.4769 20.5769 27.6999 20.1597 28.0273 19.8322C28.3548 19.5047 28.772 19.2817 29.2262 19.1914C29.6804 19.101 30.1512 19.1474 30.5791 19.3246C31.0069 19.5018 31.3726 19.802 31.6299 20.187C31.8872 20.5721 32.0245 21.0248 32.0245 21.4879C32.0245 22.1089 31.7778 22.7044 31.3387 23.1435C30.8996 23.5826 30.304 23.8293 29.683 23.8293ZM34.9513 21.4879C34.9513 21.6431 34.8896 21.792 34.7799 21.9018C34.6701 22.0116 34.5212 22.0732 34.366 22.0732H33.1425C33.2128 21.6861 33.2128 21.2896 33.1425 20.9025H34.9513V21.4879Z" fill="white" stroke="#00A3E0" stroke-width="0.3"/>
<path d="M22.6589 12.1221H3.92716C3.77192 12.1221 3.62302 12.1837 3.51325 12.2935C3.40347 12.4033 3.3418 12.5522 3.3418 12.7074C3.3418 12.8627 3.40347 13.0116 3.51325 13.1214C3.62302 13.2311 3.77192 13.2928 3.92716 13.2928H22.6589C22.8142 13.2928 22.9631 13.2311 23.0728 13.1214C23.1826 13.0116 23.2443 12.8627 23.2443 12.7074C23.2443 12.5522 23.1826 12.4033 23.0728 12.2935C22.9631 12.1837 22.8142 12.1221 22.6589 12.1221Z" fill="white" stroke="#00A3E0" stroke-width="0.3"/>
</svg>
