<svg width="103" height="68" viewBox="0 0 103 68" fill="none" xmlns="http://www.w3.org/2000/svg">
<path d="M101.315 33.5831H92.6065V18.5035C92.6065 17.5488 91.8523 16.776 90.9229 16.776H63.6473V1.72747C63.6473 0.772753 62.893 0 61.9637 0H1.68361C0.753136 0 0 0.772753 0 1.72747V58.3711C0 59.3247 0.753136 60.0986 1.68361 60.0986H15.7564C16.34 64.552 20.0574 68 24.5538 68C29.0502 68 32.7676 64.552 33.3512 60.0986H61.9637H72.8353C73.4189 64.552 77.1386 68 81.6395 68C86.1403 68 89.86 64.552 90.4447 60.0986H101.316C102.246 60.0986 103 59.3247 103 58.3711V35.3106C102.999 34.3559 102.245 33.5831 101.315 33.5831ZM24.5538 64.5451C21.5109 64.5451 19.0349 62.0034 19.0349 58.879C19.0349 55.7546 21.5109 53.2129 24.5538 53.2129C27.5966 53.2129 30.0727 55.7546 30.0727 58.879C30.0727 62.0034 27.5978 64.5451 24.5538 64.5451ZM24.5538 49.7579C20.4065 49.7579 16.9248 52.6935 15.9494 56.6436H3.36722V3.45493H60.28V18.5035V35.3106V56.6425H33.1593C32.1839 52.6935 28.7011 49.7579 24.5538 49.7579ZM81.6395 64.5451C78.5921 64.5451 76.1139 62.0034 76.1139 58.879C76.1139 55.7546 78.5921 53.2129 81.6395 53.2129C84.6868 53.2129 87.1662 55.7546 87.1662 58.879C87.1662 62.0034 84.6857 64.5451 81.6395 64.5451ZM99.6317 56.6425H90.2517C89.2752 52.6923 85.7901 49.7568 81.6395 49.7568C77.4888 49.7568 74.0037 52.6923 73.0283 56.6425H63.6484V35.3106V20.2309H89.2404V35.3106C89.2404 36.2641 89.9947 37.038 90.924 37.038H99.6328V56.6425H99.6317Z" fill="url(#paint0_angular)"/>
<defs>
<radialGradient id="paint0_angular" cx="0" cy="0" r="1" gradientUnits="userSpaceOnUse" gradientTransform="translate(51.5 34) rotate(90) scale(34 51.5)">
<stop offset="0.336458" stop-color="#8DD4EE"/>
<stop offset="0.680208" stop-color="#FF8A00"/>
</radialGradient>
</defs>
</svg>
