<svg width="98" height="100" viewBox="0 0 98 100" fill="none" xmlns="http://www.w3.org/2000/svg">
<path d="M64.13 36.6425L31.6894 62.7382C31.0449 63.2818 30.8301 64.3692 31.4746 65.0215C31.7969 65.4565 32.2265 65.6739 32.7636 65.6739C33.0859 65.6739 33.5156 65.5652 33.7304 65.3477L66.1709 39.2521C66.8155 38.7084 67.0303 37.6211 66.3858 36.9687C65.8487 36.2076 64.8819 36.0989 64.13 36.6425Z" fill="url(#paint0_angular)"/>
<path d="M40.3895 48.277C40.8192 48.277 41.2488 48.277 41.6785 48.1682C46.0827 47.5158 49.1978 43.2753 48.4459 38.7085C48.1237 36.5339 46.942 34.5767 45.2233 33.2719C43.5046 31.9672 41.3563 31.4235 39.2079 31.7497C37.0595 32.0759 35.126 33.2719 33.8369 35.0117C32.5479 36.7514 32.0108 38.926 32.3331 41.1006C32.9776 45.3412 36.5224 48.277 40.3895 48.277ZM39.6375 35.1204C39.8524 35.1204 40.1746 35.0117 40.3895 35.0117C42.7527 35.0117 44.9011 36.7514 45.2233 39.2522C45.653 41.9705 43.8269 44.4713 41.1414 44.9063C38.4559 45.3412 35.9853 43.4928 35.5556 40.7745C35.1259 38.0562 37.0595 35.5553 39.6375 35.1204Z" fill="url(#paint1_angular)"/>
<path d="M57.5764 53.7134C53.0648 53.7134 49.4126 57.4103 49.4126 61.977C49.4126 66.5437 53.0648 70.2406 57.5764 70.2406C62.088 70.2406 65.7403 66.5437 65.7403 61.977C65.6329 57.4103 61.9806 53.7134 57.5764 53.7134ZM57.5764 66.8699C54.891 66.8699 52.6352 64.5866 52.6352 61.8683C52.6352 59.15 54.891 56.8666 57.5764 56.8666C60.2619 56.8666 62.5177 59.15 62.5177 61.8683C62.4103 64.6953 60.2619 66.8699 57.5764 66.8699Z" fill="url(#paint2_angular)"/>
<path d="M97.7513 49.9079C97.7513 49.7992 97.8587 49.5818 97.8587 49.473C97.8587 44.7975 93.0249 42.4054 88.8355 40.3395C85.8278 38.8173 82.6052 37.1863 81.7459 35.2291C80.8865 33.1632 82.0681 29.7925 83.2497 26.6393C84.861 22.1813 86.4723 17.6146 83.4646 14.5701C80.4568 11.5256 76.1601 12.6129 71.8633 13.5915C68.8556 14.2439 65.7404 15.005 63.6995 14.1351C61.6585 13.2653 59.9398 10.547 58.3285 7.93743C55.9653 4.24054 53.3873 0 48.8757 0C44.3641 0 41.786 4.24054 39.5302 8.04616C37.9189 10.7645 36.3076 13.4828 34.2667 14.3526C32.2257 15.2225 29.0031 14.4613 25.9954 13.7002C21.6986 12.6129 17.2945 11.5256 14.3941 14.4613C11.3864 17.5058 12.8903 22.0726 14.2867 26.5306C15.3609 29.7925 16.3277 33.0545 15.4683 35.2291C14.609 37.295 11.6013 38.8173 8.70094 40.3395C4.61902 42.5142 0 44.9063 0 49.473C0 49.5818 -1.04043e-07 49.7992 0.107419 49.9079C0.107419 50.0167 0 50.2341 0 50.3429C0 54.9096 4.61902 57.4104 8.70094 59.4764C11.6013 60.9986 14.609 62.5208 15.4683 64.5868C16.3277 66.6527 15.2535 70.0234 14.2867 73.2853C12.8903 77.7433 11.3864 82.3101 14.3941 85.3546C17.4019 88.399 21.8061 87.203 25.9954 86.1157C29.0031 85.3545 32.2257 84.5934 34.2667 85.4633C36.3076 86.3331 37.9189 89.0514 39.5302 91.7697C41.786 95.5754 44.3641 99.8159 48.8757 99.8159C53.3873 99.8159 56.0727 95.5754 58.3285 91.8785C59.9398 89.2689 61.6585 86.5506 63.6995 85.6807C65.8479 84.8109 68.8556 85.4633 71.8633 86.2244C76.0527 87.203 80.4568 88.2903 83.4646 85.2458C86.4723 82.2013 84.861 77.6346 83.2497 73.1766C82.0681 69.9146 80.8865 66.6527 81.7459 64.5868C82.6052 62.5208 85.7204 60.9986 88.8355 59.4764C93.0249 57.3017 97.8587 54.9096 97.8587 50.3429C97.8587 50.1254 97.7513 50.0167 97.7513 49.9079ZM87.3317 56.5406C83.7868 58.389 80.0272 60.2375 78.7381 63.3907C77.3417 66.6527 78.8456 70.567 80.1346 74.3726C81.4236 77.9608 82.7126 81.4402 81.1014 82.9624C79.3827 84.7022 76.0527 83.941 72.5078 83.0712C68.963 82.2013 65.4182 81.4402 62.303 82.745C59.2953 84.0498 57.3618 87.0943 55.5356 90.1388C53.4947 93.4007 51.5611 96.5539 48.7682 96.5539C46.0828 96.5539 44.1492 93.4007 42.1083 90.03C40.2821 86.8768 38.3486 83.7236 35.3409 82.4188C32.2257 81.114 28.5735 81.9839 25.0286 82.9624C21.4838 83.8323 18.1538 84.7022 16.4351 83.0712C14.8238 81.4402 15.898 77.9608 17.0796 74.3726C18.2612 70.567 19.5503 66.6527 18.1538 63.4994C16.8648 60.3462 13.32 58.4978 9.88255 56.7581C6.33772 54.9096 3.00773 53.1699 3.00773 50.4516C3.00773 50.3429 3.00773 50.1254 2.90031 50.0167C2.90031 49.9079 3.00773 49.6905 3.00773 49.5818C3.00773 46.9722 6.33772 45.2325 9.88255 43.2753C13.32 41.5356 16.8648 39.6871 18.1538 36.5339C19.4428 33.272 18.2612 29.3576 17.0796 25.6607C15.898 21.9638 14.8238 18.4844 16.4351 16.9622C18.1538 15.2225 21.4838 16.0923 25.0286 17.0709C28.5735 17.9408 32.2257 18.9194 35.3409 17.6146C38.3486 16.3098 40.2821 13.1566 42.1083 10.0033C44.1492 6.63265 45.9753 3.47942 48.7682 3.47942C51.5611 3.47942 53.4947 6.63265 55.5356 9.8946C57.4692 12.9391 59.4027 15.9836 62.303 17.2884C65.4182 18.5932 68.963 17.7233 72.5078 16.9622C76.0527 16.0923 79.3827 15.3312 81.1014 17.0709C82.7126 18.5932 81.4236 22.0726 80.1346 25.6607C78.7381 29.4663 77.3417 33.3807 78.7381 36.6427C80.0272 39.7959 83.7868 41.6443 87.3317 43.4928C91.0913 45.3412 94.5287 47.1896 94.5287 49.7992C94.5287 49.9079 94.5287 50.1254 94.6362 50.2341C94.6362 50.3429 94.5287 50.5603 94.5287 50.6691C94.6362 52.8437 91.0913 54.6922 87.3317 56.5406Z" fill="url(#paint3_angular)"/>
<defs>
<radialGradient id="paint0_angular" cx="0" cy="0" r="1" gradientUnits="userSpaceOnUse" gradientTransform="translate(48.9302 50.9883) rotate(90) scale(14.6856 17.8447)">
<stop offset="0.336458" stop-color="#8DD4EE"/>
<stop offset="0.680208" stop-color="#FF8A00"/>
</radialGradient>
<radialGradient id="paint1_angular" cx="0" cy="0" r="1" gradientUnits="userSpaceOnUse" gradientTransform="translate(40.3999 39.9671) rotate(90) scale(8.30986 8.15818)">
<stop offset="0.336458" stop-color="#8DD4EE"/>
<stop offset="0.680208" stop-color="#FF8A00"/>
</radialGradient>
<radialGradient id="paint2_angular" cx="0" cy="0" r="1" gradientUnits="userSpaceOnUse" gradientTransform="translate(57.5764 61.977) rotate(90) scale(8.26363 8.16384)">
<stop offset="0.336458" stop-color="#8DD4EE"/>
<stop offset="0.680208" stop-color="#FF8A00"/>
</radialGradient>
<radialGradient id="paint3_angular" cx="0" cy="0" r="1" gradientUnits="userSpaceOnUse" gradientTransform="translate(48.9294 49.9079) rotate(90) scale(49.9079 48.9294)">
<stop offset="0.336458" stop-color="#8DD4EE"/>
<stop offset="0.680208" stop-color="#FF8A00"/>
</radialGradient>
</defs>
</svg>
