<svg width="93" height="91" viewBox="0 0 93 91" fill="none" xmlns="http://www.w3.org/2000/svg">
<path d="M91.0006 72.3393C91.8442 72.3393 92.5281 71.6638 92.5281 70.8307V64.7962C92.5281 63.9631 91.8442 63.2876 91.0006 63.2876H5.46229C2.93168 63.2876 0.879883 65.3141 0.879883 67.8134V85.9168C0.879883 88.4162 2.93168 90.4426 5.46229 90.4426H91.0006C91.8442 90.4426 92.5281 89.7671 92.5281 88.934V82.8996C92.5281 82.0664 91.8442 81.3909 91.0006 81.3909C88.47 81.3909 86.4182 79.3645 86.4182 76.8651C86.4182 74.3657 88.47 72.3393 91.0006 72.3393ZM89.4732 69.322H10.0447V66.3048H89.4732V69.322ZM3.93482 85.9168V67.8134C3.93482 66.9803 4.61875 66.3048 5.46229 66.3048H6.98976V87.4254H5.46229C4.61875 87.4254 3.93482 86.7499 3.93482 85.9168ZM89.4732 87.4254H10.0447V84.4082H89.4732V87.4254ZM10.0447 81.3909V72.3393H84.9303C84.2359 73.2276 83.7534 74.2589 83.5177 75.3565H16.1546V78.3737H83.5162C83.7519 79.4713 84.2344 80.5026 84.9288 81.3909H10.0447Z" fill="url(#paint0_angular)"/>
<path d="M6.19532 17.0746L15.8109 20.0185V54.9852C15.8109 55.8212 16.4948 56.4989 17.3384 56.4989H75.3838C76.2273 56.4989 76.9113 55.8212 76.9113 54.9852V20.0185L84.5488 17.6829V27.219L80.4243 31.1991L82.5634 33.3662L84.5488 31.4437V33.7934H87.6039V31.511L89.5192 33.409L91.6792 31.2686L87.6039 27.2286V15.6289C87.6046 14.9844 87.1929 14.4101 86.5791 14.1987L46.8638 0.575404C46.5401 0.463798 46.188 0.463798 45.8643 0.575404L6.14908 14.1987C5.52554 14.4131 5.11159 14.9999 5.12278 15.6541C5.13397 16.3082 5.56806 16.881 6.1983 17.0746H6.19532ZM73.8563 53.4715H18.8659V21.0525L45.8435 30.6751C46.1776 30.7978 46.5446 30.7978 46.8787 30.6751L73.8563 21.0525V53.4715ZM46.3611 3.60873L81.1671 15.5454L46.3611 27.6447L11.5565 15.5454L46.3611 3.60873Z" fill="url(#paint1_angular)"/>
<defs>
<radialGradient id="paint0_angular" cx="0" cy="0" r="1" gradientUnits="userSpaceOnUse" gradientTransform="translate(46.704 76.8651) rotate(90) scale(13.5775 45.8241)">
<stop offset="0.336458" stop-color="#8DD4EE"/>
<stop offset="0.680208" stop-color="#FF8A00"/>
</radialGradient>
<radialGradient id="paint1_angular" cx="0" cy="0" r="1" gradientUnits="userSpaceOnUse" gradientTransform="translate(48.4009 28.4953) rotate(90) scale(28.0036 43.2783)">
<stop offset="0.336458" stop-color="#8DD4EE"/>
<stop offset="0.680208" stop-color="#FF8A00"/>
</radialGradient>
</defs>
</svg>
