<svg width="81" height="70" viewBox="0 0 81 70" fill="none" xmlns="http://www.w3.org/2000/svg">
<path d="M78.7226 28.2919H72.3415V19.9506C72.3415 19.1822 71.7187 18.5603 70.9513 18.5603H62.9853C62.6294 14.4527 57.6682 11.612 52.5939 11.1644V1.3911C52.5939 1.01852 52.4438 0.660774 52.1787 0.399412C51.9118 0.138051 51.5383 -0.0130194 51.1796 0.000882788C40.7715 0.181611 34.0002 3.67292 31.0362 10.384C24.5615 10.6935 17.501 14.1255 17.0293 18.5613H9.16248C8.39415 18.5613 7.77226 19.1831 7.77226 19.9515V28.2928H1.39022C0.621892 28.2928 0 28.9147 0 29.683V54.3724C0 62.7944 6.85286 69.6463 15.2767 69.6463H64.8399C73.2609 69.6463 80.1129 62.7934 80.1129 54.3724V29.6821C80.1129 28.9147 79.49 28.2919 78.7226 28.2919ZM31.9769 13.1412C32.5553 13.1412 33.0733 12.7835 33.2772 12.2422C35.471 6.43668 41.031 3.27346 49.8125 2.82859V12.4851C49.8125 13.2534 50.4354 13.8753 51.2028 13.8753C55.5755 13.8753 59.7192 16.0922 60.1938 18.5594H19.8329C20.4798 16.2553 25.6718 13.1412 31.9769 13.1412ZM10.5508 21.3408H69.5611V28.2919H10.5508V21.3408ZM77.3324 54.3715C77.3324 61.2614 71.728 66.8649 64.8399 66.8649H15.2767C8.38581 66.8649 2.78044 61.2605 2.78044 54.3715V31.0723H9.13375C9.14302 31.0723 9.15136 31.0751 9.16063 31.0751C9.1699 31.0751 9.17824 31.0723 9.1875 31.0723H70.9244C70.9337 31.0723 70.942 31.0751 70.9513 31.0751C70.9606 31.0751 70.9689 31.0723 70.9782 31.0723H77.3324V54.3715Z" fill="url(#paint0_linear)"/>
<path d="M19.5457 59.733C14.5854 59.733 10.551 55.6976 10.551 50.7392V35.9954C10.551 35.2271 9.92906 34.6052 9.16073 34.6052C8.3924 34.6052 7.77051 35.2271 7.77051 35.9954V50.7392C7.77051 57.2315 13.0533 62.5134 19.5457 62.5134C20.314 62.5134 20.9359 61.8906 20.9359 61.1232C20.9359 60.3558 20.314 59.733 19.5457 59.733Z" fill="url(#paint1_linear)"/>
<defs>
<linearGradient id="paint0_linear" x1="40.0564" y1="0" x2="40.0564" y2="69.6463" gradientUnits="userSpaceOnUse">
<stop offset="0.180208" stop-color="#FFE2BF"/>
<stop offset="0.451042" stop-color="#00A3E0"/>
<stop offset="0.70625" stop-color="#00A3E0"/>
</linearGradient>
<linearGradient id="paint1_linear" x1="14.3532" y1="34.6052" x2="14.3532" y2="62.5134" gradientUnits="userSpaceOnUse">
<stop offset="0.180208" stop-color="#FFE2BF"/>
<stop offset="0.451042" stop-color="#00A3E0"/>
<stop offset="0.70625" stop-color="#00A3E0"/>
</linearGradient>
</defs>
</svg>
