<svg width="79" height="87" viewBox="0 0 79 87" fill="none" xmlns="http://www.w3.org/2000/svg">
<path d="M78.4117 48.446L67.3913 35.4935C68.1054 32.4579 70.0818 21.7332 64.9131 12.92C61.7034 7.44529 56.3709 3.79758 49.0662 2.07883C21.9629 -4.29436 8.62707 8.14804 5.36268 15.6166C2.38577 22.4164 -0.368558 33.3327 1.66448 41.7194C2.96694 47.1023 5.8037 50.8654 8.30558 54.1855C11.1176 57.9156 13.5453 61.1367 13.5453 65.9457V85.0705C13.5453 85.9247 14.2367 86.6161 15.0909 86.6161H48.7117C49.5659 86.6161 50.2574 85.9247 50.2574 85.0705V76.2881C55.0818 77.7977 65.2975 80.2965 67.7417 75.3144C67.7417 75.3144 67.7417 75.3133 67.7427 75.3133C69.141 72.4549 70.6495 58.1361 71.1173 53.3951L77.776 50.8974C78.2479 50.7212 78.6034 50.3255 78.7291 49.8381C78.8569 49.3476 78.7374 48.8293 78.4117 48.446ZM69.1307 50.8366C68.5773 51.0437 68.1909 51.5486 68.1353 52.136C67.4294 59.5076 65.9456 71.9469 64.9677 73.9511C63.7724 76.3881 55.0643 74.7806 49.2362 72.6847C48.7612 72.5137 48.2357 72.5848 47.8235 72.8743C47.4113 73.1639 47.1661 73.6358 47.1661 74.1387V83.5228H16.6366V65.9437C16.6366 60.1001 13.7885 56.3215 10.7735 52.3225C8.33855 49.0921 5.82019 45.7514 4.66817 40.9898C2.81649 33.3502 5.41008 23.2139 8.19429 16.8541C14.3624 2.74139 35.5923 2.08398 48.3583 5.08665C54.8005 6.60344 59.4715 9.7586 62.2381 14.4666C63.8054 17.1334 64.6164 20.0505 64.9863 22.8409C64.4762 22.3453 63.6735 22.2515 63.0553 22.6606C63.0347 22.675 60.9594 24.0465 57.8434 25.6426C57.084 26.0311 56.7831 26.9636 57.1726 27.7231C57.4467 28.2568 57.9876 28.5639 58.5492 28.5639C58.7862 28.5639 59.0273 28.5093 59.253 28.3928C62.5215 26.7184 64.6751 25.2954 64.7648 25.2356C64.9348 25.1233 65.0718 24.9811 65.181 24.8234C65.552 30.6041 64.232 35.3853 64.2104 35.4605C64.0692 35.9572 64.1846 36.493 64.5195 36.8867L74.6321 48.7726L69.1307 50.8366Z" fill="url(#paint0_linear)"/>
<path d="M32.7881 40.483C32.7284 39.6319 32.005 38.9745 31.1374 39.0497C30.2862 39.1095 29.6443 39.8483 29.7041 40.7004C29.938 44.0287 31.0652 47.8197 33.055 51.9682C33.3209 52.5225 33.8732 52.8461 34.4502 52.8461C34.6748 52.8461 34.9015 52.7966 35.1169 52.6936C35.8866 52.3247 36.2112 51.4014 35.8423 50.6317C34.0226 46.8356 32.9952 43.4208 32.7881 40.483Z" fill="url(#paint1_linear)"/>
<path d="M47.7129 29.6674C45.2389 30.3238 42.602 30.634 40.2743 30.907C39.0306 31.0534 37.8559 31.1904 36.7657 31.3697C35.9238 31.5078 35.353 32.3033 35.4921 33.1462C35.6167 33.9035 36.2721 34.4404 37.015 34.4404C37.0985 34.4404 37.183 34.4342 37.2685 34.4198C38.2876 34.2518 39.4273 34.1189 40.6349 33.9767C43.0647 33.6913 45.819 33.3687 48.5228 32.6505L48.5321 32.6485C49.3513 32.4207 49.8284 31.5758 49.6058 30.7556C49.3822 29.9343 48.5311 29.449 47.7129 29.6674Z" fill="url(#paint2_linear)"/>
<path d="M41.4873 60.0611C40.9937 59.3645 40.0282 59.1997 39.3326 59.6932C38.6361 60.1868 38.4722 61.1513 38.9648 61.8479C41.1008 64.8629 42.7578 66.7836 42.8278 66.864C43.1328 67.2164 43.5636 67.3977 43.9963 67.3977C44.3549 67.3977 44.7146 67.2731 45.0072 67.0206C45.6522 66.4621 45.7233 65.4863 45.1648 64.8402C45.1484 64.8227 43.5296 62.9453 41.4873 60.0611Z" fill="url(#paint3_linear)"/>
<defs>
<linearGradient id="paint0_linear" x1="39.8721" y1="0.320312" x2="39.8721" y2="86.6161" gradientUnits="userSpaceOnUse">
<stop offset="0.180208" stop-color="#FF8A00"/>
<stop offset="0.70625" stop-color="#00A3E0"/>
</linearGradient>
<linearGradient id="paint1_linear" x1="32.8474" y1="39.0438" x2="32.8474" y2="52.8461" gradientUnits="userSpaceOnUse">
<stop offset="0.180208" stop-color="#FF8A00"/>
<stop offset="0.70625" stop-color="#00A3E0"/>
</linearGradient>
<linearGradient id="paint2_linear" x1="42.5658" y1="29.6151" x2="42.5658" y2="34.4404" gradientUnits="userSpaceOnUse">
<stop offset="0.180208" stop-color="#FF8A00"/>
<stop offset="0.70625" stop-color="#00A3E0"/>
</linearGradient>
<linearGradient id="paint3_linear" x1="42.111" y1="59.4087" x2="42.111" y2="67.3977" gradientUnits="userSpaceOnUse">
<stop offset="0.180208" stop-color="#FF8A00"/>
<stop offset="0.70625" stop-color="#00A3E0"/>
</linearGradient>
</defs>
</svg>
