<svg width="102" height="97" viewBox="0 0 102 97" fill="none" xmlns="http://www.w3.org/2000/svg">
<path d="M101.758 36.6479C101.18 34.8825 99.6735 33.6199 97.8266 33.3543L68.4883 29.1174L55.368 2.69782C54.5419 1.03409 52.8688 0 51.0011 0C49.1345 0 47.4603 1.03409 46.6331 2.69782L33.5128 29.1174L4.17448 33.3543C2.32544 33.621 0.819588 34.8825 0.242106 36.6479C-0.335375 38.4133 0.13761 40.3142 1.47517 41.6106L22.7045 62.1754L17.6722 91.3366C17.3587 93.15 18.0901 94.9559 19.5795 96.049C20.4375 96.6786 21.4494 97 22.468 97C23.2182 97 23.9717 96.8262 24.6712 96.4742L51.6094 82.925L77.2408 96.3157C78.894 97.1804 80.8597 97.0394 82.3699 95.9473C83.8813 94.8564 84.6237 93.0418 84.308 91.213L79.2955 62.1754L100.525 41.6117C101.862 40.3153 102.335 38.4133 101.758 36.6479ZM98.2226 39.2626L75.7503 61.031L81.0555 91.7672C81.1588 92.3663 80.9246 92.9369 80.4307 93.2943C79.9368 93.6529 79.3186 93.6977 78.7774 93.4135L51.6391 79.2346L23.1819 93.5479C22.6385 93.8201 22.0269 93.7676 21.5396 93.4113C21.0523 93.0538 20.8225 92.4854 20.9248 91.8919L26.2508 61.032L3.77849 39.2637C3.34071 38.8396 3.19221 38.2416 3.38141 37.6634C3.5706 37.0862 4.04469 36.6883 4.64967 36.6009L35.705 32.1158L49.5931 4.15057C49.8637 3.6051 50.3906 3.28045 51.0011 3.28045C51.6127 3.28045 52.1385 3.6051 52.4091 4.15057L66.2972 32.1158L97.3525 36.6009C97.9575 36.6883 98.4305 37.0851 98.6197 37.6634C98.8089 38.2416 98.6604 38.8385 98.2226 39.2626Z" fill="url(#paint0_linear)"/>
<defs>
<linearGradient id="paint0_linear" x1="51" y1="0" x2="51" y2="97" gradientUnits="userSpaceOnUse">
<stop offset="0.180208" stop-color="#FF8A00"/>
<stop offset="0.70625" stop-color="#8DD4EE"/>
</linearGradient>
</defs>
</svg>
