<svg width="20" height="23" viewBox="0 0 20 23" fill="none" xmlns="http://www.w3.org/2000/svg">
<path d="M1.28665 21.6696L1.27796 21.7777H1.38633H18.6137H18.722L18.7134 21.6696C18.3614 17.29 14.5856 13.8353 10.0002 13.8353C5.41485 13.8353 1.63903 17.29 1.28665 21.6696ZM0.1 22.3388C0.1 17.0336 4.53877 12.7129 10.0002 12.7129C15.4612 12.7129 19.9 17.0336 19.9 22.3388C19.9 22.646 19.6429 22.9 19.3202 22.9H0.679794C0.356731 22.9 0.1 22.646 0.1 22.3388Z" fill="black" stroke="white" stroke-width="0.2"/>
<path d="M15.4555 5.93548C15.4555 9.15331 12.8418 11.771 9.62954 11.771C6.41729 11.771 3.80361 9.15331 3.80361 5.93548C3.80361 2.71766 6.41729 0.1 9.62954 0.1C12.8413 0.1 15.4555 2.71766 15.4555 5.93548ZM14.2831 5.93548C14.2831 3.36536 12.1954 1.27459 9.62954 1.27459C7.06316 1.27459 4.97599 3.36536 4.97599 5.93548C4.97599 8.5056 7.06316 10.5964 9.62954 10.5964C12.1955 10.5964 14.2831 8.50515 14.2831 5.93548Z" fill="black" stroke="white" stroke-width="0.2"/>
</svg>
