<svg width="169" height="68" viewBox="0 0 169 68" fill="none" xmlns="http://www.w3.org/2000/svg">
<path d="M148.695 67.7672C150.044 67.7672 151.104 67.2852 151.876 66.4176L151.104 65.6464C150.43 66.3212 149.658 66.7068 148.695 66.7068C146.767 66.7068 145.417 65.3572 145.417 63.4293C145.417 61.5978 146.863 60.1518 148.695 60.1518C149.658 60.1518 150.43 60.441 151.104 61.1158L151.876 60.3446C151.104 59.477 149.948 58.9951 148.695 58.9951C146.092 58.9951 144.164 60.8266 144.164 63.3329C144.26 65.9356 146.188 67.7672 148.695 67.7672ZM156.117 66.6104V63.9113H160.359V62.8509H156.117V60.2482H160.841V59.1878H154.864V67.6708H161.033V66.6104H156.117ZM139.826 67.6708H141.079V59.1878H139.826V67.6708ZM136.163 59.1878L133.078 66.1284L129.993 59.1878H128.644L132.403 67.6708H133.56L137.223 59.1878H136.163ZM123.149 64.1041H121.125V60.3446H123.149C124.692 60.3446 125.463 61.0194 125.463 62.2726C125.559 63.3329 124.692 64.1041 123.149 64.1041ZM126.909 67.6708L124.884 64.8753C126.041 64.4897 126.716 63.5257 126.716 62.1761C126.716 60.3446 125.366 59.1878 123.149 59.1878H119.872V67.6708H121.125V65.0681H123.246C123.438 65.0681 123.631 65.0681 123.824 65.0681L125.656 67.6708H126.909ZM111.678 66.6104V63.9113H115.92V62.8509H111.678V60.2482H116.402V59.1878H110.425V67.6708H116.594V66.6104H111.678ZM104.063 67.7672C106.28 67.7672 107.34 66.6104 107.34 65.3572C107.34 62.2725 102.231 63.5257 102.231 61.5014C102.231 60.7302 102.81 60.1518 104.255 60.1518C105.027 60.1518 105.798 60.3446 106.569 60.8266L106.955 59.8626C106.28 59.3806 105.219 59.0914 104.255 59.0914C102.038 59.0914 100.978 60.2482 100.978 61.5014C100.978 64.6825 106.087 63.3329 106.087 65.3572C106.087 66.1284 105.412 66.7068 103.966 66.7068C102.906 66.7068 101.846 66.3212 101.171 65.7429L100.689 66.7068C101.556 67.3816 102.809 67.7672 104.063 67.7672ZM90.3743 67.6708H91.531V60.2482H94.423V59.1878H87.386V60.2482H90.2779V67.6708H90.3743ZM81.9877 64.1041H79.9634V60.3446H81.9877C83.5301 60.3446 84.3013 61.0194 84.3013 62.2726C84.3013 63.3329 83.5301 64.1041 81.9877 64.1041ZM85.6508 67.6708L83.6265 64.8753C84.7833 64.4897 85.458 63.5257 85.458 62.1761C85.458 60.3446 84.1085 59.1878 81.8913 59.1878H78.6138V67.6708H79.867V65.0681H81.9877C82.1805 65.0681 82.3733 65.0681 82.5661 65.0681L84.3977 67.6708H85.6508ZM70.5165 66.6104V63.9113H74.7579V62.8509H70.5165V60.2482H75.2399V59.1878H69.2633V67.6708H75.4327V66.6104H70.5165ZM62.6119 64.1041H60.5876V60.3446H62.6119C64.1543 60.3446 64.9254 61.0194 64.9254 62.2726C64.9254 63.3329 64.1543 64.1041 62.6119 64.1041ZM62.6119 59.1878H59.3344V67.6708H60.5876V65.0681H62.7083C64.9254 65.0681 66.275 63.9113 66.275 62.0797C66.1786 60.3446 64.829 59.1878 62.6119 59.1878ZM56.8281 67.6708L53.647 63.3329L56.6353 59.2842H55.2857L52.9722 62.5617L50.5623 59.2842H49.2127L52.201 63.4293L49.0199 67.7672H50.3695L52.8758 64.2969L55.3821 67.7672H56.8281V67.6708ZM41.9829 66.6104V63.9113H46.2244V62.8509H41.9829V60.2482H46.7064V59.1878H40.7298V67.6708H46.8992V66.6104H41.9829ZM30.7045 66.6104V60.2482H33.018C35.1388 60.2482 36.4883 61.5014 36.4883 63.4293C36.4883 65.3572 35.1388 66.6104 33.018 66.6104H30.7045ZM29.4513 67.6708H33.018C35.7171 67.6708 37.5487 65.9356 37.5487 63.4293C37.5487 60.923 35.7171 59.1878 33.018 59.1878H29.4513V67.6708ZM21.2576 66.6104V63.9113H25.499V62.8509H21.2576V60.2482H25.981V59.1878H20.0044V67.6708H26.1738V66.6104H21.2576ZM16.1485 67.6708V59.1878H15.1846L11.7143 65.1645L8.14756 59.1878H7.18359V67.6708H8.34037V61.5014L11.4251 66.6104H12.0034L15.0882 61.5014V67.6708H16.1485Z" fill="#00A3E0"/>
<path d="M116.979 22.9425C116.69 22.3641 116.305 21.7858 115.823 21.2074C114.762 20.147 113.413 19.665 112.159 19.665C110.81 19.665 109.46 20.147 108.496 21.2074L104.833 24.8704L108.496 28.5336C109.557 29.5939 110.906 30.0759 112.159 30.0759C113.509 30.0759 114.859 29.5939 115.823 28.5336C116.305 28.0516 116.69 27.4732 116.979 26.7984C117.268 26.1236 117.365 25.4489 117.365 24.7741C117.461 24.1957 117.268 23.5209 116.979 22.9425Z" fill="#FF8A00"/>
<path d="M51.5253 4.04861C50.9469 2.79545 51.4289 1.34947 52.6821 0.771088C53.9352 0.192706 55.3812 0.674703 55.9596 1.92787L77.7453 46.2705C78.3237 47.5237 77.8417 48.9696 76.5885 49.548C75.3354 50.1264 73.8894 49.6444 73.3111 48.3913L51.5253 4.04861Z" fill="#00A3E0"/>
<path d="M21.9318 4.04861C21.3534 2.79545 21.8354 1.34947 23.0886 0.771088C24.3417 0.192706 25.7877 0.674703 26.3661 1.92787L48.1518 46.2705C48.7302 47.5237 48.2482 48.9696 46.9951 49.548C45.7419 50.1264 44.2959 49.6444 43.7175 48.3913L21.9318 4.04861Z" fill="#00A3E0"/>
<path d="M9.59335 27.1839C10.1717 25.9308 11.6177 25.4488 12.8709 26.0272C14.124 26.6055 14.606 28.0515 14.0276 29.3047L4.6771 48.4877C4.09872 49.7408 2.65276 50.2228 1.39959 49.6445C0.146432 49.0661 -0.335551 47.6201 0.242832 46.367L9.59335 27.1839Z" fill="#00A3E0"/>
<path d="M84.5908 2.40993C84.5908 1.06037 85.6512 0 87.0007 0C88.3503 0 89.4107 1.06037 89.4107 2.40993V47.331C89.4107 48.6805 88.3503 49.7409 87.0007 49.7409C85.6512 49.7409 84.5908 48.6805 84.5908 47.331V2.40993Z" fill="#00A3E0"/>
<path d="M116.691 0C118.041 0 119.101 1.06037 119.101 2.40993C119.101 3.75949 118.041 4.81986 116.691 4.81986H87.0007C85.6512 4.81986 84.5908 3.75949 84.5908 2.40993C84.5908 1.06037 85.6512 0 87.0007 0H116.691Z" fill="#00A3E0"/>
<path d="M116.691 44.921C118.041 44.921 119.101 45.9814 119.101 47.3309C119.101 48.6805 118.041 49.7408 116.691 49.7408H87.0007C85.6512 49.7408 84.5908 48.6805 84.5908 47.3309C84.5908 45.9814 85.6512 44.921 87.0007 44.921H116.691Z" fill="#00A3E0"/>
<path d="M130.958 13.6884C130.958 15.038 129.897 16.0983 128.548 16.0983C127.198 16.0983 126.138 15.038 126.138 13.6884C126.138 9.92891 127.68 6.45862 130.186 4.04869C132.693 1.54237 136.067 0 139.826 0H161.612C162.961 0 164.022 1.06037 164.022 2.40993C164.022 3.75949 162.961 4.81985 161.612 4.81985H139.826C137.416 4.81985 135.199 5.78384 133.657 7.42259C131.922 9.06134 130.958 11.2785 130.958 13.6884Z" fill="#00A3E0"/>
<path d="M130.282 49.8373C128.933 49.8373 127.873 48.7769 127.873 47.4273C127.873 46.0778 128.933 45.0174 130.282 45.0174H154.671C157.081 45.0174 159.298 44.0534 160.84 42.4147C162.479 40.7759 163.443 38.6552 163.443 36.2453C163.443 33.8353 162.479 31.6182 160.84 30.0758C159.202 28.4371 157.081 27.4731 154.671 27.4731H139.826C138.476 27.4731 137.416 26.4127 137.416 25.0632C137.416 23.7136 138.476 22.6533 139.826 22.6533H154.671C158.43 22.6533 161.901 24.1956 164.311 26.7019C166.817 29.2083 168.359 32.5822 168.359 36.3417C168.359 40.1011 166.817 43.5714 164.311 45.9814C161.804 48.4877 158.43 50.03 154.671 50.03H130.282V49.8373Z" fill="#00A3E0"/>
</svg>
