<svg width="28" height="43" viewBox="0 0 28 43" fill="none" xmlns="http://www.w3.org/2000/svg">
<path d="M27.3108 11.4548L22.0985 11.3978V8.04204C22.0985 3.60743 18.4258 0 13.912 0C9.39878 0 5.72699 3.60788 5.72699 8.04204V11.2181L0.703632 11.1629C0.513336 11.167 0.338357 11.2322 0.206542 11.3608C0.0742627 11.4894 0 11.6645 0 11.8469V42.316C0 42.694 0.311436 43 0.696206 43H27.3038C27.6886 43 28 42.694 28 42.316V12.1392C27.9995 11.7644 27.6923 11.4593 27.3108 11.4548ZM7.1194 8.04204C7.1194 4.36211 10.1665 1.368 13.912 1.368C17.6581 1.368 20.7061 4.36211 20.7061 8.04204V11.3822L7.1194 11.2331V8.04204ZM26.6071 41.632H1.39195V12.5387L5.72699 12.5861V14.6349C4.76669 14.9436 4.06584 15.8219 4.06584 16.8675C4.06584 18.1685 5.1431 19.2264 6.46682 19.2264C7.79054 19.2264 8.8678 18.168 8.8678 16.8675C8.8678 15.7904 8.12472 14.8894 7.11893 14.608V12.6016L20.7056 12.7507V14.6217C19.7226 14.9172 19.0008 15.8064 19.0008 16.8675C19.0008 18.1685 20.0781 19.2264 21.4018 19.2264C22.7255 19.2264 23.8028 18.168 23.8028 16.8675C23.8028 15.8064 23.0811 14.9167 22.098 14.6217V12.7662L26.6067 12.8159L26.6071 41.632ZM6.46682 15.8766C7.02286 15.8766 7.47539 16.3212 7.47539 16.8675C7.47539 17.4138 7.02286 17.8584 6.46682 17.8584C5.91079 17.8584 5.45825 17.4138 5.45825 16.8675C5.45825 16.3212 5.91079 15.8766 6.46682 15.8766ZM21.4023 15.8766C21.9583 15.8766 22.4109 16.3212 22.4109 16.8675C22.4109 17.4138 21.9583 17.8584 21.4023 17.8584C20.8463 17.8584 20.3937 17.4138 20.3937 16.8675C20.3937 16.3212 20.8463 15.8766 21.4023 15.8766Z" fill="#231F20"/>
</svg>
