<svg width="201" height="101" viewBox="0 0 201 101" fill="none" xmlns="http://www.w3.org/2000/svg">
<path d="M200.758 72.1182C199.492 72.1182 198.269 72.1182 197.002 72.1182C192.854 72.1182 188.661 72.1182 184.512 72.1182C184.163 72.1182 184.032 72.1619 184.032 72.5986C184.032 76.2234 184.032 79.8044 184.032 83.4292C184.032 83.8222 184.163 83.8659 184.512 83.8659C189.098 83.8659 193.64 83.8659 198.225 83.8659C198.4 83.8659 198.575 83.8659 198.793 83.8659C198.793 84.5646 198.793 85.176 198.793 85.8311C198.662 85.8311 198.531 85.8748 198.4 85.8748C193.771 85.8748 189.142 85.8748 184.512 85.8748C184.119 85.8748 184.032 86.0058 184.032 86.3988C184.032 89.9799 184.032 93.561 184.032 97.0984C184.032 97.6224 184.032 97.6225 184.556 97.6225C189.971 97.6225 195.387 97.6225 200.758 97.6225C200.758 98.3212 200.758 99.0199 200.758 99.7187C200.583 99.7187 200.365 99.7187 200.19 99.7187C194.251 99.7187 188.312 99.7187 182.372 99.7187C181.805 99.7187 181.805 99.7187 181.805 99.1073C181.805 89.6305 181.805 80.1101 181.805 70.6334C181.805 70.1967 181.936 70.1093 182.329 70.1093C188.312 70.1093 194.295 70.1093 200.278 70.1093C200.452 70.1093 200.627 70.1093 200.802 70.0657C200.758 70.7644 200.758 71.4632 200.758 72.1182Z" fill="black"/>
<path d="M0.0436709 70.1096C0.218357 70.1096 0.393046 70.1533 0.567732 70.1533C6.50707 70.1533 12.4464 70.1533 18.4294 70.1533C19.1718 70.1533 19.0408 70.1533 19.0408 70.8084C19.0408 71.2451 19.0408 71.6381 19.0408 72.1185C18.8225 72.1185 18.6478 72.1622 18.4731 72.1622C16.0275 72.1622 13.6255 72.1622 11.1799 72.1622C10.7869 72.1622 10.6995 72.2495 10.6995 72.6426C10.6995 81.5079 10.6995 90.3732 10.6995 99.2386C10.6995 99.4133 10.6995 99.5443 10.6559 99.7626C9.95712 99.7626 9.30205 99.7626 8.60331 99.7626C8.51596 99.7626 8.42862 99.6316 8.38495 99.5006C8.34128 99.4133 8.38495 99.2822 8.38495 99.1512C8.38495 90.3732 8.38495 81.5516 8.38495 72.7736C8.38495 72.2059 8.38495 72.2059 7.77354 72.2059C5.37161 72.2059 2.926 72.2059 0.524061 72.2059C0.349375 72.2059 0.174686 72.2059 0 72.2059C0.0436716 71.4634 0.0436709 70.7647 0.0436709 70.1096Z" fill="black"/>
<path d="M124.595 0.49707C124.595 0.846443 124.551 1.23949 124.595 1.58886C124.595 1.93823 124.464 2.06925 124.158 2.02558C124.114 2.02558 124.071 2.02558 123.983 2.02558C108.262 2.02558 92.5399 2.02558 76.8182 2.02558C76.2068 2.02558 76.2068 2.02557 76.2068 1.45784C76.2068 1.15214 76.2068 0.846439 76.1631 0.540738C92.3216 0.497066 108.48 0.49707 124.595 0.49707Z" fill="black"/>
<path d="M171.237 96.3999C171.237 96.2252 171.237 96.0942 171.237 95.9195C171.237 87.5346 171.237 79.106 171.237 70.721C171.237 70.6337 171.237 70.5027 171.237 70.4153C171.237 70.197 171.324 70.1096 171.542 70.1096C172.066 70.1096 172.591 70.1096 173.115 70.1096C173.333 70.1096 173.42 70.197 173.377 70.4153C173.377 70.5027 173.377 70.5463 173.377 70.6337C173.377 80.1104 173.377 89.6308 173.377 99.1076C173.377 99.2822 173.377 99.4569 173.333 99.6753C172.503 99.6753 171.673 99.6753 170.887 99.6753C170.756 99.6753 170.582 99.5006 170.451 99.3696C168.354 96.3999 166.258 93.3866 164.162 90.4169C162.546 88.1023 160.93 85.8314 159.314 83.5168C157 80.2414 154.685 76.9661 152.414 73.647C152.327 73.5597 152.24 73.4287 152.196 73.3413C152.152 73.3413 152.109 73.3413 152.109 73.385C152.109 82.163 152.109 90.8973 152.109 99.719C151.453 99.719 150.842 99.719 150.231 99.719C150.143 99.719 150.012 99.5443 149.969 99.4569C149.925 99.3696 149.969 99.2386 149.969 99.1512C149.969 89.7182 149.969 80.3288 149.969 70.8957C149.969 70.0223 149.969 70.197 150.667 70.197C151.191 70.197 151.715 70.2406 152.24 70.197C152.545 70.197 152.72 70.328 152.895 70.5463C153.899 71.9438 154.86 73.385 155.864 74.7825C158.048 77.9268 160.275 81.0712 162.459 84.2155C165.035 87.884 167.612 91.596 170.189 95.2645C170.494 95.7012 170.8 96.0942 171.106 96.5309C171.149 96.4436 171.193 96.4436 171.237 96.3999Z" fill="black"/>
<path d="M52.4934 84.871C52.5371 81.3336 53.4979 78.0145 55.7251 75.0885C58.127 71.9442 61.2714 69.9789 65.2018 69.4112C70.6171 68.6688 75.0279 70.5467 78.5217 74.6955C80.7053 77.2721 81.8844 80.3291 82.1028 83.6918C82.4521 88.7577 80.7926 93.1686 77.1242 96.6623C74.1108 99.5009 70.4424 100.898 66.2936 100.549C61.0967 100.112 57.2099 97.5357 54.5896 93.0375C53.1485 90.5919 52.5371 87.8406 52.4934 84.871ZM79.9192 84.8273C79.9192 83.7792 79.7882 82.207 79.3514 80.7222C77.7793 75.6562 74.5912 72.2935 69.2196 71.4201C64.8088 70.7214 61.053 72.1189 58.127 75.5689C56.1618 77.8398 55.201 80.5911 54.9827 83.5608C54.7207 87.0545 55.3321 90.2862 57.2973 93.2122C60.398 97.9288 65.8132 99.5883 70.9665 98.1035C73.8488 97.2737 76.0761 95.4832 77.7356 92.9502C79.1768 90.6356 79.8318 88.059 79.9192 84.8273Z" fill="black"/>
<path d="M100.357 48.929C93.9372 48.6233 89.0459 45.7847 85.9016 40.151C84.4168 37.4871 83.8054 34.6047 84.0237 31.5914C84.1547 29.9756 84.6788 28.447 85.2902 26.9622C86.3383 24.3856 87.6921 21.94 89.177 19.5817C91.7099 15.5203 94.5486 11.6772 97.5182 8.00874C98.1733 7.17898 98.8721 6.34922 99.5708 5.56313C99.9202 5.12642 100.925 5.12642 101.274 5.56313C103.458 8.35811 105.685 11.1531 107.825 13.9481C109.659 16.3937 111.318 18.9266 112.847 21.5906C114.157 23.8615 115.336 26.2198 116.166 28.7091C116.996 31.1547 117.039 33.6003 116.472 36.0896C115.817 38.9719 114.506 41.5049 112.454 43.6884C109.877 46.4397 106.733 48.1429 103.021 48.7543C102.147 48.8417 101.274 48.8417 100.357 48.929ZM100.401 6.91695C100.27 7.09164 100.182 7.17899 100.095 7.26633C97.2125 10.7601 94.5049 14.2975 92.0156 18.0532C90.1377 20.8482 88.3909 23.6868 87.037 26.7875C86.3383 28.316 85.7269 29.8882 85.5959 31.5477C85.3339 35.6092 86.6003 39.1903 89.2643 42.2473C91.4479 44.7366 94.1555 46.3087 97.3872 46.9638C100.27 47.5752 103.108 47.3568 105.816 46.2651C110.576 44.2998 113.589 40.8061 114.856 35.8276C115.336 33.9933 115.424 32.1591 114.987 30.2813C114.594 28.5781 113.895 26.9622 113.153 25.4337C111.843 22.7261 110.314 20.1931 108.567 17.7475C106.471 14.8215 104.287 11.9392 102.147 9.05686C101.623 8.35811 101.012 7.70304 100.401 6.91695Z" fill="black"/>
<path d="M28.8229 85.8311C28.8229 88.4514 28.8229 90.9844 28.8229 93.5173C28.8229 94.6965 28.8229 95.9193 28.7792 97.0984C28.7792 97.4914 28.9102 97.5788 29.3033 97.5788C34.5002 97.5788 39.6971 97.5788 44.9377 97.5788C45.5054 97.5788 45.5054 97.5788 45.5054 98.1465C45.5054 98.4959 45.5054 98.8016 45.5054 99.151C45.5491 99.5003 45.4181 99.6313 45.0251 99.6313C43.6712 99.5877 42.3174 99.6313 40.9636 99.6313C36.2907 99.6313 31.6615 99.6313 26.9887 99.6313C26.5956 99.6313 26.5083 99.5003 26.5083 99.151C26.5083 89.6305 26.5083 80.0665 26.5083 70.5461C26.5083 70.1967 26.5956 70.0657 26.9887 70.0657C32.9717 70.0657 38.9984 70.0657 44.9814 70.0657C45.3744 70.0657 45.5054 70.1967 45.4618 70.5897C45.4181 70.9828 45.4618 71.3758 45.4618 71.7689C45.4618 71.9872 45.3744 72.0746 45.1561 72.0746C45.0251 72.0746 44.894 72.0746 44.8067 72.0746C39.6534 72.0746 34.5439 72.0746 29.3906 72.0746C28.6482 72.0746 28.7792 72.0746 28.7792 72.6423C28.7792 76.0924 28.7792 79.5424 28.7792 82.9925C28.7792 83.8222 28.7792 83.8222 29.609 83.8222C34.0635 83.8222 38.518 83.8222 42.9725 83.8222C43.5402 83.8222 43.5402 83.8222 43.5402 84.3463C43.5402 84.7393 43.5402 85.0887 43.5402 85.4818C43.5402 85.7001 43.4529 85.7874 43.2345 85.7874C42.7978 85.7874 42.4048 85.7874 41.968 85.7874C37.7319 85.7874 33.4958 85.7874 29.2596 85.7874C29.1723 85.8311 28.9976 85.8311 28.8229 85.8311Z" fill="black"/>
<path d="M117.826 99.6753C118.131 98.8019 118.437 98.0158 118.743 97.2297C119.966 94.0417 121.145 90.81 122.368 87.6219C123.809 83.7788 125.294 79.9357 126.735 76.0926C127.433 74.1711 128.176 72.2932 128.875 70.3717C128.962 70.1533 129.049 70.1096 129.224 70.1096C129.835 70.1096 130.403 70.1096 131.015 70.1096C131.277 70.1096 131.408 70.197 131.495 70.4153C133.416 75.5249 135.338 80.6345 137.26 85.7004C138.526 89.0631 139.792 92.4258 141.015 95.7448C141.452 96.8803 141.889 98.0158 142.325 99.1949C142.369 99.3259 142.413 99.4569 142.456 99.6316C141.714 99.6316 141.059 99.6316 140.404 99.6316C140.317 99.6316 140.142 99.4569 140.098 99.3259C139.53 97.8847 138.963 96.4436 138.395 95.0024C137.74 93.2992 137.085 91.596 136.43 89.8928C136.342 89.6745 136.211 89.5435 135.949 89.5435C132.063 89.5435 128.176 89.5435 124.289 89.5435C124.027 89.5435 123.852 89.6308 123.765 89.8928C122.586 92.9935 121.407 96.0942 120.228 99.2386C120.097 99.5443 119.966 99.6753 119.616 99.6753C119.092 99.6753 118.481 99.6753 117.826 99.6753ZM135.6 87.4036C133.809 82.687 132.019 78.0142 130.228 73.3413C130.185 73.3413 130.141 73.3413 130.097 73.3413C128.351 78.0142 126.56 82.687 124.769 87.4036C128.394 87.4036 131.975 87.4036 135.6 87.4036Z" fill="black"/>
<path d="M88.6973 70.1096C89.5707 70.1096 90.4004 70.1096 91.1865 70.1096C91.3176 70.1096 91.5359 70.2843 91.6233 70.4153C92.715 71.9438 93.7632 73.4723 94.8113 74.9572C96.7328 77.7085 98.6107 80.4598 100.532 83.2111C102.323 85.7877 104.113 88.3644 105.904 90.941C107.825 93.736 109.747 96.4873 111.712 99.2386C111.8 99.3259 111.843 99.4569 111.974 99.6316C111.144 99.6316 110.358 99.6316 109.572 99.6316C109.441 99.6316 109.31 99.5006 109.223 99.3696C107.869 97.448 106.515 95.5265 105.205 93.6049C102.847 90.1985 100.489 86.7922 98.0867 83.3858C95.51 79.6737 92.8897 75.9616 90.3131 72.2059C89.7454 71.5944 89.265 70.8957 88.6973 70.1096Z" fill="black"/>
<path d="M97.999 86.3118C98.4358 86.9232 98.8288 87.4472 99.1782 88.015C99.2655 88.1023 99.2218 88.3643 99.1345 88.4517C97.8244 90.4169 96.5142 92.3821 95.1604 94.3473C94.1123 95.8758 93.0641 97.4044 92.0597 98.9765C91.754 99.4569 91.4046 99.7626 90.7496 99.6753C90.0945 99.5879 89.4394 99.6753 88.6533 99.6753C91.7977 95.2208 94.8547 90.8099 97.999 86.3118Z" fill="black"/>
<path d="M102.671 83.3419C102.235 82.7305 101.842 82.1628 101.492 81.5951C101.449 81.5077 101.492 81.2457 101.58 81.1147C102.628 79.5862 103.676 78.1014 104.68 76.6165C106.078 74.6076 107.475 72.5987 108.873 70.5898C109.091 70.2841 109.353 70.1095 109.746 70.1531C110.489 70.1968 111.231 70.1531 112.061 70.1531C108.916 74.564 105.816 78.9311 102.671 83.3419Z" fill="black"/>
</svg>
