<svg width="39" height="14" viewBox="0 0 39 14" fill="none" xmlns="http://www.w3.org/2000/svg">
<path d="M13.7913 13.2693L15.7259 0.546688H18.819L16.8834 13.2693H13.7913ZM28.1022 0.86056C27.2135 0.499636 26.2747 0.318601 25.3296 0.325896C22.2732 0.325896 20.1204 2.05219 20.102 4.52529C20.0846 6.35224 21.6389 7.37178 22.8128 7.98112C24.0167 8.60454 24.4212 9.00175 24.4154 9.55914C24.4076 10.4109 23.4538 10.8016 22.5647 10.8016C21.3271 10.8016 20.6697 10.609 19.6531 10.1339L19.2554 9.93146L18.821 12.778C19.5431 13.1351 20.8792 13.4425 22.2664 13.4576C25.5178 13.4576 27.6282 11.7519 27.6523 9.11214C27.6639 7.664 26.8394 6.56329 25.0554 5.65522C23.9742 5.06644 23.3119 4.67356 23.3187 4.07829C23.3187 3.54904 23.8786 2.98407 25.0902 2.98407C25.8837 2.9639 26.6722 3.12979 27.4052 3.47111L27.6822 3.61722L28.1022 0.86056ZM36.0338 0.558593H33.6425C32.903 0.558593 32.3489 0.78588 32.0236 1.61493L27.4303 13.2726H30.6778C30.6778 13.2726 31.2088 11.7054 31.3285 11.3612L35.2904 11.3666C35.3831 11.8125 35.6669 13.2737 35.6669 13.2737H38.5361L36.0338 0.557511V0.558593ZM32.2186 8.75931C32.4744 8.02658 33.4514 5.20282 33.4514 5.20282C33.433 5.23637 33.7053 4.46684 33.8617 3.98846L34.0711 5.08593L34.7865 8.75931H32.2186ZM11.1983 0.556429L8.16986 9.23228L7.84742 7.4681C7.28363 5.4366 5.52663 3.23516 3.56304 2.13228L6.33273 13.2585L9.60538 13.2542L14.4738 0.556429H11.1983Z" fill="white"/>
<path d="M5.36075 0.548861H0.373565L0.333984 0.812946C4.21483 1.86604 6.78179 4.41165 7.84758 7.46919L6.76249 1.62144C6.5752 0.816193 6.03265 0.575919 5.36075 0.547779V0.548861Z" fill="white"/>
</svg>
