<svg width="30" height="18" viewBox="0 0 30 18" fill="none" xmlns="http://www.w3.org/2000/svg">
<path d="M29.3928 8.84639C29.3928 13.6596 25.3935 17.5609 20.4601 17.5609C18.4542 17.5635 16.507 16.9066 14.938 15.6983C16.0046 14.8792 16.8657 13.8373 17.4567 12.6507C18.0477 11.464 18.3533 10.1635 18.3506 8.84639C18.3533 7.52956 18.0478 6.22922 17.4569 5.04278C16.8661 3.85633 16.0053 2.81454 14.939 1.99544C16.5076 0.786875 18.4544 0.129736 20.4601 0.131841C25.3935 0.131841 29.3918 4.03416 29.3918 8.84639" fill="white"/>
<path d="M11.5275 8.84639C11.5248 7.52956 11.8304 6.22922 12.4212 5.04278C13.012 3.85633 13.8729 2.81454 14.9392 1.99544C13.3706 0.786942 11.4237 0.129811 9.4181 0.131841C4.48466 0.131841 0.485352 4.03416 0.485352 8.84639C0.485352 13.6596 4.48466 17.5609 9.4181 17.5609C11.4236 17.5632 13.3704 16.9064 14.9392 15.6983C13.8725 14.8792 13.0115 13.8373 12.4204 12.6507C11.8294 11.464 11.5238 10.1635 11.5265 8.84639" fill="white"/>
<path d="M14.9395 1.99414C13.8728 2.81335 13.0116 3.8554 12.4206 5.04221C11.8296 6.22901 11.524 7.52977 11.5269 8.84699C11.5244 10.1637 11.8301 11.464 12.4211 12.6503C13.0121 13.8365 13.8731 14.8781 14.9395 15.697C16.0059 14.8779 16.8668 13.8362 17.4576 12.6497C18.0484 11.4632 18.3539 10.1629 18.3512 8.84604C18.3539 7.52922 18.0483 6.22888 17.4575 5.04243C16.8667 3.85599 16.0059 2.81419 14.9395 1.99509" fill="white"/>
</svg>
