<svg width="21" height="20" viewBox="0 0 21 20" fill="none" xmlns="http://www.w3.org/2000/svg">
<path d="M14.0145 0.132324L6.27551 4.45153L2.8588 2.54581C2.64686 2.75895 2.45418 2.97836 2.27436 3.21031L6.27551 5.44827L14.9971 0.577409C14.676 0.408151 14.3485 0.263969 14.0145 0.132324ZM16.3458 1.41116L6.26909 7.03427L1.46514 4.35123C1.31742 4.59571 1.17613 4.85273 1.0541 5.10975L6.26909 8.03101L17.0716 2.00043C16.8403 1.79356 16.6027 1.59922 16.3458 1.41116ZM18.0799 3.02851L6.27551 9.62329L0.546736 6.41993C0.456822 6.70203 0.379753 6.99039 0.315529 7.27876L6.27551 10.62L18.6129 3.72435C18.4459 3.48613 18.2661 3.25419 18.0799 3.02851ZM19.39 5.02199L6.27551 12.3439L0.116434 8.89611C0.110012 9.04029 0.097168 9.18447 0.097168 9.32866C0.097168 14.8013 4.64422 19.2334 10.2445 19.2334C15.8449 19.2334 20.3919 14.7951 20.3919 9.32866C20.3984 7.78653 20.0323 6.3259 19.39 5.02199Z" fill="white"/>
</svg>
