<svg width="23" height="24" viewBox="0 0 23 24" fill="none" xmlns="http://www.w3.org/2000/svg">
<path d="M19.2549 16.1759C18.905 13.7264 17.5196 12.2553 15.063 11.8054C15.0844 11.7697 15.0987 11.734 15.1201 11.6983C15.8557 11.6983 16.5912 11.6983 17.3268 11.6983C17.6838 9.5059 16.6555 6.61366 14.0703 5.10685C11.5994 3.67144 8.47153 4.02851 6.37913 5.98523C4.17246 8.04907 3.59401 11.2984 4.95801 13.9906C6.13632 16.333 8.95 17.9898 11.071 17.6042C11.0424 16.9114 11.0067 16.2187 10.9781 15.526C11.021 15.5117 11.0638 15.4975 11.0995 15.4903C11.1567 15.5617 11.2352 15.6331 11.2781 15.7117C12.4207 17.8041 14.1917 18.9896 16.5127 19.4323C18.8979 19.8894 20.8189 21.132 22.2971 23.053C22.3543 23.1315 22.4328 23.1958 22.4614 23.2815C22.4828 23.3601 22.4828 23.4957 22.44 23.5314C22.3757 23.5814 22.2257 23.6029 22.1614 23.56C21.9829 23.4457 21.8258 23.2958 21.6615 23.1601C20.269 22.0032 18.7407 21.0963 16.9126 20.8963C15.9771 20.7963 15.0201 20.8534 14.0703 20.882C12.792 20.9249 11.5066 21.1248 10.2354 21.0534C6.7719 20.8534 4.12247 19.1895 2.32286 16.2473C-0.969289 10.8842 1.39449 3.82855 7.22894 1.4862C12.2064 -0.513371 18.0123 2.01466 20.0119 7.08499C21.1831 10.0558 21.0045 12.9837 19.5477 15.826C19.4906 15.9402 19.4192 16.0473 19.3549 16.1616C19.3192 16.1616 19.2906 16.1687 19.2549 16.1759Z" fill="white"/>
<path d="M16.3482 18.5531C15.7769 18.5603 15.2555 18.0318 15.2698 17.4534C15.2841 16.9892 15.6626 16.6893 16.0982 16.8821C16.4124 17.0249 16.7266 17.2749 16.9266 17.5534C17.2551 18.0247 16.9266 18.546 16.3482 18.5531Z" fill="white"/>
<path d="M18.7051 16.2973C18.6122 16.4758 18.5337 16.6186 18.4623 16.7543C18.3266 16.6829 18.1409 16.6401 18.0624 16.5258C17.8838 16.2687 17.7196 15.9831 17.6339 15.6903C17.591 15.5403 17.7338 15.3403 17.791 15.1689C17.9695 15.2332 18.2195 15.2475 18.298 15.376C18.4837 15.6474 18.5765 15.9759 18.7051 16.2973Z" fill="white"/>
</svg>
