<svg width="37" height="37" viewBox="0 0 37 37" fill="none" xmlns="http://www.w3.org/2000/svg">
<circle cx="18.5" cy="18.5" r="18.5" fill="#FF8A00" fill-opacity="0.3"/>
<ellipse cx="18.4998" cy="18.5" rx="16.5862" ry="16.5862" fill="#FF8A00" fill-opacity="0.5"/>
<ellipse cx="18.5001" cy="18.5" rx="14.6724" ry="14.6724" fill="#FF8A00"/>
<path d="M15.6911 28.7877C16.8551 29.4395 18.0016 29.7669 19.0695 29.7669C19.9636 29.7666 20.8026 29.5371 21.5493 29.0761L24.3016 27.3783C24.4009 27.3171 24.4718 27.2193 24.4987 27.1056C24.5257 26.9923 24.506 26.8728 24.4448 26.7736L22.0591 22.907C21.9979 22.808 21.8998 22.7371 21.7865 22.7102C21.6723 22.6835 21.5534 22.7029 21.4544 22.7641L18.6812 24.4757C18.2549 24.7387 17.7079 24.8227 17.1816 24.707C16.6554 24.5911 16.2062 24.2859 15.9491 23.8689L12.18 17.7607C11.635 16.8775 11.9097 15.7155 12.7923 15.1705C12.7923 15.1705 12.7926 15.1705 12.7926 15.1702L15.6709 13.3933C15.8773 13.2659 15.9412 12.9953 15.8138 12.7889L13.4278 8.92317C13.3004 8.71672 13.0295 8.65201 12.8234 8.77998L9.94741 10.5551C6.74203 12.5335 6.85448 17.727 10.2215 23.1849C11.765 25.6874 13.7077 27.6773 15.6911 28.7877ZM10.4092 11.3025L12.9112 9.75834L14.836 12.8765L12.3314 14.4226C12.3308 14.4229 12.3305 14.4232 12.3302 14.4235C11.0365 15.2232 10.6335 16.9267 11.4327 18.2216L15.2018 24.3296C15.5827 24.9477 16.2358 25.3978 16.993 25.5647C17.7401 25.7284 18.524 25.6046 19.1428 25.2227L21.542 23.7418L23.4665 26.8605L21.0878 28.3279C19.3507 29.3997 17.4276 28.7526 16.1204 28.0208C14.2653 26.9818 12.4356 25.1006 10.9691 22.7234C7.87384 17.7059 7.64367 13.0094 10.4092 11.3025Z" fill="black"/>
<path d="M18.639 13.5354C20.0604 13.6194 21.3184 14.3498 22.0909 15.5395C22.8295 16.6734 23.0072 18.0629 22.5782 19.352C22.5015 19.5821 22.6259 19.8311 22.8561 19.9072C22.9021 19.9227 22.9486 19.9297 22.9949 19.9297C23.1791 19.9297 23.3504 19.8135 23.4116 19.6293C23.9258 18.0849 23.7127 16.4192 22.8274 15.0605C21.9155 13.6554 20.3688 12.7573 18.6908 12.658C18.4463 12.6478 18.2407 12.8285 18.2264 13.0706C18.212 13.3131 18.3968 13.521 18.639 13.5354Z" fill="black"/>
<path d="M19.2539 10.2749C21.5556 10.5393 23.5987 11.8023 24.8594 13.7395C26.0808 15.6174 26.427 17.9296 25.8088 20.0834C25.7417 20.3168 25.8764 20.5599 26.1095 20.6267C26.1502 20.6384 26.1906 20.6439 26.231 20.6439C26.4217 20.6439 26.5977 20.5183 26.6527 20.3259C27.3412 17.9273 26.9558 15.3518 25.5956 13.2604C24.1917 11.103 21.917 9.69685 19.3541 9.40226C19.1178 9.37444 18.8955 9.5475 18.8677 9.78851C18.8399 10.0295 19.0126 10.2471 19.2539 10.2749Z" fill="black"/>
<path d="M19.8543 7.40336C22.9112 7.82827 25.6294 9.556 27.312 12.1438C28.9604 14.6759 29.4547 17.8034 28.6687 20.7242C28.6054 20.9584 28.7445 21.1994 28.9788 21.2624C29.0169 21.2727 29.0555 21.2776 29.0933 21.2776C29.2869 21.2776 29.4646 21.1488 29.517 20.9526C30.368 17.7911 29.8327 14.4057 28.0485 11.6647C26.227 8.86374 23.2846 6.99339 19.9759 6.53335C19.7366 6.50143 19.5135 6.66747 19.4804 6.90788C19.4467 7.14801 19.6142 7.36998 19.8543 7.40336Z" fill="black"/>
</svg>
