<svg width="22" height="24" viewBox="0 0 22 24" fill="none" xmlns="http://www.w3.org/2000/svg">
<path d="M17.6377 3.92514C16.3621 2.75812 14.7162 2.1688 13.0106 2.26578C11.302 2.36275 9.73262 3.13414 8.5915 4.43765C6.23577 7.12922 6.46086 11.2787 9.09329 13.6874C10.3141 14.8041 11.8406 15.3534 13.3624 15.3534C15.1229 15.3534 16.8763 14.6179 18.1398 13.1743C20.4953 10.4833 20.2702 6.3338 17.6377 3.92514ZM17.5353 12.622C15.4782 14.9729 11.9332 15.1741 9.63372 13.0696C7.33419 10.9657 7.13775 7.34141 9.19516 4.9905C10.192 3.85165 11.5631 3.17779 13.0552 3.09325C13.1614 3.08745 13.2668 3.08441 13.3721 3.08441C14.75 3.08441 16.0621 3.59581 17.097 4.54264C19.3966 6.64683 19.593 10.2711 17.5353 12.622Z" fill="black"/>
<path d="M9.9149 5.63703C9.76547 5.80777 9.77979 6.06969 9.94651 6.2222C10.0241 6.29293 10.1205 6.32774 10.2167 6.32774C10.3281 6.32774 10.4388 6.28132 10.5188 6.1896C11.9304 4.57692 14.3613 4.43933 15.9385 5.88209C16.1052 6.03488 16.3611 6.02023 16.5108 5.84977C16.66 5.67902 16.6457 5.4171 16.479 5.2646C14.5685 3.51682 11.624 3.68425 9.9149 5.63703Z" fill="black"/>
<path d="M21.9842 8.27249C21.8467 5.92628 20.8239 3.77568 19.1042 2.21605C17.3846 0.656425 15.1759 -0.122698 12.879 0.0157205C10.5847 0.156349 8.48104 1.20209 6.95595 2.96036C3.89847 6.48493 4.11842 11.8407 7.38424 15.0956L5.98642 16.7263L5.53813 16.3198C5.37087 16.1679 5.11579 16.1834 4.96717 16.3535L0.103305 21.911C0.0314279 21.9928 -0.00532133 22.1005 0.000623386 22.2102C0.00656811 22.3199 0.0549367 22.423 0.13492 22.4962L1.66298 23.8945C1.74054 23.9652 1.837 24 1.9332 24C2.04453 24 2.15531 23.9533 2.2353 23.8619L7.10564 18.2972C7.17752 18.2151 7.21454 18.1071 7.20833 17.9969C7.20211 17.8872 7.1532 17.7839 7.07268 17.7109L6.59305 17.2761L7.99006 15.6465C9.52569 16.9166 11.411 17.5982 13.3825 17.5982C13.5573 17.5982 13.7332 17.5927 13.9091 17.5819C16.2035 17.441 18.3071 16.3953 19.8325 14.637C21.3578 12.8787 22.1217 10.6187 21.9842 8.27249ZM1.90158 23.0004L0.977719 22.155L5.30223 17.2139L6.23015 18.0552L1.90158 23.0004ZM19.2258 14.0872C17.8442 15.68 15.9387 16.6271 13.8605 16.7544C11.7825 16.8854 9.77969 16.174 8.2219 14.7616C5.00635 11.8454 4.71046 6.79796 7.56258 3.51017C8.94419 1.91739 10.8497 0.970284 12.928 0.842917C13.0874 0.832971 13.2463 0.828274 13.4049 0.828274C15.311 0.828274 17.1284 1.5317 18.5668 2.83604C20.1246 4.24868 21.0509 6.19704 21.1754 8.32195C21.2997 10.4471 20.6072 12.4947 19.2258 14.0872Z" fill="black"/>
</svg>
