<svg width="128" height="128" viewBox="0 0 128 128" fill="none" xmlns="http://www.w3.org/2000/svg">
<path d="M125.87 63.7487C125.868 62.9084 125.186 62.2267 124.346 62.225L98.3625 62.199L98.358 58.962C98.3575 58.5587 98.1963 58.171 97.9104 57.8851C97.6245 57.5992 97.2375 57.4387 96.8328 57.4382L88.1989 57.4311L88.1919 50.8602C88.1915 50.4569 88.0303 50.0692 87.7444 49.7833C87.4584 49.4974 87.0715 49.3369 86.6675 49.3357L77.3662 49.3249C77.3619 49.3249 77.3597 49.3227 77.3554 49.3227C77.3511 49.3227 77.349 49.3248 77.3447 49.3248L65.0977 49.3113C65.0906 49.3113 65.0855 49.3077 65.0791 49.307C65.0726 49.3062 65.0669 49.3105 65.0604 49.3112L52.8314 49.297C52.8228 49.297 52.8164 49.292 52.8085 49.2927C52.8006 49.2934 52.7941 49.297 52.7855 49.2969L40.5637 49.2827C40.5537 49.2827 40.5465 49.2769 40.5364 49.2769C40.5264 49.2769 40.5185 49.2819 40.5092 49.2826L30.8003 49.2713C30.397 49.2709 30.0097 49.4311 29.7245 49.7164C29.4399 50.001 29.2796 50.3883 29.2794 50.7923L29.2878 57.3631L17.6615 57.3482L17.6546 50.7744C17.6536 49.9334 16.9718 49.2516 16.1308 49.2507C15.2898 49.2497 14.6096 49.9299 14.6106 50.7709L14.6304 68.3695C14.6304 68.3724 14.629 68.3752 14.6283 68.3788C14.6275 68.3824 14.6297 68.3846 14.6304 68.3882L14.6395 76.7602C14.6399 77.1807 14.8112 77.5612 15.087 77.8371C15.3629 78.1129 15.7434 78.2842 16.1639 78.2846C17.0049 78.2856 17.6851 77.6054 17.6842 76.7644L17.6747 69.9044L29.3031 69.9201L29.3108 76.496C29.3113 76.9165 29.4825 77.297 29.7583 77.5729C30.0342 77.8487 30.4147 78.02 30.8352 78.0204L86.6995 78.0819C87.5405 78.0829 88.2207 77.4027 88.2197 76.5617L88.2121 69.993L96.851 69.9952C97.6913 69.9954 98.3708 69.3145 98.3705 68.4742L98.3653 65.2437L124.35 65.2689C125.191 65.2699 125.871 64.589 125.87 63.7487ZM17.6719 66.8597L17.6644 60.3914L29.2913 60.4057L29.2988 66.8739L17.6719 66.8597ZM32.3544 74.9768L32.3342 58.9016C32.3342 58.8973 32.3371 58.893 32.3371 58.8887C32.3371 58.8844 32.3342 58.8801 32.3342 58.8758L32.3258 52.3178L39.018 52.3256L39.0289 60.4328C39.0294 60.8533 39.2006 61.2338 39.4765 61.5097C39.7523 61.7856 40.1328 61.9568 40.5534 61.9573C41.3936 61.9575 42.0745 61.2766 42.0736 60.4371L42.0627 52.3299L51.2908 52.3406L51.3002 60.4435C51.3007 60.864 51.4719 61.2445 51.7478 61.5204C52.0237 61.7963 52.4042 61.9675 52.8247 61.968C53.6657 61.969 54.3466 61.2881 54.3449 60.4478L54.3354 52.3449L63.5635 52.3556L63.5766 60.4636C63.577 60.8841 63.7476 61.2639 64.0234 61.5397C64.2993 61.8156 64.6798 61.9868 65.101 61.9866C65.9413 61.9869 66.6222 61.306 66.6205 60.4657L66.6075 52.3592L75.8384 52.3699L75.8472 60.475C75.8469 60.8948 76.0189 61.276 76.2947 61.5519C76.5706 61.8277 76.9511 61.999 77.3716 61.9995C78.2119 62.0012 78.8928 61.3203 78.8919 60.4792L78.8831 52.3742L85.1512 52.3808L85.1581 58.9416C85.1581 58.9459 85.156 58.9481 85.1567 58.9516L85.1685 68.4689C85.1685 68.4703 85.1685 68.4718 85.1685 68.4732L85.1754 75.0369L32.3544 74.9768ZM88.21 66.9476L88.2031 60.4757L95.3158 60.4812L95.3203 63.7081C95.3203 63.711 95.3181 63.7146 95.3181 63.7174C95.3181 63.7203 95.3203 63.7239 95.3203 63.7268L95.3248 66.9494L88.21 66.9476Z" fill="white" stroke="#78CBEA"/>
</svg>
