<svg width="26" height="21" viewBox="0 0 26 21" fill="none" xmlns="http://www.w3.org/2000/svg">
<path d="M24.2659 3.4287C24.2361 3.4287 24.2064 3.4287 24.1766 3.4287C23.3137 3.4287 22.4508 3.4287 21.5879 3.4287C21.5666 3.4287 21.5453 3.4287 21.5241 3.4287C21.4731 3.4287 21.4603 3.44145 21.4476 3.48821C21.4263 3.56898 21.4051 3.64974 21.3838 3.73051C21.3541 3.84528 21.3243 3.96005 21.2945 4.07908C21.235 4.30012 21.1755 4.52116 21.116 4.74646C21.0693 4.92924 21.0225 5.11203 20.9757 5.29481C20.929 5.4776 20.8737 5.66464 20.827 5.84742C20.7717 6.05146 20.7164 6.2555 20.6612 6.45954C20.6102 6.64657 20.5634 6.83361 20.5124 7.0249C20.4741 7.17793 20.4316 7.33096 20.3891 7.48399C20.3381 7.68378 20.2871 7.88357 20.2318 8.08335C20.1936 8.23213 20.1511 8.38091 20.1086 8.53394C20.0533 8.73798 20.0023 8.94202 19.947 9.15031C19.9088 9.29909 19.8663 9.45212 19.828 9.6009C19.7727 9.80494 19.7217 10.0047 19.6665 10.2088C19.624 10.3618 19.5857 10.5148 19.5432 10.6679C19.4922 10.8676 19.4412 11.0674 19.3859 11.2672C19.3434 11.4245 19.3009 11.5775 19.2584 11.7348C19.2074 11.9346 19.1564 12.1344 19.1011 12.3342C19.0586 12.4915 19.0161 12.6445 18.9736 12.8018C18.9226 12.9931 18.8716 13.1886 18.8206 13.3841C18.7738 13.5542 18.727 13.7242 18.6803 13.8942C18.6335 14.077 18.5868 14.2641 18.5358 14.4511C18.4975 14.6041 18.4507 14.7572 18.4125 14.9102C18.3572 15.1142 18.3062 15.314 18.251 15.5181C18.2339 15.5818 18.2127 15.6456 18.1957 15.7093C18.1744 15.7136 18.1532 15.7136 18.1319 15.7178C18.1064 15.7178 18.0852 15.7178 18.0597 15.7178C12.6526 15.7178 7.24131 15.7178 1.83426 15.7178C1.79175 15.7178 1.74499 15.7263 1.69824 15.7093C1.69398 15.6923 1.68973 15.6753 1.68548 15.6583C1.68123 15.6328 1.68548 15.6116 1.68548 15.5861C1.68548 15.059 1.68548 14.5319 1.68548 14.0048C1.68548 13.9665 1.68123 13.9282 1.69824 13.8857C1.71524 13.8815 1.73224 13.8772 1.74925 13.8772C1.78325 13.8772 1.81726 13.8772 1.84701 13.8772C6.77797 13.8772 11.7047 13.8772 16.6356 13.8772C16.6611 13.8772 16.6909 13.8772 16.7164 13.8772C16.8142 13.8772 16.8014 13.8602 16.8227 13.788C16.8864 13.5584 16.9417 13.3331 17.0012 13.1036C17.0437 12.9463 17.0862 12.7848 17.1287 12.6275C17.1797 12.432 17.2308 12.2364 17.2818 12.0366C17.3413 11.8156 17.4008 11.5988 17.456 11.3777C17.5028 11.195 17.5496 11.0079 17.6006 10.8209C17.6473 10.6381 17.6983 10.4596 17.7494 10.2768C17.8046 10.0685 17.8599 9.8602 17.9151 9.65191C17.9661 9.46487 18.0129 9.27784 18.0639 9.08655C18.1064 8.92927 18.1489 8.77624 18.1872 8.61896C18.2382 8.42342 18.2892 8.22788 18.3402 8.02809C18.3827 7.87081 18.4252 7.71353 18.4677 7.552C18.5188 7.36071 18.5698 7.16517 18.6208 6.96964C18.659 6.81661 18.7015 6.66358 18.744 6.51055C18.7993 6.30651 18.8503 6.10672 18.9056 5.90268C18.9481 5.74965 18.9863 5.59662 19.0289 5.44359C19.0799 5.23955 19.1351 5.03976 19.1861 4.83572C19.2286 4.68269 19.2712 4.52966 19.3094 4.37663C19.3604 4.17684 19.4114 3.97706 19.4667 3.77727C19.5049 3.62849 19.5475 3.47971 19.5857 3.32668C19.6367 3.13114 19.6877 2.9356 19.743 2.73582C19.7983 2.53178 19.8535 2.32774 19.9088 2.11945C19.9513 1.96216 19.9895 1.80063 20.032 1.64335C20.0448 1.60084 20.0576 1.58809 20.1001 1.58384C20.1341 1.58384 20.1681 1.58384 20.1978 1.58384C21.5071 1.58384 22.8163 1.58384 24.1256 1.58384C24.1681 1.58384 24.2106 1.57959 24.2489 1.57959C24.2659 2.19171 24.2659 2.80808 24.2659 3.4287Z" fill="black" stroke="white" stroke-width="1.5"/>
<path d="M5.75784 6.84196C5.75359 6.85472 5.75359 6.86747 5.74509 6.87172C5.51129 7.13102 5.2775 7.39032 5.03945 7.64962C5.03095 7.65812 5.02245 7.66237 5.0097 7.67088C4.99694 7.66662 4.98844 7.66663 4.98419 7.65812C3.92999 6.61242 2.88428 5.56247 1.83008 4.50826C1.84283 4.47 1.86834 4.453 1.89384 4.4275C2.10213 4.21921 2.31467 4.01091 2.52721 3.80262C2.94379 3.39029 3.36038 2.97796 3.77696 2.56563C4.16803 2.17881 4.55486 1.79198 4.94593 1.40941C4.96294 1.39241 4.98419 1.3754 5.00545 1.3584C5.0182 1.3669 5.03095 1.37115 5.03945 1.37965C5.2775 1.6177 5.5198 1.85575 5.75784 2.09804C5.76634 2.10654 5.77484 2.12355 5.7876 2.1363C5.76634 2.1618 5.74509 2.18306 5.72383 2.20431C5.48154 2.44661 5.23924 2.69316 4.99269 2.93546C4.76315 3.165 4.52935 3.39455 4.29981 3.62834C4.22754 3.7006 4.15528 3.77287 4.08302 3.84513C4.06176 3.86639 4.03626 3.88339 4.03626 3.9259C4.04901 3.93015 4.06176 3.9344 4.07451 3.9344C4.10852 3.9344 4.14253 3.9344 4.17228 3.9344C6.58675 3.9344 9.00122 3.9344 11.4157 3.9344C11.4922 3.9344 11.5645 3.93015 11.641 3.9514C11.6495 3.95565 11.658 3.95565 11.6665 3.95565C11.8153 3.95991 11.9555 3.99391 12.1001 4.01942C12.3466 4.06618 12.5804 4.14694 12.81 4.24046C13.0183 4.32973 13.2223 4.43175 13.4136 4.55927C13.5666 4.65704 13.7111 4.76756 13.8514 4.88658C13.9619 4.9801 14.064 5.08212 14.1617 5.18414C14.2807 5.31167 14.3913 5.44344 14.489 5.58797C14.5783 5.71124 14.6591 5.84302 14.7313 5.9748C14.7823 6.07257 14.8334 6.17034 14.8801 6.27236C14.9226 6.36587 14.9609 6.46364 14.9949 6.56566C15.0586 6.7527 15.1054 6.94399 15.1437 7.13527C15.1947 7.39032 15.2074 7.64962 15.2074 7.91317C15.2074 8.07045 15.1947 8.23199 15.1819 8.38927C15.1734 8.48278 15.1479 8.5763 15.1309 8.66982C15.0969 8.83985 15.0501 9.00563 14.9949 9.17142C14.9354 9.3457 14.8631 9.51149 14.7738 9.67302C14.6973 9.81329 14.6208 9.94932 14.5273 10.0811C14.3488 10.3404 14.1447 10.5742 13.9109 10.7825C13.7962 10.8845 13.6814 10.9823 13.5539 11.0673C13.4391 11.1481 13.3158 11.2161 13.1968 11.2883C13.048 11.3776 12.8907 11.4499 12.7292 11.5136C12.5677 11.5774 12.4019 11.6326 12.2361 11.6709C12.1766 11.6837 12.1128 11.7007 12.0533 11.7134C11.9981 11.7262 11.9428 11.7347 11.8875 11.7432C11.6877 11.7687 11.488 11.7814 11.2882 11.7814C9.26052 11.7814 7.23288 11.7814 5.20098 11.7814C5.15847 11.7814 5.11597 11.7899 5.07346 11.7687C5.06921 11.7559 5.06496 11.7432 5.06496 11.7262C5.06496 11.3946 5.06496 11.063 5.06496 10.7272C5.06496 10.7145 5.06921 10.6975 5.07346 10.6847C5.11597 10.672 5.15422 10.6762 5.19248 10.6762C7.24988 10.6762 9.30303 10.6762 11.3604 10.6762C11.539 10.6762 11.7132 10.6507 11.8833 10.6124C12.0278 10.5784 12.1723 10.5359 12.3126 10.4807C12.4061 10.4424 12.4997 10.3999 12.5889 10.3531C12.776 10.2554 12.9545 10.1364 13.116 9.99608C13.2861 9.8473 13.4391 9.68577 13.5709 9.50298C13.6516 9.38821 13.7281 9.26919 13.7919 9.14591C13.8472 9.03539 13.8982 8.92487 13.9407 8.8101C14.0172 8.60606 14.064 8.38927 14.0937 8.17672C14.1107 8.0662 14.115 7.95568 14.115 7.84516C14.1107 7.65812 14.098 7.47109 14.0555 7.28405C14.0214 7.11827 13.9747 6.95249 13.9109 6.79521C13.8259 6.58266 13.7196 6.38288 13.5836 6.20009C13.4263 5.9833 13.2478 5.78776 13.0353 5.62198C12.8567 5.4817 12.6654 5.35843 12.4571 5.26491C12.3764 5.2309 12.2914 5.19689 12.2063 5.16289C12.1086 5.12038 12.0066 5.10338 11.9045 5.07787C11.7515 5.03536 11.5985 5.02261 11.4454 5.00986C11.3902 5.00561 11.3307 5.00561 11.2754 5.00561C9.09474 5.00561 6.91407 5.00561 4.73339 5.00561C4.51235 5.00561 4.29131 5.00561 4.07026 5.00561C4.05326 5.00561 4.03626 5.00561 4.015 5.00561C3.99375 5.00561 3.96824 5.00136 3.95974 5.02261C3.94699 5.05237 3.97249 5.06512 3.9895 5.08212C4.26155 5.35418 4.5336 5.62623 4.80141 5.89403C5.09896 6.19159 5.40077 6.48915 5.69833 6.79095C5.72384 6.79946 5.74084 6.82071 5.75784 6.84196Z" fill="black"/>
<path d="M14.2678 20.9463C14.1658 20.9378 14.0383 20.9336 13.9108 20.9081C13.7832 20.8826 13.6557 20.84 13.5367 20.789C13.3794 20.7253 13.2349 20.6403 13.1031 20.5382C12.9501 20.4192 12.8183 20.2832 12.7078 20.1259C12.6057 19.9856 12.5292 19.8284 12.4655 19.6668C12.4315 19.5776 12.4145 19.484 12.3932 19.3905C12.3592 19.2417 12.3635 19.0887 12.3635 18.9357C12.3635 18.7699 12.4017 18.6084 12.4485 18.4511C12.4952 18.2853 12.5717 18.1323 12.6653 17.9877C12.7758 17.8135 12.9118 17.6647 13.0691 17.5329C13.2434 17.3884 13.4389 17.2821 13.6557 17.2098C13.7407 17.1801 13.8257 17.1546 13.915 17.1333C13.9745 17.1206 14.0383 17.1121 14.102 17.1121C14.2296 17.1078 14.3613 17.1078 14.4889 17.1121C14.6164 17.1163 14.7354 17.1503 14.8587 17.1886C15.033 17.2438 15.1945 17.3204 15.3433 17.4181C15.5006 17.5202 15.6408 17.6519 15.7599 17.7965C15.8576 17.9155 15.9426 18.043 16.0064 18.179C16.0617 18.2938 16.1127 18.4128 16.1382 18.5404C16.1594 18.6339 16.1764 18.7274 16.1977 18.8209C16.2019 18.8422 16.2019 18.8677 16.2019 18.8932C16.2019 18.9527 16.2019 19.0122 16.2019 19.0717C16.2019 19.3098 16.1509 19.535 16.0659 19.7518C16.0362 19.8326 15.9979 19.9091 15.9554 19.9856C15.8279 20.2109 15.6578 20.4022 15.4496 20.5595C15.3263 20.653 15.1903 20.7338 15.0457 20.7933C14.8629 20.8698 14.6759 20.9251 14.4761 20.9336C14.4166 20.9378 14.3571 20.9421 14.2678 20.9463Z" fill="black"/>
<path d="M6.40356 20.9463C6.30154 20.9378 6.17402 20.9336 6.04649 20.9081C5.91897 20.8826 5.79144 20.84 5.67242 20.789C5.51514 20.7253 5.37061 20.6403 5.23884 20.5382C5.08581 20.4192 4.95403 20.2832 4.84351 20.1259C4.74149 19.9856 4.66498 19.8284 4.60121 19.6668C4.56721 19.5776 4.5502 19.484 4.52895 19.3905C4.49494 19.2417 4.49919 19.0887 4.49919 18.9357C4.49919 18.7699 4.53745 18.6084 4.58421 18.4511C4.63097 18.2853 4.70748 18.1323 4.801 17.9877C4.91152 17.8135 5.04755 17.6647 5.20483 17.5329C5.37911 17.3884 5.57465 17.2821 5.79144 17.2098C5.87646 17.1801 5.96148 17.1546 6.05074 17.1333C6.11026 17.1206 6.17402 17.1121 6.23778 17.1121C6.36531 17.1078 6.49708 17.1078 6.62461 17.1121C6.75213 17.1163 6.87115 17.1503 6.99443 17.1886C7.16871 17.2438 7.33024 17.3204 7.47902 17.4181C7.6363 17.5202 7.77658 17.6519 7.8956 17.7965C7.99337 17.9155 8.07839 18.043 8.14215 18.179C8.19741 18.2938 8.24842 18.4128 8.27393 18.5404C8.29518 18.6339 8.31218 18.7274 8.33344 18.8209C8.33769 18.8422 8.33769 18.8677 8.33769 18.8932C8.33769 18.9527 8.33769 19.0122 8.33769 19.0717C8.33769 19.3098 8.28668 19.535 8.20166 19.7518C8.17191 19.8326 8.13365 19.9091 8.09114 19.9856C7.96362 20.2109 7.79358 20.4022 7.58529 20.5595C7.46202 20.653 7.32599 20.7338 7.18146 20.7933C6.99868 20.8698 6.81164 20.9251 6.61185 20.9336C6.55234 20.9378 6.49283 20.9421 6.40356 20.9463Z" fill="black"/>
</svg>
