<svg width="83" height="65" viewBox="0 0 83 65" fill="none" xmlns="http://www.w3.org/2000/svg">
<path d="M15.0401 64.359V60.0943C15.0651 59.7356 15.0134 59.3757 14.8885 59.0386C14.7637 58.7015 14.5684 58.3949 14.3159 58.1393C14.0634 57.8837 13.7593 57.685 13.424 57.5564C13.0887 57.4277 12.7299 57.3722 12.3715 57.3934C11.9024 57.3628 11.4337 57.4587 11.0143 57.6713C10.5948 57.8838 10.24 58.2051 9.98675 58.6017C9.75594 58.2169 9.42581 57.9016 9.0311 57.689C8.63638 57.4763 8.19172 57.3742 7.74393 57.3934C7.3536 57.3738 6.9649 57.4566 6.61633 57.6336C6.26777 57.8106 5.97142 58.0757 5.75662 58.4027V57.564H4.28027V64.359H5.77074V60.5918C5.73852 60.3594 5.75811 60.1226 5.82809 59.8987C5.89807 59.6747 6.01671 59.469 6.17549 59.2964C6.33428 59.1238 6.52926 58.9886 6.74644 58.9004C6.96362 58.8123 7.19762 58.7734 7.4316 58.7865C8.41105 58.7865 8.90794 59.4262 8.90794 60.5776V64.359H10.3984V60.5918C10.3686 60.3598 10.3899 60.124 10.4608 59.9011C10.5316 59.6782 10.6504 59.4736 10.8087 59.3015C10.9669 59.1295 11.1609 58.9942 11.377 58.9052C11.593 58.8163 11.8259 58.7757 12.0592 58.7865C13.067 58.7865 13.5496 59.4262 13.5496 60.5776V64.359H15.0401ZM37.0992 57.564H34.6861V55.5028H33.1957V57.564H31.8187V58.9145H33.1957V62.0134C33.1957 63.5913 33.806 64.5296 35.552 64.5296C36.2043 64.5315 36.8439 64.3492 37.3973 64.0036L36.9715 62.7384C36.5756 62.9749 36.1263 63.107 35.6656 63.1222C34.9274 63.1222 34.6861 62.6672 34.6861 61.985V58.9145H37.0992V57.564ZM49.6903 57.3934C49.3303 57.3828 48.9742 57.4696 48.6594 57.6447C48.3446 57.8199 48.0829 58.0768 47.9017 58.3885V57.564H46.4396V64.359H47.9159V60.5492C47.9159 59.4262 48.3985 58.8007 49.3639 58.8007C49.6796 58.7964 49.9931 58.8544 50.2865 58.9713L50.7407 57.5782C50.4036 57.4574 50.0483 57.3949 49.6903 57.3934ZM30.6547 58.1041C29.8191 57.6066 28.8583 57.3599 27.8867 57.3934C26.1691 57.3934 25.0619 58.2179 25.0619 59.5683C25.0619 60.6772 25.8852 61.3596 27.404 61.5727L28.0996 61.6722C28.9087 61.7858 29.292 61.9991 29.292 62.3829C29.292 62.9089 28.7525 63.2075 27.7447 63.2075C26.934 63.2309 26.1391 62.9805 25.4877 62.4966L24.7922 63.6481C25.6521 64.2495 26.6821 64.5585 27.7305 64.5296C29.6894 64.5296 30.825 63.6055 30.825 62.3119C30.825 61.1178 29.9308 60.4923 28.4545 60.279L27.759 60.1795C27.1201 60.0943 26.6092 59.9665 26.6092 59.5116C26.6092 59.014 27.0916 58.7154 27.9009 58.7154C28.6439 58.7267 29.3718 58.9272 30.016 59.2982L30.6547 58.1041ZM70.2021 57.3934C69.8422 57.3828 69.486 57.4696 69.1712 57.6447C68.8564 57.8199 68.5947 58.0768 68.4136 58.3885V57.564H66.9515V64.359H68.4277V60.5492C68.4277 59.4262 68.9104 58.8007 69.8756 58.8007C70.1914 58.7964 70.5049 58.8543 70.7984 58.9713L71.2526 57.5782C70.9154 57.4574 70.5602 57.3949 70.2021 57.3934ZM51.1807 60.9613C51.1611 61.44 51.2417 61.9175 51.4175 62.3631C51.5932 62.8088 51.8601 63.2126 52.2011 63.5487C52.542 63.8848 52.9495 64.1457 53.3972 64.3146C53.8449 64.4836 54.3229 64.5568 54.8005 64.5296C55.6869 64.5742 56.5577 64.2851 57.242 63.7192L56.5323 62.5251C56.0219 62.9147 55.3996 63.1291 54.7579 63.1364C54.2047 63.1027 53.6851 62.859 53.3053 62.4548C52.9254 62.0506 52.7139 61.5165 52.7139 60.9614C52.7139 60.4064 52.9254 59.8723 53.3053 59.4681C53.6851 59.0639 54.2047 58.8201 54.7579 58.7865C55.3996 58.7938 56.0219 59.0082 56.5323 59.3978L57.242 58.2037C56.5577 57.6379 55.6868 57.3488 54.8005 57.3934C54.3229 57.3662 53.8449 57.4394 53.3972 57.6083C52.9496 57.7772 52.5421 58.0381 52.2012 58.3742C51.8602 58.7102 51.5933 59.114 51.4175 59.5596C51.2418 60.0052 51.1611 60.4826 51.1807 60.9613ZM65.0067 60.9613V57.564H63.5304V58.3885C63.2784 58.0633 62.9523 57.8033 62.5794 57.6301C62.2065 57.457 61.7976 57.3758 61.387 57.3934C60.4722 57.4383 59.6097 57.8339 58.9782 58.4981C58.3466 59.1623 57.9944 60.0443 57.9944 60.9615C57.9944 61.8787 58.3466 62.7607 58.9782 63.4249C59.6097 64.0892 60.4722 64.4847 61.387 64.5296C61.7976 64.5471 62.2065 64.4659 62.5795 64.2928C62.9524 64.1197 63.2785 63.8596 63.5304 63.5344V64.359H65.0067V60.9613ZM59.5132 60.9613C59.5361 60.5604 59.6757 60.1749 59.9147 59.8524C60.1538 59.5299 60.4819 59.2846 60.8585 59.1466C61.2351 59.0086 61.6439 58.984 62.0343 59.0759C62.4247 59.1677 62.7797 59.372 63.0556 59.6635C63.3315 59.955 63.5162 60.321 63.5868 60.7164C63.6575 61.1117 63.6111 61.5191 63.4533 61.8883C63.2955 62.2576 63.0332 62.5725 62.6989 62.7943C62.3645 63.016 61.9726 63.1349 61.5716 63.1364C61.2905 63.1402 61.0116 63.0856 60.7526 62.9762C60.4936 62.8667 60.2601 62.7047 60.0667 62.5003C59.8733 62.296 59.7243 62.0538 59.629 61.7889C59.5337 61.524 59.4943 61.2422 59.5132 60.9613ZM41.6985 57.3934C40.7779 57.4419 39.9118 57.8457 39.2819 58.5198C38.6521 59.194 38.3075 60.0862 38.3203 61.0094C38.3332 61.9325 38.7025 62.8148 39.3509 63.4711C39.9993 64.1274 40.8763 64.5068 41.7979 64.5296C42.8106 64.5652 43.8011 64.2261 44.5801 63.577L43.8561 62.4825C43.2955 62.9324 42.6013 63.1825 41.883 63.1932C41.3952 63.2343 40.9105 63.0837 40.5317 62.7733C40.1528 62.4628 39.9095 62.0169 39.8531 61.5299H44.8924C44.9066 61.3453 44.9207 61.1604 44.9207 60.9613C44.9066 58.8434 43.6006 57.3934 41.6985 57.3934ZM41.67 58.7154C42.116 58.7067 42.5471 58.8754 42.8691 59.1845C43.191 59.4936 43.3775 59.9179 43.3877 60.3644H39.8673C39.8932 59.9082 40.0963 59.4803 40.4332 59.1721C40.7701 58.864 41.214 58.7001 41.67 58.7154ZM78.7049 60.9613V54.8347H77.2286V58.3885C76.9766 58.0633 76.6505 57.8033 76.2776 57.6301C75.9047 57.457 75.4959 57.3758 75.0852 57.3934C74.1704 57.4383 73.3079 57.8338 72.6763 58.498C72.0448 59.1623 71.6925 60.0443 71.6925 60.9615C71.6925 61.8787 72.0448 62.7607 72.6763 63.425C73.3079 64.0892 74.1704 64.4847 75.0852 64.5296C75.4959 64.5471 75.9047 64.4659 76.2776 64.2928C76.6506 64.1197 76.9766 63.8596 77.2286 63.5344V64.359H78.7049V60.9613ZM81.1658 63.3742C81.2575 63.3736 81.3484 63.3917 81.4329 63.4273C81.5142 63.4612 81.5882 63.5103 81.6511 63.5721C81.7135 63.6336 81.7634 63.7067 81.7981 63.7872C81.8336 63.87 81.8519 63.9591 81.8519 64.0492C81.8519 64.1393 81.8336 64.2284 81.7981 64.3112C81.7632 64.3914 81.7133 64.4642 81.6511 64.5255C81.5881 64.5873 81.514 64.6366 81.4329 64.6711C81.3485 64.7073 81.2576 64.7256 81.1658 64.725C81.0308 64.7264 80.8983 64.6879 80.785 64.6143C80.6717 64.5407 80.5825 64.4353 80.5287 64.3112C80.4933 64.2284 80.475 64.1393 80.475 64.0492C80.475 63.9592 80.4933 63.87 80.5287 63.7872C80.5633 63.7068 80.613 63.6337 80.6751 63.5721C80.7379 63.5099 80.8123 63.4607 80.8941 63.4273C80.9802 63.3915 81.0726 63.3735 81.1658 63.3742ZM81.1658 64.576C81.2358 64.5766 81.3051 64.5625 81.3693 64.5346C81.4309 64.5078 81.487 64.4696 81.5345 64.422C81.6325 64.3229 81.6875 64.189 81.6875 64.0495C81.6875 63.91 81.6325 63.7762 81.5345 63.6771C81.487 63.6296 81.431 63.5917 81.3693 63.5654C81.305 63.5381 81.2357 63.5243 81.1658 63.5249C81.0947 63.5243 81.0242 63.5381 80.9584 63.5654C80.8958 63.5913 80.8388 63.6292 80.7907 63.6771C80.6926 63.7762 80.6376 63.91 80.6376 64.0495C80.6376 64.1891 80.6926 64.3229 80.7907 64.422C80.8389 64.47 80.8958 64.5082 80.9584 64.5346C81.024 64.5624 81.0946 64.5765 81.1658 64.576ZM81.2055 63.7334C81.2719 63.729 81.3377 63.7481 81.3916 63.7872C81.413 63.8049 81.4301 63.8274 81.4414 63.8528C81.4527 63.8782 81.458 63.9059 81.4568 63.9337C81.4576 63.9576 81.4533 63.9813 81.4444 64.0034C81.4354 64.0254 81.4219 64.0454 81.4048 64.0619C81.3637 64.0985 81.3116 64.1203 81.2568 64.124L81.4618 64.3608H81.3015L81.1114 64.1257H81.0502V64.3608H80.9163V63.7334H81.2055ZM81.0502 63.851V64.0182H81.204C81.2335 64.0197 81.2628 64.0124 81.2883 63.9974C81.2986 63.9905 81.307 63.9809 81.3125 63.9698C81.318 63.9586 81.3204 63.9462 81.3196 63.9337C81.3203 63.9215 81.3177 63.9094 81.3123 63.8984C81.3068 63.8875 81.2985 63.8783 81.2883 63.8715C81.2628 63.8567 81.2335 63.8495 81.204 63.851H81.0502ZM73.2115 60.9613C73.2344 60.5604 73.374 60.1749 73.6131 59.8525C73.8522 59.53 74.1802 59.2847 74.5569 59.1468C74.9335 59.0088 75.3422 58.9842 75.7326 59.0761C76.123 59.168 76.478 59.3723 76.7538 59.6638C77.0297 59.9553 77.2143 60.3212 77.285 60.7166C77.3556 61.1119 77.3091 61.5193 77.1513 61.8885C76.9935 62.2577 76.7313 62.5726 76.3969 62.7943C76.0626 63.0161 75.6707 63.135 75.2697 63.1364C74.9886 63.1402 74.7098 63.0856 74.4508 62.9761C74.1918 62.8667 73.9583 62.7046 73.7649 62.5003C73.5715 62.2959 73.4225 62.0537 73.3273 61.7888C73.232 61.524 73.1926 61.2422 73.2115 60.9613ZM23.3585 60.9613V57.564H21.8821V58.3885C21.6301 58.0633 21.3041 57.8033 20.9311 57.6301C20.5582 57.457 20.1493 57.3758 19.7387 57.3934C18.8239 57.4383 17.9615 57.8339 17.3299 58.4981C16.6984 59.1623 16.3461 60.0443 16.3461 60.9615C16.3461 61.8787 16.6984 62.7607 17.3299 63.4249C17.9615 64.0892 18.8239 64.4847 19.7387 64.5296C20.1493 64.5471 20.5582 64.4659 20.9311 64.2928C21.3041 64.1197 21.6301 63.8596 21.8821 63.5344V64.359H23.3585V60.9613ZM17.865 60.9613C17.888 60.5604 18.0276 60.1749 18.2666 59.8525C18.5057 59.53 18.8338 59.2847 19.2104 59.1468C19.587 59.0088 19.9957 58.9842 20.3861 59.0761C20.7765 59.168 21.1315 59.3723 21.4074 59.6638C21.6832 59.9553 21.8679 60.3213 21.9385 60.7166C22.0091 61.1119 21.9627 61.5193 21.8049 61.8885C21.6471 62.2577 21.3848 62.5726 21.0505 62.7944C20.7161 63.0161 20.3243 63.135 19.9232 63.1364C19.6421 63.1402 19.3633 63.0856 19.1043 62.9761C18.8453 62.8667 18.6118 62.7046 18.4184 62.5003C18.2251 62.2959 18.0761 62.0537 17.9808 61.7888C17.8856 61.524 17.8461 61.2422 17.865 60.9613Z" fill="#231F20"/>
<path d="M52.5321 5.7832H30.1719V46.0228H52.5321V5.7832Z" fill="#FF5F00"/>
<path d="M31.5862 25.9011C31.5827 22.0258 32.4596 18.2004 34.1506 14.7146C35.8416 11.2288 38.3024 8.17397 41.3466 5.78135C37.5768 2.81393 33.0493 0.968538 28.2817 0.456093C23.5141 -0.0563518 18.6987 0.784831 14.3859 2.88349C10.0731 4.98215 6.43696 8.25361 3.89301 12.324C1.34907 16.3943 0 21.0993 0 25.9011C0 30.703 1.34907 35.408 3.89301 39.4784C6.43696 43.5487 10.0731 46.8202 14.3859 48.9188C18.6987 51.0175 23.5141 51.8587 28.2817 51.3462C33.0493 50.8338 37.5768 48.9884 41.3466 46.021C38.3024 43.6283 35.8417 40.5735 34.1507 37.0877C32.4597 33.6019 31.5827 29.7765 31.5862 25.9011Z" fill="#EB001B"/>
<path d="M82.6969 25.901C82.697 30.7028 81.3481 35.4078 78.8043 39.4781C76.2605 43.5485 72.6245 46.82 68.3118 48.9187C63.9991 51.0173 59.1837 51.8585 54.4162 51.3461C49.6487 50.8337 45.1213 48.9883 41.3516 46.0208C44.3931 43.6258 46.8519 40.5704 48.5426 37.0852C50.2334 33.6 51.1118 29.7758 51.1118 25.901C51.1118 22.0263 50.2334 18.2021 48.5426 14.7169C46.8519 11.2316 44.3931 8.17627 41.3516 5.78122C45.1213 2.8138 49.6487 0.968405 54.4162 0.455966C59.1837 -0.0564722 63.9991 0.784726 68.3118 2.88341C72.6245 4.98209 76.2605 8.25357 78.8043 12.3239C81.3481 16.3943 82.697 21.0992 82.6969 25.901Z" fill="#F79E1B"/>
<path d="M80.2582 41.7582V40.9344H80.5899V40.7665H79.7451V40.9344H80.077V41.7582H80.2582ZM81.8983 41.7582V40.7649H81.6393L81.3415 41.4481L81.0436 40.7649H80.7845V41.7582H80.9673V41.009L81.2467 41.6549H81.4362L81.7156 41.0073V41.7582H81.8983Z" fill="#F79E1B"/>
</svg>
