<svg width="110" height="34" viewBox="0 0 110 34" fill="none" xmlns="http://www.w3.org/2000/svg">
<path d="M40.1816 32.444L45.7481 1.13293H54.4456L49.0531 32.444H40.1816Z" fill="#3C58BF"/>
<path d="M40.1816 32.444L47.3136 1.13293H54.4456L49.0531 32.444H40.1816Z" fill="#293688"/>
<path d="M80.5383 1.48096C78.7987 0.785156 76.0155 0.0893555 72.5365 0.0893555C63.839 0.0893555 57.5768 4.43812 57.5768 10.7003C57.5768 15.397 61.9255 17.8323 65.4046 19.3979C68.8836 20.9634 69.9273 22.0071 69.9273 23.3987C69.9273 25.4861 67.1441 26.5298 64.7088 26.5298C61.2297 26.5298 59.3163 26.008 56.3591 24.7903L55.1415 24.2685L53.9238 31.4004C56.0112 32.2702 59.8381 33.1399 63.839 33.1399C73.0584 33.1399 79.1466 28.7912 79.1466 22.1811C79.1466 18.5281 76.8853 15.7449 71.6668 13.4835C68.5357 11.918 66.6222 11.0482 66.6222 9.48268C66.6222 8.09108 68.1878 6.69947 71.6668 6.69947C74.6239 6.69947 76.7113 7.22133 78.2769 7.91713L79.1466 8.26503L80.5383 1.48096Z" fill="#3C58BF"/>
<path d="M80.5383 1.48096C78.7987 0.785156 76.0155 0.0893555 72.5365 0.0893555C63.839 0.0893555 59.1423 4.43812 59.1423 10.7003C59.1423 15.397 61.9255 17.8323 65.4046 19.3979C68.8836 20.9634 69.9273 22.0071 69.9273 23.3987C69.9273 25.4861 67.1441 26.5298 64.7088 26.5298C61.2297 26.5298 59.3163 26.008 56.3591 24.7903L55.1415 24.2685L53.9238 31.4004C56.0112 32.2702 59.8381 33.1399 63.839 33.1399C73.0584 33.1399 79.1466 28.7912 79.1466 22.1811C79.1466 18.5281 76.8853 15.7449 71.6668 13.4835C68.5357 11.918 66.6222 11.0482 66.6222 9.48268C66.6222 8.09108 68.1878 6.69947 71.6668 6.69947C74.6239 6.69947 76.7113 7.22133 78.2769 7.91713L79.1466 8.26503L80.5383 1.48096Z" fill="#293688"/>
<path d="M95.4987 1.13293C93.4113 1.13293 91.8457 1.30689 90.976 3.39429L77.9297 32.444H87.323L89.0625 27.2255H100.195L101.239 32.444H109.589L102.283 1.13293H95.4987V1.13293ZM91.4978 22.007C92.0197 20.4414 94.9768 12.7876 94.9768 12.7876C94.9768 12.7876 95.6726 10.8742 96.1945 9.65651L96.7163 12.6137C96.7163 12.6137 98.4558 20.4414 98.8037 22.1809H91.4978V22.007Z" fill="#3C58BF"/>
<path d="M97.5861 1.13293C95.4987 1.13293 93.9331 1.30689 93.0634 3.39429L77.9297 32.444H87.323L89.0625 27.2255H100.195L101.239 32.444H109.589L102.283 1.13293H97.5861V1.13293ZM91.4978 22.007C92.1936 20.2675 94.9768 12.7876 94.9768 12.7876C94.9768 12.7876 95.6726 10.8742 96.1945 9.65651L96.7163 12.6137C96.7163 12.6137 98.4558 20.4414 98.8037 22.1809H91.4978V22.007Z" fill="#293688"/>
<path d="M24.1791 23.0508L23.3093 18.5281C21.7438 13.3096 16.6992 7.56923 11.1328 4.78602L18.9606 32.6181H28.3539L42.4439 1.30701H33.0506L24.1791 23.0508Z" fill="#3C58BF"/>
<path d="M24.1791 23.0508L23.3093 18.5281C21.7438 13.3096 16.6992 7.56923 11.1328 4.78602L18.9606 32.6181H28.3539L42.4439 1.30701H34.7901L24.1791 23.0508Z" fill="#293688"/>
<path d="M0 1.13293L1.56555 1.48084C12.6984 4.09009 20.3522 10.7002 23.3094 18.528L20.1783 3.74219C19.6564 1.65479 18.0909 1.13293 16.1774 1.13293H0V1.13293Z" fill="#FFBC00"/>
<path d="M0 1.13293C11.1328 3.74219 20.3522 10.5263 23.3094 18.354L20.3522 6.00355C19.8304 3.91614 18.0909 2.69849 16.1774 2.69849L0 1.13293Z" fill="#F7981D"/>
<path d="M0 1.13293C11.1328 3.74219 20.3522 10.5263 23.3094 18.354L21.222 11.57C20.7001 9.48256 20.0043 7.39515 17.569 6.5254L0 1.13293Z" fill="#ED7C00"/>
<path d="M32.8775 22.007L26.9632 16.0927L24.18 22.7028L23.4842 18.354C21.9186 13.1355 16.874 7.39515 11.3076 4.61194L19.1354 32.444H28.5287L32.8775 22.007Z" fill="#051244"/>
<path d="M49.0551 32.444L41.5752 24.7902L40.1836 32.444H49.0551Z" fill="#051244"/>
<path d="M69.0585 21.6591C69.7543 22.3549 70.1022 22.8767 69.9283 23.5725C69.9283 25.6599 67.145 26.7036 64.7097 26.7036C61.2307 26.7036 59.3173 26.1818 56.3601 24.9641L55.1425 24.4423L53.9248 31.5742C56.0122 32.444 59.8391 33.3137 63.84 33.3137C69.4064 33.3137 73.9291 31.7482 76.5384 28.965L69.0585 21.6591Z" fill="#051244"/>
<path d="M79.1484 32.4441H87.3241L89.0636 27.2256H100.196L101.24 32.4441H109.59L106.633 19.7457L96.1956 9.65662L96.7174 12.4398C96.7174 12.4398 98.4569 20.2676 98.8048 22.0071H91.4989C92.1947 20.2676 94.9779 12.7877 94.9779 12.7877C94.9779 12.7877 95.6737 10.8743 96.1956 9.65662" fill="#051244"/>
</svg>
