<svg width="108" height="32" viewBox="0 0 108 32" fill="none" xmlns="http://www.w3.org/2000/svg">
<path fill-rule="evenodd" clip-rule="evenodd" d="M96.7945 0.30542H76.1006C77.2132 7.2034 83.8886 13.6563 91.2316 13.6563H107.698C107.92 12.9888 107.92 12.0987 107.92 11.4312C107.92 5.20076 103.025 0.30542 96.7945 0.30542Z" fill="url(#paint0_linear_472:4048)"/>
<path fill-rule="evenodd" clip-rule="evenodd" d="M77.8809 14.7688V31.4575H87.8941V22.5568H96.7947C101.69 22.5568 105.918 19.2191 107.253 14.7688H77.8809Z" fill="#4DB45F"/>
<path fill-rule="evenodd" clip-rule="evenodd" d="M42.2783 0.30542V31.4576H51.1789C51.1789 31.4576 53.4041 31.4576 54.5167 29.2324C60.5246 17.2166 62.3047 13.6563 62.3047 13.6563H63.4173V31.4576H73.4305V0.30542H64.5299C64.5299 0.30542 62.3047 0.527935 61.1921 2.53057C56.0743 12.7663 53.4041 18.1067 53.4041 18.1067H52.2915V0.30542H42.2783Z" fill="#4DB45F"/>
<path fill-rule="evenodd" clip-rule="evenodd" d="M0 31.4578V0.305664H10.0132C10.0132 0.305664 12.9059 0.305664 14.4635 4.75597C18.4688 16.5493 18.9138 18.1069 18.9138 18.1069C18.9138 18.1069 19.8039 15.2142 23.3641 4.75597C24.9217 0.305664 27.8144 0.305664 27.8144 0.305664H37.8276V31.4578H27.8144V14.7692H26.7019L21.139 31.4578H16.6887L11.1258 14.7692H10.0132V31.4578H0Z" fill="#4DB45F"/>
<defs>
<linearGradient id="paint0_linear_472:4048" x1="76.0432" y1="6.98088" x2="107.92" y2="6.98088" gradientUnits="userSpaceOnUse">
<stop stop-color="#00B4E6"/>
<stop offset="1" stop-color="#088CCB"/>
</linearGradient>
</defs>
</svg>
