<svg width="128" height="128" viewBox="0 0 128 128" fill="none" xmlns="http://www.w3.org/2000/svg">
<path d="M119.122 63.9943H8.87478C4.53315 63.9943 1 60.4612 1 56.1195V35.1201C1 30.7785 4.53315 27.2453 8.87478 27.2453H119.122C123.463 27.2453 126.997 30.7785 126.997 35.1201V56.1195C126.997 60.4612 123.463 63.9943 119.122 63.9943ZM8.87478 32.4952C7.43107 32.4952 6.24986 33.6711 6.24986 35.1201V56.1195C6.24986 57.5685 7.43107 58.7445 8.87478 58.7445H119.122C120.565 58.7445 121.747 57.5685 121.747 56.1195V35.1201C121.747 33.6711 120.565 32.4952 119.122 32.4952H8.87478Z" fill="url(#paint0_linear_472:3561)" stroke="white"/>
<path d="M103.372 126.993H24.6246C17.3851 126.993 11.5 121.102 11.5 113.868V61.3694C11.5 59.9205 12.676 58.7445 14.1249 58.7445C15.5739 58.7445 16.7499 59.9205 16.7499 61.3694V113.868C16.7499 118.21 20.283 121.743 24.6246 121.743H103.372C107.714 121.743 111.247 118.21 111.247 113.868V61.3694C111.247 59.9205 112.423 58.7445 113.872 58.7445C115.321 58.7445 116.497 59.9205 116.497 61.3694V113.868C116.497 121.102 110.612 126.993 103.372 126.993Z" fill="url(#paint1_linear_472:3561)" stroke="white"/>
<path d="M63.9999 126.993C62.551 126.993 61.375 125.817 61.375 124.368V61.3694C61.375 59.9205 62.551 58.7445 63.9999 58.7445C65.4489 58.7445 66.6249 59.9205 66.6249 61.3694V124.368C66.6249 125.817 65.4489 126.993 63.9999 126.993Z" fill="url(#paint2_linear_472:3561)" stroke="white"/>
<path d="M63.9973 32.4952C63.8083 32.4952 63.6193 32.4742 63.4303 32.4322C60.1229 31.6972 43.3916 27.8176 38.9712 23.3972C36.488 20.9245 35.123 17.6276 35.123 14.1207C35.123 10.6138 36.488 7.31689 38.9659 4.83896C44.0845 -0.279652 52.4108 -0.279652 57.5242 4.83896C61.9446 9.25408 65.8242 25.9906 66.5592 29.3033C66.7534 30.18 66.4857 31.0935 65.8504 31.7235C65.357 32.2222 64.685 32.4952 63.9973 32.4952ZM48.2477 6.25117C46.2317 6.25117 44.2105 7.01765 42.6776 8.5506C41.1919 10.0416 40.3729 12.0155 40.3729 14.1207C40.3729 16.2259 41.1919 18.1998 42.6776 19.6908C44.7198 21.733 53.2561 24.4892 60.4484 26.3266C58.6057 19.1343 55.8547 10.598 53.8125 8.55585C52.2848 7.01765 50.2636 6.25117 48.2477 6.25117Z" fill="url(#paint3_linear_472:3561)" stroke="white"/>
<path d="M63.9995 32.4952C63.3117 32.4952 62.6397 32.2222 62.141 31.7287C61.5058 31.0935 61.238 30.18 61.4323 29.3085C62.1673 25.9959 66.0469 9.26459 70.4673 4.84421C75.5859 -0.279648 83.9122 -0.269149 89.0255 4.84421C91.5087 7.31689 92.8737 10.6138 92.8737 14.1207C92.8737 17.6276 91.5087 20.9245 89.0308 23.4024C84.6104 27.8228 67.8791 31.7025 64.5717 32.4374C64.3774 32.4742 64.1885 32.4952 63.9995 32.4952ZM79.749 6.25117C77.7331 6.25117 75.7119 7.01765 74.1789 8.55061C72.1367 10.5928 69.3858 19.1291 67.5431 26.3214C74.7354 24.4839 83.2717 21.7277 85.3139 19.6855C86.8048 18.1998 87.6238 16.2259 87.6238 14.1207C87.6238 12.0155 86.8048 10.0416 85.3191 8.55061C83.7862 7.01765 81.765 6.25117 79.749 6.25117ZM72.3257 6.69741H72.3782H72.3257Z" fill="url(#paint4_linear_472:3561)" stroke="white"/>
<defs>
<linearGradient id="paint0_linear_472:3561" x1="63.9983" y1="27.2453" x2="63.9983" y2="63.9943" gradientUnits="userSpaceOnUse">
<stop offset="0.180208" stop-color="#FF8A00"/>
<stop offset="0.70625" stop-color="#00A3E0"/>
</linearGradient>
<linearGradient id="paint1_linear_472:3561" x1="63.9985" y1="58.7445" x2="63.9985" y2="126.993" gradientUnits="userSpaceOnUse">
<stop offset="0.180208" stop-color="#FF8A00"/>
<stop offset="0.70625" stop-color="#00A3E0"/>
</linearGradient>
<linearGradient id="paint2_linear_472:3561" x1="63.9999" y1="58.7445" x2="63.9999" y2="126.993" gradientUnits="userSpaceOnUse">
<stop offset="0.180208" stop-color="#FF8A00"/>
<stop offset="0.70625" stop-color="#00A3E0"/>
</linearGradient>
<linearGradient id="paint3_linear_472:3561" x1="50.8722" y1="1" x2="50.8722" y2="32.4952" gradientUnits="userSpaceOnUse">
<stop offset="0.180208" stop-color="#FF8A00"/>
<stop offset="0.70625" stop-color="#00A3E0"/>
</linearGradient>
<linearGradient id="paint4_linear_472:3561" x1="77.1219" y1="1.00525" x2="77.1219" y2="32.4952" gradientUnits="userSpaceOnUse">
<stop offset="0.180208" stop-color="#FF8A00"/>
<stop offset="0.70625" stop-color="#00A3E0"/>
</linearGradient>
</defs>
</svg>
