<svg width="22" height="19" viewBox="0 0 22 19" fill="none" xmlns="http://www.w3.org/2000/svg">
<path d="M21.9221 2.33276C21.861 2.25924 21.7715 2.21694 21.6773 2.21694L3.63426 2.37904L3.01338 0.237173C2.97229 0.0963308 2.84665 0 2.70402 0H0.322701C0.144355 0 0 0.148593 0 0.332176C0 0.515758 0.144355 0.664351 0.322701 0.664351H2.4635L6.38625 14.1959C6.38668 14.1974 6.38797 14.1987 6.3884 14.2003L6.87568 15.9063C6.56804 16.221 6.37743 16.6566 6.37743 17.1369C6.37743 18.0958 7.13492 18.876 8.0658 18.876C8.96678 18.876 9.70276 18.1434 9.74815 17.226H13.9775C13.9773 17.2381 13.9757 17.2501 13.9757 17.2625C13.9757 18.2205 14.7328 19 15.6633 19C16.5937 19 17.351 18.2205 17.351 17.2625C17.351 16.3045 16.5937 15.525 15.6633 15.525C14.975 15.525 14.3828 15.952 14.1205 16.5616H9.65607C9.57346 16.3191 9.44029 16.0961 9.2585 15.909C8.93989 15.581 8.51651 15.4001 8.06645 15.4001C7.84507 15.4001 7.6336 15.4453 7.43976 15.5254L7.12782 14.433L19.985 14.2709C20.1444 14.2709 20.28 14.1511 20.3038 13.989L21.9963 2.59916C22.0105 2.5035 21.9834 2.40628 21.9221 2.33276ZM15.6633 16.1896C16.2379 16.1896 16.7056 16.671 16.7056 17.2627C16.7056 17.8544 16.2379 18.3359 15.6633 18.3359C15.0886 18.3359 14.6211 17.8544 14.6211 17.2627C14.6211 16.671 15.0886 16.1896 15.6633 16.1896ZM8.06602 16.0647C8.34375 16.0647 8.60514 16.1763 8.80178 16.3789C8.99862 16.5815 9.10683 16.851 9.10683 17.1374C9.10683 17.73 8.63978 18.2121 8.06559 18.2121C7.49053 18.2121 7.02262 17.73 7.02262 17.1374C7.02283 16.5459 7.49075 16.0647 8.06602 16.0647ZM19.7077 13.6068L6.93786 13.7689L6.32773 11.6323C6.31999 11.6053 6.30837 11.5807 6.29503 11.5575L3.8268 3.04339L21.3014 2.88129L19.7077 13.6068Z" fill="black"/>
</svg>
