<svg width="130" height="130" viewBox="0 0 130 130" fill="none" xmlns="http://www.w3.org/2000/svg">
<path d="M81.3256 35.3738C81.3252 32.1891 80.3804 29.076 78.6107 26.4282C76.8411 23.7804 74.326 21.7168 71.3836 20.4984C68.4412 19.2799 65.2035 18.9614 62.08 19.5829C58.9566 20.2045 56.0875 21.7383 53.8357 23.9904C51.5839 26.2425 50.0505 29.1117 49.4294 32.2353C48.8082 35.3589 49.1272 38.5965 50.3461 41.5387C51.5649 44.481 53.6289 46.9958 56.2769 48.7651C58.9249 50.5344 62.0381 51.4787 65.2229 51.4787C69.4923 51.4735 73.5855 49.775 76.6042 46.7558C79.623 43.7366 81.321 39.6433 81.3256 35.3738ZM52.9341 35.3738C52.9346 32.9434 53.6556 30.5677 55.0062 28.5472C56.3568 26.5266 58.2762 24.9518 60.5217 24.0221C62.7672 23.0923 65.238 22.8492 67.6216 23.3237C70.0052 23.7981 72.1947 24.9686 73.9131 26.6873C75.6315 28.406 76.8016 30.5957 77.2756 32.9794C77.7496 35.3631 77.5061 37.8338 76.5759 40.0792C75.6458 42.3245 74.0707 44.2436 72.0499 45.5938C70.0291 46.9441 67.6532 47.6647 65.2229 47.6647C61.9645 47.661 58.8406 46.3648 56.5368 44.0605C54.233 41.7563 52.9373 38.6322 52.9341 35.3738Z" fill="url(#paint0_linear_903:6135)"/>
<path d="M129.874 126.962L114.328 86.2069C114.19 85.846 113.946 85.5356 113.628 85.3165C113.31 85.0974 112.933 84.98 112.546 84.9799H83.1241C83.3039 84.6867 83.4826 84.4023 83.6624 84.1081C94.9834 65.365 100.68 48.9691 100.599 35.3825C100.6 26.0001 96.8747 17.0013 90.2414 10.3658C83.6082 3.73027 74.6106 0.00159007 65.2282 5.08435e-07C55.8458 -0.00158905 46.847 3.72405 40.2115 10.3573C33.5759 16.9906 29.8473 25.9881 29.8457 35.3705C29.7639 48.9691 35.461 65.3671 46.782 84.1081C46.9618 84.4056 47.1406 84.69 47.3204 84.9799H17.898C17.5117 84.98 17.1346 85.0974 16.8165 85.3165C16.4984 85.5356 16.2542 85.846 16.1163 86.2069L0.57263 126.962C0.461875 127.251 0.423092 127.562 0.459631 127.869C0.49617 128.177 0.606931 128.47 0.782346 128.725C0.957761 128.98 1.19255 129.188 1.46644 129.331C1.74032 129.475 2.04505 129.55 2.35432 129.549H128.092C128.402 129.55 128.706 129.475 128.98 129.331C129.254 129.188 129.489 128.98 129.664 128.725C129.84 128.47 129.95 128.177 129.987 127.869C130.023 127.562 129.985 127.251 129.874 126.962ZM33.6608 35.3738C33.6615 31.229 34.4786 27.1248 36.0654 23.2958C37.6522 19.4667 39.9777 15.9877 42.9091 13.0573C45.8404 10.127 49.3203 7.8027 53.1499 6.2172C56.9795 4.63169 61.0839 3.81601 65.2287 3.81673C69.3736 3.81744 73.4777 4.63454 77.3068 6.22137C81.1359 7.8082 84.6149 10.1337 87.5452 13.065C90.4756 15.9964 92.7999 19.4762 94.3854 23.3058C95.9709 27.1355 96.7865 31.2399 96.7858 35.3847C96.9493 62.4729 71.6243 95.8825 65.2233 103.894C58.8223 95.8857 33.4962 62.4848 33.6608 35.3738ZM63.7707 108.144C63.9497 108.354 64.1724 108.523 64.4232 108.639C64.674 108.755 64.947 108.815 65.2233 108.815C65.4996 108.815 65.7726 108.755 66.0234 108.639C66.2742 108.523 66.4969 108.354 66.6759 108.144C71.7391 101.976 76.4331 95.5139 80.7332 88.7917H111.231L113.672 95.1938L54.0744 116.39L32.8315 88.7884H49.7112C54.0119 95.5118 58.7066 101.975 63.7707 108.144ZM54.0079 120.458H54.0188L89.573 107.817L103.363 125.735H39.1791L54.0079 120.458ZM19.2133 88.7884H28.0182L50.2942 117.733L27.7992 125.734H5.12219L19.2133 88.7884ZM108.181 125.735L93.351 106.467L115.036 98.755L125.327 125.735H108.181Z" fill="url(#paint1_linear_903:6135)"/>
<defs>
<linearGradient id="paint0_linear_903:6135" x1="65.2229" y1="19.2733" x2="65.2229" y2="51.4787" gradientUnits="userSpaceOnUse">
<stop offset="0.180208" stop-color="#FF8A00"/>
<stop offset="0.70625" stop-color="#00A3E0"/>
</linearGradient>
<linearGradient id="paint1_linear_903:6135" x1="65.2233" y1="0" x2="65.2233" y2="129.549" gradientUnits="userSpaceOnUse">
<stop offset="0.180208" stop-color="#FF8A00"/>
<stop offset="0.70625" stop-color="#00A3E0"/>
</linearGradient>
</defs>
</svg>
