<svg width="130" height="89" viewBox="0 0 130 89" fill="none" xmlns="http://www.w3.org/2000/svg">
<mask id="path-1-inside-1_472:3884" fill="white">
<path d="M127.323 69.0565H125.165V45.3183C125.159 40.169 123.111 35.2322 119.47 31.5911C115.829 27.95 110.892 25.9019 105.743 25.8962H90.6366V2.15801C90.6366 1.58567 90.4093 1.03677 90.0046 0.632066C89.5999 0.22736 89.051 0 88.4786 0H2.15802C1.58567 0 1.03677 0.22736 0.632068 0.632066C0.227362 1.03677 0 1.58567 0 2.15801V71.2145C0 71.7868 0.227362 72.3357 0.632068 72.7404C1.03677 73.1451 1.58567 73.3725 2.15802 73.3725H4.31603V75.5305C4.31603 77.2475 4.99812 78.8942 6.21223 80.1084C7.42635 81.3225 9.07305 82.0046 10.7901 82.0046H21.1744C22.3071 83.9724 23.9383 85.6069 25.9039 86.7434C27.8694 87.88 30.0998 88.4784 32.3702 88.4784C34.6407 88.4784 36.8711 87.88 38.8366 86.7434C40.8021 85.6069 42.4334 83.9724 43.566 82.0046H94.547C95.6796 83.9724 97.3108 85.6069 99.2764 86.7434C101.242 87.88 103.472 88.4784 105.743 88.4784C108.013 88.4784 110.244 87.88 112.209 86.7434C114.175 85.6069 115.806 83.9724 116.939 82.0046H123.007C124.724 82.0046 126.371 81.3225 127.585 80.1084C128.799 78.8942 129.481 77.2475 129.481 75.5305V71.2145C129.481 70.6421 129.254 70.0932 128.849 69.6885C128.444 69.2838 127.895 69.0565 127.323 69.0565ZM120.849 45.3183V49.6343H101.427C100.854 49.6343 100.305 49.407 99.9008 49.0023C99.4961 48.5976 99.2687 48.0487 99.2687 47.4763V30.2122H105.743C109.748 30.2168 113.587 31.8098 116.419 34.6417C119.251 37.4737 120.844 41.3133 120.849 45.3183ZM94.9527 30.2122V47.4763C94.9527 49.1933 95.6348 50.84 96.8489 52.0542C98.063 53.2683 99.7097 53.9504 101.427 53.9504H120.849V69.0565H116.939C115.806 67.0887 114.175 65.4542 112.209 64.3176C110.244 63.1811 108.013 62.5827 105.743 62.5827C103.472 62.5827 101.242 63.1811 99.2764 64.3176C97.3108 65.4542 95.6796 67.0887 94.547 69.0565H90.6366V30.2122H94.9527ZM43.566 69.0565C42.4334 67.0887 40.8021 65.4542 38.8366 64.3176C36.8711 63.1811 34.6407 62.5827 32.3702 62.5827C30.0998 62.5827 27.8694 63.1811 25.9039 64.3176C23.9383 65.4542 22.3071 67.0887 21.1744 69.0565H4.31603V60.4244H86.3206V69.0565H43.566ZM4.31603 4.31603H86.3206V56.1084H4.31603V4.31603ZM10.7901 77.6885C10.2177 77.6885 9.66884 77.4612 9.26413 77.0565C8.85942 76.6518 8.63206 76.1029 8.63206 75.5305V73.3725H19.6164C19.3574 74.7995 19.3574 76.2615 19.6164 77.6885H10.7901ZM32.3702 84.1626C30.663 84.1626 28.994 83.6563 27.5745 82.7078C26.155 81.7593 25.0486 80.4112 24.3952 78.8339C23.7419 77.2566 23.571 75.5209 23.904 73.8465C24.2371 72.172 25.0592 70.6339 26.2664 69.4267C27.4737 68.2195 29.0117 67.3974 30.6862 67.0643C32.3607 66.7312 34.0963 66.9022 35.6736 67.5555C37.2509 68.2089 38.599 69.3153 39.5475 70.7348C40.496 72.1543 41.0023 73.8233 41.0023 75.5305C41.0023 77.8199 40.0928 80.0155 38.474 81.6343C36.8552 83.2531 34.6596 84.1626 32.3702 84.1626ZM45.1241 77.6885C45.3831 76.2615 45.3831 74.7995 45.1241 73.3725H92.9889C92.7299 74.7995 92.7299 76.2615 92.9889 77.6885H45.1241ZM105.743 84.1626C104.035 84.1626 102.367 83.6563 100.947 82.7078C99.5275 81.7593 98.4211 80.4112 97.7678 78.8339C97.1144 77.2566 96.9435 75.5209 97.2766 73.8465C97.6096 72.172 98.4317 70.6339 99.639 69.4267C100.846 68.2195 102.384 67.3974 104.059 67.0643C105.733 66.7312 107.469 66.9022 109.046 67.5555C110.623 68.2089 111.972 69.3153 112.92 70.7348C113.869 72.1543 114.375 73.8233 114.375 75.5305C114.375 77.8199 113.465 80.0155 111.847 81.6343C110.228 83.2531 108.032 84.1626 105.743 84.1626ZM125.165 75.5305C125.165 76.1029 124.938 76.6518 124.533 77.0565C124.128 77.4612 123.579 77.6885 123.007 77.6885H118.497C118.756 76.2615 118.756 74.7995 118.497 73.3725H125.165V75.5305Z"/>
</mask>
<path d="M127.323 69.0565H125.165V45.3183C125.159 40.169 123.111 35.2322 119.47 31.5911C115.829 27.95 110.892 25.9019 105.743 25.8962H90.6366V2.15801C90.6366 1.58567 90.4093 1.03677 90.0046 0.632066C89.5999 0.22736 89.051 0 88.4786 0H2.15802C1.58567 0 1.03677 0.22736 0.632068 0.632066C0.227362 1.03677 0 1.58567 0 2.15801V71.2145C0 71.7868 0.227362 72.3357 0.632068 72.7404C1.03677 73.1451 1.58567 73.3725 2.15802 73.3725H4.31603V75.5305C4.31603 77.2475 4.99812 78.8942 6.21223 80.1084C7.42635 81.3225 9.07305 82.0046 10.7901 82.0046H21.1744C22.3071 83.9724 23.9383 85.6069 25.9039 86.7434C27.8694 87.88 30.0998 88.4784 32.3702 88.4784C34.6407 88.4784 36.8711 87.88 38.8366 86.7434C40.8021 85.6069 42.4334 83.9724 43.566 82.0046H94.547C95.6796 83.9724 97.3108 85.6069 99.2764 86.7434C101.242 87.88 103.472 88.4784 105.743 88.4784C108.013 88.4784 110.244 87.88 112.209 86.7434C114.175 85.6069 115.806 83.9724 116.939 82.0046H123.007C124.724 82.0046 126.371 81.3225 127.585 80.1084C128.799 78.8942 129.481 77.2475 129.481 75.5305V71.2145C129.481 70.6421 129.254 70.0932 128.849 69.6885C128.444 69.2838 127.895 69.0565 127.323 69.0565ZM120.849 45.3183V49.6343H101.427C100.854 49.6343 100.305 49.407 99.9008 49.0023C99.4961 48.5976 99.2687 48.0487 99.2687 47.4763V30.2122H105.743C109.748 30.2168 113.587 31.8098 116.419 34.6417C119.251 37.4737 120.844 41.3133 120.849 45.3183ZM94.9527 30.2122V47.4763C94.9527 49.1933 95.6348 50.84 96.8489 52.0542C98.063 53.2683 99.7097 53.9504 101.427 53.9504H120.849V69.0565H116.939C115.806 67.0887 114.175 65.4542 112.209 64.3176C110.244 63.1811 108.013 62.5827 105.743 62.5827C103.472 62.5827 101.242 63.1811 99.2764 64.3176C97.3108 65.4542 95.6796 67.0887 94.547 69.0565H90.6366V30.2122H94.9527ZM43.566 69.0565C42.4334 67.0887 40.8021 65.4542 38.8366 64.3176C36.8711 63.1811 34.6407 62.5827 32.3702 62.5827C30.0998 62.5827 27.8694 63.1811 25.9039 64.3176C23.9383 65.4542 22.3071 67.0887 21.1744 69.0565H4.31603V60.4244H86.3206V69.0565H43.566ZM4.31603 4.31603H86.3206V56.1084H4.31603V4.31603ZM10.7901 77.6885C10.2177 77.6885 9.66884 77.4612 9.26413 77.0565C8.85942 76.6518 8.63206 76.1029 8.63206 75.5305V73.3725H19.6164C19.3574 74.7995 19.3574 76.2615 19.6164 77.6885H10.7901ZM32.3702 84.1626C30.663 84.1626 28.994 83.6563 27.5745 82.7078C26.155 81.7593 25.0486 80.4112 24.3952 78.8339C23.7419 77.2566 23.571 75.5209 23.904 73.8465C24.2371 72.172 25.0592 70.6339 26.2664 69.4267C27.4737 68.2195 29.0117 67.3974 30.6862 67.0643C32.3607 66.7312 34.0963 66.9022 35.6736 67.5555C37.2509 68.2089 38.599 69.3153 39.5475 70.7348C40.496 72.1543 41.0023 73.8233 41.0023 75.5305C41.0023 77.8199 40.0928 80.0155 38.474 81.6343C36.8552 83.2531 34.6596 84.1626 32.3702 84.1626ZM45.1241 77.6885C45.3831 76.2615 45.3831 74.7995 45.1241 73.3725H92.9889C92.7299 74.7995 92.7299 76.2615 92.9889 77.6885H45.1241ZM105.743 84.1626C104.035 84.1626 102.367 83.6563 100.947 82.7078C99.5275 81.7593 98.4211 80.4112 97.7678 78.8339C97.1144 77.2566 96.9435 75.5209 97.2766 73.8465C97.6096 72.172 98.4317 70.6339 99.639 69.4267C100.846 68.2195 102.384 67.3974 104.059 67.0643C105.733 66.7312 107.469 66.9022 109.046 67.5555C110.623 68.2089 111.972 69.3153 112.92 70.7348C113.869 72.1543 114.375 73.8233 114.375 75.5305C114.375 77.8199 113.465 80.0155 111.847 81.6343C110.228 83.2531 108.032 84.1626 105.743 84.1626ZM125.165 75.5305C125.165 76.1029 124.938 76.6518 124.533 77.0565C124.128 77.4612 123.579 77.6885 123.007 77.6885H118.497C118.756 76.2615 118.756 74.7995 118.497 73.3725H125.165V75.5305Z" fill="url(#paint0_linear_472:3884)" stroke="white" stroke-width="1.2" mask="url(#path-1-inside-1_472:3884)"/>
<path d="M81.1601 41.8465L81.3719 41.6347L81.1601 41.8465C81.5086 42.1949 81.7043 42.6675 81.7043 43.1603C81.7043 43.6531 81.5086 44.1257 81.1601 44.4741L81.3723 44.6863L81.1601 44.4741C80.8117 44.8226 80.3391 45.0183 79.8463 45.0183H10.7899C10.2971 45.0183 9.82448 44.8226 9.47604 44.4741C9.12759 44.1257 8.93184 43.6531 8.93184 43.1603C8.93184 42.6675 9.12759 42.1949 9.47604 41.8465C9.82448 41.4981 10.2971 41.3023 10.7899 41.3023H79.8463C80.3391 41.3023 80.8117 41.4981 81.1601 41.8465Z" fill="url(#paint1_linear_472:3884)" stroke="white" stroke-width="0.6"/>
<defs>
<linearGradient id="paint0_linear_472:3884" x1="64.7405" y1="0" x2="64.7405" y2="88.4784" gradientUnits="userSpaceOnUse">
<stop offset="0.180208" stop-color="#FF8A00"/>
<stop offset="0.70625" stop-color="#00A3E0"/>
</linearGradient>
<linearGradient id="paint1_linear_472:3884" x1="45.3181" y1="41.0023" x2="45.3181" y2="45.3183" gradientUnits="userSpaceOnUse">
<stop offset="0.180208" stop-color="#FF8A00"/>
<stop offset="0.70625" stop-color="#00A3E0"/>
</linearGradient>
</defs>
</svg>
