<svg width="19" height="16" viewBox="0 0 19 16" fill="none" xmlns="http://www.w3.org/2000/svg">
<path d="M2.09223 2.18359L2.09224 2.18357C2.88728 1.40725 3.99238 1.01084 5.4278 1.01084C5.8153 1.01084 6.21273 1.07799 6.62027 1.21379C7.02974 1.35029 7.41007 1.53421 7.76122 1.76535L7.76131 1.76541C8.12121 2.00192 8.42906 2.2231 8.68618 2.42859C8.94313 2.63425 9.18736 2.85276 9.41859 3.08396L9.52462 3.18998L9.63068 3.08398C9.86207 2.85273 10.1063 2.63419 10.3633 2.42852C10.6202 2.22309 10.9282 2.00207 11.2881 1.76538L11.2881 1.76537C11.6396 1.53413 12.0198 1.35033 12.4292 1.2138L2.09223 2.18359ZM2.09223 2.18359C1.29788 2.95898 0.892654 4.04016 0.892687 5.44767C0.892687 6.8364 1.61161 8.27034 3.0922 9.75099L9.19745 15.6311L9.19747 15.6311L9.19948 15.6331C9.28831 15.7219 9.39373 15.7657 9.52468 15.7657C9.65559 15.7657 9.76094 15.7219 9.84988 15.633L9.84986 15.633L9.85178 15.6312L15.9677 9.73073L15.9673 9.73027L15.9781 9.7216C16.0359 9.6753 16.1206 9.59571 16.2338 9.47917C16.3425 9.36723 16.52 9.15839 16.7683 8.84811C17.0126 8.54271 17.2309 8.22971 17.4232 7.90912L17.4232 7.90911C17.6122 7.59415 17.7829 7.20941 17.9338 6.75322L17.9339 6.75319C18.0829 6.30294 18.1566 5.86784 18.1566 5.44781C18.1566 4.04041 17.7514 2.95911 16.9571 2.18358L16.9571 2.18357M2.09223 2.18359L16.9571 2.18357M16.9571 2.18357C16.1621 1.40735 15.057 1.01084 13.6217 1.01084C13.2342 1.01084 12.8368 1.07802 12.4293 1.21378L16.9571 2.18357ZM3.73581 9.04493L3.73582 9.04492L9.42055 14.5238L9.52465 14.6241L9.62874 14.5238L15.3232 9.03502L15.3252 9.03312L15.3251 9.0331C16.5596 7.79898 17.2019 6.60291 17.2019 5.44767C17.2019 4.90552 17.13 4.42109 16.983 3.99706L16.983 3.99704C16.8378 3.57857 16.6492 3.23694 16.4127 2.97928C16.4127 2.97928 16.4127 2.97928 16.4127 2.97928L16.3022 3.0807L3.73581 9.04493ZM3.73581 9.04493L3.73386 9.04299M3.73581 9.04493L3.73386 9.04299M3.73386 9.04299C2.49306 7.8024 1.84734 6.60308 1.84727 5.44768C1.84727 4.90552 1.91919 4.42111 2.06604 3.9971L2.06606 3.99704C2.21122 3.57855 2.39994 3.23692 2.63641 2.97928C2.86914 2.72571 3.15123 2.52025 3.48083 2.36225L3.48088 2.36223C3.80525 2.20686 4.12546 2.10078 4.44142 2.0459L4.44144 2.0459C4.75144 1.9921 5.08011 1.96539 5.42753 1.96539C5.79184 1.96539 6.17803 2.05462 6.58398 2.22723C6.98736 2.39859 7.35924 2.61392 7.69943 2.87321L7.69951 2.87328C8.03215 3.1272 8.31872 3.36544 8.5584 3.5884L8.55844 3.58843C8.79646 3.80999 8.99675 4.015 9.15823 4.20341L9.15826 4.20339L9.16042 4.20603C9.24682 4.31161 9.36245 4.36672 9.52461 4.36672C9.68676 4.36672 9.8025 4.31157 9.88871 4.20609L9.88868 4.20607L9.89097 4.2034C10.0525 4.015 10.2526 3.81011 10.4906 3.58846L10.4907 3.58838C10.7305 3.36545 11.017 3.1271 11.3498 2.87324L11.3499 2.87322M3.73386 9.04299L11.3499 2.87322M11.3499 2.87322C11.69 2.61392 12.0619 2.39859 12.465 2.22723L11.3499 2.87322Z" fill="black" stroke="white" stroke-width="0.3"/>
</svg>
