<svg width="21" height="28" viewBox="0 0 21 28" fill="none" xmlns="http://www.w3.org/2000/svg">
<path d="M10.152 0.734375C4.96368 0.734375 0.742676 4.95538 0.742676 10.1437C0.742676 11.8966 1.22825 13.6073 2.14722 15.0915L9.61636 27.1279C9.75943 27.3585 10.0115 27.4986 10.2826 27.4986C10.2847 27.4986 10.2867 27.4986 10.2888 27.4986C10.5623 27.4964 10.8148 27.352 10.9553 27.1174L18.2341 14.9643C19.1023 13.5116 19.5612 11.8446 19.5612 10.1437C19.5612 4.95538 15.3402 0.734375 10.152 0.734375ZM16.8883 14.1592L10.2707 25.2082L3.4801 14.2652C2.71518 13.0299 2.30043 11.6047 2.30043 10.1437C2.30043 5.82009 5.82839 2.29213 10.152 2.29213C14.4755 2.29213 17.9983 5.82009 17.9983 10.1437C17.9983 11.5614 17.6109 12.9501 16.8883 14.1592Z" fill="black" stroke="white"/>
<path d="M10.1519 5.43896C7.55777 5.43896 5.44727 7.54947 5.44727 10.1436C5.44727 12.7212 7.52342 14.8482 10.1519 14.8482C12.8128 14.8482 14.8565 12.6928 14.8565 10.1436C14.8565 7.54947 12.746 5.43896 10.1519 5.43896ZM10.1519 13.2905C8.41344 13.2905 7.00502 11.8774 7.00502 10.1436C7.00502 8.41418 8.42248 6.99672 10.1519 6.99672C11.8813 6.99672 13.2936 8.41418 13.2936 10.1436C13.2936 11.8521 11.9179 13.2905 10.1519 13.2905Z" fill="black" stroke="white"/>
</svg>
