<svg width="90" height="93" viewBox="0 0 90 93" fill="none" xmlns="http://www.w3.org/2000/svg">
<path d="M89.5471 0.491209C88.9433 -0.123534 87.9655 -0.123534 87.3617 0.491209L68.7094 19.5199L66.3848 17.1502C66.0953 16.8549 65.7017 16.6889 65.2916 16.6889C64.8815 16.6889 64.4889 16.8549 64.1983 17.1513L58.0015 23.4752L53.2844 18.6634C52.9948 18.3682 52.6012 18.2021 52.1911 18.2021C51.781 18.2021 51.3885 18.3682 51.0979 18.6634L44.4199 25.474C44.4168 25.4771 44.4137 25.4771 44.4106 25.4803C44.4075 25.4834 44.4075 25.4866 44.4044 25.4897L35.6121 34.4576C35.6069 34.4629 35.6007 34.4639 35.5956 34.4681C35.5904 34.4723 35.5894 34.4797 35.5853 34.4849L26.8053 43.4392C26.7991 43.4455 26.7908 43.4465 26.7857 43.4528C26.7805 43.4591 26.7785 43.4665 26.7723 43.4728L17.9974 52.4218C17.9902 52.4291 17.9809 52.4302 17.9737 52.4375C17.9665 52.4449 17.9645 52.4543 17.9583 52.4617L10.9876 59.5707C10.6981 59.8659 10.5353 60.2674 10.5353 60.6856C10.5353 61.1028 10.6981 61.5042 10.9876 61.8006L15.7058 66.6113L7.35755 75.1231L2.63833 70.3092C2.03452 69.6934 1.05667 69.6934 0.452859 70.3092C-0.150953 70.925 -0.150953 71.9223 0.452859 72.5381L13.0876 85.4246C13.0896 85.4267 13.0907 85.4298 13.0927 85.433C13.0948 85.4361 13.0979 85.4361 13.101 85.4382L19.1113 91.5688C19.4132 91.8767 19.8089 92.0302 20.2045 92.0302C20.6002 92.0302 20.9959 91.8767 21.2978 91.5688C21.9016 90.953 21.9016 89.9558 21.2978 89.34L16.3715 84.318L24.7218 75.8051L29.4431 80.6201C29.745 80.928 30.1406 81.0814 30.5363 81.0814C30.932 81.0814 31.3277 80.928 31.6296 80.6201L71.7357 39.7129C72.3395 39.0971 72.3395 38.0998 71.7357 37.484L67.0196 32.6743L73.2164 26.343C73.8192 25.7272 73.8181 24.73 73.2153 24.1142L70.8949 21.7498L89.5471 2.72005C90.151 2.10425 90.151 1.10595 89.5471 0.491209ZM14.186 82.0881L9.54199 77.352L17.8903 68.8391L22.5343 73.5752L14.186 82.0881ZM30.5363 77.2753L18.9938 65.5058C18.9907 65.5027 18.9897 65.4974 18.9866 65.4943C18.9835 65.4911 18.9784 65.4901 18.9753 65.4869L14.2664 60.6856L19.0711 55.7855L24.8928 61.7207C25.1947 62.0286 25.5904 62.182 25.9861 62.182C26.3818 62.182 26.7774 62.0286 27.0793 61.7207C27.6821 61.1049 27.6821 60.1066 27.0793 59.4918L21.2576 53.5567L27.883 46.7998L33.7007 52.7328C34.0026 53.0407 34.3982 53.1941 34.7939 53.1941C35.1896 53.1941 35.5853 53.0407 35.8872 52.7328C36.491 52.117 36.491 51.1187 35.8872 50.504L30.0696 44.5709L36.695 37.814L42.5188 43.7481C42.8207 44.056 43.2154 44.2094 43.611 44.2094C44.0067 44.2094 44.4024 44.056 44.7043 43.7471C45.3071 43.1313 45.3071 42.133 44.7032 41.5182L38.8805 35.5852L45.508 28.8261L51.3266 34.7613C51.6275 35.0692 52.0242 35.2226 52.4199 35.2226C52.8156 35.2226 53.2112 35.0692 53.5131 34.7613C54.1169 34.1466 54.1169 33.1483 53.5131 32.5325L47.6945 26.5973L52.1942 22.0072L56.9042 26.8117C56.9073 26.8148 56.9073 26.818 56.9104 26.8201L63.7439 33.7882C63.745 33.7893 63.746 33.7903 63.747 33.7914L68.459 38.5979L30.5363 77.2753ZM64.8341 30.4434L60.188 25.7041L65.2926 20.494L67.61 22.8563C67.6121 22.8584 67.6131 22.8626 67.6151 22.8647C67.6172 22.8668 67.6213 22.8679 67.6234 22.87L69.9377 25.2291L64.8341 30.4434Z" fill="url(#paint0_linear)"/>
<defs>
<linearGradient id="paint0_linear" x1="45" y1="0.0301514" x2="45" y2="92.0302" gradientUnits="userSpaceOnUse">
<stop offset="0.180208" stop-color="#FF8A00"/>
<stop offset="0.70625" stop-color="#00A3E0"/>
</linearGradient>
</defs>
</svg>
