<svg width="79" height="93" viewBox="0 0 79 93" fill="none" xmlns="http://www.w3.org/2000/svg">
<path d="M40.3468 54.0305C30.7255 54.0486 21.5038 57.881 14.7037 64.6875C7.90356 71.4941 4.07982 80.7193 4.0708 90.3407C4.0708 90.7933 4.25063 91.2275 4.57072 91.5476C4.89082 91.8677 5.32496 92.0475 5.77764 92.0475H74.9615C75.4142 92.0475 75.8483 91.8677 76.1684 91.5476C76.4885 91.2275 76.6683 90.7933 76.6683 90.3407C76.6593 80.7114 72.8293 71.4793 66.0193 64.6715C59.2094 57.8636 49.9761 54.0365 40.3468 54.0305ZM7.48448 88.6338C7.89981 80.2025 11.5416 72.2537 17.6557 66.4333C23.7699 60.613 31.8882 57.3667 40.3297 57.3667C48.7713 57.3667 56.8896 60.613 63.0038 66.4333C69.1179 72.2537 72.7597 80.2025 73.175 88.6338H7.48448Z" fill="url(#paint0_angular)"/>
<path d="M39.7441 8.6062C35.5932 8.60395 31.5348 9.83294 28.0825 12.1377C24.6301 14.4424 21.9389 17.7194 20.3494 21.5539C18.7599 25.3885 18.3434 29.6084 19.1526 33.6797C19.9619 37.751 21.9605 41.4908 24.8957 44.426C27.8309 47.3611 31.5707 49.3598 35.642 50.169C39.7133 50.9783 43.9332 50.5618 47.7677 48.9723C51.6023 47.3827 54.8792 44.6916 57.184 41.2392C59.4887 37.7869 60.7177 33.7285 60.7155 29.5776C60.7094 24.0175 58.498 18.6868 54.5664 14.7552C50.6349 10.8236 45.3042 8.61223 39.7441 8.6062ZM39.7441 47.1466C36.2688 47.1489 32.8709 46.1204 29.9802 44.1912C27.0895 42.2621 24.8358 39.519 23.5043 36.3088C22.1728 33.0987 21.8233 29.5658 22.4999 26.157C23.1765 22.7482 24.8489 19.6166 27.3055 17.1584C29.7621 14.7002 32.8926 13.0258 36.301 12.3469C39.7094 11.6681 43.2425 12.0154 46.4535 13.3448C49.6645 14.6742 52.4091 16.9261 54.3401 19.8155C56.2711 22.705 57.3018 26.1022 57.3018 29.5776C57.2988 34.2343 55.4484 38.6995 52.1566 41.9934C48.8649 45.2873 44.4008 47.1406 39.7441 47.1466Z" fill="url(#paint1_angular)"/>
<path d="M13.9483 40.8424C14.401 40.8424 14.8351 40.6626 15.1552 40.3425C15.4753 40.0224 15.6552 39.5883 15.6552 39.1356V20.3604C15.7128 20.2821 15.7623 20.1982 15.8031 20.11C17.6918 15.3234 20.9724 11.2132 25.2211 8.31029C29.4698 5.40739 34.4914 3.84523 39.6371 3.82563C44.7828 3.80602 49.8162 5.32988 54.0869 8.20033C58.3576 11.0708 61.6694 15.1559 63.5945 19.928V39.1583C62.3323 42.3387 60.444 45.2331 58.0416 47.6698C57.722 47.9898 57.5425 48.4236 57.5425 48.8759C57.5425 49.3282 57.722 49.7621 58.0416 50.0821C58.345 50.3838 58.7518 50.5588 59.1795 50.5714C59.4054 50.5721 59.6292 50.5282 59.8382 50.4423C60.0471 50.3564 60.237 50.2301 60.3971 50.0707C63.0586 47.4268 65.1838 44.2932 66.6555 40.8424H67.4748C70.4926 40.8424 73.3869 39.6436 75.5209 37.5096C77.6548 35.3756 78.8537 32.4814 78.8537 29.4635C78.8537 26.4456 77.6548 23.5513 75.5209 21.4174C73.3869 19.2834 70.4926 18.0846 67.4748 18.0846H66.5417C64.2901 12.8608 60.5578 8.41082 55.8056 5.28432C51.0535 2.15783 45.4896 0.491699 39.8012 0.491699C34.1128 0.491699 28.549 2.15783 23.7968 5.28432C19.0447 8.41082 15.3123 12.8608 13.0608 18.0846H11.9229C8.90499 18.0846 6.01071 19.2834 3.87675 21.4174C1.74279 23.5513 0.543945 26.4456 0.543945 29.4635C0.543945 32.4814 1.74279 35.3756 3.87675 37.5096C6.01071 39.6436 8.90499 40.8424 11.9229 40.8424H13.9483ZM67.0196 21.4982H67.4292C69.5418 21.4982 71.5677 22.3374 73.0615 23.8312C74.5553 25.325 75.3945 27.351 75.3945 29.4635C75.3945 31.576 74.5553 33.602 73.0615 35.0958C71.5677 36.5895 69.5418 37.4287 67.4292 37.4287H67.0196V21.4982ZM3.86659 29.4635C3.86659 27.351 4.70578 25.325 6.19956 23.8312C7.69333 22.3374 9.71932 21.4982 11.8318 21.4982H12.2415V37.4287H11.8318C9.71932 37.4287 7.69333 36.5895 6.19956 35.0958C4.70578 33.602 3.86659 31.576 3.86659 29.4635Z" fill="url(#paint2_angular)"/>
<defs>
<radialGradient id="paint0_angular" cx="0" cy="0" r="1" gradientUnits="userSpaceOnUse" gradientTransform="translate(40.3696 73.039) rotate(90) scale(19.0085 36.2988)">
<stop offset="0.336458" stop-color="#8DD4EE"/>
<stop offset="0.680208" stop-color="#FF8A00"/>
</radialGradient>
<radialGradient id="paint1_angular" cx="0" cy="0" r="1" gradientUnits="userSpaceOnUse" gradientTransform="translate(39.7327 29.5889) rotate(90) scale(20.9827)">
<stop offset="0.336458" stop-color="#8DD4EE"/>
<stop offset="0.680208" stop-color="#FF8A00"/>
</radialGradient>
<radialGradient id="paint2_angular" cx="0" cy="0" r="1" gradientUnits="userSpaceOnUse" gradientTransform="translate(39.6988 25.5315) rotate(90) scale(25.0398 39.1549)">
<stop offset="0.336458" stop-color="#8DD4EE"/>
<stop offset="0.680208" stop-color="#FF8A00"/>
</radialGradient>
</defs>
</svg>
