<svg width="97" height="102" viewBox="0 0 97 102" fill="none" xmlns="http://www.w3.org/2000/svg">
<path d="M61.5432 80.1268C53.8156 84.4067 46.2069 84.5256 38.4793 80.1268C38.3208 80.7212 38.1623 81.2364 38.0434 81.7516C35.9035 93.5213 27.5815 100.932 15.6533 101.605C13.9889 101.685 12.2848 101.804 10.6204 101.645C9.94675 101.566 8.79752 100.932 8.75789 100.456C8.59938 99.2278 9.70898 99.1485 10.6997 99.0693C13.9096 98.8315 17.2384 98.9108 20.3294 98.1578C30.3555 95.7405 34.9524 87.2203 35.745 79.1757C35.7846 78.6209 35.4676 77.8284 35.0316 77.4321C29.9988 72.5974 26.67 66.772 25.0056 59.9955C24.8471 59.3218 24.1338 58.6878 23.5394 58.2915C19.5369 55.5175 17.4762 51.7924 17.5554 46.8785C17.6347 43.7478 18.9424 41.806 21.875 40.7757C22.826 40.419 23.1034 39.9831 23.1034 39.032C23.0638 36.2976 23.1034 33.5633 23.1034 30.7893C23.1431 27.1038 24.4112 23.8939 26.5115 20.8821C38.1623 4.15885 62.8113 6.33843 73.5902 21.001C75.7698 23.9731 76.919 27.2623 76.9587 30.9081C76.9587 33.6029 76.9983 36.258 76.9587 38.9527C76.919 39.9831 77.1964 40.4983 78.2664 40.8153C81.1593 41.6871 82.3878 43.9063 82.467 46.7596C82.5859 51.6339 80.5649 55.3986 76.5624 58.2122C75.8094 58.767 75.0961 59.7181 74.8583 60.6296C73.0751 66.9305 70.0237 72.5181 65.2682 77.0358C64.3964 77.868 64.119 78.6606 64.2775 79.8098C65.6645 91.1436 73.8676 98.673 85.2807 99.0296C86.7073 99.0693 88.1736 98.9108 89.5605 99.1089C90.1946 99.1882 90.7098 99.9015 91.3042 100.337C90.7494 100.773 90.2342 101.566 89.6398 101.605C74.7395 102.874 64.9908 95.6216 61.8205 81.0383C61.7413 80.8401 61.662 80.6024 61.5432 80.1268ZM50.0905 22.8635C42.2837 22.7447 34.0805 26.2716 28.057 32.097C26.2737 33.801 25.2038 35.5843 25.6 38.1205C25.7586 39.1112 25.6 40.102 25.6397 41.0927C25.6793 42.2815 25.2434 42.9156 23.9753 43.0741C21.0428 43.4704 19.8935 44.897 20.1313 47.9088C20.4483 51.9113 22.5486 54.7249 25.9567 56.746C26.5908 57.1422 27.3041 57.8952 27.4626 58.6085C28.9685 66.3361 32.8521 72.637 39.1926 77.3132C43.4725 80.4438 48.3072 81.4346 53.5382 80.4835C64.3172 78.502 71.2918 66.5342 72.4806 59.0048C72.6391 57.8952 73.0354 57.2611 74.0262 56.746C77.3946 54.923 79.4949 52.1094 79.8515 48.1862C80.1686 45.0952 79.0986 43.5893 76.0472 43.1534C74.8187 42.9552 74.3035 42.4004 74.3432 41.1719C74.3828 39.7453 74.2639 38.3187 74.3828 36.8921C74.5017 35.4654 74.0261 34.4351 73.0751 33.4047C66.8137 26.7075 59.2447 23.0617 50.0905 22.8635ZM25.6793 30.4722C26.0756 30.1948 26.3134 30.1156 26.4719 29.9571C34.3976 22.5465 43.7103 19.297 54.5289 20.4858C55.2026 20.5651 56.0744 20.0895 56.6292 19.614C57.8973 18.4251 58.254 16.84 57.6992 15.136C57.1444 13.4716 55.9952 12.4016 54.2119 12.1638C43.3933 10.6976 34.5561 13.8679 28.1759 23.0221C26.67 25.2016 25.7586 27.5793 25.6793 30.4722ZM59.4032 21.6351C64.7531 23.2202 69.7066 26.3112 74.2639 30.6704C73.9865 23.9335 67.4082 16.3248 60.7902 14.2641C60.3147 16.5626 59.8787 18.9403 59.4032 21.6351Z" fill="url(#paint0_linear)"/>
<path d="M87.9759 50.4053C87.9759 55.0815 87.9759 59.7576 87.9759 64.4338C87.9759 65.4641 87.9759 66.6926 86.5889 66.5341C86.0737 66.4548 85.4 65.1867 85.3604 64.4734C85.2812 56.2307 85.4397 48.0276 85.2812 39.7848C85.0434 27.817 80.5257 17.7117 71.3319 9.94452C58.4923 -0.913711 32.9715 -1.23074 20.6866 18.9798C16.6841 25.5978 14.5838 32.7309 14.5838 40.4585C14.5838 46.6406 14.5838 52.783 14.5838 58.965C14.5838 59.5199 14.7027 60.1539 14.5046 60.6294C14.2668 61.105 13.712 61.739 13.3157 61.6994C12.8798 61.6994 12.4439 61.0257 12.0476 60.6294C11.9683 60.5106 12.008 60.2728 12.008 60.0747C12.1268 51.7923 11.7306 43.4703 12.4042 35.2275C13.6724 19.6139 24.6495 5.74389 38.5987 1.70177C59.2452 -4.24251 80.0106 5.46649 86.6285 29.5607C88.2929 35.6238 88.0155 41.8059 88.0155 47.9483C87.9759 48.7805 87.9759 49.5731 87.9759 50.4053Z" fill="url(#paint1_linear)"/>
<path d="M88.8476 95.3442C87.8569 93.2042 87.4606 91.0643 86.1529 89.7962C84.8848 88.5281 82.7052 88.1714 80.6445 87.2996C85.5981 87.2599 88.174 84.803 88.4514 79.7701C88.8873 84.6445 91.2254 87.4185 96.3771 87.5373C91.4631 87.9336 88.7684 90.2717 88.8476 95.3442Z" fill="url(#paint2_linear)"/>
<path d="M20.9236 68.674C20.9236 73.6671 23.3014 76.3223 28.4531 76.56C23.3806 76.8771 20.8444 79.4529 20.9236 84.565C19.9726 82.3458 19.6159 80.2059 18.3478 78.9377C17.0797 77.63 14.9397 77.2337 13.5527 76.5997C14.9001 76.0052 17.04 75.5693 18.3478 74.3012C19.6555 72.9935 20.0122 70.8139 20.9236 68.674Z" fill="url(#paint3_linear)"/>
<path d="M73.3931 72.9145C78.3466 72.5974 80.8036 70.1008 80.8432 65.068C81.7943 67.2079 82.2302 69.3479 83.4984 70.6556C84.7665 71.9237 86.9064 72.2804 88.9275 73.1522C84.0531 73.2315 81.398 75.6488 81.1999 80.8005C80.8036 75.8866 78.5448 73.1522 73.3931 72.9145Z" fill="url(#paint4_linear)"/>
<path d="M0 65.9C2.13994 64.9093 4.27988 64.4734 5.548 63.2053C6.81611 61.9372 7.17277 59.7972 8.0446 57.8158C8.16348 62.6901 10.5412 65.3056 15.6929 65.1867C13.553 66.1378 11.3734 66.5341 10.0657 67.8418C8.79754 69.0703 8.40126 71.2103 7.4898 73.3106C7.45017 68.3966 4.9932 65.8208 0 65.9Z" fill="url(#paint5_linear)"/>
<path d="M14.5838 88.6469C14.5838 90.6283 14.6631 92.6097 14.5442 94.5912C14.5046 95.146 13.7912 95.6611 13.4346 96.2159C12.959 95.7008 12.0872 95.146 12.0872 94.6308C11.9683 90.549 11.9683 86.4277 12.0872 82.3459C12.0872 81.8308 12.9194 81.3156 13.3157 80.8004C13.7516 81.3156 14.5046 81.7911 14.5442 82.3063C14.6631 84.4066 14.5838 86.5069 14.5838 88.6469Z" fill="url(#paint6_linear)"/>
<path d="M49.8931 71.3291C47.0398 71.3291 44.4639 70.4969 42.324 68.674C41.8485 68.2777 41.8881 67.2474 41.6899 66.4944C42.4033 66.5341 43.3147 66.2567 43.7903 66.6133C47.9909 69.5062 52.0726 69.4666 56.2336 66.4944C56.7092 66.1378 57.6206 66.4548 58.3339 66.4548C58.1358 67.1681 58.2151 68.1192 57.7791 68.4759C55.5203 70.4969 52.8652 71.3687 49.8931 71.3291Z" fill="url(#paint7_linear)"/>
<path d="M62.6524 52.149C60.3143 52.0697 58.2537 51.2375 56.7478 49.4543C56.3515 48.9787 56.51 48.0673 56.3911 47.3539C57.1044 47.4332 58.0159 47.2351 58.4914 47.5917C61.8202 50.2468 63.9205 50.2072 67.2097 47.4332C67.6456 47.0765 68.4778 47.1558 69.1515 47.0765C69.1119 47.7899 69.3893 48.7409 69.0326 49.1769C67.4475 51.1979 65.2283 52.149 62.6524 52.149Z" fill="url(#paint8_linear)"/>
<path d="M37.0927 52.149C34.6358 52.0697 32.4958 51.1583 30.9503 49.1769C30.5937 48.7013 30.8314 47.7899 30.7918 47.0765C31.4655 47.1558 32.2977 47.0369 32.7336 47.3936C36.1813 50.2468 37.8853 50.2468 41.6104 47.4728C42.0463 47.1558 42.9181 47.3539 43.5522 47.3143C43.5126 47.988 43.7107 48.8598 43.3541 49.2561C41.7689 51.2375 39.629 52.1094 37.0927 52.149Z" fill="url(#paint9_linear)"/>
<path d="M37.806 35.0295C39.3515 35.5843 41.1744 36.0995 42.8784 36.9317C43.3936 37.1695 43.8691 38.4772 43.671 38.9924C43.2351 40.0227 42.284 39.7057 41.4914 39.1113C39.6289 37.7639 37.5286 37.8035 35.4283 38.1206C34.3979 38.2791 33.3676 38.715 32.3372 38.7546C31.7032 38.7943 31.0691 38.2395 30.4351 37.9621C30.8313 37.4073 31.1484 36.5751 31.6239 36.4165C33.4865 35.8617 35.4283 35.5447 37.806 35.0295Z" fill="url(#paint10_linear)"/>
<path d="M62.1378 35.0295C64.5155 35.5051 66.2196 35.7825 67.9236 36.1788C68.8747 36.3769 69.8654 36.7336 69.5484 38.0017C69.2313 39.2698 68.2406 38.9924 67.2895 38.7546C65.9025 38.4376 64.4759 37.9621 63.0889 38.0413C61.5038 38.1602 59.9186 38.8735 58.3335 39.2302C57.6994 39.3491 57.0257 39.1905 56.3521 39.1509C56.5106 38.4376 56.4709 37.328 56.8672 37.1299C58.6901 36.2184 60.6716 35.5843 62.1378 35.0295Z" fill="url(#paint11_linear)"/>
<defs>
<linearGradient id="paint0_linear" x1="50.0234" y1="9.15613" x2="50.0234" y2="101.748" gradientUnits="userSpaceOnUse">
<stop offset="0.180208" stop-color="#FF8A00"/>
<stop offset="0.70625" stop-color="#00A3E0"/>
</linearGradient>
<linearGradient id="paint1_linear" x1="50.0155" y1="0" x2="50.0155" y2="66.548" gradientUnits="userSpaceOnUse">
<stop offset="0.180208" stop-color="#FF8A00"/>
<stop offset="0.70625" stop-color="#00A3E0"/>
</linearGradient>
<linearGradient id="paint2_linear" x1="88.5108" y1="79.7701" x2="88.5108" y2="95.3442" gradientUnits="userSpaceOnUse">
<stop offset="0.180208" stop-color="#FF8A00"/>
<stop offset="0.70625" stop-color="#00A3E0"/>
</linearGradient>
<linearGradient id="paint3_linear" x1="21.0029" y1="68.674" x2="21.0029" y2="84.565" gradientUnits="userSpaceOnUse">
<stop offset="0.180208" stop-color="#FF8A00"/>
<stop offset="0.70625" stop-color="#00A3E0"/>
</linearGradient>
<linearGradient id="paint4_linear" x1="81.1603" y1="65.068" x2="81.1603" y2="80.8005" gradientUnits="userSpaceOnUse">
<stop offset="0.180208" stop-color="#FF8A00"/>
<stop offset="0.70625" stop-color="#00A3E0"/>
</linearGradient>
<linearGradient id="paint5_linear" x1="7.84646" y1="57.8158" x2="7.84646" y2="73.3106" gradientUnits="userSpaceOnUse">
<stop offset="0.180208" stop-color="#FF8A00"/>
<stop offset="0.70625" stop-color="#00A3E0"/>
</linearGradient>
<linearGradient id="paint6_linear" x1="13.3039" y1="80.8004" x2="13.3039" y2="96.2159" gradientUnits="userSpaceOnUse">
<stop offset="0.180208" stop-color="#FF8A00"/>
<stop offset="0.70625" stop-color="#00A3E0"/>
</linearGradient>
<linearGradient id="paint7_linear" x1="50.0119" y1="66.325" x2="50.0119" y2="71.3304" gradientUnits="userSpaceOnUse">
<stop offset="0.180208" stop-color="#FF8A00"/>
<stop offset="0.70625" stop-color="#00A3E0"/>
</linearGradient>
<linearGradient id="paint8_linear" x1="62.8041" y1="47.0765" x2="62.8041" y2="52.149" gradientUnits="userSpaceOnUse">
<stop offset="0.180208" stop-color="#FF8A00"/>
<stop offset="0.70625" stop-color="#00A3E0"/>
</linearGradient>
<linearGradient id="paint9_linear" x1="37.1613" y1="47.0765" x2="37.1613" y2="52.149" gradientUnits="userSpaceOnUse">
<stop offset="0.180208" stop-color="#FF8A00"/>
<stop offset="0.70625" stop-color="#00A3E0"/>
</linearGradient>
<linearGradient id="paint10_linear" x1="37.076" y1="35.0295" x2="37.076" y2="39.6634" gradientUnits="userSpaceOnUse">
<stop offset="0.180208" stop-color="#FF8A00"/>
<stop offset="0.70625" stop-color="#00A3E0"/>
</linearGradient>
<linearGradient id="paint11_linear" x1="62.9804" y1="35.0295" x2="62.9804" y2="39.2736" gradientUnits="userSpaceOnUse">
<stop offset="0.180208" stop-color="#FF8A00"/>
<stop offset="0.70625" stop-color="#00A3E0"/>
</linearGradient>
</defs>
</svg>
