<svg width="143" height="127" viewBox="0 0 143 127" fill="none" xmlns="http://www.w3.org/2000/svg">
<path d="M103.952 99.2188C102.468 98.86 101.261 98.0935 100.788 96.5604C100.592 95.9569 100.494 95.2882 100.478 94.6521C100.462 80.9847 100.445 67.3172 100.478 53.6497C100.478 50.8445 101.407 48.3654 103.723 46.5876C105.045 45.5764 106.578 45.1524 108.209 45.0708C109.301 45.0219 110.41 45.0545 111.552 45.0545C111.552 44.0923 111.552 43.2279 111.552 42.2656C109.905 42.2656 108.306 42.2656 106.708 42.2656C106.382 42.2656 106.056 42.2493 105.746 42.184C105.175 42.0862 104.832 41.7274 104.718 41.1565C104.669 40.9445 104.637 40.7325 104.637 40.5205C104.637 38.8895 104.62 37.2585 104.637 35.6439C104.653 33.6541 105.778 32.545 107.768 32.545C116.787 32.545 125.823 32.545 134.842 32.545C136.881 32.545 137.974 33.6378 137.974 35.6765C137.974 37.3075 137.974 38.9384 137.974 40.5531C137.974 41.7437 137.452 42.2493 136.261 42.2656C134.598 42.2819 132.918 42.2819 131.254 42.2819C131.205 42.2819 131.173 42.2982 131.091 42.3308C131.091 43.1952 131.091 44.076 131.091 45.0545C131.972 45.0545 132.852 45.0545 133.733 45.0545C135.576 45.0545 137.321 45.4133 138.838 46.5224C140.926 48.0392 141.937 50.2084 142.1 52.7038C142.247 54.9545 142.165 57.2215 142.165 59.4722C142.165 71.1826 142.165 82.9092 142.165 94.6195C142.165 96.0058 141.937 97.2943 140.795 98.175C140.192 98.6317 139.442 98.8763 138.74 99.2188C127.128 99.2188 115.532 99.2188 103.952 99.2188ZM103.267 73.9226C103.267 80.8379 103.267 87.7695 103.267 94.6847C103.267 96.0548 103.658 96.4462 104.996 96.4462C115.841 96.4462 126.687 96.4462 137.533 96.4462C138.969 96.4462 139.36 96.0548 139.36 94.6358C139.36 86.5462 139.36 78.4567 139.36 70.3508C139.36 64.724 139.36 59.1134 139.36 53.4866C139.36 50.8281 137.99 48.7405 135.772 48.1044C134.989 47.8761 134.141 47.8109 133.325 47.8109C125.317 47.7945 117.309 47.7946 109.301 47.7946C108.779 47.7946 108.258 47.8109 107.752 47.8924C105.893 48.1534 104.474 49.083 103.838 50.8934C103.495 51.8393 103.283 52.8668 103.283 53.8617C103.234 60.5487 103.267 67.2356 103.267 73.9226ZM135.185 35.3503C125.905 35.3503 116.706 35.3503 107.475 35.3503C107.475 36.7366 107.475 38.0577 107.475 39.4114C116.739 39.4114 125.953 39.4114 135.185 39.4114C135.185 38.0414 135.185 36.7366 135.185 35.3503ZM128.237 42.3308C123.572 42.3308 118.989 42.3308 114.423 42.3308C114.423 43.2605 114.423 44.1412 114.423 45.0056C119.054 45.0056 123.637 45.0056 128.237 45.0056C128.237 44.0923 128.237 43.2279 128.237 42.3308Z" fill="url(#paint0_linear)"/>
<path d="M121.337 85.323C125.806 85.323 130.275 85.323 134.744 85.323C135.853 85.323 136.424 85.7144 136.538 86.5136C136.652 87.2149 136.228 87.8673 135.527 88.0304C135.233 88.0956 134.923 88.112 134.63 88.112C125.725 88.112 116.836 88.112 107.931 88.112C106.708 88.112 106.039 87.6227 106.023 86.7256C106.006 85.8286 106.691 85.323 107.898 85.323C112.4 85.323 116.869 85.323 121.337 85.323Z" fill="url(#paint1_linear)"/>
<path d="M121.289 54.775C125.757 54.775 130.226 54.775 134.695 54.775C134.94 54.775 135.168 54.775 135.413 54.8076C136.049 54.9055 136.505 55.3947 136.554 56.0308C136.62 56.6506 136.244 57.2377 135.625 57.4334C135.364 57.515 135.07 57.5313 134.793 57.5313C125.79 57.5313 116.787 57.5313 107.784 57.5313C107.523 57.5313 107.262 57.515 107.018 57.4334C106.398 57.254 106.006 56.6669 106.039 56.0634C106.088 55.4111 106.561 54.8565 107.23 54.8076C107.784 54.7587 108.355 54.7587 108.926 54.7587C113.052 54.775 117.162 54.775 121.289 54.775Z" fill="url(#paint2_linear)"/>
<path d="M95.2336 99.2003C73.4217 99.3366 51.7271 99.4703 29.9617 99.5821C29.8451 75.3876 29.7652 51.2628 29.6608 27.0916C51.4373 26.9444 73.1209 26.8461 94.9205 26.6867C95.0139 50.8933 95.128 74.9705 95.2336 99.2003ZM91.8243 36.6802C72.103 36.9009 52.5112 37.1424 32.8485 37.3619C32.9166 57.0747 33.0066 76.7167 33.0966 96.3586C33.5278 96.2204 33.7232 96.0284 33.8941 95.7901C44.2892 82.4844 55.9677 70.4891 70.1193 61.1049C74.5629 58.1704 79.2021 55.6073 84.196 53.7172C86.6869 52.7606 89.2523 52.0018 91.9094 51.1355C91.868 46.4425 91.8242 41.6322 91.8243 36.6802ZM37.3693 96.4201C55.7906 96.321 73.8833 96.217 92.0578 96.0997C92.0085 82.2186 91.9371 68.4084 91.8768 54.5627C91.0949 54.7671 90.4645 54.9214 89.8464 55.0988C89.0303 55.3509 88.2143 55.603 87.4104 55.8783C79.5494 58.6861 72.5174 62.9548 65.9244 68.0004C56.8251 74.93 48.782 82.9637 41.3514 91.6531C40.057 93.1358 38.8224 94.6759 37.3693 96.4201ZM32.8287 34.2292C52.5146 33.9974 72.1418 33.7669 91.8045 33.5474C91.7892 32.2804 91.7874 31.0953 91.7612 29.8637C72.0728 29.9781 52.4785 30.1023 32.8256 30.2277C32.8311 31.5888 32.8232 32.8681 32.8287 34.2292Z" fill="url(#paint3_linear)"/>
<path d="M82.3403 61.9009C81.9789 62.5657 81.8729 63.096 81.537 63.3027C81.0508 63.6181 80.4129 63.4205 80.2832 62.8365C80.217 62.4859 80.4379 61.8358 80.7628 61.6646C81.0413 61.5178 81.5863 61.7644 82.3403 61.9009Z" fill="url(#paint4_linear)"/>
<path d="M88.6468 60.4754C88.4319 60.8555 88.2917 61.4335 87.9887 61.5338C87.6626 61.6464 87.1749 61.3399 86.7497 61.2082C86.8936 60.8061 86.9166 60.2306 87.2171 60.013C87.4711 59.8198 88.0394 60.0542 88.4621 60.0686C88.5123 60.2201 88.5734 60.3361 88.6468 60.4754Z" fill="url(#paint5_linear)"/>
<path d="M59.9282 79.5814C59.5713 79.3543 58.9934 79.214 58.8808 78.8879C58.7682 78.5617 58.9536 77.9006 59.2309 77.6952C59.7048 77.3565 60.3072 77.5432 60.4725 78.1381C60.5863 78.5229 60.3727 78.9617 60.2996 79.3857C60.1957 79.47 60.0675 79.508 59.9282 79.5814Z" fill="url(#paint6_linear)"/>
<path d="M81.1549 86.0994C81.8197 86.4608 82.4563 86.5997 82.5212 86.8917C82.6228 87.2533 82.2699 87.7654 82.115 88.2029C81.7007 88.0357 81.113 87.9896 80.9308 87.7001C80.7718 87.3984 81.0184 86.8533 81.1549 86.0994Z" fill="url(#paint7_linear)"/>
<path d="M44.0041 93.8731C43.655 94.5611 43.516 95.1978 43.224 95.2627C42.8624 95.3643 42.3625 95.0346 41.925 94.8796C42.0922 94.4654 42.1384 93.8776 42.4156 93.6723C42.7173 93.5133 43.2624 93.7598 44.0041 93.8731Z" fill="url(#paint8_linear)"/>
<path d="M58.8809 86.0343C58.5318 86.7224 58.4038 87.3236 58.113 87.4471C57.7868 87.5597 57.0781 87.3401 56.9313 87.0616C56.7846 86.7831 57.0042 86.0743 57.3046 85.8567C57.5355 85.6757 58.0805 85.9223 58.8809 86.0343Z" fill="url(#paint9_linear)"/>
<path d="M71.3674 79.4547C71.0293 80.1073 70.9013 80.7085 70.6105 80.8321C70.2966 80.9679 69.7735 80.6504 69.3605 80.5419C69.5032 80.0812 69.5261 79.5057 69.8144 79.2649C70.0452 79.0839 70.6257 79.3415 71.3674 79.4547Z" fill="url(#paint10_linear)"/>
<path d="M87.8166 79.3275C88.5047 79.6766 89.0118 79.7949 89.2294 80.0953C89.5803 80.5924 89.4169 81.1827 88.8097 81.3247C88.4481 81.4263 87.8212 81.1932 87.6158 80.9159C87.4458 80.6497 87.6924 80.1046 87.8166 79.3275Z" fill="url(#paint11_linear)"/>
<path d="M66.5097 70.6872C66.9008 70.8666 67.513 70.9592 67.6133 71.2621C67.7491 71.5761 67.5649 72.2958 67.2864 72.4426C67.0202 72.6125 66.3004 72.4284 66.095 72.1511C65.9019 71.8971 66.113 71.3411 66.1506 70.9061C66.2545 70.8217 66.3937 70.7483 66.5097 70.6872Z" fill="url(#paint12_linear)"/>
<path d="M77.3487 70.4912C77.1692 70.8823 77.0412 71.4835 76.7505 71.607C76.4366 71.7428 75.7046 71.5354 75.5578 71.2569C75.4111 70.9784 75.5952 70.2587 75.8725 70.0533C76.1265 69.8601 76.6948 70.0944 77.1298 70.1321C77.1909 70.2481 77.2643 70.3874 77.3487 70.4912Z" fill="url(#paint13_linear)"/>
<path d="M49.8575 88.8318C49.6427 89.2118 49.5379 89.8008 49.2117 89.9134C48.8855 90.0259 48.1768 89.8063 48.0423 89.551C47.8955 89.2725 48.1151 88.5638 48.4046 88.3816C48.6709 88.2116 49.2269 88.4227 49.6509 88.4959C49.7353 88.5997 49.7964 88.7157 49.8575 88.8318Z" fill="url(#paint14_linear)"/>
<path d="M87.7846 71.2196C87.0966 70.8705 86.5076 70.7657 86.3841 70.4749C86.2483 70.161 86.5425 69.6501 86.6743 69.2249C87.1227 69.3444 87.7214 69.3551 87.9623 69.6433C88.12 69.8864 87.8625 70.4669 87.7846 71.2196Z" fill="url(#paint15_linear)"/>
<path d="M79.6704 79.7942C79.2903 79.5793 78.7123 79.4391 78.5998 79.1129C78.4872 78.7868 78.8291 78.3101 78.9608 77.8848C79.3861 78.0166 79.9616 78.0395 80.156 78.3522C80.3382 78.6417 80.1148 79.1745 80.054 79.6217C79.9257 79.6597 79.8096 79.7208 79.6704 79.7942Z" fill="url(#paint16_linear)"/>
<path d="M68.2748 86.867C67.8947 86.6522 67.3167 86.5119 67.2042 86.1858C67.0916 85.8596 67.3466 85.1618 67.6019 85.0273C67.8927 84.9038 68.5782 85.1356 68.7836 85.4128C68.9536 85.6791 68.7193 86.2474 68.6462 86.6714C68.5423 86.7557 68.4031 86.8291 68.2748 86.867Z" fill="url(#paint17_linear)"/>
<path d="M74.5415 86.3226C75.2418 86.6949 75.843 86.8229 75.9665 87.1137C76.0791 87.4398 75.8595 88.1486 75.581 88.2954C75.3025 88.4421 74.5937 88.2225 74.3883 87.9453C74.2061 87.6558 74.4404 87.0875 74.5415 86.3226Z" fill="url(#paint18_linear)"/>
<path d="M66.559 93.3454C66.3796 93.7365 66.2748 94.3255 65.9608 94.4613C65.6469 94.597 65.136 94.3028 64.7108 94.171C64.8193 93.758 64.8178 93.1361 65.0951 92.9307C65.3491 92.7375 65.9283 92.9364 66.3633 92.9741C66.4013 93.1024 66.4856 93.2062 66.559 93.3454Z" fill="url(#paint19_linear)"/>
<path d="M74.9493 91.1484C75.6496 91.5208 76.2276 91.661 76.3634 91.9749C76.4759 92.3011 76.2563 93.0099 76.001 93.1444C75.7225 93.2911 75.0138 93.0715 74.8316 92.7821C74.603 92.517 74.8373 91.9488 74.9493 91.1484Z" fill="url(#paint20_linear)"/>
<path d="M88.4784 91.6699C88.2635 92.05 88.1233 92.628 87.8203 92.7283C87.4942 92.8408 86.8086 92.609 86.6618 92.3305C86.5151 92.052 86.7701 91.3542 87.0596 91.172C87.3259 91.0021 87.8709 91.2486 88.3059 91.2863C88.3671 91.4024 88.4172 91.5538 88.4784 91.6699Z" fill="url(#paint21_linear)"/>
<path d="M56.1308 94.0962C55.9037 94.4531 55.7634 95.0311 55.4605 95.1314C55.1343 95.244 54.6576 94.9021 54.2556 94.7581C54.3996 94.3561 54.4457 93.7684 54.7352 93.5862C55.0015 93.4162 55.5465 93.6628 55.9815 93.7004C56.0194 93.8287 56.0574 93.957 56.1308 94.0962Z" fill="url(#paint22_linear)"/>
<defs>
<linearGradient id="paint0_linear" x1="121.323" y1="32.545" x2="121.323" y2="99.2188" gradientUnits="userSpaceOnUse">
<stop offset="0.180208" stop-color="#FF8A00"/>
<stop offset="0.70625" stop-color="#00A3E0"/>
</linearGradient>
<linearGradient id="paint1_linear" x1="121.29" y1="85.323" x2="121.29" y2="88.112" gradientUnits="userSpaceOnUse">
<stop offset="0.180208" stop-color="#FF8A00"/>
<stop offset="0.70625" stop-color="#00A3E0"/>
</linearGradient>
<linearGradient id="paint2_linear" x1="121.299" y1="54.7587" x2="121.299" y2="57.5313" gradientUnits="userSpaceOnUse">
<stop offset="0.180208" stop-color="#FF8A00"/>
<stop offset="0.70625" stop-color="#00A3E0"/>
</linearGradient>
<linearGradient id="paint3_linear" x1="40.4529" y1="21.405" x2="84.4415" y2="104.887" gradientUnits="userSpaceOnUse">
<stop offset="0.180208" stop-color="#FF8A00"/>
<stop offset="0.70625" stop-color="#00A3E0"/>
</linearGradient>
<linearGradient id="paint4_linear" x1="80.8885" y1="61.5984" x2="81.7342" y2="63.2033" gradientUnits="userSpaceOnUse">
<stop offset="0.180208" stop-color="#FF8A00"/>
<stop offset="0.70625" stop-color="#00A3E0"/>
</linearGradient>
<linearGradient id="paint5_linear" x1="87.2616" y1="59.985" x2="88.0604" y2="61.5009" gradientUnits="userSpaceOnUse">
<stop offset="0.180208" stop-color="#FF8A00"/>
<stop offset="0.70625" stop-color="#00A3E0"/>
</linearGradient>
<linearGradient id="paint6_linear" x1="59.2466" y1="77.6767" x2="60.1857" y2="79.4589" gradientUnits="userSpaceOnUse">
<stop offset="0.180208" stop-color="#FF8A00"/>
<stop offset="0.70625" stop-color="#00A3E0"/>
</linearGradient>
<linearGradient id="paint7_linear" x1="81.1121" y1="86.1219" x2="82.1883" y2="88.1643" gradientUnits="userSpaceOnUse">
<stop offset="0.180208" stop-color="#FF8A00"/>
<stop offset="0.70625" stop-color="#00A3E0"/>
</linearGradient>
<linearGradient id="paint8_linear" x1="42.5549" y1="93.5989" x2="43.3903" y2="95.1844" gradientUnits="userSpaceOnUse">
<stop offset="0.180208" stop-color="#FF8A00"/>
<stop offset="0.70625" stop-color="#00A3E0"/>
</linearGradient>
<linearGradient id="paint9_linear" x1="57.4884" y1="85.7553" x2="58.3224" y2="87.338" gradientUnits="userSpaceOnUse">
<stop offset="0.180208" stop-color="#FF8A00"/>
<stop offset="0.70625" stop-color="#00A3E0"/>
</linearGradient>
<linearGradient id="paint10_linear" x1="69.9402" y1="79.1942" x2="70.7619" y2="80.7535" gradientUnits="userSpaceOnUse">
<stop offset="0.180208" stop-color="#FF8A00"/>
<stop offset="0.70625" stop-color="#00A3E0"/>
</linearGradient>
<linearGradient id="paint11_linear" x1="87.8088" y1="79.3316" x2="88.8631" y2="81.3326" gradientUnits="userSpaceOnUse">
<stop offset="0.180208" stop-color="#FF8A00"/>
<stop offset="0.70625" stop-color="#00A3E0"/>
</linearGradient>
<linearGradient id="paint12_linear" x1="66.3587" y1="70.7668" x2="67.2519" y2="72.4619" gradientUnits="userSpaceOnUse">
<stop offset="0.180208" stop-color="#FF8A00"/>
<stop offset="0.70625" stop-color="#00A3E0"/>
</linearGradient>
<linearGradient id="paint13_linear" x1="75.9867" y1="69.9886" x2="76.8206" y2="71.5713" gradientUnits="userSpaceOnUse">
<stop offset="0.180208" stop-color="#FF8A00"/>
<stop offset="0.70625" stop-color="#00A3E0"/>
</linearGradient>
<linearGradient id="paint14_linear" x1="48.4969" y1="88.3317" x2="49.3064" y2="89.868" gradientUnits="userSpaceOnUse">
<stop offset="0.180208" stop-color="#FF8A00"/>
<stop offset="0.70625" stop-color="#00A3E0"/>
</linearGradient>
<linearGradient id="paint15_linear" x1="86.7207" y1="69.2004" x2="87.7846" y2="71.2196" gradientUnits="userSpaceOnUse">
<stop offset="0.180208" stop-color="#FF8A00"/>
<stop offset="0.70625" stop-color="#00A3E0"/>
</linearGradient>
<linearGradient id="paint16_linear" x1="78.9362" y1="77.8978" x2="79.8901" y2="79.7081" gradientUnits="userSpaceOnUse">
<stop offset="0.180208" stop-color="#FF8A00"/>
<stop offset="0.70625" stop-color="#00A3E0"/>
</linearGradient>
<linearGradient id="paint17_linear" x1="67.5889" y1="85.0342" x2="68.5031" y2="86.769" gradientUnits="userSpaceOnUse">
<stop offset="0.180208" stop-color="#FF8A00"/>
<stop offset="0.70625" stop-color="#00A3E0"/>
</linearGradient>
<linearGradient id="paint18_linear" x1="74.5415" y1="86.3226" x2="75.581" y2="88.2954" gradientUnits="userSpaceOnUse">
<stop offset="0.180208" stop-color="#FF8A00"/>
<stop offset="0.70625" stop-color="#00A3E0"/>
</linearGradient>
<linearGradient id="paint19_linear" x1="65.1743" y1="92.8842" x2="65.9961" y2="94.4438" gradientUnits="userSpaceOnUse">
<stop offset="0.180208" stop-color="#FF8A00"/>
<stop offset="0.70625" stop-color="#00A3E0"/>
</linearGradient>
<linearGradient id="paint20_linear" x1="74.946" y1="91.1502" x2="75.9977" y2="93.1462" gradientUnits="userSpaceOnUse">
<stop offset="0.180208" stop-color="#FF8A00"/>
<stop offset="0.70625" stop-color="#00A3E0"/>
</linearGradient>
<linearGradient id="paint21_linear" x1="87.1287" y1="91.1344" x2="87.9383" y2="92.6709" gradientUnits="userSpaceOnUse">
<stop offset="0.180208" stop-color="#FF8A00"/>
<stop offset="0.70625" stop-color="#00A3E0"/>
</linearGradient>
<linearGradient id="paint22_linear" x1="54.7695" y1="93.5669" x2="55.5669" y2="95.0802" gradientUnits="userSpaceOnUse">
<stop offset="0.180208" stop-color="#FF8A00"/>
<stop offset="0.70625" stop-color="#00A3E0"/>
</linearGradient>
</defs>
</svg>
