<svg width="87" height="87" viewBox="0 0 87 87" fill="none" xmlns="http://www.w3.org/2000/svg">
<path d="M3.1047 86.9205C1.78543 86.4527 0.712617 85.4534 0.292191 83.4548C0.118222 82.668 0.0312377 81.7963 0.0167402 80.967C0.00224276 63.1492 -0.0122547 45.3313 0.0167402 27.5135C0.0167402 23.8564 0.843094 20.6245 2.90173 18.3069C4.07603 16.9886 5.43879 16.4358 6.88853 16.3295C7.85986 16.2657 8.84569 16.3082 9.86051 16.3082C9.86051 15.0537 9.86051 13.9268 9.86051 12.6724C8.39627 12.6724 6.97552 12.6724 5.55477 12.6724C5.26482 12.6724 4.97487 12.6511 4.69942 12.5661C4.19201 12.4385 3.88756 11.9707 3.78608 11.2265C3.74259 10.9501 3.71359 10.6737 3.71359 10.3973C3.71359 8.27106 3.69909 6.14482 3.71359 4.03985C3.72809 1.44584 4.72841 0 6.4971 0C14.5142 0 22.5458 0 30.5629 0C32.3751 0 33.3464 1.42458 33.3464 4.08237C33.3464 6.20861 33.3464 8.33485 33.3464 10.4398C33.3464 11.992 32.8825 12.6511 31.8242 12.6724C30.3454 12.6936 28.8522 12.6936 27.3734 12.6936C27.3299 12.6936 27.301 12.7149 27.2285 12.7574C27.2285 13.8843 27.2285 15.0325 27.2285 16.3082C28.0113 16.3082 28.7942 16.3082 29.5771 16.3082C31.2153 16.3082 32.7665 16.776 34.1148 18.2218C35.9704 20.1992 36.8693 23.0271 37.0142 26.2803C37.1447 29.2145 37.0722 32.1699 37.0722 35.1041C37.0722 50.3705 37.0722 65.6581 37.0722 80.9245C37.0722 82.7318 36.8693 84.4115 35.8545 85.5597C35.318 86.1551 34.6512 86.474 34.0278 86.9205C23.7056 86.9205 13.3979 86.9205 3.1047 86.9205ZM2.4958 53.9426C2.4958 62.9578 2.4958 71.9943 2.4958 81.0096C2.4958 82.7956 2.84374 83.3059 4.03254 83.3059C13.6733 83.3059 23.3141 83.3059 32.955 83.3059C34.2307 83.3059 34.5787 82.7956 34.5787 80.9458C34.5787 70.3997 34.5787 59.8535 34.5787 49.2861C34.5787 41.9506 34.5787 34.6364 34.5787 27.3009C34.5787 23.8351 33.3609 21.1135 31.3892 20.2843C30.6934 19.9866 29.9395 19.9016 29.2146 19.9016C22.0964 19.8803 14.9781 19.8803 7.85986 19.8803C7.39594 19.8803 6.93203 19.9016 6.4826 20.0079C4.82989 20.3481 3.56862 21.56 3.00321 23.9202C2.69877 25.1534 2.5103 26.4929 2.5103 27.7899C2.46681 36.5075 2.4958 45.225 2.4958 53.9426ZM30.8673 3.65712C22.6183 3.65712 14.4417 3.65712 6.23615 3.65712C6.23615 5.46443 6.23615 7.18668 6.23615 8.95145C14.4707 8.95145 22.6618 8.95145 30.8673 8.95145C30.8673 7.16542 30.8673 5.46443 30.8673 3.65712ZM24.6914 12.7574C20.5451 12.7574 16.4714 12.7574 12.4121 12.7574C12.4121 13.9694 12.4121 15.1175 12.4121 16.2444C16.5293 16.2444 20.6031 16.2444 24.6914 16.2444C24.6914 15.0538 24.6914 13.9268 24.6914 12.7574Z" fill="url(#paint0_linear)"/>
<path d="M18.5597 68.8049C22.532 68.8049 26.5042 68.8049 30.4766 68.8049C31.4624 68.8049 31.9698 69.3152 32.0713 70.3571C32.1728 71.2714 31.7958 72.1219 31.1724 72.3345C30.9115 72.4195 30.636 72.4408 30.3751 72.4408C22.4595 72.4408 14.5584 72.4408 6.64274 72.4408C5.55543 72.4408 4.96104 71.8029 4.94654 70.6335C4.93204 69.4641 5.54094 68.8049 6.61375 68.8049C10.615 68.8049 14.5873 68.8049 18.5597 68.8049Z" fill="url(#paint1_linear)"/>
<path d="M18.5163 28.9809C22.4886 28.9809 26.4609 28.9809 30.4332 28.9809C30.6506 28.9809 30.8536 28.9809 31.0711 29.0234C31.6365 29.151 32.0424 29.7888 32.0859 30.6181C32.1439 31.426 31.8104 32.1915 31.2595 32.4466C31.0276 32.5529 30.7666 32.5742 30.5202 32.5742C22.5176 32.5742 14.515 32.5742 6.51238 32.5742C6.28043 32.5742 6.04846 32.5529 5.831 32.4466C5.2801 32.2127 4.93216 31.4473 4.96116 30.6606C5.00465 29.8101 5.42507 29.0872 6.01947 29.0234C6.51238 28.9596 7.0198 28.9596 7.52721 28.9596C11.1951 28.9809 14.8484 28.9809 18.5163 28.9809Z" fill="url(#paint2_linear)"/>
<path d="M52.5617 86.9205C51.2425 86.4527 50.1696 85.4534 49.7492 83.4548C49.5753 82.668 49.4883 81.7963 49.4738 80.967C49.4593 63.1492 49.4448 45.3313 49.4738 27.5135C49.4738 23.8564 50.3001 20.6245 52.3588 18.3069C53.5331 16.9886 54.8958 16.4358 56.3456 16.3295C57.3169 16.2657 58.3027 16.3082 59.3175 16.3082C59.3175 15.0537 59.3175 13.9268 59.3175 12.6724C57.8533 12.6724 56.4325 12.6724 55.0118 12.6724C54.7219 12.6724 54.4319 12.6511 54.1565 12.5661C53.649 12.4385 53.3446 11.9707 53.2431 11.2265C53.1996 10.9501 53.1706 10.6737 53.1706 10.3973C53.1706 8.27106 53.1561 6.14482 53.1706 4.03985C53.1851 1.44584 54.1854 0 55.9541 0C63.9712 0 72.0028 0 80.0199 0C81.8321 0 82.8034 1.42458 82.8034 4.08237C82.8034 6.20861 82.8034 8.33485 82.8034 10.4398C82.8034 11.992 82.3395 12.6511 81.2812 12.6724C79.8025 12.6936 78.3092 12.6936 76.8305 12.6936C76.787 12.6936 76.758 12.7149 76.6855 12.7574C76.6855 13.8843 76.6855 15.0325 76.6855 16.3082C77.4684 16.3082 78.2512 16.3082 79.0341 16.3082C80.6723 16.3082 82.2235 16.776 83.5718 18.2218C85.4275 20.1992 86.3263 23.0271 86.4713 26.2803C86.6018 29.2145 86.5293 32.1699 86.5293 35.1041C86.5293 50.3705 86.5293 65.6581 86.5293 80.9245C86.5293 82.7318 86.3263 84.4115 85.3115 85.5597C84.7751 86.1551 84.1082 86.474 83.4848 86.9205C73.1626 86.9205 62.8549 86.9205 52.5617 86.9205ZM51.9528 53.9426C51.9528 62.9578 51.9528 71.9943 51.9528 81.0096C51.9528 82.7956 52.3008 83.3059 53.4896 83.3059C63.1304 83.3059 72.7712 83.3059 82.412 83.3059C83.6878 83.3059 84.0357 82.7956 84.0357 80.9458C84.0357 70.3997 84.0357 59.8535 84.0357 49.2861C84.0357 41.9506 84.0357 34.6364 84.0357 27.3009C84.0357 23.8351 82.8179 21.1135 80.8463 20.2843C80.1504 19.9866 79.3965 19.9016 78.6716 19.9016C71.5534 19.8803 64.4351 19.8803 57.3169 19.8803C56.853 19.8803 56.3891 19.9016 55.9396 20.0079C54.2869 20.3481 53.0256 21.56 52.4602 23.9202C52.1558 25.1534 51.9673 26.4929 51.9673 27.7899C51.9238 36.5075 51.9528 45.225 51.9528 53.9426ZM80.3244 3.65712C72.0753 3.65712 63.8987 3.65712 55.6932 3.65712C55.6932 5.46443 55.6932 7.18668 55.6932 8.95145C63.9277 8.95145 72.1188 8.95145 80.3244 8.95145C80.3244 7.16542 80.3244 5.46443 80.3244 3.65712ZM74.1484 12.7574C70.0022 12.7574 65.9284 12.7574 61.8691 12.7574C61.8691 13.9694 61.8691 15.1175 61.8691 16.2444C65.9864 16.2444 70.0602 16.2444 74.1484 16.2444C74.1484 15.0538 74.1484 13.9268 74.1484 12.7574Z" fill="url(#paint3_linear)"/>
<path d="M68.0157 68.8049C71.988 68.8049 75.9603 68.8049 79.9326 68.8049C80.9184 68.8049 81.4258 69.3152 81.5273 70.3571C81.6288 71.2714 81.2519 72.1219 80.6285 72.3345C80.3675 72.4195 80.0921 72.4408 79.8311 72.4408C71.9155 72.4408 64.0144 72.4408 56.0988 72.4408C55.0115 72.4408 54.4171 71.8029 54.4026 70.6335C54.3881 69.4641 54.997 68.8049 56.0698 68.8049C60.0711 68.8049 64.0434 68.8049 68.0157 68.8049Z" fill="url(#paint4_linear)"/>
<path d="M67.9728 28.9809C71.9451 28.9809 75.9174 28.9809 79.8897 28.9809C80.1072 28.9809 80.3102 28.9809 80.5276 29.0234C81.093 29.151 81.4989 29.7888 81.5424 30.6181C81.6004 31.426 81.267 32.1915 80.7161 32.4466C80.4841 32.5529 80.2232 32.5742 79.9767 32.5742C71.9741 32.5742 63.9715 32.5742 55.9689 32.5742C55.737 32.5742 55.505 32.5529 55.2875 32.4466C54.7366 32.2127 54.3887 31.4473 54.4177 30.6606C54.4612 29.8101 54.8816 29.0872 55.476 29.0234C55.9689 28.9596 56.4763 28.9596 56.9837 28.9596C60.6516 28.9809 64.305 28.9809 67.9728 28.9809Z" fill="url(#paint5_linear)"/>
<defs>
<linearGradient id="paint0_linear" x1="18.5462" y1="0" x2="18.5462" y2="86.9205" gradientUnits="userSpaceOnUse">
<stop offset="0.180208" stop-color="#FFE2BF"/>
<stop offset="0.451042" stop-color="#00A3E0"/>
<stop offset="0.70625" stop-color="#00A3E0"/>
</linearGradient>
<linearGradient id="paint1_linear" x1="18.517" y1="68.8049" x2="18.517" y2="72.4408" gradientUnits="userSpaceOnUse">
<stop offset="0.180208" stop-color="#FFE2BF"/>
<stop offset="0.451042" stop-color="#00A3E0"/>
<stop offset="0.70625" stop-color="#00A3E0"/>
</linearGradient>
<linearGradient id="paint2_linear" x1="18.5259" y1="28.9596" x2="18.5259" y2="32.5742" gradientUnits="userSpaceOnUse">
<stop offset="0.180208" stop-color="#FFE2BF"/>
<stop offset="0.451042" stop-color="#00A3E0"/>
<stop offset="0.70625" stop-color="#00A3E0"/>
</linearGradient>
<linearGradient id="paint3_linear" x1="68.0032" y1="0" x2="68.0032" y2="86.9205" gradientUnits="userSpaceOnUse">
<stop offset="0.180208" stop-color="#FFE2BF"/>
<stop offset="0.451042" stop-color="#00A3E0"/>
<stop offset="0.70625" stop-color="#00A3E0"/>
</linearGradient>
<linearGradient id="paint4_linear" x1="67.9731" y1="68.8049" x2="67.9731" y2="72.4408" gradientUnits="userSpaceOnUse">
<stop offset="0.180208" stop-color="#FFE2BF"/>
<stop offset="0.451042" stop-color="#00A3E0"/>
<stop offset="0.70625" stop-color="#00A3E0"/>
</linearGradient>
<linearGradient id="paint5_linear" x1="67.9825" y1="28.9596" x2="67.9825" y2="32.5742" gradientUnits="userSpaceOnUse">
<stop offset="0.180208" stop-color="#FFE2BF"/>
<stop offset="0.451042" stop-color="#00A3E0"/>
<stop offset="0.70625" stop-color="#00A3E0"/>
</linearGradient>
</defs>
</svg>
