<svg width="50" height="80" viewBox="0 0 50 80" fill="none" xmlns="http://www.w3.org/2000/svg">
<path d="M4.16973 79.5959C2.3979 79.1675 0.957071 78.2524 0.392423 76.4222C0.158776 75.7018 0.0419534 74.9035 0.0224827 74.1441C0.00301212 57.8277 -0.0164585 41.5114 0.0224827 25.195C0.0224827 21.846 1.13231 18.8865 3.89713 16.7642C5.47426 15.557 7.30449 15.0508 9.25155 14.9534C10.5561 14.895 11.8801 14.934 13.243 14.934C13.243 13.7852 13.243 12.7533 13.243 11.6045C11.2765 11.6045 9.36838 11.6045 7.46026 11.6045C7.07085 11.6045 6.68144 11.585 6.31149 11.5071C5.63002 11.3903 5.22114 10.962 5.08484 10.2805C5.02643 10.0274 4.98749 9.77425 4.98749 9.52113C4.98749 7.57407 4.96802 5.62701 4.98749 3.69942C5.00696 1.324 6.35043 0 8.72585 0C19.4931 0 30.2798 0 41.0471 0C43.4809 0 44.7854 1.30453 44.7854 3.73836C44.7854 5.68542 44.7854 7.63248 44.7854 9.56007C44.7854 10.9814 44.1624 11.585 42.741 11.6045C40.755 11.624 38.7495 11.624 36.7635 11.624C36.7051 11.624 36.6662 11.6434 36.5688 11.6824C36.5688 12.7143 36.5688 13.7657 36.5688 14.934C37.6202 14.934 38.6717 14.934 39.7231 14.934C41.9233 14.934 44.0066 15.3623 45.8174 16.6863C48.3096 18.4971 49.5168 21.0867 49.7115 24.0657C49.8867 26.7526 49.7894 29.459 49.7894 32.146C49.7894 46.1259 49.7894 60.1253 49.7894 74.1052C49.7894 75.7602 49.5168 77.2983 48.1539 78.3498C47.4334 78.8949 46.5378 79.187 45.7006 79.5959C31.8375 79.5959 17.9939 79.5959 4.16973 79.5959ZM3.35196 49.397C3.35196 57.6525 3.35196 65.9275 3.35196 74.1831C3.35196 75.8186 3.81925 76.2859 5.41584 76.2859C18.3638 76.2859 31.3118 76.2859 44.2597 76.2859C45.9731 76.2859 46.4404 75.8186 46.4404 74.1246C46.4404 64.4672 46.4404 54.8098 46.4404 45.1329C46.4404 38.4155 46.4404 31.7176 46.4404 25.0003C46.4404 21.8266 44.8049 19.3343 42.1569 18.575C41.2223 18.3024 40.2098 18.2245 39.2363 18.2245C29.6762 18.205 20.1162 18.205 10.5561 18.205C9.93303 18.205 9.30997 18.2245 8.70638 18.3218C6.48673 18.6334 4.79278 19.7432 4.03343 21.9044C3.62455 23.0337 3.37143 24.2604 3.37143 25.4481C3.31302 33.431 3.35196 41.414 3.35196 49.397ZM41.456 3.34895C30.3772 3.34895 19.3957 3.34895 8.37538 3.34895C8.37538 5.00395 8.37538 6.58107 8.37538 8.19713C19.4347 8.19713 30.4356 8.19713 41.456 8.19713C41.456 6.5616 41.456 5.00395 41.456 3.34895ZM33.1615 11.6824C27.5929 11.6824 22.1216 11.6824 16.6699 11.6824C16.6699 12.7922 16.6699 13.8436 16.6699 14.8756C22.1995 14.8756 27.6708 14.8756 33.1615 14.8756C33.1615 13.7852 33.1615 12.7533 33.1615 11.6824Z" fill="url(#paint0_linear)"/>
<path d="M24.9253 63.0071C30.2603 63.0071 35.5952 63.0071 40.9302 63.0071C42.2542 63.0071 42.9357 63.4744 43.072 64.4284C43.2082 65.2657 42.702 66.0445 41.8648 66.2392C41.5143 66.3171 41.1444 66.3366 40.7939 66.3366C30.1629 66.3366 19.5514 66.3366 8.92049 66.3366C7.4602 66.3366 6.6619 65.7524 6.64243 64.6816C6.62296 63.6107 7.44073 63.0071 8.88155 63.0071C14.2554 63.0071 19.5904 63.0071 24.9253 63.0071Z" fill="url(#paint1_linear)"/>
<path d="M24.867 26.5383C30.2019 26.5383 35.5369 26.5383 40.8718 26.5383C41.1639 26.5383 41.4365 26.5383 41.7285 26.5772C42.4879 26.694 43.033 27.2782 43.0915 28.0375C43.1693 28.7774 42.7215 29.4783 41.9816 29.712C41.6701 29.8093 41.3196 29.8288 40.9886 29.8288C30.2409 29.8288 19.4931 29.8288 8.74529 29.8288C8.43376 29.8288 8.12222 29.8093 7.83017 29.712C7.09028 29.4978 6.62299 28.7969 6.66193 28.0764C6.72034 27.2976 7.28499 26.6356 8.08328 26.5772C8.74528 26.5188 9.42676 26.5188 10.1082 26.5188C15.0343 26.5383 19.9409 26.5383 24.867 26.5383Z" fill="url(#paint2_linear)"/>
<defs>
<linearGradient id="paint0_linear" x1="24.9082" y1="0" x2="24.9082" y2="79.5959" gradientUnits="userSpaceOnUse">
<stop offset="0.180208" stop-color="#FFE2BF"/>
<stop offset="0.451042" stop-color="#00A3E0"/>
<stop offset="0.70625" stop-color="#00A3E0"/>
</linearGradient>
<linearGradient id="paint1_linear" x1="24.8681" y1="63.0071" x2="24.8681" y2="66.3366" gradientUnits="userSpaceOnUse">
<stop offset="0.180208" stop-color="#FFE2BF"/>
<stop offset="0.451042" stop-color="#00A3E0"/>
<stop offset="0.70625" stop-color="#00A3E0"/>
</linearGradient>
<linearGradient id="paint2_linear" x1="24.8799" y1="26.5188" x2="24.8799" y2="29.8288" gradientUnits="userSpaceOnUse">
<stop offset="0.180208" stop-color="#FFE2BF"/>
<stop offset="0.451042" stop-color="#00A3E0"/>
<stop offset="0.70625" stop-color="#00A3E0"/>
</linearGradient>
</defs>
</svg>
