<svg width="20" height="22" viewBox="0 0 20 22" fill="none" xmlns="http://www.w3.org/2000/svg">
<path d="M19.9856 7.35522C19.8606 5.26916 18.9308 3.35702 17.3675 1.97033C15.8042 0.583639 13.7962 -0.109093 11.7082 0.0139774C9.62242 0.139013 7.71003 1.0688 6.32359 2.63211C3.54406 5.76586 3.74402 10.5278 6.71294 13.4218L5.4422 14.8716L5.03466 14.5103C4.88261 14.3751 4.65071 14.3889 4.51561 14.5402L0.0939136 19.4815C0.0285708 19.5542 -0.00483758 19.65 0.000566715 19.7475C0.00597101 19.845 0.0499424 19.9366 0.122655 20.0017L1.5118 21.245C1.5823 21.3079 1.67 21.3388 1.75745 21.3388C1.85866 21.3388 1.95938 21.2973 2.03209 21.216L6.45968 16.2684C6.52502 16.1954 6.55867 16.0994 6.55302 16.0013C6.54737 15.9038 6.50291 15.8119 6.42971 15.7471L5.99368 15.3604L7.26369 13.9116C8.65972 15.0409 10.3736 15.6469 12.1659 15.6469C12.3248 15.6469 12.4847 15.642 12.6446 15.6324C14.7305 15.5071 16.6428 14.5773 18.0295 13.014C19.4162 11.4507 20.1107 9.44127 19.9856 7.35522ZM1.72871 20.4501L0.888836 19.6984L4.82021 15.3052L5.66377 16.0532L1.72871 20.4501ZM17.478 12.5252C16.222 13.9413 14.4897 14.7834 12.6004 14.8967C10.7114 15.0131 8.89062 14.3805 7.47446 13.1248C4.55123 10.532 4.28224 6.04418 6.87507 3.12095C8.13108 1.70478 9.8634 0.862697 11.7527 0.749452C11.8976 0.740609 12.0421 0.736433 12.1863 0.736433C13.9191 0.736433 15.5713 1.36186 16.8789 2.52157C18.2951 3.77757 19.1372 5.5099 19.2504 7.39919C19.3634 9.28872 18.7338 11.1092 17.478 12.5252Z" fill="black"/>
</svg>
