<svg width="64" height="71" viewBox="0 0 64 71" fill="none" xmlns="http://www.w3.org/2000/svg">
<path d="M40.3464 54.2309C34.4416 57.5012 28.6275 57.5921 22.7227 54.2309C22.6015 54.6851 22.4804 55.0787 22.3896 55.4724C20.7544 64.466 14.3953 70.1286 5.28059 70.6434C4.00877 70.7039 2.70667 70.7948 1.43485 70.6736C0.92007 70.6131 0.0419099 70.1286 0.0116285 69.7652C-0.109497 68.8265 0.738382 68.7659 1.49542 68.7054C3.94821 68.5237 6.49185 68.5842 8.85379 68.0089C16.515 66.1617 20.0276 59.6512 20.6333 53.5041C20.6635 53.0802 20.4213 52.4745 20.0882 52.1717C16.2425 48.4774 13.6988 44.026 12.427 38.8479C12.3059 38.3331 11.7608 37.8486 11.3066 37.5458C8.24817 35.4261 6.67353 32.5797 6.7341 28.8248C6.79466 26.4325 7.79395 24.9488 10.0348 24.1614C10.7615 23.8889 10.9735 23.5558 10.9735 22.8291C10.9432 20.7396 10.9735 18.6502 10.9735 16.5305C11.0038 13.7144 11.9728 11.2616 13.5777 8.96018C22.4804 -3.81857 41.3154 -2.15309 49.552 9.05102C51.2175 11.3221 52.0956 13.8355 52.1259 16.6214C52.1259 18.6805 52.1562 20.7094 52.1259 22.7685C52.0956 23.5558 52.3076 23.9495 53.1252 24.1917C55.3357 24.8579 56.2744 26.5537 56.335 28.7339C56.4259 32.4585 54.8815 35.3353 51.8231 37.4852C51.2477 37.9092 50.7027 38.6359 50.521 39.3324C49.1583 44.1471 46.8267 48.4168 43.1929 51.8689C42.5267 52.5048 42.3147 53.1104 42.4359 53.9886C43.4957 62.6491 49.764 68.4025 58.485 68.6751C59.5751 68.7054 60.6955 68.5842 61.7554 68.7356C62.2399 68.7962 62.6335 69.3413 63.0878 69.6744C62.6638 70.0075 62.2702 70.6131 61.8159 70.6434C50.4301 71.6124 42.9809 66.0709 40.5584 54.9273C40.4978 54.7759 40.4373 54.5942 40.3464 54.2309ZM31.5951 10.4742C25.6297 10.3834 19.3614 13.0784 14.7587 17.5298C13.396 18.8319 12.5784 20.1946 12.8812 22.1326C13.0023 22.8896 12.8812 23.6467 12.9115 24.4037C12.9418 25.3121 12.6087 25.7966 11.6397 25.9178C9.39886 26.2206 8.5207 27.3107 8.70239 29.6121C8.94464 32.6705 10.5496 34.8205 13.1538 36.3648C13.6383 36.6676 14.1833 37.243 14.3044 37.7881C15.4551 43.6929 18.4227 48.5077 23.2677 52.0809C26.5381 54.4731 30.2325 55.2301 34.2296 54.5034C42.4661 52.9893 47.7957 43.8443 48.7041 38.0909C48.8252 37.243 49.128 36.7585 49.8851 36.3648C52.459 34.9719 54.0639 32.8219 54.3364 29.8241C54.5787 27.4621 53.7611 26.3114 51.4294 25.9783C50.4907 25.8269 50.097 25.403 50.1273 24.4642C50.1576 23.3741 50.0668 22.284 50.1576 21.1939C50.2485 20.1037 49.8851 19.3164 49.1583 18.5291C44.3739 13.4115 38.5901 10.6257 31.5951 10.4742ZM12.9418 16.2883C13.2446 16.0763 13.4263 16.0157 13.5474 15.8946C19.6037 10.232 26.7198 7.74892 34.9866 8.65736C35.5014 8.71793 36.1676 8.35455 36.5915 7.99117C37.5606 7.08273 37.8331 5.87148 37.4091 4.56938C36.9852 3.29756 36.107 2.47996 34.7444 2.29827C26.4776 1.17786 19.7248 3.60037 14.8495 10.5954C13.6988 12.2608 13.0023 14.0777 12.9418 16.2883ZM38.7112 9.53552C42.7992 10.7468 46.5844 13.1087 50.0668 16.4397C49.8548 11.2918 44.8281 5.47782 39.7711 3.90319C39.4077 5.65951 39.0746 7.47639 38.7112 9.53552Z" fill="url(#paint0_linear_1083:2120)"/>
<path d="M31.444 47.5083C29.2638 47.5083 27.2955 46.8724 25.6603 45.4795C25.2969 45.1767 25.3272 44.3894 25.1758 43.814C25.7208 43.8443 26.4173 43.6323 26.7807 43.9049C29.9905 46.1154 33.1095 46.0851 36.289 43.814C36.6524 43.5415 37.3489 43.7837 37.894 43.7837C37.7426 44.3288 37.8031 45.0556 37.47 45.3281C35.744 46.8724 33.7151 47.5386 31.444 47.5083Z" fill="url(#paint1_linear_1083:2120)"/>
<path d="M41.1936 32.8522C39.407 32.7916 37.8324 32.1557 36.6817 30.7931C36.3789 30.4297 36.5 29.7332 36.4092 29.1881C36.9542 29.2487 37.6507 29.0973 38.0141 29.3698C40.5577 31.3987 42.1626 31.3684 44.676 29.2487C45.0091 28.9762 45.645 29.0367 46.1598 28.9762C46.1295 29.5212 46.3415 30.248 46.0689 30.5811C44.8577 32.1254 43.1619 32.8522 41.1936 32.8522Z" fill="url(#paint2_linear_1083:2120)"/>
<path d="M21.6632 32.8522C19.7858 32.7916 18.1506 32.0952 16.9696 30.5811C16.6971 30.2177 16.8787 29.5212 16.8485 28.9762C17.3632 29.0367 17.9992 28.9459 18.3323 29.2184C20.9667 31.3987 22.2688 31.3987 25.1153 29.279C25.4484 29.0367 26.1146 29.1881 26.5991 29.1579C26.5688 29.6727 26.7202 30.3388 26.4477 30.6417C25.2364 32.1557 23.6012 32.8219 21.6632 32.8522Z" fill="url(#paint3_linear_1083:2120)"/>
<path d="M22.208 19.7706C23.389 20.1946 24.7819 20.5882 26.084 21.2241C26.4777 21.4058 26.8411 22.4051 26.6897 22.7988C26.3566 23.5861 25.6298 23.3438 25.0242 22.8896C23.601 21.86 21.9961 21.8903 20.3911 22.1326C19.6038 22.2537 18.8165 22.5868 18.0292 22.6171C17.5447 22.6473 17.0602 22.2234 16.5757 22.0114C16.8785 21.5875 17.1207 20.9516 17.4841 20.8305C18.9074 20.4065 20.3911 20.1643 22.208 19.7706Z" fill="url(#paint4_linear_1083:2120)"/>
<path d="M40.801 19.7706C42.6178 20.134 43.9199 20.346 45.222 20.6488C45.9488 20.8002 46.7058 21.0727 46.4636 22.0417C46.2213 23.0107 45.4643 22.7988 44.7375 22.6171C43.6777 22.3748 42.5876 22.0114 41.5277 22.072C40.3165 22.1628 39.1052 22.7079 37.894 22.9804C37.4094 23.0713 36.8947 22.9502 36.3799 22.9199C36.501 22.3748 36.4707 21.5269 36.7735 21.3755C38.1665 20.6791 39.6806 20.1946 40.801 19.7706Z" fill="url(#paint5_linear_1083:2120)"/>
<defs>
<linearGradient id="paint0_linear_1083:2120" x1="31.5439" y1="0" x2="31.5439" y2="70.7519" gradientUnits="userSpaceOnUse">
<stop offset="0.180208" stop-color="#FFE2BF"/>
<stop offset="0.451042" stop-color="#00A3E0"/>
<stop offset="0.70625" stop-color="#00A3E0"/>
</linearGradient>
<linearGradient id="paint1_linear_1083:2120" x1="31.5349" y1="43.6845" x2="31.5349" y2="47.5093" gradientUnits="userSpaceOnUse">
<stop offset="0.180208" stop-color="#FFE2BF"/>
<stop offset="0.451042" stop-color="#00A3E0"/>
<stop offset="0.70625" stop-color="#00A3E0"/>
</linearGradient>
<linearGradient id="paint2_linear_1083:2120" x1="41.3096" y1="28.9762" x2="41.3096" y2="32.8522" gradientUnits="userSpaceOnUse">
<stop offset="0.180208" stop-color="#FFE2BF"/>
<stop offset="0.451042" stop-color="#00A3E0"/>
<stop offset="0.70625" stop-color="#00A3E0"/>
</linearGradient>
<linearGradient id="paint3_linear_1083:2120" x1="21.7156" y1="28.9762" x2="21.7156" y2="32.8522" gradientUnits="userSpaceOnUse">
<stop offset="0.180208" stop-color="#FFE2BF"/>
<stop offset="0.451042" stop-color="#00A3E0"/>
<stop offset="0.70625" stop-color="#00A3E0"/>
</linearGradient>
<linearGradient id="paint4_linear_1083:2120" x1="21.6502" y1="19.7706" x2="21.6502" y2="23.3115" gradientUnits="userSpaceOnUse">
<stop offset="0.180208" stop-color="#FFE2BF"/>
<stop offset="0.451042" stop-color="#00A3E0"/>
<stop offset="0.70625" stop-color="#00A3E0"/>
</linearGradient>
<linearGradient id="paint5_linear_1083:2120" x1="41.4448" y1="19.7706" x2="41.4448" y2="23.0136" gradientUnits="userSpaceOnUse">
<stop offset="0.180208" stop-color="#FFE2BF"/>
<stop offset="0.451042" stop-color="#00A3E0"/>
<stop offset="0.70625" stop-color="#00A3E0"/>
</linearGradient>
</defs>
</svg>
