<svg width="45" height="77" viewBox="0 0 45 77" fill="none" xmlns="http://www.w3.org/2000/svg">
<path d="M3.37284 37.9518C11.5467 43.6337 17.0954 49.94 18.5409 51.6601C18.1391 61.8428 17.463 72.9532 17.0037 74.2753L3.37284 37.9518ZM3.37284 37.9518C3.37513 37.935 3.37742 37.9182 3.37973 37.9015L3.28067 37.8878L3.22372 37.97C3.23769 37.9797 3.25166 37.9894 3.26562 37.9991C3.00258 39.9846 2.91688 42.9135 3.40582 46.7598C4.20344 53.0337 6.15982 59.1425 9.22076 64.9162C13.0556 72.1496 13.157 74.0797 13.1903 74.7138C13.2943 76.6933 10.2521 76.8227 10.1495 74.8732C10.1196 74.3035 9.70689 72.3317 6.52948 66.338C3.2962 60.2393 1.22898 53.781 0.385075 47.1422C-0.743384 38.2645 0.943824 34.4291 1.18453 33.9379C4.00841 27.9924 7.09097 19.0775 5.75317 10.3517L3.37284 37.9518ZM41.2264 33.3101L41.2289 33.3196L41.2332 33.3284C43.0614 37.1173 43.7549 40.2183 43.9015 42.8744C44.0481 45.5316 43.6477 47.7478 43.2815 49.7735C42.1693 55.9197 39.8566 61.8344 37.5712 67.6791C37.1485 68.7602 36.7267 69.8389 36.3136 70.9162C35.9318 71.9118 35.5605 72.8803 35.2732 73.6429C34.9871 74.4021 34.7814 74.9651 34.734 75.144C34.6161 75.5883 34.3579 75.8712 34.047 76.0234C33.7337 76.1767 33.3603 76.2003 33.0125 76.1113C32.6646 76.0223 32.3494 75.8226 32.15 75.5387C31.9522 75.257 31.864 74.8868 31.977 74.4434C32.0944 73.9832 32.5738 72.7255 33.6567 69.9013C34.0807 68.7954 34.5153 67.6869 34.9514 66.5748C37.1611 60.9398 39.4073 55.2116 40.4818 49.2692L40.4819 49.2685C40.8162 47.4202 41.1566 45.5376 41.0887 43.3734C41.0207 41.2074 40.5441 38.7629 39.2497 35.785L39.2038 35.6794L39.1056 35.7397C31.1811 40.6035 23.1325 49.8149 21.5071 51.7232L21.4847 51.7495L21.4833 51.7841C21.3922 54.0868 21.1689 59.4001 20.8654 64.4209C20.7137 66.9314 20.542 69.3679 20.3568 71.318C20.2642 72.2932 20.1683 73.1458 20.07 73.8248C19.9712 74.5065 19.8711 75.0052 19.7721 75.2778L19.8661 75.312L19.7721 75.2778C19.6153 75.7094 19.3325 75.9664 19.0088 76.088C18.6825 76.2106 18.3078 76.198 17.969 76.0754C17.6302 75.9528 17.3345 75.7228 17.1628 75.42C16.9926 75.1196 16.9406 74.7414 17.0976 74.3095L17.0981 74.3081C17.1592 74.1323 17.2211 73.8047 17.2841 73.3555C17.3477 72.9033 17.4135 72.3195 17.4807 71.6255C17.6151 70.2374 17.7553 68.4053 17.8936 66.297C18.1704 62.0802 18.4399 56.756 18.6408 51.6641L18.6423 51.6254L18.6175 51.5958C17.1636 49.8657 11.572 43.5111 3.33762 37.8056L3.20389 37.713L3.18161 37.8741C2.90561 39.8705 2.80749 42.846 3.30662 46.7724C4.10581 53.0587 6.06601 59.179 9.13241 64.963C12.9568 72.1769 13.0578 74.0987 13.0902 74.7151L13.0904 74.719C13.115 75.1859 12.9547 75.5365 12.7044 75.7756C12.4521 76.0167 12.1024 76.1499 11.7426 76.167C11.3829 76.1841 11.0205 76.0846 10.7438 75.8701C10.4692 75.6572 10.2735 75.3269 10.2493 74.8679C10.2336 74.5676 10.1187 73.9207 9.61317 72.6038C9.10714 71.2853 8.20764 69.2901 6.61783 66.2912C3.39002 60.2028 1.32662 53.756 0.484277 47.1296C-0.642075 38.2685 1.04339 34.4532 1.27433 33.9819L1.27486 33.9808C4.1015 28.0295 7.1944 19.0923 5.85202 10.3366C5.05438 5.13307 3.03095 2.40997 3.00296 2.37314L3.00296 2.37314L3.00243 2.37244C2.72044 2.00811 2.65455 1.63217 2.72525 1.29489C2.79652 0.954845 3.00842 0.646705 3.29427 0.427736C3.5801 0.208774 3.93392 0.0835692 4.28283 0.101743C4.629 0.119774 4.97729 0.279077 5.25845 0.642446L5.25846 0.642463C5.35012 0.760879 7.68052 3.82186 8.62633 9.66691C10.0652 18.5595 7.2988 27.5221 4.45381 33.8773L4.41389 33.9664L4.50212 34.0084C14.8598 38.9369 27.5081 37.1244 37.7503 33.0004L37.8551 32.9582L37.8005 32.8593C37.1681 31.7138 36.4251 30.4966 35.553 29.1959C34.895 28.2145 34.3113 27.1671 33.8185 26.0829C33.628 25.6639 33.6502 25.2824 33.7964 24.9696C33.9438 24.6542 34.2206 24.402 34.5488 24.2535C34.877 24.105 35.2497 24.0635 35.5847 24.1605C35.9171 24.2568 36.2192 24.4913 36.4093 24.9096L36.5003 24.8682L36.4093 24.9096C36.8381 25.8527 37.3455 26.7634 37.9174 27.6164L38.0004 27.5607L37.9174 27.6164C39.1589 29.4677 40.1586 31.1816 40.9604 32.7761L40.9648 32.7849L40.9708 32.7926C41.0891 32.9448 41.178 33.1239 41.2264 33.3101ZM5.33753 0.581251C4.14315 -0.962386 1.72577 0.886355 2.92335 2.43365L5.33753 0.581251ZM20.0455 48.8874L20.1207 48.9736L20.196 48.8875C22.0818 46.7323 26.0106 42.4366 30.6471 38.4791L30.5585 38.3059C23.7495 39.9617 16.536 40.3452 9.6821 38.7576L9.59693 38.933C14.6793 43.0134 18.2957 46.8842 20.0455 48.8874Z" fill="url(#paint0_linear_1084:2441)" stroke="#FF8A00" stroke-width="0.2"/>
<path d="M33.0362 14.9496L33.0365 14.9497C33.8003 14.9957 34.4938 14.3771 34.5375 13.6131C34.9008 7.26192 37.1355 2.14014 37.1599 2.08478L37.16 2.08468C37.3461 1.66478 37.3203 1.28385 37.1712 0.972345C37.0209 0.658323 36.742 0.408364 36.4127 0.262619C36.0834 0.116875 35.7106 0.0783949 35.3766 0.178331C35.0453 0.277469 34.7453 0.514664 34.5585 0.935136L33.0362 14.9496ZM33.0362 14.9496C32.2517 14.905 31.6523 14.2338 31.6971 13.4511C32.0915 6.55999 34.4595 1.15831 34.5585 0.935168L33.0362 14.9496Z" fill="url(#paint1_linear_1084:2441)" stroke="#FF8A00" stroke-width="0.2"/>
<path d="M20.6818 26.8249C20.6818 27.6089 20.0451 28.2448 19.2593 28.2448C18.4735 28.2448 17.8368 27.6089 17.8368 26.8249V23.6288C17.8368 23.1696 18.0148 22.8321 18.2775 22.608C18.5423 22.3821 18.8988 22.2668 19.2592 22.267C19.6196 22.2673 19.9762 22.383 20.2411 22.6091C20.5038 22.8333 20.6818 23.1706 20.6818 23.6288V26.8249Z" fill="url(#paint2_linear_1084:2441)" stroke="#FF8A00" stroke-width="0.2"/>
<path d="M34.6898 18.8322L34.6898 18.8322L34.6903 18.8329C35.0561 19.3809 34.9897 20.1267 34.5354 20.6025L34.5354 20.6025C33.6576 21.5218 32.0572 20.8488 32.0867 19.5861C32.1012 18.9677 32.5319 18.4203 33.1285 18.2543C33.7084 18.0929 34.36 18.3282 34.6898 18.8322Z" fill="url(#paint3_linear_1084:2441)" stroke="#FF8A00" stroke-width="0.2"/>
<defs>
<linearGradient id="paint0_linear_1084:2441" x1="22.0163" y1="0" x2="22.0163" y2="76.2739" gradientUnits="userSpaceOnUse">
<stop offset="0.180208" stop-color="#FFE2BF"/>
<stop offset="0.451042" stop-color="#00A3E0"/>
<stop offset="0.70625" stop-color="#00A3E0"/>
</linearGradient>
<linearGradient id="paint1_linear_1084:2441" x1="34.493" y1="0.022644" x2="34.493" y2="15.0521" gradientUnits="userSpaceOnUse">
<stop offset="0.180208" stop-color="#FFE2BF"/>
<stop offset="0.451042" stop-color="#00A3E0"/>
<stop offset="0.70625" stop-color="#00A3E0"/>
</linearGradient>
<linearGradient id="paint2_linear_1084:2441" x1="19.2593" y1="22.167" x2="19.2593" y2="28.3448" gradientUnits="userSpaceOnUse">
<stop offset="0.180208" stop-color="#FFE2BF"/>
<stop offset="0.451042" stop-color="#00A3E0"/>
<stop offset="0.70625" stop-color="#00A3E0"/>
</linearGradient>
<linearGradient id="paint3_linear_1084:2441" x1="33.5062" y1="18.1039" x2="33.5062" y2="21.129" gradientUnits="userSpaceOnUse">
<stop offset="0.180208" stop-color="#FFE2BF"/>
<stop offset="0.451042" stop-color="#00A3E0"/>
<stop offset="0.70625" stop-color="#00A3E0"/>
</linearGradient>
</defs>
</svg>
