<svg width="70" height="83" viewBox="0 0 70 83" fill="none" xmlns="http://www.w3.org/2000/svg">
<mask id="path-1-inside-1_1084:2409" fill="white">
<path d="M25.6684 54.7963C25.8301 52.8563 26.0149 50.9394 26.1534 48.9994C26.1765 48.7454 25.9687 48.399 25.7608 48.2373C22.3889 45.4659 19.9178 42.0709 18.4166 37.96C18.2318 37.475 17.9547 37.4057 17.5159 37.4057C13.2433 37.3364 10.3795 33.4795 11.5111 29.3686C11.9038 27.9598 12.7814 27.0129 14.1209 26.3893C14.1209 23.4101 14.1671 20.4539 14.1209 17.4747C14.0516 13.5485 15.5759 10.4307 18.8092 8.19044C18.8785 8.14425 18.9478 8.09805 18.9709 8.07496C18.3011 7.12806 17.5159 6.27354 17.054 5.28046C16.5459 4.19499 16.2456 3.01714 16.0609 1.83929C15.853 0.430492 16.3149 0.0147818 17.7237 0.0147818C22.4582 0.0147818 27.1696 -0.00831323 31.9041 0.0147818C34.3291 0.0147818 36.7541 -0.0776013 39.1559 0.19954C44.8373 0.869297 49.6642 3.15571 52.9437 8.05186C54.9992 11.1235 55.8306 14.634 55.9461 18.283C56.0384 20.7311 55.9923 23.1791 55.9692 25.6272C55.9692 26.1353 56.0846 26.4355 56.5696 26.7127C58.5789 27.8674 59.341 30.5003 58.4865 33.1331C57.6551 35.6967 55.438 37.3826 52.7128 37.3826C52.043 37.3826 51.789 37.6136 51.5811 38.214C50.103 42.1171 47.7473 45.4197 44.514 48.0525C44.0752 48.4221 43.8904 48.7685 43.9597 49.3689C44.1445 50.9394 44.2831 52.533 44.3523 54.1034C44.3754 54.6808 44.5833 54.8656 45.1376 55.0042C50.1492 56.182 55.1608 57.3829 60.1725 58.607C64.6991 59.7155 67.6322 63.1798 68.1172 67.8219C68.5329 71.8866 68.9948 75.9514 69.4336 80.0161C69.4798 80.3625 69.5029 80.709 69.5029 81.0554C69.5029 81.7482 69.1103 82.1408 68.4636 82.2332C67.8169 82.3256 67.3088 82.0023 67.1703 81.3556C67.0317 80.732 66.9855 80.1085 66.9162 79.4849C66.5005 75.628 66.0848 71.7481 65.6922 67.8912C65.3458 64.5424 63.1517 61.9327 59.8953 61.032C59.7337 60.9858 59.572 60.9396 59.3872 60.8934C56.5003 60.2005 53.6135 59.5308 50.6342 58.8148C50.6573 59.1151 50.6573 59.346 50.7035 59.577C51.558 63.7572 52.4356 67.9143 53.2901 72.0945C53.5904 73.5264 52.8282 74.1961 51.4425 73.7342C49.5025 73.0645 47.5856 72.3947 45.6688 71.7019C45.3454 71.5864 45.0221 71.494 44.5602 71.3324C44.5602 71.7481 44.5602 72.0483 44.5602 72.3485C44.5602 75.0507 44.5602 77.7759 44.5602 80.478C44.5602 80.8013 44.5602 81.1247 44.4678 81.4249C44.3061 82.0254 43.8442 82.3256 43.2207 82.2794C42.6202 82.2101 42.2045 81.8637 42.1583 81.217C42.1121 80.6397 42.1352 80.0623 42.1352 79.4849C42.1352 74.0114 42.1352 68.5379 42.1352 63.0643C42.1352 62.8334 42.1352 62.6255 42.1352 62.2791C37.4238 66.2976 32.8048 66.2976 28.0472 62.3022C28.0472 62.6948 28.0472 62.9719 28.0472 63.2722C28.0472 68.9536 28.0472 74.635 28.0472 80.2933C28.0472 80.6166 28.0472 80.9399 28.0241 81.2401C27.9317 81.8637 27.516 82.2101 26.9156 82.2563C26.3151 82.3025 25.8532 81.9792 25.7146 81.3556C25.6453 81.0554 25.6453 80.7321 25.6453 80.4087C25.6453 77.7066 25.6453 74.9814 25.6453 72.2793C25.6453 72.0021 25.6453 71.7019 25.6453 71.2862C23.8901 71.9097 22.2273 72.4871 20.5875 73.0645C19.9639 73.2723 19.3404 73.5033 18.7168 73.7112C17.3773 74.15 16.5921 73.4802 16.8923 72.1176C17.7468 67.9374 18.6244 63.7803 19.4789 59.6001C19.5251 59.346 19.5482 59.1151 19.5944 58.7686C16.2918 59.577 13.0354 60.2236 9.8714 61.1705C6.68428 62.1405 4.90595 64.4962 4.51334 67.8219C4.00525 72.1638 3.58954 76.5288 3.10454 80.8706C3.01216 81.7713 2.48097 82.3256 1.76503 82.2563C1.04908 82.187 0.610271 81.6328 0.702652 80.7551C1.18765 76.1361 1.55717 71.5171 2.20383 66.9212C2.8274 62.4638 5.96833 59.4846 10.5412 58.4222C15.3911 57.2906 20.218 56.1127 25.068 54.958C25.2065 54.9349 25.4144 54.8656 25.6684 54.7963ZM45.3685 17.2206C38.44 18.4908 31.6039 18.4677 24.7215 17.2206C24.6291 17.798 24.5368 18.283 24.5137 18.768C24.3289 21.9089 23.2434 24.6341 20.7954 26.6434C19.3866 27.7981 19.0632 29.0684 19.2711 30.8467C20.1949 38.9762 24.098 45.0733 31.3267 48.9532C33.7286 50.2466 36.1998 50.2466 38.6248 49.0456C41.3731 47.683 43.7288 45.8123 45.6919 43.4797C49.133 39.3919 50.6342 34.5881 50.9344 29.3224C50.9806 28.6296 50.7959 28.1446 50.2647 27.6596C49.5487 27.0129 48.879 26.2739 48.2092 25.5579C46.8004 24.0337 46.0152 22.2091 45.7611 20.1537C45.6457 19.2068 45.5071 18.283 45.3685 17.2206ZM16.6613 26.1815C17.3542 26.5741 17.8392 26.3201 18.3011 25.7658C18.8785 25.096 19.5482 24.4956 20.1487 23.8258C21.1187 22.7403 21.673 21.4701 21.8808 20.0382C22.0656 18.6756 22.2504 17.2899 22.412 15.9273C22.5506 14.7725 23.1049 14.3799 24.2365 14.6109C31.4422 16.112 38.6479 16.1351 45.8535 14.6109C46.939 14.3799 47.5164 14.7725 47.6549 15.858C47.7935 16.8511 47.9552 17.8442 48.0245 18.8604C48.2092 21.2622 49.1099 23.3177 50.9575 24.9113C51.2578 25.1653 51.558 25.4655 51.812 25.7658C52.2739 26.3663 52.8051 26.551 53.6597 26.0429C53.5673 22.8096 53.6366 19.4608 53.3132 16.1351C52.9206 12.209 51.2578 8.76781 48.1399 6.20426C44.9759 3.61761 41.2807 2.48595 37.2622 2.43976C31.3267 2.37048 25.3913 2.41667 19.4559 2.41667C19.2018 2.41667 18.9478 2.41667 18.5782 2.41667C18.6706 2.76309 18.7168 3.04023 18.8092 3.31737C19.3635 4.81855 20.3335 6.0195 21.673 6.89711C22.1811 7.24354 22.7123 7.56687 22.643 8.30591C22.5737 9.04495 22.0425 9.2759 21.4651 9.52995C18.8323 10.7078 16.9847 12.694 16.7537 15.5578C16.4535 19.0682 16.6613 22.6249 16.6613 26.1815ZM28.486 50.1311C28.3244 52.2327 28.0241 54.1034 28.0241 55.9972C28.0472 59.6463 31.0265 62.6024 34.6524 62.7872C38.3938 62.9719 41.6502 60.3853 41.9505 56.667C42.1121 54.5653 41.7657 52.4175 41.6502 50.0849C37.1929 53.0411 32.8741 53.0411 28.486 50.1311ZM19.5482 70.8243C21.5806 70.1083 23.4282 69.4848 25.2527 68.7919C25.4375 68.7226 25.5529 68.2838 25.5529 68.0298C25.576 64.7272 25.576 61.4015 25.576 58.0989C25.576 57.8679 25.5299 57.6601 25.5068 57.3598C24.5599 57.5908 23.6592 57.8217 22.7584 58.0065C22.2965 58.0989 22.1118 58.3067 22.0194 58.7917C21.4882 61.5631 20.8877 64.3115 20.3104 67.0829C20.0794 68.2607 19.8485 69.4617 19.5482 70.8243ZM50.4263 70.8012C50.4263 70.5471 50.4494 70.4316 50.4263 70.3162C49.618 66.39 48.8097 62.4869 47.9783 58.5608C47.9321 58.376 47.7473 58.122 47.5856 58.0758C46.5926 57.7986 45.5995 57.5908 44.514 57.3137C44.514 61.0782 44.514 64.7041 44.5371 68.33C44.5371 68.4917 44.7219 68.7457 44.8835 68.815C46.6849 69.4848 48.5095 70.1314 50.4263 70.8012ZM16.6152 28.722C14.8137 28.2601 13.7976 29.0222 13.7514 30.8929C13.7514 31.2162 13.7514 31.5165 13.7976 31.8398C14.0978 33.7336 15.8068 35.1424 17.4004 34.8421C17.1232 32.8329 16.8692 30.8236 16.6152 28.722ZM52.6897 34.9345C55.0223 34.9345 56.5927 32.9945 56.3156 30.5465C56.1308 28.8836 54.953 28.1908 53.4518 28.8143C53.2208 30.8467 52.9668 32.856 52.6897 34.9345Z"/>
</mask>
<path d="M25.6684 54.7963C25.8301 52.8563 26.0149 50.9394 26.1534 48.9994C26.1765 48.7454 25.9687 48.399 25.7608 48.2373C22.3889 45.4659 19.9178 42.0709 18.4166 37.96C18.2318 37.475 17.9547 37.4057 17.5159 37.4057C13.2433 37.3364 10.3795 33.4795 11.5111 29.3686C11.9038 27.9598 12.7814 27.0129 14.1209 26.3893C14.1209 23.4101 14.1671 20.4539 14.1209 17.4747C14.0516 13.5485 15.5759 10.4307 18.8092 8.19044C18.8785 8.14425 18.9478 8.09805 18.9709 8.07496C18.3011 7.12806 17.5159 6.27354 17.054 5.28046C16.5459 4.19499 16.2456 3.01714 16.0609 1.83929C15.853 0.430492 16.3149 0.0147818 17.7237 0.0147818C22.4582 0.0147818 27.1696 -0.00831323 31.9041 0.0147818C34.3291 0.0147818 36.7541 -0.0776013 39.1559 0.19954C44.8373 0.869297 49.6642 3.15571 52.9437 8.05186C54.9992 11.1235 55.8306 14.634 55.9461 18.283C56.0384 20.7311 55.9923 23.1791 55.9692 25.6272C55.9692 26.1353 56.0846 26.4355 56.5696 26.7127C58.5789 27.8674 59.341 30.5003 58.4865 33.1331C57.6551 35.6967 55.438 37.3826 52.7128 37.3826C52.043 37.3826 51.789 37.6136 51.5811 38.214C50.103 42.1171 47.7473 45.4197 44.514 48.0525C44.0752 48.4221 43.8904 48.7685 43.9597 49.3689C44.1445 50.9394 44.2831 52.533 44.3523 54.1034C44.3754 54.6808 44.5833 54.8656 45.1376 55.0042C50.1492 56.182 55.1608 57.3829 60.1725 58.607C64.6991 59.7155 67.6322 63.1798 68.1172 67.8219C68.5329 71.8866 68.9948 75.9514 69.4336 80.0161C69.4798 80.3625 69.5029 80.709 69.5029 81.0554C69.5029 81.7482 69.1103 82.1408 68.4636 82.2332C67.8169 82.3256 67.3088 82.0023 67.1703 81.3556C67.0317 80.732 66.9855 80.1085 66.9162 79.4849C66.5005 75.628 66.0848 71.7481 65.6922 67.8912C65.3458 64.5424 63.1517 61.9327 59.8953 61.032C59.7337 60.9858 59.572 60.9396 59.3872 60.8934C56.5003 60.2005 53.6135 59.5308 50.6342 58.8148C50.6573 59.1151 50.6573 59.346 50.7035 59.577C51.558 63.7572 52.4356 67.9143 53.2901 72.0945C53.5904 73.5264 52.8282 74.1961 51.4425 73.7342C49.5025 73.0645 47.5856 72.3947 45.6688 71.7019C45.3454 71.5864 45.0221 71.494 44.5602 71.3324C44.5602 71.7481 44.5602 72.0483 44.5602 72.3485C44.5602 75.0507 44.5602 77.7759 44.5602 80.478C44.5602 80.8013 44.5602 81.1247 44.4678 81.4249C44.3061 82.0254 43.8442 82.3256 43.2207 82.2794C42.6202 82.2101 42.2045 81.8637 42.1583 81.217C42.1121 80.6397 42.1352 80.0623 42.1352 79.4849C42.1352 74.0114 42.1352 68.5379 42.1352 63.0643C42.1352 62.8334 42.1352 62.6255 42.1352 62.2791C37.4238 66.2976 32.8048 66.2976 28.0472 62.3022C28.0472 62.6948 28.0472 62.9719 28.0472 63.2722C28.0472 68.9536 28.0472 74.635 28.0472 80.2933C28.0472 80.6166 28.0472 80.9399 28.0241 81.2401C27.9317 81.8637 27.516 82.2101 26.9156 82.2563C26.3151 82.3025 25.8532 81.9792 25.7146 81.3556C25.6453 81.0554 25.6453 80.7321 25.6453 80.4087C25.6453 77.7066 25.6453 74.9814 25.6453 72.2793C25.6453 72.0021 25.6453 71.7019 25.6453 71.2862C23.8901 71.9097 22.2273 72.4871 20.5875 73.0645C19.9639 73.2723 19.3404 73.5033 18.7168 73.7112C17.3773 74.15 16.5921 73.4802 16.8923 72.1176C17.7468 67.9374 18.6244 63.7803 19.4789 59.6001C19.5251 59.346 19.5482 59.1151 19.5944 58.7686C16.2918 59.577 13.0354 60.2236 9.8714 61.1705C6.68428 62.1405 4.90595 64.4962 4.51334 67.8219C4.00525 72.1638 3.58954 76.5288 3.10454 80.8706C3.01216 81.7713 2.48097 82.3256 1.76503 82.2563C1.04908 82.187 0.610271 81.6328 0.702652 80.7551C1.18765 76.1361 1.55717 71.5171 2.20383 66.9212C2.8274 62.4638 5.96833 59.4846 10.5412 58.4222C15.3911 57.2906 20.218 56.1127 25.068 54.958C25.2065 54.9349 25.4144 54.8656 25.6684 54.7963ZM45.3685 17.2206C38.44 18.4908 31.6039 18.4677 24.7215 17.2206C24.6291 17.798 24.5368 18.283 24.5137 18.768C24.3289 21.9089 23.2434 24.6341 20.7954 26.6434C19.3866 27.7981 19.0632 29.0684 19.2711 30.8467C20.1949 38.9762 24.098 45.0733 31.3267 48.9532C33.7286 50.2466 36.1998 50.2466 38.6248 49.0456C41.3731 47.683 43.7288 45.8123 45.6919 43.4797C49.133 39.3919 50.6342 34.5881 50.9344 29.3224C50.9806 28.6296 50.7959 28.1446 50.2647 27.6596C49.5487 27.0129 48.879 26.2739 48.2092 25.5579C46.8004 24.0337 46.0152 22.2091 45.7611 20.1537C45.6457 19.2068 45.5071 18.283 45.3685 17.2206ZM16.6613 26.1815C17.3542 26.5741 17.8392 26.3201 18.3011 25.7658C18.8785 25.096 19.5482 24.4956 20.1487 23.8258C21.1187 22.7403 21.673 21.4701 21.8808 20.0382C22.0656 18.6756 22.2504 17.2899 22.412 15.9273C22.5506 14.7725 23.1049 14.3799 24.2365 14.6109C31.4422 16.112 38.6479 16.1351 45.8535 14.6109C46.939 14.3799 47.5164 14.7725 47.6549 15.858C47.7935 16.8511 47.9552 17.8442 48.0245 18.8604C48.2092 21.2622 49.1099 23.3177 50.9575 24.9113C51.2578 25.1653 51.558 25.4655 51.812 25.7658C52.2739 26.3663 52.8051 26.551 53.6597 26.0429C53.5673 22.8096 53.6366 19.4608 53.3132 16.1351C52.9206 12.209 51.2578 8.76781 48.1399 6.20426C44.9759 3.61761 41.2807 2.48595 37.2622 2.43976C31.3267 2.37048 25.3913 2.41667 19.4559 2.41667C19.2018 2.41667 18.9478 2.41667 18.5782 2.41667C18.6706 2.76309 18.7168 3.04023 18.8092 3.31737C19.3635 4.81855 20.3335 6.0195 21.673 6.89711C22.1811 7.24354 22.7123 7.56687 22.643 8.30591C22.5737 9.04495 22.0425 9.2759 21.4651 9.52995C18.8323 10.7078 16.9847 12.694 16.7537 15.5578C16.4535 19.0682 16.6613 22.6249 16.6613 26.1815ZM28.486 50.1311C28.3244 52.2327 28.0241 54.1034 28.0241 55.9972C28.0472 59.6463 31.0265 62.6024 34.6524 62.7872C38.3938 62.9719 41.6502 60.3853 41.9505 56.667C42.1121 54.5653 41.7657 52.4175 41.6502 50.0849C37.1929 53.0411 32.8741 53.0411 28.486 50.1311ZM19.5482 70.8243C21.5806 70.1083 23.4282 69.4848 25.2527 68.7919C25.4375 68.7226 25.5529 68.2838 25.5529 68.0298C25.576 64.7272 25.576 61.4015 25.576 58.0989C25.576 57.8679 25.5299 57.6601 25.5068 57.3598C24.5599 57.5908 23.6592 57.8217 22.7584 58.0065C22.2965 58.0989 22.1118 58.3067 22.0194 58.7917C21.4882 61.5631 20.8877 64.3115 20.3104 67.0829C20.0794 68.2607 19.8485 69.4617 19.5482 70.8243ZM50.4263 70.8012C50.4263 70.5471 50.4494 70.4316 50.4263 70.3162C49.618 66.39 48.8097 62.4869 47.9783 58.5608C47.9321 58.376 47.7473 58.122 47.5856 58.0758C46.5926 57.7986 45.5995 57.5908 44.514 57.3137C44.514 61.0782 44.514 64.7041 44.5371 68.33C44.5371 68.4917 44.7219 68.7457 44.8835 68.815C46.6849 69.4848 48.5095 70.1314 50.4263 70.8012ZM16.6152 28.722C14.8137 28.2601 13.7976 29.0222 13.7514 30.8929C13.7514 31.2162 13.7514 31.5165 13.7976 31.8398C14.0978 33.7336 15.8068 35.1424 17.4004 34.8421C17.1232 32.8329 16.8692 30.8236 16.6152 28.722ZM52.6897 34.9345C55.0223 34.9345 56.5927 32.9945 56.3156 30.5465C56.1308 28.8836 54.953 28.1908 53.4518 28.8143C53.2208 30.8467 52.9668 32.856 52.6897 34.9345Z" fill="url(#paint0_linear_1084:2409)" stroke="#FF8A00" mask="url(#path-1-inside-1_1084:2409)"/>
<path d="M34.9856 42.3292L34.9753 42.3288L34.965 42.3292C33.346 42.3967 31.8373 42.0601 30.3669 41.4043C29.9995 41.2361 29.7823 41.0237 29.682 40.8099C29.5845 40.6022 29.5825 40.3626 29.7055 40.0976L29.7055 40.0976L29.7069 40.0946C29.8341 39.8108 30.0175 39.6433 30.2333 39.5713C30.4533 39.498 30.7463 39.5109 31.1124 39.6678L31.1124 39.6679L31.1162 39.6695C33.7188 40.7341 36.326 40.7094 38.9467 39.6708C39.329 39.5222 39.6249 39.5089 39.8465 39.5807C40.0618 39.6503 40.2453 39.8124 40.3839 40.0978C40.5075 40.3754 40.5044 40.6212 40.407 40.831C40.3067 41.0468 40.0902 41.2588 39.7237 41.4268C38.2094 42.0818 36.6308 42.3968 34.9856 42.3292Z" fill="url(#paint1_linear_1084:2409)" stroke="#FF8A00" stroke-width="0.5"/>
<path d="M28.2687 24.2604L28.2784 24.2608L28.2881 24.2604C29.4349 24.2163 30.4897 24.5241 31.4146 25.1623C31.7415 25.3946 31.9211 25.6401 31.9874 25.872C32.0515 26.0964 32.0188 26.3399 31.8569 26.5988C31.6915 26.8405 31.492 26.9722 31.2755 27.0125C31.055 27.0536 30.781 27.0064 30.4599 26.8201C29.7586 26.409 29.052 26.1973 28.3344 26.1942C27.617 26.1911 26.9052 26.3966 26.1934 26.7947L26.1929 26.795C25.864 26.98 25.567 27.0249 25.326 26.9758C25.0889 26.9275 24.8805 26.7834 24.7288 26.5385C24.5873 26.2917 24.5627 26.0585 24.6287 25.8456C24.6965 25.6266 24.8704 25.3975 25.1839 25.1886L25.1839 25.1887L25.1905 25.184C26.1155 24.5233 27.1464 24.2164 28.2687 24.2604Z" fill="url(#paint2_linear_1084:2409)" stroke="#FF8A00" stroke-width="0.5"/>
<path d="M39.4205 26.9368L39.42 26.9371C39.1873 27.0767 38.9792 27.0913 38.7975 27.0322C38.6087 26.9706 38.4192 26.8193 38.2561 26.575C38.0896 26.32 38.055 26.1 38.0979 25.9103C38.1421 25.7147 38.2776 25.5117 38.5259 25.3151L38.526 25.3152L38.5288 25.3128C39.3496 24.6432 40.5696 24.2953 41.8085 24.2981C43.0475 24.3009 44.2606 24.6544 45.0692 25.3336L45.0759 25.3393L45.083 25.3444C45.1713 25.4086 45.2548 25.5147 45.3382 25.6425C45.3678 25.688 45.3945 25.7314 45.4212 25.7749C45.4317 25.7919 45.4421 25.809 45.4527 25.8261C45.4708 25.8552 45.4904 25.8865 45.5111 25.9169C45.4997 26.3509 45.3123 26.6893 45.0698 26.8799C44.8164 27.079 44.5051 27.12 44.2236 26.9582C43.4221 26.4918 42.6296 26.2381 41.8264 26.2289C41.0219 26.2196 40.2265 26.4556 39.4205 26.9368Z" fill="url(#paint3_linear_1084:2409)" stroke="#FF8A00" stroke-width="0.5"/>
<path d="M28.2781 28.8103C29.0206 28.8103 29.6945 29.4648 29.7141 30.2064C29.7335 31.0058 29.0697 31.6557 28.2612 31.6361C27.4946 31.6163 26.8652 30.9636 26.8652 30.2231C26.8652 29.4627 27.5363 28.8103 28.2781 28.8103Z" fill="url(#paint4_linear_1084:2409)" stroke="#FF8A00" stroke-width="0.5"/>
<path d="M41.8054 28.8102C42.549 28.8298 43.2034 29.4831 43.2248 30.2264C43.2229 31.0052 42.5573 31.6557 41.7489 31.6361C40.9833 31.6163 40.3565 30.9661 40.3759 30.2064C40.3956 29.4383 41.0714 28.7909 41.8054 28.8102Z" fill="url(#paint5_linear_1084:2409)" stroke="#FF8A00" stroke-width="0.5"/>
<defs>
<linearGradient id="paint0_linear_1084:2409" x1="35.0966" y1="0" x2="35.0966" y2="82.2841" gradientUnits="userSpaceOnUse">
<stop offset="0.180208" stop-color="#FFE2BF"/>
<stop offset="0.451042" stop-color="#00A3E0"/>
<stop offset="0.70625" stop-color="#00A3E0"/>
</linearGradient>
<linearGradient id="paint1_linear_1084:2409" x1="35.0447" y1="39.2782" x2="35.0447" y2="42.5882" gradientUnits="userSpaceOnUse">
<stop offset="0.180208" stop-color="#FFE2BF"/>
<stop offset="0.451042" stop-color="#00A3E0"/>
<stop offset="0.70625" stop-color="#00A3E0"/>
</linearGradient>
<linearGradient id="paint2_linear_1084:2409" x1="28.306" y1="24.0062" x2="28.306" y2="27.2763" gradientUnits="userSpaceOnUse">
<stop offset="0.180208" stop-color="#FFE2BF"/>
<stop offset="0.451042" stop-color="#00A3E0"/>
<stop offset="0.70625" stop-color="#00A3E0"/>
</linearGradient>
<linearGradient id="paint3_linear_1084:2409" x1="41.7963" y1="24.0481" x2="41.7963" y2="27.315" gradientUnits="userSpaceOnUse">
<stop offset="0.180208" stop-color="#FFE2BF"/>
<stop offset="0.451042" stop-color="#00A3E0"/>
<stop offset="0.70625" stop-color="#00A3E0"/>
</linearGradient>
<linearGradient id="paint4_linear_1084:2409" x1="28.2899" y1="28.5603" x2="28.2899" y2="31.8865" gradientUnits="userSpaceOnUse">
<stop offset="0.180208" stop-color="#FFE2BF"/>
<stop offset="0.451042" stop-color="#00A3E0"/>
<stop offset="0.70625" stop-color="#00A3E0"/>
</linearGradient>
<linearGradient id="paint5_linear_1084:2409" x1="41.8001" y1="28.5598" x2="41.8001" y2="31.8865" gradientUnits="userSpaceOnUse">
<stop offset="0.180208" stop-color="#FFE2BF"/>
<stop offset="0.451042" stop-color="#00A3E0"/>
<stop offset="0.70625" stop-color="#00A3E0"/>
</linearGradient>
</defs>
</svg>
