<svg width="73" height="81" viewBox="0 0 73 81" fill="none" xmlns="http://www.w3.org/2000/svg">
<path d="M3.36456 3.4802C3.0212 3.8564 2.85674 4.34532 2.90309 4.85244L2.90309 4.85246L3.11669 7.18748L3.13748 7.41471H3.36565H37.0532H37.2813L37.3021 7.18748L37.5157 4.85246L37.2668 4.82969L37.5157 4.85244C37.5621 4.34538 37.3978 3.85645 37.0544 3.4802C36.711 3.10395 36.2393 2.89586 35.7298 2.89586H4.68912C4.17969 2.89586 3.7078 3.10412 3.36456 3.4802ZM3.36456 3.4802L3.54922 3.64873L3.36456 3.4802C3.36456 3.4802 3.36456 3.4802 3.36456 3.4802ZM69.854 55.3596H70.104V55.1096V48.2024C70.104 47.4653 69.5049 46.8661 68.7677 46.8661H55.696C54.9655 46.8661 54.3731 46.2738 54.3731 45.5432C54.3731 44.8125 54.9655 44.2202 55.696 44.2202H68.7677C70.9632 44.2202 72.7499 46.0068 72.75 48.2027V56.6828C72.75 57.0565 72.5946 57.3933 72.3442 57.6346L72.2134 57.7607L72.293 57.924C72.5854 58.5243 72.75 59.1977 72.75 59.9095V71.9739C72.75 76.5561 69.0218 80.2843 64.4396 80.2843H10.8698C8.00672 80.2843 5.67714 77.9547 5.67714 75.0916V64.2475V64.2361L5.6761 64.2248L0.268359 5.09351L0.268357 5.09349C0.154907 3.85417 0.571191 2.61587 1.41018 1.69664C2.24916 0.777407 3.44457 0.25 4.68912 0.25H35.7298C36.9744 0.25 38.1698 0.777409 39.0086 1.69662L39.0086 1.69665C39.8476 2.61571 40.2639 3.85416 40.1504 5.09349L40.3994 5.11628L40.1504 5.09351L36.5972 43.9475L36.5722 44.2202H36.8462H41.5396C42.2701 44.2202 42.8626 44.8125 42.8626 45.5432C42.8626 46.2738 42.2701 46.8661 41.5396 46.8661H28.4679C27.7309 46.8661 27.1317 47.4653 27.1317 48.2024V55.1096V55.3596H27.3817H69.854ZM24.9428 57.9239L25.0224 57.7606L24.8916 57.6344C24.6412 57.393 24.4858 57.0562 24.4858 56.6825V48.2024C24.4858 46.0187 26.2531 44.2396 28.4324 44.2204H28.4679H33.6872H33.9154L33.9362 43.9931L37.0144 10.3335L37.0394 10.0607H36.7655H3.65334H3.37944L3.40438 10.3335L8.18673 62.6255L8.20751 62.8527H8.43569H24.2358H24.4858V62.6027V59.9094C24.4858 59.1976 24.6504 58.5241 24.9428 57.9239ZM8.573 65.4986H8.323V65.7486V75.0915C8.323 76.4961 9.46519 77.6383 10.8696 77.6383H13.0375H13.2875V77.3883V74.2674C13.2875 72.657 14.5979 71.3465 16.2083 71.3465H24.2059L24.2156 71.3472C24.2208 71.3475 24.2278 71.3478 24.236 71.3478H24.486V71.0978V65.7486V65.4986H24.236H8.573ZM15.9332 77.3883V77.6383H16.1832H24.2358H24.4858V77.3883V74.2674C24.4858 74.1155 24.3627 73.9924 24.2108 73.9924H16.2082C16.0562 73.9924 15.9332 74.1155 15.9332 74.2674V77.3883ZM70.0985 72.2238H70.1043V71.9738V59.9094C70.1043 58.8593 69.2504 58.0054 68.2004 58.0054H29.0358C27.9857 58.0054 27.1318 58.8593 27.1318 59.9094V71.9738C27.1318 75.0974 29.6727 77.6383 32.7963 77.6383H64.4395C67.4794 77.6383 69.9673 75.2319 70.0985 72.2238Z" fill="url(#paint0_linear_1084:2362)" stroke="#FF8A00" stroke-width="0.5"/>
<path d="M56.0105 69.9594H56.2605V69.7094V65.9343V65.6843H56.0105H41.225H40.975V65.9343V69.7094V69.9594H41.225H56.0105ZM39.652 63.0385H57.5835C58.3141 63.0385 58.9064 63.6307 58.9064 64.3614V71.2823C58.9064 72.0129 58.314 72.6052 57.5835 72.6052H39.652C38.9215 72.6052 38.3291 72.0129 38.3291 71.2823V64.3614C38.3291 63.6308 38.9215 63.0385 39.652 63.0385Z" fill="url(#paint1_linear_1084:2362)" stroke="#FF8A00" stroke-width="0.5"/>
<path d="M21.9264 26.8241L21.9264 26.8242L25.0543 30.5243C25.0543 30.5243 25.0543 30.5243 25.0543 30.5243C27.1654 33.022 27.0075 36.7924 24.6951 39.1048C23.4967 40.3032 21.9044 40.9627 20.2095 40.9627C18.5146 40.9627 16.9223 40.3032 15.7239 39.1048L15.7239 39.1048C13.4115 36.7925 13.2537 33.0218 15.3648 30.5243L18.4926 26.8242C18.9208 26.3177 19.5463 26.0274 20.2095 26.0274C20.8727 26.0274 21.4982 26.3176 21.9264 26.8241ZM20.4004 29.1176L20.2095 28.8918L20.0186 29.1176L17.3856 32.2325C16.154 33.6895 16.2458 35.885 17.595 37.234C18.2931 37.932 19.2224 38.317 20.2095 38.317C21.1968 38.317 22.1261 37.932 22.8242 37.234C24.1733 35.885 24.2652 33.6895 23.0333 32.2325L20.4004 29.1176Z" fill="url(#paint2_linear_1084:2362)" stroke="#FF8A00" stroke-width="0.5"/>
<path d="M49.9408 45.5432C49.9408 46.2738 49.3485 46.8661 48.6179 46.8661C47.8872 46.8661 47.2949 46.2738 47.2949 45.5432C47.2949 44.8125 47.8872 44.2202 48.6179 44.2202C49.3485 44.2202 49.9408 44.8125 49.9408 45.5432Z" fill="url(#paint3_linear_1084:2362)" stroke="#FF8A00" stroke-width="0.5"/>
<defs>
<linearGradient id="paint0_linear_1084:2362" x1="36.5" y1="0" x2="36.5" y2="80.5343" gradientUnits="userSpaceOnUse">
<stop offset="0.180208" stop-color="#FFE2BF"/>
<stop offset="0.451042" stop-color="#00A3E0"/>
<stop offset="0.70625" stop-color="#00A3E0"/>
</linearGradient>
<linearGradient id="paint1_linear_1084:2362" x1="48.6177" y1="62.7885" x2="48.6177" y2="72.8552" gradientUnits="userSpaceOnUse">
<stop offset="0.180208" stop-color="#FFE2BF"/>
<stop offset="0.451042" stop-color="#00A3E0"/>
<stop offset="0.70625" stop-color="#00A3E0"/>
</linearGradient>
<linearGradient id="paint2_linear_1084:2362" x1="20.2095" y1="25.7774" x2="20.2095" y2="41.2127" gradientUnits="userSpaceOnUse">
<stop offset="0.180208" stop-color="#FFE2BF"/>
<stop offset="0.451042" stop-color="#00A3E0"/>
<stop offset="0.70625" stop-color="#00A3E0"/>
</linearGradient>
<linearGradient id="paint3_linear_1084:2362" x1="48.6179" y1="43.9702" x2="48.6179" y2="47.1161" gradientUnits="userSpaceOnUse">
<stop offset="0.180208" stop-color="#FFE2BF"/>
<stop offset="0.451042" stop-color="#00A3E0"/>
<stop offset="0.70625" stop-color="#00A3E0"/>
</linearGradient>
</defs>
</svg>
