<svg width="86" height="83" viewBox="0 0 86 83" fill="none" xmlns="http://www.w3.org/2000/svg">
<path d="M85.8442 70.4944C85.3788 71.1473 84.7361 71.2779 83.9826 71.2779C56.8562 71.2779 29.7521 71.2779 2.62577 71.2779C1.8501 71.2779 1.2074 71.1473 0.76416 70.4944C0.76416 68.8621 0.76416 67.2298 0.76416 65.5974C1.45118 64.0522 2.64793 63.5516 4.33225 63.5734C12.3992 63.6169 20.444 63.5951 28.511 63.5951C28.8213 63.5951 29.1094 63.5951 29.4197 63.5951C24.7435 61.484 20.5105 58.7417 16.9203 55.1071C13.33 51.4724 10.6263 47.2937 8.69816 42.3532C8.41006 43.115 8.23276 43.6808 8.01114 44.2467C7.70088 45.0302 7.05818 45.3567 6.39332 45.139C5.68413 44.8996 5.39602 44.2249 5.68413 43.3979C6.30467 41.6568 6.9252 39.9156 7.5679 38.1745C7.90033 37.3039 8.56519 37.021 9.42951 37.4127C11.0252 38.1309 12.6208 38.8927 14.2165 39.6762C14.9922 40.0462 15.2581 40.6991 14.9479 41.3521C14.6376 42.0267 13.9284 42.2444 13.1306 41.8962C12.4214 41.5915 11.7344 41.2432 10.8257 40.8079C12.4657 45.4873 14.9257 49.4484 18.2278 52.8871C24.1673 59.0682 31.4586 62.6593 40.0796 63.4428C58.2968 65.0751 71.727 53.1047 75.7161 40.8732C74.9405 41.2215 74.2756 41.5479 73.5886 41.8526C72.7021 42.2444 72.0151 42.0485 71.6826 41.3521C71.3724 40.6774 71.6605 40.0462 72.5026 39.6544C74.0097 38.9362 75.5388 38.1962 77.068 37.4998C78.1096 37.021 78.708 37.2604 79.1291 38.3486C79.7496 40.0027 80.348 41.6785 80.9242 43.3326C81.2345 44.2249 80.9685 44.9214 80.2372 45.1608C79.528 45.3784 78.9075 45.0302 78.5972 44.1814C78.3977 43.6591 78.1983 43.115 77.9323 42.375C76.0042 47.2719 73.3005 51.4942 69.7102 55.1288C66.12 58.7635 61.9092 61.5057 57.1887 63.6169C57.4768 63.6169 57.7649 63.6169 58.053 63.6169C66.1421 63.6169 74.2313 63.6386 82.3204 63.5951C84.0047 63.5951 85.2236 64.0739 85.8885 65.6192C85.8442 67.2297 85.8442 68.8621 85.8442 70.4944ZM3.29063 68.7533C29.9959 68.7533 56.6568 68.7533 83.2955 68.7533C83.3177 68.6444 83.3399 68.5791 83.3399 68.5356C83.3399 68.0786 83.3399 67.6215 83.3399 67.1427C83.3399 66.0545 83.3399 66.0545 82.2096 66.0545C56.7011 66.0545 31.1926 66.0545 5.68413 66.0545C3.04685 66.0327 3.04685 66.0545 3.29063 68.7533Z" fill="url(#paint0_linear_1084:2417)"/>
<path d="M0.741699 81.2677C1.14062 80.5059 1.8498 80.4189 2.64763 80.4189C24.854 80.4406 47.0603 80.4406 69.2667 80.4406C74.231 80.4406 79.1731 80.4624 84.1374 80.4189C84.8909 80.4189 85.4893 80.593 85.866 81.2677C85.866 81.5506 85.866 81.8118 85.866 82.0947C85.445 82.7041 84.8466 82.9 84.0931 82.9C56.9003 82.8782 29.7296 82.8782 2.53682 82.9C1.78331 82.9 1.18494 82.7041 0.763861 82.0947C0.741699 81.8118 0.741699 81.5289 0.741699 81.2677Z" fill="url(#paint1_linear_1084:2417)"/>
<path d="M43.3813 8.74923C54.9277 8.79275 63.9476 18.4996 62.9282 29.7952C62.8395 30.8835 62.6179 31.9499 62.3963 33.0164C62.1747 34.0175 61.5985 34.431 60.8006 34.2569C60.025 34.0828 59.7147 33.4299 59.9806 32.4287C60.8228 29.2947 60.8006 26.1606 59.759 23.0919C57.5206 16.6061 52.9553 12.5362 46.085 11.448C38.971 10.338 33.2089 12.8844 29.0203 18.6955C28.2446 19.7619 27.6241 20.0666 26.8927 19.5878C26.1835 19.1308 26.2057 18.4343 26.9592 17.3026C30.5716 11.9268 36.7105 8.72746 43.3813 8.74923Z" fill="url(#paint2_linear_1084:2417)"/>
<path d="M45.2209 47.4896C33.0096 47.5113 24.4329 39.785 23.6572 29.6864C23.5021 27.8147 23.8123 25.8994 24.0118 24.0277C24.1226 23.0266 24.7653 22.526 25.5188 22.6783C26.3167 22.8307 26.6491 23.5054 26.4275 24.5501C25.5188 28.8594 26.1837 32.9293 28.4442 36.738C34.6496 47.1196 49.7641 47.9031 57.0776 38.2615C57.2327 38.0657 57.3657 37.8698 57.5208 37.6739C58.0084 37.108 58.7397 36.9774 59.2938 37.3692C59.8478 37.761 60.0251 38.5445 59.5154 39.1103C58.1857 40.5903 56.9003 42.1573 55.3489 43.3979C51.8695 46.1837 47.7917 47.4678 45.2209 47.4896Z" fill="url(#paint3_linear_1084:2417)"/>
<path d="M42.0962 27.1618C42.0962 28.4459 42.1183 29.7082 42.0962 30.9923C42.0518 32.5593 41.5643 33.9305 39.9243 34.5181C38.1291 35.1493 36.334 35.171 34.7384 33.9087C33.9848 33.3211 33.6524 32.4505 33.6303 31.5364C33.5859 28.6853 33.6081 25.8342 33.5859 22.9831C33.5859 22.1995 34.1178 22.1125 34.7162 22.1125C35.4032 22.1125 35.9129 22.2866 35.8908 23.1136C35.8686 25.3771 35.8908 27.6188 35.8908 29.8823C35.8908 30.2088 35.8908 30.5352 35.8908 30.8617C35.9573 32.2764 36.6 32.9511 37.8854 32.9293C39.1264 32.9076 39.7691 32.2111 39.7691 30.84C39.7913 28.3153 39.7691 25.7906 39.7691 23.266C39.7691 22.3954 40.0129 22.1343 40.8772 22.1343C41.7859 22.1125 42.074 22.3954 42.074 23.266C42.1183 24.5501 42.0962 25.8559 42.0962 27.1618Z" fill="url(#paint4_linear_1084:2417)"/>
<path d="M48.6337 31.6887C49.2321 29.5994 49.8304 27.5318 50.4288 25.4424C50.6726 24.5718 50.8942 23.723 51.1602 22.8524C51.3596 22.156 51.825 21.9601 52.5785 22.1995C53.1769 22.3954 53.6201 22.7001 53.3764 23.4618C52.2904 26.9659 51.2045 30.4699 50.1185 33.974C49.8748 34.7357 49.2764 34.9098 48.5672 34.9316C47.8137 34.9316 47.2375 34.6922 46.9715 33.9087C45.9078 30.4264 44.8218 26.9441 43.7137 23.4836C43.4699 22.7001 43.9132 22.4172 44.5115 22.2213C45.2651 21.9601 45.7305 22.1778 45.9299 22.8524C46.7277 25.573 47.4813 28.2717 48.2791 30.9923C48.3456 31.2317 48.4121 31.4493 48.5007 31.6887C48.5229 31.6887 48.5894 31.6887 48.6337 31.6887Z" fill="url(#paint5_linear_1084:2417)"/>
<path d="M44.5338 53.1048C44.5338 53.7359 44.5559 54.3671 44.5338 54.9765C44.4894 55.7382 43.9575 56.2388 43.2927 56.2388C42.6057 56.2388 42.0959 55.7382 42.0738 54.9547C42.0294 53.7359 42.0294 52.5171 42.0738 51.2766C42.0959 50.4713 42.5835 50.036 43.3148 50.036C44.0462 50.036 44.4894 50.4931 44.5559 51.2983C44.5781 51.603 44.5559 51.886 44.5559 52.1907C44.5338 52.5171 44.5338 52.8001 44.5338 53.1048Z" fill="url(#paint6_linear_1084:2417)"/>
<path d="M44.5116 3.15582C44.5116 3.78698 44.5559 4.41814 44.5116 5.02754C44.4673 5.76753 43.9797 6.20281 43.2927 6.20281C42.6057 6.20281 42.0959 5.76753 42.0738 5.02754C42.0294 3.74345 42.0294 2.48112 42.0738 1.19703C42.0959 0.478813 42.65 0 43.2927 0C43.9354 0 44.4673 0.478813 44.5116 1.19703C44.5559 1.84996 44.5116 2.50289 44.5116 3.15582Z" fill="url(#paint7_linear_1084:2417)"/>
<path d="M27.9569 11.9268C27.7353 12.2097 27.5358 12.6886 27.2034 12.8191C26.8266 12.9715 26.184 12.9497 25.918 12.7321C24.8542 11.818 23.8791 10.8386 22.9261 9.81568C22.4829 9.33686 22.5715 8.74923 23.0369 8.27042C23.5023 7.81337 24.1229 7.70454 24.6104 8.13983C25.6742 9.07569 26.6494 10.0986 27.6466 11.1215C27.8018 11.2521 27.8239 11.535 27.9569 11.9268Z" fill="url(#paint8_linear_1084:2417)"/>
<path d="M59.8257 13.0803C59.5154 12.8409 59.0279 12.645 58.8727 12.2968C58.7176 11.9486 58.7619 11.2956 59.0057 11.0345C59.9143 10.0115 60.8895 9.07568 61.9089 8.16158C62.3965 7.7263 62.9949 7.79159 63.4824 8.22688C63.97 8.66216 64.103 9.27156 63.6819 9.75037C62.7068 10.8168 61.643 11.7962 60.6014 12.7974C60.4462 12.928 60.1803 12.9497 59.8257 13.0803Z" fill="url(#paint9_linear_1084:2417)"/>
<path d="M23.7906 48.469C23.4803 48.2078 22.9928 48.0119 22.8819 47.6855C22.749 47.3155 22.749 46.6843 22.9928 46.4231C23.9014 45.4002 24.8765 44.4644 25.896 43.5285C26.4057 43.0714 27.0262 43.115 27.536 43.6155C28.0235 44.1161 28.09 44.7255 27.6246 45.2261C26.716 46.2055 25.7408 47.1196 24.7657 48.0337C24.5219 48.2513 24.1895 48.2949 23.7906 48.469Z" fill="url(#paint10_linear_1084:2417)"/>
<path d="M63.9923 47.2502C63.7706 47.5331 63.5712 48.0119 63.2388 48.1425C62.862 48.2949 62.2193 48.2949 61.9534 48.0772C60.8896 47.1631 59.8923 46.1837 58.9615 45.1608C58.5182 44.682 58.629 44.0726 59.0944 43.6156C59.5377 43.1803 60.1361 43.0497 60.6015 43.4632C61.6874 44.4208 62.6847 45.4655 63.7042 46.5102C63.8371 46.6626 63.8593 46.902 63.9923 47.2502Z" fill="url(#paint11_linear_1084:2417)"/>
<path d="M17.851 26.9006C18.4494 26.9006 19.0699 26.8788 19.6683 26.9006C20.444 26.9224 20.9758 27.4229 20.9758 28.0976C20.9758 28.7723 20.4661 29.3164 19.6904 29.3382C18.4272 29.36 17.1418 29.36 15.8786 29.3382C15.1472 29.3164 14.6818 28.8159 14.6597 28.1412C14.6597 27.4447 15.1472 26.9659 15.9229 26.9006C15.9672 26.9006 16.0337 26.9006 16.078 26.9006C16.6764 26.9006 17.2748 26.9006 17.851 26.9006Z" fill="url(#paint12_linear_1084:2417)"/>
<path d="M68.7792 26.9006C69.4219 26.9006 70.0425 26.8788 70.6852 26.9006C71.4165 26.9441 71.8819 27.4229 71.9041 28.0759C71.9262 28.7723 71.4387 29.3164 70.6852 29.3382C69.4219 29.3817 68.1587 29.36 66.8733 29.3382C66.1198 29.3164 65.5879 28.7941 65.5879 28.1194C65.5879 27.4447 66.1198 26.9224 66.8733 26.9006C67.4938 26.8788 68.1365 26.9006 68.7792 26.9006Z" fill="url(#paint13_linear_1084:2417)"/>
<path d="M38.3507 73.1279C38.5501 73.3237 39.0377 73.5849 39.215 73.9984C39.5917 74.9778 39.8577 76.0225 40.1014 77.0454C40.2566 77.7201 39.9241 78.2425 39.2593 78.4384C38.5944 78.6342 37.9961 78.4166 37.7744 77.7637C37.3977 76.6972 37.0874 75.5872 36.8658 74.4773C36.6663 73.759 37.309 73.1279 38.3507 73.1279Z" fill="url(#paint14_linear_1084:2417)"/>
<path d="M46.3291 74.1508C46.6837 73.8461 47.0161 73.3891 47.4594 73.2149C48.0356 72.9755 48.6118 73.2802 48.8112 73.8461C49.188 74.9343 49.4983 76.0661 49.7642 77.1978C49.8972 77.8072 49.5204 78.2642 48.9442 78.4601C48.368 78.656 47.7475 78.5254 47.5258 77.9378C47.0604 76.7625 46.7502 75.5655 46.3291 74.1508Z" fill="url(#paint15_linear_1084:2417)"/>
<path d="M29.0425 78.5036C28.5549 78.4819 28.156 78.1772 28.0009 77.5895C27.7349 76.6537 27.4468 75.7178 27.203 74.782C27.0036 73.9984 27.3803 73.3673 28.0895 73.1932C28.7544 73.0191 29.3749 73.389 29.5965 74.129C29.8846 75.0867 30.1727 76.0443 30.3944 77.0237C30.5717 77.829 30.0176 78.5036 29.0425 78.5036Z" fill="url(#paint16_linear_1084:2417)"/>
<path d="M59.4271 77.0237C59.4271 77.8725 59.139 78.3078 58.5406 78.4601C57.9201 78.6125 57.3217 78.4166 57.1001 77.8072C56.7233 76.6972 56.3909 75.5872 56.1471 74.4337C56.0141 73.8026 56.4352 73.3455 57.0779 73.1714C57.6984 73.0191 58.2525 73.2367 58.452 73.8026C58.873 74.9343 59.1611 76.0878 59.4271 77.0237Z" fill="url(#paint17_linear_1084:2417)"/>
<path d="M77.2231 78.5037C77.0458 78.3295 76.5583 78.0684 76.4253 77.6984C76.0485 76.719 75.7826 75.6743 75.561 74.6514C75.3837 73.9114 75.8048 73.302 76.5139 73.1714C77.2675 73.0408 77.755 73.4108 77.9545 74.0855C78.2426 75.0431 78.5307 76.0008 78.7523 76.9802C78.9296 77.8507 78.3534 78.5254 77.2231 78.5037Z" fill="url(#paint18_linear_1084:2417)"/>
<path d="M11.0692 77.0454C11.0692 77.916 10.7589 78.3513 10.0941 78.4819C9.45137 78.6125 8.89732 78.3731 8.69786 77.7419C8.34327 76.6972 8.033 75.609 7.78922 74.5425C7.65624 73.9114 7.98868 73.4326 8.63137 73.2149C9.27407 72.9973 9.87245 73.2149 10.0719 73.8026C10.5151 74.9125 10.8033 76.0878 11.0692 77.0454Z" fill="url(#paint19_linear_1084:2417)"/>
<path d="M69.1113 77.0237C69.0892 77.8725 68.8011 78.3295 68.1362 78.4601C67.4935 78.5907 66.9394 78.3513 66.74 77.7201C66.4076 76.6754 66.0973 75.5872 65.8535 74.5208C65.6984 73.8461 66.0751 73.3673 66.7621 73.1714C67.3827 72.9973 67.9367 73.2367 68.1362 73.7808C68.5351 74.9343 68.8232 76.0878 69.1113 77.0237Z" fill="url(#paint20_linear_1084:2417)"/>
<path d="M20.7541 77.0672C20.7319 77.8942 20.4438 78.3295 19.8233 78.4819C19.1806 78.6342 18.6043 78.4166 18.4049 77.8072C18.0281 76.7407 17.74 75.6308 17.4962 74.5208C17.3633 73.8896 17.6957 73.4108 18.3384 73.2149C18.9589 73.019 19.5352 73.2367 19.7346 73.7808C20.1779 74.8908 20.466 76.0878 20.7541 77.0672Z" fill="url(#paint21_linear_1084:2417)"/>
<defs>
<linearGradient id="paint0_linear_1084:2417" x1="43.3263" y1="37.2399" x2="43.3263" y2="71.2779" gradientUnits="userSpaceOnUse">
<stop offset="0.180208" stop-color="#FFE2BF"/>
<stop offset="0.451042" stop-color="#00A3E0"/>
<stop offset="0.70625" stop-color="#00A3E0"/>
</linearGradient>
<linearGradient id="paint1_linear_1084:2417" x1="43.3039" y1="80.4189" x2="43.3039" y2="82.9" gradientUnits="userSpaceOnUse">
<stop offset="0.180208" stop-color="#FFE2BF"/>
<stop offset="0.451042" stop-color="#00A3E0"/>
<stop offset="0.70625" stop-color="#00A3E0"/>
</linearGradient>
<linearGradient id="paint2_linear_1084:2417" x1="44.6919" y1="8.74911" x2="44.6919" y2="34.2956" gradientUnits="userSpaceOnUse">
<stop offset="0.180208" stop-color="#FFE2BF"/>
<stop offset="0.451042" stop-color="#00A3E0"/>
<stop offset="0.70625" stop-color="#00A3E0"/>
</linearGradient>
<linearGradient id="paint3_linear_1084:2417" x1="41.7162" y1="22.6514" x2="41.7162" y2="47.4896" gradientUnits="userSpaceOnUse">
<stop offset="0.180208" stop-color="#FFE2BF"/>
<stop offset="0.451042" stop-color="#00A3E0"/>
<stop offset="0.70625" stop-color="#00A3E0"/>
</linearGradient>
<linearGradient id="paint4_linear_1084:2417" x1="37.846" y1="22.1125" x2="37.846" y2="34.9409" gradientUnits="userSpaceOnUse">
<stop offset="0.180208" stop-color="#FFE2BF"/>
<stop offset="0.451042" stop-color="#00A3E0"/>
<stop offset="0.70625" stop-color="#00A3E0"/>
</linearGradient>
<linearGradient id="paint5_linear_1084:2417" x1="48.545" y1="22.1021" x2="48.545" y2="34.9316" gradientUnits="userSpaceOnUse">
<stop offset="0.180208" stop-color="#FFE2BF"/>
<stop offset="0.451042" stop-color="#00A3E0"/>
<stop offset="0.70625" stop-color="#00A3E0"/>
</linearGradient>
<linearGradient id="paint6_linear_1084:2417" x1="43.3031" y1="50.036" x2="43.3031" y2="56.2388" gradientUnits="userSpaceOnUse">
<stop offset="0.180208" stop-color="#FFE2BF"/>
<stop offset="0.451042" stop-color="#00A3E0"/>
<stop offset="0.70625" stop-color="#00A3E0"/>
</linearGradient>
<linearGradient id="paint7_linear_1084:2417" x1="43.2859" y1="0" x2="43.2859" y2="6.20281" gradientUnits="userSpaceOnUse">
<stop offset="0.180208" stop-color="#FFE2BF"/>
<stop offset="0.451042" stop-color="#00A3E0"/>
<stop offset="0.70625" stop-color="#00A3E0"/>
</linearGradient>
<linearGradient id="paint8_linear_1084:2417" x1="25.2968" y1="7.86453" x2="25.2968" y2="12.9174" gradientUnits="userSpaceOnUse">
<stop offset="0.180208" stop-color="#FFE2BF"/>
<stop offset="0.451042" stop-color="#00A3E0"/>
<stop offset="0.70625" stop-color="#00A3E0"/>
</linearGradient>
<linearGradient id="paint9_linear_1084:2417" x1="61.3582" y1="7.86594" x2="61.3582" y2="13.0803" gradientUnits="userSpaceOnUse">
<stop offset="0.180208" stop-color="#FFE2BF"/>
<stop offset="0.451042" stop-color="#00A3E0"/>
<stop offset="0.70625" stop-color="#00A3E0"/>
</linearGradient>
<linearGradient id="paint10_linear_1084:2417" x1="25.3665" y1="43.2112" x2="25.3665" y2="48.469" gradientUnits="userSpaceOnUse">
<stop offset="0.180208" stop-color="#FFE2BF"/>
<stop offset="0.451042" stop-color="#00A3E0"/>
<stop offset="0.70625" stop-color="#00A3E0"/>
</linearGradient>
<linearGradient id="paint11_linear_1084:2417" x1="61.3367" y1="43.2124" x2="61.3367" y2="48.2497" gradientUnits="userSpaceOnUse">
<stop offset="0.180208" stop-color="#FFE2BF"/>
<stop offset="0.451042" stop-color="#00A3E0"/>
<stop offset="0.70625" stop-color="#00A3E0"/>
</linearGradient>
<linearGradient id="paint12_linear_1084:2417" x1="17.8178" y1="26.8909" x2="17.8178" y2="29.3545" gradientUnits="userSpaceOnUse">
<stop offset="0.180208" stop-color="#FFE2BF"/>
<stop offset="0.451042" stop-color="#00A3E0"/>
<stop offset="0.70625" stop-color="#00A3E0"/>
</linearGradient>
<linearGradient id="paint13_linear_1084:2417" x1="68.7463" y1="26.8909" x2="68.7463" y2="29.3633" gradientUnits="userSpaceOnUse">
<stop offset="0.180208" stop-color="#FFE2BF"/>
<stop offset="0.451042" stop-color="#00A3E0"/>
<stop offset="0.70625" stop-color="#00A3E0"/>
</linearGradient>
<linearGradient id="paint14_linear_1084:2417" x1="38.4844" y1="73.1279" x2="38.4844" y2="78.5077" gradientUnits="userSpaceOnUse">
<stop offset="0.180208" stop-color="#FFE2BF"/>
<stop offset="0.451042" stop-color="#00A3E0"/>
<stop offset="0.70625" stop-color="#00A3E0"/>
</linearGradient>
<linearGradient id="paint15_linear_1084:2417" x1="48.06" y1="73.1326" x2="48.06" y2="78.545" gradientUnits="userSpaceOnUse">
<stop offset="0.180208" stop-color="#FFE2BF"/>
<stop offset="0.451042" stop-color="#00A3E0"/>
<stop offset="0.70625" stop-color="#00A3E0"/>
</linearGradient>
<linearGradient id="paint16_linear_1084:2417" x1="28.7885" y1="73.1506" x2="28.7885" y2="78.5036" gradientUnits="userSpaceOnUse">
<stop offset="0.180208" stop-color="#FFE2BF"/>
<stop offset="0.451042" stop-color="#00A3E0"/>
<stop offset="0.70625" stop-color="#00A3E0"/>
</linearGradient>
<linearGradient id="paint17_linear_1084:2417" x1="57.7748" y1="73.1242" x2="57.7748" y2="78.5095" gradientUnits="userSpaceOnUse">
<stop offset="0.180208" stop-color="#FFE2BF"/>
<stop offset="0.451042" stop-color="#00A3E0"/>
<stop offset="0.70625" stop-color="#00A3E0"/>
</linearGradient>
<linearGradient id="paint18_linear_1084:2417" x1="77.1522" y1="73.1454" x2="77.1522" y2="78.5042" gradientUnits="userSpaceOnUse">
<stop offset="0.180208" stop-color="#FFE2BF"/>
<stop offset="0.451042" stop-color="#00A3E0"/>
<stop offset="0.70625" stop-color="#00A3E0"/>
</linearGradient>
<linearGradient id="paint19_linear_1084:2417" x1="9.41473" y1="73.1323" x2="9.41473" y2="78.5163" gradientUnits="userSpaceOnUse">
<stop offset="0.180208" stop-color="#FFE2BF"/>
<stop offset="0.451042" stop-color="#00A3E0"/>
<stop offset="0.70625" stop-color="#00A3E0"/>
</linearGradient>
<linearGradient id="paint20_linear_1084:2417" x1="67.4651" y1="73.1154" x2="67.4651" y2="78.4946" gradientUnits="userSpaceOnUse">
<stop offset="0.180208" stop-color="#FFE2BF"/>
<stop offset="0.451042" stop-color="#00A3E0"/>
<stop offset="0.70625" stop-color="#00A3E0"/>
</linearGradient>
<linearGradient id="paint21_linear_1084:2417" x1="19.1107" y1="73.1441" x2="19.1107" y2="78.5287" gradientUnits="userSpaceOnUse">
<stop offset="0.180208" stop-color="#FFE2BF"/>
<stop offset="0.451042" stop-color="#00A3E0"/>
<stop offset="0.70625" stop-color="#00A3E0"/>
</linearGradient>
</defs>
</svg>
