<svg width="113" height="105" viewBox="0 0 113 105" fill="none" xmlns="http://www.w3.org/2000/svg">
<path d="M99.607 104.132H7.8654C5.78002 104.13 3.78066 103.3 2.30608 101.826C0.831489 100.351 0.00213077 98.3519 0 96.2665V23.2902C0 22.8633 0.169602 22.4538 0.471495 22.1519C0.773388 21.85 1.18284 21.6804 1.60978 21.6804H99.607C101.692 21.683 103.691 22.5125 105.166 23.987C106.64 25.4615 107.47 27.4606 107.472 29.5458V51.0847C107.472 51.5117 107.303 51.9211 107.001 52.223C106.699 52.5249 106.29 52.6945 105.863 52.6945C105.436 52.6945 105.026 52.5249 104.724 52.223C104.422 51.9211 104.253 51.5117 104.253 51.0847V29.5458C104.252 28.3141 103.762 27.1331 102.891 26.2621C102.02 25.3911 100.839 24.9013 99.607 24.9H3.21957V96.2665C3.22127 97.4982 3.71129 98.6789 4.58218 99.5498C5.45308 100.421 6.63377 100.911 7.8654 100.912H99.607C100.839 100.911 102.019 100.421 102.89 99.5498C103.761 98.6789 104.251 97.4982 104.253 96.2665V74.7292C104.253 74.3023 104.422 73.8928 104.724 73.591C105.026 73.2891 105.436 73.1195 105.863 73.1195C106.29 73.1195 106.699 73.2891 107.001 73.591C107.303 73.8928 107.472 74.3023 107.472 74.7292V96.2665C107.47 98.3518 106.64 100.351 105.166 101.825C103.691 103.3 101.692 104.129 99.607 104.132Z" fill="url(#paint0_linear_472:3909)"/>
<path d="M108.383 76.3309H89.5311C85.9704 76.3309 82.5555 74.9165 80.0377 72.3987C77.5199 69.8809 76.1055 66.466 76.1055 62.9053C76.1055 59.3446 77.5199 55.9298 80.0377 53.412C82.5555 50.8942 85.9704 49.4797 89.5311 49.4797H108.383C109.524 49.4814 110.618 49.9356 111.425 50.7425C112.231 51.5494 112.685 52.6433 112.686 53.7843V72.0232C112.686 73.1648 112.233 74.2598 111.426 75.0675C110.619 75.8752 109.525 76.3297 108.383 76.3309ZM89.5311 52.7057C88.1908 52.7057 86.8636 52.9697 85.6254 53.4826C84.3871 53.9955 83.262 54.7473 82.3143 55.695C81.3666 56.6427 80.6148 57.7678 80.1019 59.0061C79.589 60.2443 79.325 61.5715 79.325 62.9118C79.325 64.252 79.589 65.5792 80.1019 66.8175C80.6148 68.0557 81.3666 69.1808 82.3143 70.1285C83.262 71.0762 84.3871 71.828 85.6254 72.3409C86.8636 72.8538 88.1908 73.1178 89.5311 73.1178H108.383C108.526 73.1176 108.668 73.0891 108.8 73.0338C108.932 72.9786 109.052 72.8978 109.153 72.796C109.254 72.6943 109.333 72.5736 109.387 72.441C109.441 72.3083 109.468 72.1663 109.467 72.0232V53.7843C109.466 53.4969 109.352 53.2215 109.149 53.0181C108.946 52.8148 108.671 52.7002 108.383 52.6993L89.5311 52.7057Z" fill="url(#paint1_linear_472:3909)"/>
<path d="M1.60952 24.9C1.22846 24.8999 0.859775 24.7647 0.569059 24.5183C0.278343 24.272 0.0844456 23.9305 0.0218622 23.5546C-0.0407212 23.1787 0.0320673 22.7928 0.227279 22.4655C0.42249 22.1383 0.727466 21.8909 1.08795 21.7674L62.7813 0.632509C64.544 0.0282868 66.4255 -0.146408 68.2694 0.122952C70.1132 0.392311 71.8661 1.09794 73.3823 2.18117C74.8985 3.2644 76.1342 4.69393 76.9867 6.35091C77.8392 8.00788 78.2838 9.84442 78.2835 11.7078V23.2902C78.2835 23.7172 78.1139 24.1266 77.812 24.4285C77.5101 24.7304 77.1007 24.9 76.6738 24.9C76.2468 24.9 75.8373 24.7304 75.5355 24.4285C75.2336 24.1266 75.064 23.7172 75.064 23.2902V11.7078C75.0639 10.3569 74.7413 9.02552 74.1232 7.82433C73.5051 6.62314 72.6091 5.58683 71.5099 4.80153C70.4107 4.01624 69.1399 3.50465 67.8032 3.30927C66.4665 3.1139 65.1024 3.24038 63.8245 3.67822L2.13109 24.8131C1.96327 24.8708 1.787 24.9002 1.60952 24.9Z" fill="url(#paint2_linear_472:3909)"/>
<path d="M90.1629 68.6861C89.0197 68.6858 87.9022 68.3465 86.9517 67.7111C86.0013 67.0757 85.2606 66.1728 84.8234 65.1164C84.3861 64.0601 84.2718 62.8979 84.4951 61.7766C84.7183 60.6554 85.269 59.6255 86.0775 58.8172C86.886 58.0089 87.916 57.4585 89.0374 57.2356C90.1587 57.0127 91.3209 57.1272 92.3771 57.5648C93.4333 58.0024 94.336 58.7433 94.9711 59.6939C95.6063 60.6445 95.9453 61.7621 95.9453 62.9054C95.944 64.4384 95.3343 65.9083 94.2501 66.9921C93.166 68.076 91.6959 68.6852 90.1629 68.6861ZM90.1629 60.3458C89.6563 60.3458 89.1611 60.4961 88.7398 60.7776C88.3186 61.0591 87.9904 61.4592 87.7966 61.9272C87.6028 62.3953 87.5521 62.9104 87.6511 63.4072C87.75 63.9041 87.9941 64.3604 88.3525 64.7186C88.7108 65.0767 89.1673 65.3205 89.6642 65.4191C90.1612 65.5178 90.6762 65.4668 91.1441 65.2727C91.6121 65.0786 92.012 64.7501 92.2932 64.3287C92.5745 63.9073 92.7244 63.412 92.7241 62.9054C92.7237 62.2264 92.4536 61.5754 91.9734 61.0954C91.4931 60.6154 90.8419 60.3458 90.1629 60.3458Z" fill="url(#paint3_linear_472:3909)"/>
<defs>
<linearGradient id="paint0_linear_472:3909" x1="53.7362" y1="21.6804" x2="53.7362" y2="104.132" gradientUnits="userSpaceOnUse">
<stop offset="0.180208" stop-color="#FF8A00"/>
<stop offset="0.70625" stop-color="#00A3E0"/>
</linearGradient>
<linearGradient id="paint1_linear_472:3909" x1="94.3958" y1="49.4797" x2="94.3958" y2="76.3309" gradientUnits="userSpaceOnUse">
<stop offset="0.180208" stop-color="#FF8A00"/>
<stop offset="0.70625" stop-color="#00A3E0"/>
</linearGradient>
<linearGradient id="paint2_linear_472:3909" x1="39.1418" y1="0" x2="39.1418" y2="24.9" gradientUnits="userSpaceOnUse">
<stop offset="0.180208" stop-color="#FF8A00"/>
<stop offset="0.70625" stop-color="#00A3E0"/>
</linearGradient>
<linearGradient id="paint3_linear_472:3909" x1="90.1645" y1="57.1246" x2="90.1645" y2="68.6861" gradientUnits="userSpaceOnUse">
<stop offset="0.180208" stop-color="#FF8A00"/>
<stop offset="0.70625" stop-color="#00A3E0"/>
</linearGradient>
</defs>
</svg>
