<svg width="198" height="55" viewBox="0 0 198 55" fill="none" xmlns="http://www.w3.org/2000/svg">
<path d="M22.4428 14.4281H4.47168V0.928711H0V32.3149H4.47168V18.8998H22.4428V32.3149H26.9145V0.928711H22.4428V14.4281Z" fill="black"/>
<path d="M54.6724 0.928711L44.8009 14.4281L34.9295 0.928711H29.4453L42.6072 18.8998V32.3149H47.0789V18.8998L60.1565 0.928711H54.6724Z" fill="black"/>
<path d="M94.0747 0.928711H89.603V32.3149H112.046V27.8432H94.0747V0.928711Z" fill="black"/>
<path d="M179.289 27.8432V0.928711H174.733V32.3149H197.176V27.8432H179.289Z" fill="black"/>
<path d="M138.96 0.928711H134.488V19.406C134.404 24.2996 130.438 28.265 125.545 28.265C120.567 28.265 116.602 24.2152 116.602 19.3217V0.928711H112.13V19.406C112.214 26.8307 118.205 32.8211 125.545 32.8211C132.97 32.8211 139.044 26.8307 139.044 19.406V0.928711H138.96Z" fill="black"/>
<path d="M71.7162 0.506348C64.2915 0.506348 58.2168 6.49672 58.2168 13.9214V19.4899C58.3012 26.9146 64.2915 32.905 71.6318 32.905C75.0911 32.905 78.2972 31.0488 80.7439 28.8551C81.1658 30.88 82.9376 32.3987 85.1313 32.3987V13.9214C85.1313 6.49672 79.1409 0.506348 71.7162 0.506348ZM80.6596 18.9837C80.5752 23.8772 76.6098 28.3489 71.7162 28.3489C66.7383 28.3489 62.7729 24.2991 62.7729 19.4055V13.9214C62.7729 8.94349 66.7383 4.97803 71.7162 4.97803C76.6941 4.97803 80.6596 8.94349 80.6596 13.9214V18.9837Z" fill="black"/>
<path d="M156.846 0.506348C149.421 0.506348 143.347 6.49672 143.347 13.9214V19.4899C143.431 26.9146 149.421 32.905 156.762 32.905C160.221 32.905 163.427 31.0488 165.874 28.8551C166.296 30.88 168.068 32.3987 170.261 32.3987V13.9214C170.261 6.49672 164.271 0.506348 156.846 0.506348ZM165.789 18.9837C165.789 23.8772 161.74 28.3489 156.846 28.3489C151.868 28.3489 147.903 24.2991 147.903 19.4055V13.9214C147.903 9.02786 151.953 4.97803 156.846 4.97803C161.824 4.97803 165.789 8.94349 165.789 13.9214V18.9837Z" fill="black"/>
<path d="M26.1552 46.4044C26.0708 46.32 25.9864 46.2357 25.8177 46.1513C25.6489 46.0669 25.3958 45.8982 25.1427 45.8138C24.8896 45.7294 24.6365 45.6451 24.299 45.5607C23.9615 45.4763 23.7084 45.4763 23.3709 45.4763C22.7803 45.4763 22.3585 45.5607 22.1053 45.8138C21.8522 45.9826 21.6835 46.32 21.6835 46.6575C21.6835 46.9106 21.7679 47.0794 21.8522 47.1638C21.9366 47.3325 22.1053 47.4169 22.2741 47.5012C22.4428 47.5856 22.6959 47.67 23.0334 47.8387L24.0459 48.0918C24.5521 48.2606 25.0583 48.345 25.4802 48.5137C25.9021 48.6824 26.2395 48.8512 26.577 49.1043C26.8301 49.3574 27.0833 49.6105 27.252 49.948C27.4207 50.2855 27.5051 50.7074 27.5051 51.1292C27.5051 51.7198 27.4207 52.1417 27.1676 52.5635C26.9145 52.9854 26.6614 53.3229 26.3239 53.4916C25.9864 53.7447 25.5646 53.9135 25.0583 53.9978C24.5521 54.0822 24.1303 54.1666 23.624 54.1666C22.8647 54.1666 22.021 54.0822 21.2616 53.8291C20.5023 53.576 19.8273 53.2385 19.1523 52.8166L20.0804 51.0448C20.1648 51.1292 20.3335 51.2136 20.5867 51.3823C20.8398 51.5511 21.0929 51.6354 21.4304 51.8042C21.7679 51.9729 22.1053 52.0573 22.4428 52.1417C22.8647 52.226 23.2022 52.3104 23.624 52.3104C24.7209 52.3104 25.3115 51.9729 25.3115 51.2136C25.3115 50.9605 25.2271 50.7917 25.1427 50.623C24.974 50.4542 24.8052 50.2855 24.6365 50.2011C24.3834 50.1168 24.1303 49.948 23.7928 49.8636C23.4553 49.7793 23.1178 49.6949 22.6959 49.5262C22.1897 49.3574 21.7679 49.273 21.346 49.1043C21.0085 48.9356 20.671 48.7668 20.4179 48.5137C20.1648 48.2606 19.9961 48.0075 19.8273 47.7544C19.7429 47.5012 19.6586 47.0794 19.6586 46.7419C19.6586 46.2357 19.7429 45.7294 19.9961 45.3076C20.1648 44.8857 20.5023 44.5482 20.8398 44.2951C21.1773 44.042 21.5991 43.7889 22.021 43.7045C22.4428 43.5358 22.9491 43.4514 23.5397 43.4514C24.299 43.4514 24.974 43.5358 25.5646 43.7889C26.1552 44.042 26.7458 44.2951 27.1676 44.6326L26.1552 46.4044Z" fill="black"/>
<path d="M29.1084 48.8514C29.1084 48.1764 29.1928 47.5858 29.4459 46.9108C29.699 46.3202 30.0365 45.7296 30.4583 45.2234C30.8802 44.7172 31.4708 44.2953 32.0614 44.0422C32.7364 43.7047 33.4113 43.6204 34.2551 43.6204C35.1831 43.6204 36.0269 43.8735 36.7862 44.2953C37.4612 44.7172 38.0518 45.3078 38.3892 45.9828L36.7862 47.0796C36.6174 46.7421 36.4487 46.5734 36.28 46.3202C36.1112 46.1515 35.8581 45.9828 35.605 45.814C35.3519 45.7296 35.1831 45.6453 34.93 45.5609C34.6769 45.4765 34.4238 45.4765 34.1707 45.4765C33.6645 45.4765 33.2426 45.5609 32.8207 45.814C32.3989 45.9828 32.1458 46.3202 31.8927 46.6577C31.6395 46.9952 31.4708 47.3327 31.3021 47.7546C31.1333 48.1764 31.1333 48.5983 31.1333 49.0201C31.1333 49.442 31.2177 49.9482 31.3864 50.3701C31.5552 50.7919 31.7239 51.2138 31.977 51.4669C32.2301 51.8044 32.5676 52.0575 32.9895 52.2262C33.327 52.395 33.7488 52.5637 34.2551 52.5637C34.5082 52.5637 34.7613 52.5637 35.0144 52.4794C35.2675 52.395 35.5206 52.3106 35.7737 52.2262C36.0269 52.0575 36.1956 51.9731 36.4487 51.72C36.6175 51.5513 36.7862 51.2982 36.9549 50.9607L38.6424 51.8888C38.4736 52.3106 38.2205 52.6481 37.883 52.9012C37.5455 53.2387 37.2081 53.4918 36.8706 53.6606L35.605 54.1668C35.1831 54.2512 34.7613 54.3355 34.3394 54.3355C33.5801 54.3355 32.9051 54.1668 32.3145 53.8293C31.7239 53.4918 31.1333 53.07 30.7115 52.5637C30.2896 52.0575 29.9521 51.4669 29.699 50.7919C29.4459 50.117 29.1084 49.5264 29.1084 48.8514Z" fill="black"/>
<path d="M40.582 54.1666V43.7046H42.6069V54.1666H40.582Z" fill="black"/>
<path d="M52.9009 52.3948V54.1666H45.5605V43.7046H52.7321V45.4764H47.5855V48.0075H51.9728V49.695H47.5855V52.3948H52.9009Z" fill="black"/>
<path d="M57.2036 47.4169V54.1666H55.1787V43.7046H56.7818L62.2659 50.623V43.7046H64.2908V54.1666H62.6034L57.2036 47.4169Z" fill="black"/>
<path d="M66.5688 48.8514C66.5688 48.1764 66.6532 47.5858 66.9063 46.9108C67.1594 46.3202 67.4969 45.7296 67.9188 45.2234C68.3406 44.7172 68.9312 44.2953 69.5218 44.0422C70.1968 43.7047 70.8718 43.6204 71.7155 43.6204C72.6436 43.6204 73.4873 43.8735 74.2466 44.2953C74.9216 44.7172 75.5122 45.3078 75.8497 45.9828L74.2466 46.9952C74.0779 46.6577 73.9092 46.489 73.7404 46.2359C73.5717 46.0671 73.3186 45.8984 73.0654 45.7296C72.8123 45.6453 72.6436 45.5609 72.3905 45.4765C72.1374 45.3922 71.8842 45.3922 71.6311 45.3922C71.1249 45.3922 70.703 45.4765 70.2812 45.7296C69.8593 45.8984 69.6062 46.2359 69.3531 46.5734C69.1 46.9108 68.9312 47.2483 68.7625 47.6702C68.5938 48.092 68.5938 48.5139 68.5938 48.9358C68.5938 49.3576 68.6781 49.8638 68.8469 50.2857C69.0156 50.7076 69.1844 51.1294 69.4375 51.3825C69.6906 51.72 70.0281 51.9731 70.4499 52.1419C70.8718 52.395 71.2936 52.4794 71.7155 52.4794C71.9686 52.4794 72.2217 52.4794 72.4748 52.395C72.728 52.3106 72.9811 52.2262 73.2342 52.1419C73.4873 51.9731 73.656 51.8888 73.9092 51.6356C74.0779 51.4669 74.2466 51.2138 74.4154 50.8763L76.1028 51.8044C75.9341 52.2262 75.681 52.5637 75.3435 52.8168C75.006 53.1543 74.6685 53.4074 74.331 53.5762L73.0654 54.0824C72.6436 54.1668 72.2217 54.2512 71.7999 54.2512C71.0405 54.2512 70.3656 54.0824 69.775 53.7449C69.1844 53.4074 68.5938 52.9856 68.1719 52.4794C67.75 51.9731 67.4126 51.3825 67.1594 50.7076C66.9063 50.0326 66.5688 49.5264 66.5688 48.8514Z" fill="black"/>
<path d="M85.3839 52.3948V54.1666H78.1279V43.7046H85.2995V45.4764H80.1528V48.0075H84.5402V49.695H80.1528V52.3948H85.3839Z" fill="black"/>
<path d="M99.7271 54.1668L98.8834 53.3231C98.4616 53.6606 97.9553 53.9137 97.4491 54.0824C96.9429 54.2512 96.4366 54.3355 95.9304 54.3355C95.4242 54.3355 94.918 54.2512 94.4961 54.0824C94.0742 53.9137 93.6524 53.6606 93.3993 53.4074C93.0618 53.1543 92.8931 52.8168 92.7243 52.395C92.5556 51.9731 92.4712 51.6356 92.4712 51.2138C92.4712 50.8763 92.5556 50.6232 92.6399 50.2857C92.7243 50.0326 92.8931 49.7795 93.0618 49.5264C93.2305 49.2732 93.3993 49.1045 93.6524 48.8514C93.9055 48.6826 94.0743 48.5139 94.3274 48.3452C93.9055 47.8389 93.568 47.5014 93.3993 47.164C93.2305 46.8265 93.1462 46.489 93.1462 46.0671C93.1462 45.7296 93.2305 45.3078 93.3993 45.0547C93.568 44.7172 93.7368 44.4641 93.9899 44.2953C94.243 44.0422 94.5805 43.8735 94.918 43.7891C95.2554 43.7047 95.6773 43.6204 96.0992 43.6204C96.4366 43.6204 96.7741 43.7047 97.1116 43.7891C97.4491 43.8735 97.7022 44.0422 98.0397 44.211C98.2928 44.3797 98.4616 44.6328 98.6303 44.9703C98.799 45.2234 98.8834 45.5609 98.8834 45.9828C98.8834 46.5734 98.7147 47.0796 98.3772 47.5014C98.0397 47.9233 97.6178 48.3452 97.1116 48.6826L99.1365 50.7919C99.3053 50.4544 99.3896 50.117 99.474 49.7795C99.5584 49.442 99.5584 49.0201 99.5584 48.5983H101.161C101.161 49.2732 101.077 49.9482 100.908 50.5388C100.74 51.1294 100.486 51.6356 100.233 52.1419L102.427 54.4199H99.7271V54.1668ZM96.1835 52.8168C96.7741 52.8168 97.3647 52.6481 97.871 52.2262L95.4242 49.6951C95.0867 49.9482 94.8336 50.2013 94.5805 50.4544C94.4117 50.7076 94.243 50.9607 94.243 51.2982C94.243 51.4669 94.3274 51.72 94.4117 51.8888C94.4961 52.0575 94.6649 52.2262 94.7492 52.395C94.918 52.5637 95.0867 52.6481 95.3398 52.7325C95.6773 52.7325 95.9304 52.8168 96.1835 52.8168ZM94.918 45.9828C94.918 46.0671 94.918 46.1515 95.0023 46.2359C95.0867 46.3202 95.0867 46.4046 95.1711 46.489C95.2555 46.5734 95.3398 46.7421 95.4242 46.8265C95.5086 46.9952 95.6773 47.0796 95.846 47.3327C96.1835 47.0796 96.521 46.8265 96.6898 46.5734C96.8585 46.3202 97.0272 46.0671 97.0272 45.814C97.0272 45.5609 96.9429 45.3078 96.7741 45.139C96.6054 44.9703 96.3523 44.8859 96.0992 44.8859C95.7617 44.8859 95.5086 44.9703 95.3398 45.139C95.0023 45.4765 94.918 45.7296 94.918 45.9828Z" fill="black"/>
<path d="M109.346 54.1666V43.7046H113.986C114.492 43.7046 114.914 43.789 115.336 44.0421C115.758 44.2108 116.095 44.5483 116.433 44.8014C116.77 45.1389 116.939 45.4764 117.108 45.8982C117.277 46.3201 117.361 46.742 117.361 47.1638C117.361 47.8388 117.192 48.4294 116.855 49.02C116.517 49.6106 116.011 49.9481 115.505 50.2012L117.867 54.1666H115.589L113.48 50.623H111.455V54.1666H109.346ZM111.455 48.8512H113.986C114.155 48.8512 114.324 48.7669 114.492 48.6825C114.661 48.5981 114.83 48.5138 114.914 48.345C114.999 48.1763 115.167 48.0075 115.167 47.8388C115.252 47.67 115.252 47.4169 115.252 47.1638C115.252 46.9107 115.252 46.6576 115.167 46.4888C115.083 46.3201 114.999 46.067 114.83 45.9826C114.661 45.8139 114.577 45.7295 114.408 45.6451C114.239 45.5608 114.07 45.5608 113.902 45.5608H111.455V48.8512Z" fill="black"/>
<path d="M127.233 52.3948V54.1666H119.977V43.7046H127.148V45.4764H122.001V48.0075H126.389V49.695H122.001V52.3948H127.233Z" fill="black"/>
<path d="M135.837 46.4044C135.753 46.32 135.669 46.2357 135.5 46.1513C135.331 46.0669 135.078 45.8982 134.825 45.8138C134.572 45.7294 134.319 45.6451 133.981 45.5607C133.644 45.4763 133.391 45.4763 133.053 45.4763C132.462 45.4763 132.041 45.5607 131.787 45.8138C131.534 45.9826 131.366 46.32 131.366 46.6575C131.366 46.9106 131.45 47.0794 131.534 47.1638C131.619 47.3325 131.787 47.4169 131.956 47.5012C132.125 47.5856 132.378 47.67 132.716 47.8387L133.728 48.0918C134.234 48.2606 134.74 48.345 135.162 48.5137C135.584 48.6824 135.922 48.8512 136.259 49.1043C136.512 49.3574 136.765 49.6105 136.934 49.948C137.103 50.2855 137.187 50.7074 137.187 51.1292C137.187 51.7198 137.103 52.1417 136.85 52.5635C136.597 52.9854 136.344 53.3229 136.006 53.4916C135.669 53.7447 135.247 53.9135 134.74 53.9978C134.234 54.0822 133.812 54.1666 133.306 54.1666C132.547 54.1666 131.703 54.0822 130.944 53.8291C130.184 53.576 129.509 53.2385 128.834 52.8166L129.763 51.0448C129.847 51.1292 130.016 51.2136 130.269 51.3823C130.522 51.5511 130.775 51.6354 131.112 51.8042C131.45 51.9729 131.787 52.0573 132.125 52.1417C132.547 52.226 132.884 52.3104 133.306 52.3104C134.403 52.3104 134.994 51.9729 134.994 51.2136C134.994 50.9605 134.909 50.7917 134.825 50.623C134.656 50.4542 134.487 50.2855 134.319 50.2011C134.065 50.1168 133.812 49.948 133.475 49.8636C133.137 49.7793 132.8 49.6949 132.378 49.5262C131.872 49.3574 131.45 49.273 131.028 49.1043C130.691 48.9356 130.353 48.7668 130.1 48.5137C129.847 48.2606 129.678 48.0075 129.509 47.7544C129.425 47.5012 129.341 47.0794 129.341 46.7419C129.341 46.2357 129.425 45.7294 129.678 45.3076C129.847 44.8857 130.184 44.5482 130.522 44.2951C130.859 44.042 131.281 43.7889 131.703 43.7045C132.125 43.5358 132.631 43.4514 133.222 43.4514C133.981 43.4514 134.656 43.5358 135.247 43.7889C135.837 44.042 136.428 44.2951 136.85 44.6326L135.837 46.4044Z" fill="black"/>
<path d="M143.853 52.4792C144.359 52.4792 144.781 52.3948 145.034 52.1417C145.372 51.973 145.625 51.7199 145.794 51.3824C145.963 51.0449 146.131 50.7074 146.216 50.2856C146.3 49.8637 146.3 49.4418 146.3 49.02V43.7046H148.325V49.02C148.325 49.7793 148.241 50.4543 148.072 51.0449C147.903 51.6355 147.65 52.2261 147.228 52.7323C146.891 53.2386 146.384 53.576 145.794 53.8292C145.203 54.0823 144.528 54.251 143.684 54.251C142.841 54.251 142.166 54.0823 141.575 53.8292C140.985 53.576 140.478 53.1542 140.141 52.648C139.803 52.1417 139.55 51.6355 139.382 50.9605C139.213 50.3699 139.128 49.695 139.128 49.02V43.7046H141.153V49.02C141.153 49.4418 141.153 49.8637 141.238 50.2856C141.322 50.7074 141.491 51.0449 141.66 51.3824C141.828 51.7199 142.166 51.973 142.419 52.1417C142.672 52.3105 143.347 52.4792 143.853 52.4792Z" fill="black"/>
<path d="M151.193 54.1666V43.7046H153.218V52.3948H158.534V54.1666H151.193Z" fill="black"/>
<path d="M168.489 45.4764H165.115V54.1666H163.09V45.4764H159.715V43.7046H168.489V45.4764Z" fill="black"/>
<path d="M176.758 46.4044C176.673 46.32 176.589 46.2357 176.42 46.1513C176.251 46.0669 175.998 45.8982 175.745 45.8138C175.492 45.7294 175.239 45.6451 174.902 45.5607C174.564 45.4763 174.311 45.4763 173.973 45.4763C173.383 45.4763 172.961 45.5607 172.708 45.8138C172.455 45.9826 172.286 46.32 172.286 46.6575C172.286 46.9106 172.37 47.0794 172.455 47.1638C172.539 47.3325 172.708 47.4169 172.877 47.5012C173.045 47.5856 173.298 47.67 173.636 47.8387L174.648 48.0918C175.155 48.2606 175.661 48.345 176.083 48.5137C176.505 48.6824 176.842 48.8512 177.18 49.1043C177.433 49.3574 177.686 49.6105 177.855 49.948C178.023 50.2855 178.108 50.7074 178.108 51.1292C178.108 51.7198 178.023 52.1417 177.77 52.5635C177.517 52.9854 177.264 53.3229 176.926 53.4916C176.589 53.7447 176.167 53.9135 175.661 53.9978C175.155 54.0822 174.733 54.1666 174.227 54.1666C173.467 54.1666 172.624 54.0822 171.864 53.8291C171.105 53.576 170.43 53.2385 169.755 52.8166L170.683 51.0448C170.767 51.1292 170.936 51.2136 171.189 51.3823C171.442 51.5511 171.695 51.6354 172.033 51.8042C172.37 51.9729 172.708 52.0573 173.045 52.1417C173.467 52.226 173.805 52.3104 174.227 52.3104C175.323 52.3104 175.914 51.9729 175.914 51.2136C175.914 50.9605 175.83 50.7917 175.745 50.623C175.577 50.4542 175.408 50.2855 175.239 50.2011C174.986 50.1168 174.733 49.948 174.395 49.8636C174.058 49.7793 173.72 49.6949 173.298 49.5262C172.792 49.3574 172.37 49.273 171.949 49.1043C171.611 48.9356 171.274 48.7668 171.02 48.5137C170.767 48.2606 170.599 48.0075 170.43 47.7544C170.345 47.5012 170.261 47.0794 170.261 46.7419C170.261 46.2357 170.345 45.7294 170.599 45.3076C170.767 44.8857 171.105 44.5482 171.442 44.2951C171.78 44.042 172.202 43.7889 172.624 43.7045C173.045 43.5358 173.552 43.4514 174.142 43.4514C174.902 43.4514 175.577 43.5358 176.167 43.7889C176.758 44.042 177.348 44.2951 177.77 44.6326L176.758 46.4044Z" fill="black"/>
<path d="M196.923 48.9353H185.279V50.1165H196.923V48.9353Z" fill="black"/>
<path d="M11.8967 48.9353H0.253418V50.1165H11.8967V48.9353Z" fill="black"/>
</svg>
