<svg width="36" height="36" viewBox="0 0 36 36" fill="none" xmlns="http://www.w3.org/2000/svg">
<path d="M13.9134 35.8027C13.5364 35.5906 13.4069 35.2843 13.4186 34.8484C13.4422 33.7174 13.4304 32.5864 13.4304 31.4554C13.4304 30.7486 13.5836 30.5719 14.2904 30.4541C13.2419 27.98 13.2301 25.506 14.2904 22.9849C13.7839 22.9849 13.3244 22.9849 12.8531 22.9849C12.1345 22.9849 11.4983 22.7846 11.0035 22.2309C10.4498 21.6183 10.3084 20.9232 10.5558 19.8629C10.4262 19.8629 10.3084 19.8629 10.1906 19.8629C7.63413 19.8629 5.08942 19.8629 2.53293 19.8629C1.00139 19.8629 0 18.8615 0 17.3182C0 12.3937 0 7.45742 0 2.53293C0 1.01317 1.0014 0 2.50937 0C6.52672 0 10.5441 0 14.5614 0C14.6674 0 14.7735 2.69472e-07 14.8795 0.0117813C15.2211 0.0706867 15.4568 0.365213 15.445 0.706864C15.445 1.04851 15.1976 1.33126 14.8559 1.39017C14.7263 1.41373 14.5967 1.40195 14.4672 1.40195C11.7575 1.40195 9.03607 1.40195 6.32643 1.40195C6.18505 1.40195 6.05547 1.40195 5.92588 1.40195C5.4193 3.9231 3.93488 5.43107 1.41373 5.92588C1.41373 8.5884 1.41373 11.2509 1.41373 13.937C3.89953 14.42 5.40752 15.9044 5.92588 18.4374C9.00074 18.4374 12.1109 18.4374 15.2447 18.4374C15.2447 17.3417 15.2565 16.2461 15.2329 15.1505C15.2329 15.0444 15.068 14.9266 14.9502 14.8559C12.9474 13.6543 11.8871 11.3805 12.2405 9.00074C12.5704 6.79768 14.3376 4.88914 16.5524 4.35899C19.2974 3.69925 22.1366 5.14833 23.2087 7.76372C24.2808 10.3791 23.3029 13.3715 20.876 14.8324C20.6404 14.9737 20.5462 15.1269 20.5462 15.4096C20.5697 16.4228 20.558 17.436 20.558 18.4609C23.6799 18.4609 26.7784 18.4609 29.865 18.4609C30.3716 15.9516 31.856 14.4436 34.3772 13.9488C34.3772 11.2863 34.3772 8.62374 34.3772 5.94944C31.8796 5.46641 30.3834 3.97022 29.865 1.42551C29.759 1.42551 29.6176 1.42551 29.488 1.42551C26.8019 1.42551 24.1041 1.42551 21.418 1.42551C21.2884 1.42551 21.1588 1.42551 21.0292 1.42551C20.6404 1.39017 20.3459 1.08386 20.3577 0.718645C20.3695 0.365213 20.6522 0.0706868 21.0292 0.0353436C21.1352 0.0235625 21.2413 0.0353436 21.3473 0.0353436C25.2822 0.0353436 29.217 0.0353436 33.1637 0.0353436C34.5774 0.0353436 35.3314 0.589053 35.7673 1.94388C35.7791 1.96744 35.8027 1.97922 35.8144 1.991C35.8144 7.30426 35.8144 12.6175 35.8144 17.9308C35.8027 17.9426 35.7791 17.9661 35.7673 17.9779C35.3314 19.3327 34.5774 19.8864 33.1637 19.8864C31.5261 19.8864 29.8768 19.8864 28.2392 19.8864C28.1096 19.8864 27.9918 19.8864 27.8504 19.8864C27.7915 21.7596 27.9683 23.5975 27.5559 25.4118C27.1436 27.2378 26.1422 28.8165 25.3057 30.5012C25.5885 30.5012 25.8123 30.5012 26.0362 30.5012C26.6134 30.5012 26.8608 30.7604 26.8608 31.3376C26.8608 32.5157 26.849 33.6939 26.8726 34.872C26.8844 35.3079 26.7548 35.6142 26.3778 35.8144C22.2073 35.8027 18.0604 35.8027 13.9134 35.8027ZM26.4367 19.8747C25.5649 19.8747 24.752 19.8747 23.9038 19.8747C23.9038 20.2517 23.9273 20.5933 23.9038 20.9467C23.8449 21.9599 23.3383 22.6903 22.3958 23.0673C20.8525 23.6917 19.1678 22.5607 19.156 20.8761C19.1442 18.8615 19.1678 16.8469 19.1442 14.8324C19.1442 14.5378 19.0382 14.208 18.8733 13.9606C18.5905 13.5129 18.0015 13.3715 17.5067 13.5364C16.9765 13.7132 16.6467 14.1726 16.6467 14.7617C16.6467 16.6702 16.6113 18.5787 16.6584 20.4991C16.682 21.3002 16.4817 21.9717 16.0694 22.6668C14.5967 25.1172 14.5143 27.6502 15.7277 30.242C15.822 30.4423 15.928 30.5012 16.1518 30.5012C18.5787 30.4894 20.9939 30.4894 23.4208 30.5012C23.6446 30.5012 23.7506 30.4305 23.8449 30.242C24.3279 29.3113 24.8463 28.4042 25.2822 27.4499C25.6238 26.7077 25.9184 25.9301 26.1422 25.1408C26.6252 23.409 26.366 21.6536 26.4367 19.8747ZM20.3106 13.5247C21.9481 12.4526 22.6432 10.3673 22.007 8.52949C21.3591 6.6563 19.5094 5.44285 17.5538 5.60779C15.6099 5.77272 13.9606 7.26892 13.6425 9.14211C13.348 10.9093 14.2197 12.9238 15.5157 13.5011C16.6466 11.5808 19.1914 11.6044 20.3106 13.5247ZM25.4353 31.9031C21.8892 31.9031 18.3667 31.9031 14.8559 31.9031C14.8559 32.7514 14.8559 33.5643 14.8559 34.3772C18.402 34.3772 21.9128 34.3772 25.4353 34.3772C25.4353 33.5525 25.4353 32.7396 25.4353 31.9031ZM34.3889 15.3979C32.9752 15.4921 31.4319 17.0354 31.3376 18.4492C32.0563 18.4492 32.7749 18.4727 33.5054 18.4374C33.9884 18.4256 34.3654 18.0368 34.3889 17.5538C34.4125 16.8469 34.3889 16.1165 34.3889 15.3979ZM1.41373 4.45324C2.82746 4.35899 4.359 2.83924 4.46503 1.40195C3.7346 1.40195 3.00417 1.37838 2.26196 1.41373C1.81428 1.42551 1.43729 1.81428 1.41373 2.25018C1.39017 2.98061 1.41373 3.72282 1.41373 4.45324ZM1.41373 15.3979C1.41373 16.1283 1.39016 16.8587 1.42551 17.5891C1.43729 18.0015 1.75538 18.3785 2.15594 18.4138C2.92171 18.4609 3.69926 18.4256 4.46503 18.4256C4.25297 16.894 2.87458 15.5274 1.41373 15.3979ZM31.3376 1.40195C31.5497 3.13376 33.2344 4.4179 34.4007 4.44146C34.4007 3.7346 34.4125 3.01595 34.3889 2.30909C34.3772 1.81428 33.9766 1.42551 33.4936 1.40195C32.7749 1.37838 32.0681 1.40195 31.3376 1.40195ZM15.2447 19.8629C14.3376 19.8629 13.4775 19.8511 12.6175 19.8629C12.217 19.8747 11.8871 20.1927 11.8282 20.5815C11.7693 20.9585 11.9813 21.3473 12.3348 21.4887C12.4879 21.5476 12.6764 21.5711 12.8414 21.5711C13.4893 21.5829 14.1491 21.5594 14.797 21.5829C15.1033 21.5947 15.2211 21.4298 15.2329 21.1706C15.2565 20.7347 15.2447 20.3223 15.2447 19.8629ZM22.5136 19.8864C21.8421 19.8864 21.2059 19.8864 20.5697 19.8864C20.5697 20.2517 20.558 20.5815 20.5697 20.9232C20.6051 21.4651 21.0292 21.8539 21.5594 21.8421C22.0777 21.8303 22.4783 21.4415 22.5136 20.9232C22.5254 20.5815 22.5136 20.2399 22.5136 19.8864Z" fill="white"/>
<path d="M17.8946 0C18.2834 0 18.6015 0.32987 18.5897 0.706864C18.5779 1.08386 18.2598 1.39017 17.8946 1.39017C17.5058 1.39017 17.1878 1.0603 17.1995 0.671521C17.2113 0.306308 17.5294 0 17.8946 0Z" fill="white"/>
</svg>
