<svg width="48" height="21" viewBox="0 0 48 21" fill="none" xmlns="http://www.w3.org/2000/svg">
<path d="M22.115 10.6444V16.4677H20.3306V2.0869H25.0633C25.6282 2.07469 26.1899 2.17841 26.7159 2.39209C27.2419 2.60577 27.7218 2.92517 28.1279 3.33187C28.5381 3.71387 28.8646 4.18235 29.0854 4.70584C29.3063 5.22932 29.4163 5.79567 29.4081 6.36682C29.4198 6.94103 29.3115 7.51108 29.0905 8.03789C28.8696 8.56471 28.5412 9.03584 28.1279 9.41899C27.3003 10.236 26.2788 10.6441 25.0633 10.6433H22.115V10.6444ZM22.115 3.85739V8.8774H25.1076C25.4357 8.88747 25.7622 8.82654 26.0662 8.69851C26.3702 8.57047 26.6451 8.37816 26.8732 8.13387C27.1002 7.90546 27.2806 7.63225 27.4038 7.33042C27.5269 7.02858 27.5904 6.70424 27.5904 6.37657C27.5904 6.04891 27.5269 5.72457 27.4038 5.42273C27.2806 5.12089 27.1002 4.84769 26.8732 4.61928C26.648 4.36984 26.3741 4.17281 26.0697 4.04127C25.7653 3.90972 25.4373 3.84665 25.1076 3.85624H22.115V3.85739ZM33.5201 6.30716C34.8391 6.30716 35.8802 6.67204 36.6435 7.4018C37.4068 8.13157 37.7881 9.13213 37.7873 10.4035V16.4677H36.0804V15.1022H36.0028C35.2639 16.2267 34.2812 16.7889 33.0546 16.7889C32.0076 16.7889 31.1316 16.4677 30.4267 15.8251C30.0884 15.5302 29.8179 15.1608 29.635 14.744C29.4521 14.3271 29.3613 13.8733 29.3693 13.4155C29.3693 12.3973 29.741 11.5876 30.4843 10.9864C31.2276 10.3851 32.22 10.0837 33.4614 10.0822C34.521 10.0822 35.3936 10.283 36.0793 10.6846V10.2624C36.0813 9.95027 36.0163 9.64163 35.8888 9.35882C35.7613 9.07601 35.5746 8.82612 35.3423 8.62726C34.8704 8.18651 34.2554 7.94602 33.6199 7.95372C32.6231 7.95372 31.8343 8.38898 31.2535 9.2595L29.6818 8.23484C30.5464 6.94972 31.8258 6.30716 33.5201 6.30716ZM31.2114 13.4557C31.2102 13.6908 31.2633 13.9228 31.3662 14.1323C31.4692 14.3419 31.619 14.523 31.8033 14.6605C32.1979 14.9818 32.6878 15.1521 33.1898 15.1424C33.9428 15.1411 34.6646 14.8308 35.1971 14.2795C35.7882 13.7035 36.0838 13.0277 36.0838 12.252C35.5274 11.793 34.7515 11.5635 33.7562 11.5635C33.0313 11.5635 32.4269 11.7444 31.9429 12.1063C31.4541 12.4734 31.2114 12.9198 31.2114 13.4557ZM47.5853 6.62844L41.6267 20.8049H39.7846L41.9958 15.8446L38.0777 6.62844H40.0173L42.8492 13.6966H42.888L45.6423 6.62844H47.5853Z" fill="white"/>
<path d="M15.9001 9.38931C15.9007 8.82633 15.8547 8.26432 15.7626 7.70947H8.23682V10.8913H12.5472C12.459 11.3995 12.2724 11.8839 11.9984 12.3154C11.7245 12.7469 11.369 13.1165 10.9534 13.4019V15.4673H13.5259C15.0322 14.0295 15.9001 11.9033 15.9001 9.38931Z" fill="white"/>
<path d="M8.23656 17.4631C10.3901 17.4631 12.2034 16.731 13.5257 15.4688L10.9532 13.4034C10.2372 13.906 9.315 14.1929 8.23656 14.1929C6.15505 14.1929 4.38831 12.7402 3.75655 10.7827H1.10645V12.9112C1.77065 14.2795 2.78914 15.4297 4.0482 16.2335C5.30727 17.0373 6.75735 17.463 8.23656 17.4631Z" fill="white"/>
<path d="M3.75718 10.782C3.42319 9.75626 3.42319 8.64545 3.75718 7.61969V5.49121H1.10708C0.548323 6.64226 0.257324 7.91263 0.257324 9.20085C0.257324 10.4891 0.548323 11.7594 1.10708 12.9105L3.75718 10.782Z" fill="white"/>
<path d="M8.23656 4.20968C9.37461 4.19044 10.4743 4.63558 11.2979 5.44891L13.5756 3.09094C12.1313 1.68657 10.2179 0.91555 8.23656 0.939507C6.75735 0.939577 5.30727 1.36527 4.0482 2.16905C2.78914 2.97283 1.77065 4.12308 1.10645 5.49136L3.75655 7.61985C4.38831 5.66233 6.15505 4.20968 8.23656 4.20968Z" fill="white"/>
</svg>
