<svg width="45" height="20" viewBox="0 0 45 20" fill="none" xmlns="http://www.w3.org/2000/svg">
<path d="M8.43809 2.59492C7.9204 3.2401 7.0921 3.74898 6.26379 3.67628C6.16025 2.80393 6.56578 1.87704 7.04033 1.30456C7.55802 0.6412 8.46397 0.168673 9.19737 0.132324C9.28365 1.04103 8.94715 1.93157 8.43809 2.59492ZM9.18874 3.84894C7.98942 3.77624 6.96267 4.56682 6.39321 4.56682C5.81513 4.56682 4.94368 3.88529 3.99458 3.90346C2.76076 3.92164 1.61321 4.65769 0.983355 5.82992C-0.31087 8.17439 0.646856 11.6457 1.89794 13.5539C2.51054 14.499 3.24393 15.5349 4.21029 15.4986C5.12487 15.4622 5.48726 14.8716 6.59166 14.8716C7.70469 14.8716 8.02394 15.4986 8.99029 15.4804C9.99116 15.4622 10.621 14.5353 11.2336 13.5903C11.9325 12.518 12.2172 11.473 12.2345 11.4185C12.2172 11.4003 10.3018 10.6279 10.2845 8.30161C10.2673 6.35697 11.7944 5.43009 11.8635 5.37557C11.0007 4.03068 9.65466 3.88529 9.18874 3.84894ZM16.1172 1.21369V15.3804H18.2052V10.537H21.0956C23.7358 10.537 25.5909 8.62874 25.5909 5.86627C25.5909 3.1038 23.7703 1.21369 21.1646 1.21369H16.1172ZM18.2052 3.06745H20.6124C22.4243 3.06745 23.4597 4.0852 23.4597 5.87536C23.4597 7.66551 22.4243 8.69235 20.6038 8.69235H18.2052V3.06745ZM29.4045 15.4895C30.716 15.4895 31.9326 14.7898 32.4848 13.6812H32.5279V15.3804H34.4606V8.32887C34.4606 6.28428 32.9076 4.96665 30.5176 4.96665C28.3001 4.96665 26.6608 6.30245 26.6004 8.13804H28.4813C28.6366 7.26568 29.4045 6.69319 30.4572 6.69319C31.7341 6.69319 32.4503 7.3202 32.4503 8.47426V9.25575L29.8446 9.41932C27.4201 9.5738 26.1086 10.6188 26.1086 12.4362C26.1086 14.2718 27.4632 15.4895 29.4045 15.4895ZM29.9654 13.8084C28.8523 13.8084 28.1448 13.245 28.1448 12.3817C28.1448 11.4912 28.8264 10.9732 30.1293 10.8914L32.4503 10.7369V11.5366C32.4503 12.8633 31.3804 13.8084 29.9654 13.8084ZM37.0405 19.2334C39.0767 19.2334 40.0344 18.4155 40.8714 15.9348L44.5383 5.10296H42.4158L39.9568 13.4722H39.9136L37.4546 5.10296H35.2717L38.8092 15.4168L38.6194 16.0438C38.3002 17.107 37.7825 17.5159 36.8593 17.5159C36.6953 17.5159 36.3761 17.4977 36.2467 17.4796V19.1788C36.3675 19.2152 36.8852 19.2334 37.0405 19.2334Z" fill="white"/>
</svg>
