<svg width="28" height="29" viewBox="0 0 28 29" fill="none" xmlns="http://www.w3.org/2000/svg">
<path d="M26.7146 14.5246V10.6893C26.7146 9.39057 25.7035 8.33587 24.4309 8.23127L20.8745 2.01638C20.5433 1.44109 20.0116 1.03141 19.3753 0.857079C18.739 0.691465 18.0765 0.77863 17.5099 1.10986L5.30678 8.21384H3.16251C1.79401 8.21384 0.687012 9.32955 0.687012 10.6893V25.5597C0.687012 26.9282 1.80273 28.0352 3.16251 28.0352H24.2304C25.5989 28.0352 26.7059 26.9195 26.7059 25.5597V21.7245C27.4294 21.4717 27.9436 20.7831 27.9436 19.9812V16.2592C27.9523 15.466 27.4381 14.7774 26.7146 14.5246ZM22.9926 8.21384H17.5884L21.6416 5.85166L22.9926 8.21384ZM21.0227 4.77952L15.1216 8.21384H12.681L20.4125 3.70739L21.0227 4.77952ZM18.1375 2.18199C18.4165 2.01638 18.7477 1.9728 19.0615 2.05996C19.3753 2.14713 19.6455 2.34761 19.8024 2.63525L10.2229 8.21384H7.77356L18.1375 2.18199ZM25.4768 25.5685C25.4768 26.2484 24.919 26.8062 24.2391 26.8062H3.16251C2.48262 26.8062 1.92476 26.2484 1.92476 25.5685V10.6893C1.92476 10.0094 2.48262 9.45159 3.16251 9.45159H24.2304C24.9103 9.45159 25.4681 10.0094 25.4681 10.6893V14.4113H21.7462C19.6978 14.4113 18.0242 16.0762 18.0242 18.1333C18.0242 20.1904 19.6891 21.8552 21.7462 21.8552H25.4681V25.5685H25.4768ZM26.7146 19.9899C26.7146 20.3298 26.4357 20.6088 26.0957 20.6088H21.7549C20.3864 20.6088 19.2794 19.493 19.2794 18.1333C19.2794 16.7648 20.3951 15.6578 21.7549 15.6578H26.0957C26.4357 15.6578 26.7146 15.9367 26.7146 16.2766V19.9899Z" fill="white"/>
<path d="M21.7548 16.8867C21.0749 16.8867 20.5171 17.4446 20.5171 18.1245C20.5171 18.8044 21.0749 19.3622 21.7548 19.3622C22.4347 19.3622 22.9926 18.8044 22.9926 18.1245C22.9926 17.4446 22.4434 16.8867 21.7548 16.8867Z" fill="white"/>
</svg>
