<svg width="55" height="61" viewBox="0 0 55 61" fill="none" xmlns="http://www.w3.org/2000/svg">
<path d="M6.87506 39.2857H4.91067C2.19856 39.2857 0 37.0872 0 34.3751C0 32.7478 1.31919 31.4286 2.9464 31.4286H6.87494V39.2857H6.87506Z" fill="#BD4150"/>
<path d="M44.1965 0H7.85733L6.8457 1.96427V59.9414H53.0359L55.0001 58.9285V10.8036L44.1965 0Z" fill="#ECEAEC"/>
<path d="M7.85685 55.9821V0C6.77207 0 5.89258 0.879378 5.89258 1.96427V58.9285C5.89258 60.0134 6.77207 60.8928 7.85685 60.8928H53.0354C54.1202 60.8928 54.9997 60.0133 54.9997 58.9285H10.8032C9.17591 58.9285 7.85685 57.6093 7.85685 55.9821Z" fill="#DAD8DB"/>
<path d="M55.0009 10.635C55.0009 10.114 54.7939 9.6144 54.4255 9.24595L45.7544 0.57527C45.3861 0.20694 44.8865 0 44.3656 0H44.1973V9.82146C44.1973 10.3638 44.637 10.8036 45.1794 10.8036H55.0009V10.635Z" fill="#DAD8DB"/>
<path d="M33.3924 37.3214H2.94605C2.60162 37.3214 2.27088 37.2623 1.96356 37.1536L1.01758 38.732V51.1404C1.01758 52.7678 2.33676 54.0868 3.96398 54.0868H33.3924L35.3567 53.0356V39.2857C35.3567 38.2008 34.4773 37.3214 33.3924 37.3214Z" fill="#E15F78"/>
<path d="M1.96427 37.1536C0.822529 36.7477 0 35.6561 0 34.3749V52.0535C0 53.6807 1.31919 54.9999 2.9464 54.9999H33.3928C34.4776 54.9999 35.3571 54.1204 35.3571 53.0356H4.91067C3.28345 53.0356 1.96427 51.7164 1.96427 50.0892V37.1536Z" fill="#DB4655"/>
<path d="M28.0289 45.1047H26.101V43.2431H28.2802C28.8231 43.2431 29.2623 42.8033 29.2623 42.2609C29.2623 41.7186 28.823 41.2788 28.2802 41.2788H25.1189C24.5759 41.2788 24.1367 41.7186 24.1367 42.2609V50.0606C24.1367 50.6029 24.5761 51.0427 25.1189 51.0427C25.6617 51.0427 26.101 50.6029 26.101 50.0606V47.0691H28.0289C28.5718 47.0691 29.011 46.6293 29.011 46.087C29.011 45.5446 28.5717 45.1047 28.0289 45.1047Z" fill="white"/>
<path d="M10.0157 41.25H7.82796C7.56702 41.25 7.31679 41.3541 7.13257 41.5386C6.94929 41.7229 6.84642 41.9724 6.84642 42.2321H6.8457V50.0893C6.8457 50.6317 7.28504 51.0715 7.82784 51.0715C8.37064 51.0715 8.80997 50.6317 8.80997 50.0893V47.6534C9.25061 47.651 9.73502 47.6489 10.0156 47.6489C11.8034 47.6489 13.2584 46.2135 13.2584 44.4497C13.2585 42.6853 11.8035 41.25 10.0157 41.25ZM10.0157 45.6845C9.73752 45.6845 9.25799 45.6864 8.81972 45.6888C8.81782 45.2356 8.81306 43.2143 8.81306 43.2143H10.0158C10.7093 43.2143 11.2943 43.7801 11.2943 44.4496C11.2943 45.1191 10.7092 45.6845 10.0157 45.6845Z" fill="white"/>
<path d="M18.2505 41.3661H16.0915C15.8306 41.3661 15.5804 41.4697 15.3961 41.6543C15.212 41.8388 15.1084 42.0892 15.1094 42.3501L15.1151 46.1521C15.1151 47.2124 15.1247 49.9766 15.1247 49.9766C15.1257 50.2371 15.2302 50.4868 15.4154 50.6706C15.5985 50.8528 15.8479 50.9554 16.107 50.9554H16.1108C16.1108 50.9554 17.7116 50.9492 18.3311 50.9386C20.6378 50.8978 22.3125 48.8885 22.3125 46.1608C22.3123 43.2929 20.6799 41.3661 18.2505 41.3661ZM18.2965 48.9742C18.0155 48.979 17.5292 48.9834 17.0861 48.9858C17.0833 48.0867 17.0795 46.8004 17.0795 46.152L17.0757 43.3302H18.2506C20.2475 43.3302 20.3482 45.6878 20.3482 46.1606C20.3481 47.5433 19.714 48.9494 18.2965 48.9742Z" fill="white"/>
<path d="M20.5942 33.225C19.8365 33.225 19.1517 32.8307 18.6702 32.0869C17.9547 30.983 18.1428 29.7328 19.1853 28.6566C20.2365 27.5709 22.3878 26.5494 24.9766 25.7154C25.7841 24.1933 26.6061 22.4117 27.3743 20.4421C27.828 19.2783 28.1944 18.2289 28.4879 17.2904C27.194 14.9185 26.4248 12.7102 26.6291 11.2762C26.8372 9.8212 27.9239 9.00212 29.5391 9.09132C30.0186 9.11725 31.1629 9.3676 31.4392 11.1294C31.6501 12.4766 31.2953 14.6542 30.5836 17.1288C31.9302 19.4005 33.7765 21.8337 35.5825 23.7012C38.3122 23.5348 40.6255 23.7338 41.7889 24.4358C42.7 24.9854 43.0578 25.8817 42.7461 26.8327C42.2359 28.387 41.0034 29.099 39.4457 28.736C38.1346 28.43 36.5099 27.2853 34.8621 25.6961C32.2121 25.9292 29.093 26.4687 26.3566 27.2734C24.7232 30.2049 22.9575 32.4872 21.4747 33.0541C21.1755 33.1688 20.8801 33.225 20.5942 33.225ZM20.318 31.0195C20.482 31.2718 20.5722 31.2665 20.6144 31.2617C21.2397 31.1979 22.2813 30.1184 23.4706 28.2936C22.6842 28.6308 21.9792 28.9961 21.3865 29.3885C19.8999 30.373 20.2154 30.8593 20.318 31.0195ZM37.6206 25.5664C38.4598 26.2224 39.2396 26.6708 39.8918 26.8234C40.4011 26.9418 40.663 26.8814 40.8797 26.221C40.5901 25.7817 39.3576 25.5707 37.6206 25.5664ZM29.82 19.5104C29.1803 21.3318 28.3976 23.2179 27.5431 24.9855C29.3837 24.5232 31.3239 24.1592 33.177 23.9281C31.979 22.5705 30.8213 21.0456 29.82 19.5104ZM29.3472 11.0155C28.6499 11.0155 28.6135 11.2769 28.5732 11.5531C28.4705 12.2787 28.7256 13.3106 29.2292 14.5004C29.6733 12.3802 29.5831 11.2586 29.3673 11.0155C29.3606 11.0155 29.3539 11.0155 29.3472 11.0155Z" fill="#E15F78"/>
</svg>
