<svg width="18" height="20" viewBox="0 0 18 20" fill="none" xmlns="http://www.w3.org/2000/svg">
<path d="M1.75791 18.32L1.7492 18.428H1.85758H16.4463H16.5547L16.546 18.32C16.2473 14.6087 13.0428 11.6821 9.15214 11.6821C5.26152 11.6821 2.057 14.6087 1.75791 18.32ZM0.783594 18.8871C0.783594 14.4107 4.53509 10.7641 9.15214 10.7641C13.7688 10.7641 17.5203 14.4107 17.5203 18.8871C17.5203 19.1376 17.31 19.3461 17.0446 19.3461H1.25927C0.993595 19.3461 0.783594 19.1377 0.783594 18.8871Z" fill="black" stroke="white" stroke-width="0.2"/>
<path d="M13.7564 5.01828C13.7564 7.7302 11.55 9.93657 8.83811 9.93657C6.12619 9.93657 3.91982 7.7302 3.91982 5.01828C3.91982 2.30637 6.12619 0.1 8.83811 0.1C11.5496 0.1 13.7564 2.30637 13.7564 5.01828ZM12.7942 5.01828C12.7942 2.83665 11.0193 1.06218 8.83811 1.06218C6.65648 1.06218 4.882 2.83666 4.882 5.01828C4.882 7.19991 6.65648 8.97439 8.83811 8.97439C11.0193 8.97439 12.7942 7.19952 12.7942 5.01828Z" fill="black" stroke="white" stroke-width="0.2"/>
</svg>
