<svg width="104" height="100" viewBox="0 0 104 100" fill="none" xmlns="http://www.w3.org/2000/svg">
<path d="M103.6 37.6651C103.012 35.8507 101.478 34.5531 99.5972 34.2801L69.728 29.9256L56.3701 2.7727C55.5291 1.06279 53.8257 0 51.9242 0C50.0238 0 48.3193 1.06279 47.4772 2.7727L34.1193 29.9256L4.25004 34.2801C2.36753 34.5542 0.834422 35.8507 0.246488 37.6651C-0.341446 39.4794 0.140101 41.4331 1.50187 42.7656L23.1154 63.9012L17.992 93.8717C17.6728 95.7355 18.4176 97.5914 19.9339 98.7149C20.8074 99.362 21.8377 99.6923 22.8747 99.6923C23.6384 99.6923 24.4055 99.5137 25.1178 99.1519L52.5435 85.2267L78.6388 98.989C80.322 99.8777 82.3232 99.7327 83.8608 98.6104C85.3995 97.4892 86.1554 95.6243 85.834 93.7447L80.7307 63.9012L102.344 42.7667C103.706 41.4343 104.188 39.4794 103.6 37.6651ZM100 40.3524L77.1214 62.7249L82.5225 94.3143C82.6278 94.93 82.3893 95.5164 81.8864 95.8838C81.3836 96.2523 80.7542 96.2983 80.2033 96.0062L52.5737 81.4339L23.6015 96.1444C23.0482 96.4242 22.4256 96.3702 21.9295 96.004C21.4334 95.6366 21.1993 95.0524 21.3035 94.4424L26.7259 62.726L3.84688 40.3535C3.40117 39.9176 3.24999 39.3031 3.44261 38.7088C3.63523 38.1156 4.11789 37.7066 4.73382 37.6168L36.3512 33.0072L50.4908 4.26577C50.7662 3.70516 51.3027 3.3715 51.9242 3.3715C52.5468 3.3715 53.0821 3.70516 53.3576 4.26577L67.4972 33.0072L99.1146 37.6168C99.7305 37.7066 100.212 38.1144 100.405 38.7088C100.597 39.3031 100.446 39.9165 100 40.3524Z" fill="url(#paint0_linear_357:767)"/>
<defs>
<linearGradient id="paint0_linear_357:767" x1="51.9231" y1="0" x2="51.9231" y2="99.6923" gradientUnits="userSpaceOnUse">
<stop offset="0.180208" stop-color="#FF8A00"/>
<stop offset="0.70625" stop-color="#00A3E0"/>
</linearGradient>
</defs>
</svg>
