<svg width="95" height="93" viewBox="0 0 95 93" fill="none" xmlns="http://www.w3.org/2000/svg">
<path d="M92.9694 73.812C93.836 73.812 94.5386 73.118 94.5386 72.2621V66.0627C94.5386 65.2068 93.836 64.5128 92.9694 64.5128H5.09246C2.49265 64.5128 0.384766 66.5947 0.384766 69.1624V87.7607C0.384766 90.3284 2.49265 92.4103 5.09246 92.4103H92.9694C93.836 92.4103 94.5386 91.7163 94.5386 90.8604V84.661C94.5386 83.8051 93.836 83.1111 92.9694 83.1111C90.3696 83.1111 88.2617 81.0292 88.2617 78.4615C88.2617 75.8938 90.3696 73.812 92.9694 73.812ZM91.4002 70.7122H9.80015V67.6125H91.4002V70.7122ZM3.52323 87.7607V69.1624C3.52323 68.3065 4.22586 67.6125 5.09246 67.6125H6.66169V89.3105H5.09246C4.22586 89.3105 3.52323 88.6166 3.52323 87.7607ZM91.4002 89.3105H9.80015V86.2108H91.4002V89.3105ZM9.80015 83.1111V73.812H86.7331C86.0197 74.7246 85.524 75.7841 85.2818 76.9117H16.0771V80.0114H85.2803C85.5224 81.139 86.0182 82.1984 86.7315 83.1111H9.80015Z" fill="url(#paint0_linear_471:764)"/>
<path d="M5.84574 17.0363L15.7242 20.0607V55.9834C15.7242 56.8422 16.4268 57.5385 17.2935 57.5385H76.9258C77.7924 57.5385 78.4951 56.8422 78.4951 55.9834V20.0607L86.3414 17.6612V27.458L82.1041 31.5469L84.3017 33.7733L86.3414 31.7983V34.2121H89.48V31.8674L91.4477 33.8173L93.6667 31.6183L89.48 27.4679V15.5511C89.4807 14.8889 89.0578 14.299 88.4271 14.0818L47.6261 0.0859931C47.2935 -0.0286644 46.9319 -0.0286644 46.5993 0.0859931L5.79823 14.0818C5.15765 14.302 4.73239 14.9049 4.74388 15.5769C4.75537 16.2489 5.20133 16.8374 5.84881 17.0363H5.84574ZM75.3565 54.4283H18.8627V21.123L46.5778 31.0086C46.9211 31.1346 47.2981 31.1346 47.6414 31.0086L75.3565 21.123V54.4283ZM47.1096 3.20224L82.8673 15.4653L47.1096 27.8953L11.3535 15.4653L47.1096 3.20224Z" fill="url(#paint1_linear_471:764)"/>
<defs>
<linearGradient id="paint0_linear_471:764" x1="47.4617" y1="64.5128" x2="47.4617" y2="92.4103" gradientUnits="userSpaceOnUse">
<stop offset="0.180208" stop-color="#FF8A00"/>
<stop offset="0.70625" stop-color="#00A3E0"/>
</linearGradient>
<linearGradient id="paint1_linear_471:764" x1="49.2052" y1="0" x2="49.2052" y2="57.5385" gradientUnits="userSpaceOnUse">
<stop offset="0.180208" stop-color="#FF8A00"/>
<stop offset="0.70625" stop-color="#00A3E0"/>
</linearGradient>
</defs>
</svg>
