<svg width="101" height="103" viewBox="0 0 101 103" fill="none" xmlns="http://www.w3.org/2000/svg">
<path d="M65.8825 37.6445L32.5551 64.4536C31.8929 65.0121 31.6722 66.1291 32.3344 66.7994C32.6654 67.2462 33.1069 67.4696 33.6586 67.4696C33.9897 67.4696 34.4311 67.3579 34.6518 67.1345L67.9793 40.3254C68.6414 39.7668 68.8621 38.6498 68.2 37.9796C67.6482 37.1976 66.655 37.0859 65.8825 37.6445Z" fill="url(#paint0_angular_357:752)"/>
<path d="M41.4938 49.5968C41.9353 49.5968 42.3767 49.5968 42.8181 49.4851C47.3427 48.8149 50.543 44.4584 49.7705 39.7668C49.4394 37.5327 48.2255 35.522 46.4598 34.1816C44.6941 32.8411 42.487 32.2826 40.2799 32.6177C38.0728 32.9528 36.0864 34.1816 34.7621 35.9688C33.4379 37.7561 32.8861 39.9902 33.2171 42.2243C33.8793 46.5808 37.521 49.5968 41.4938 49.5968ZM40.7213 36.0806C40.942 36.0806 41.2731 35.9688 41.4938 35.9688C43.9217 35.9688 46.1288 37.7561 46.4598 40.3253C46.9013 43.1179 45.0252 45.6871 42.2663 46.134C39.5074 46.5808 36.9692 44.6818 36.5278 41.8892C36.0864 39.0966 38.0728 36.5274 40.7213 36.0806Z" fill="url(#paint1_angular_357:752)"/>
<path d="M59.1507 55.1821C54.5158 55.1821 50.7637 58.9801 50.7637 63.6717C50.7637 68.3632 54.5158 72.1612 59.1507 72.1612C63.7857 72.1612 67.5378 68.3632 67.5378 63.6717C67.4274 58.9801 63.6753 55.1821 59.1507 55.1821ZM59.1507 68.6984C56.3918 68.6984 54.0743 66.3526 54.0743 63.5599C54.0743 60.7673 56.3918 58.4215 59.1507 58.4215C61.9096 58.4215 64.2271 60.7673 64.2271 63.5599C64.1167 66.4643 61.9096 68.6984 59.1507 68.6984Z" fill="url(#paint2_angular_357:752)"/>
<path d="M100.424 51.2724C100.424 51.1607 100.534 50.9373 100.534 50.8256C100.534 46.0223 95.5681 43.5648 91.2643 41.4424C88.1743 39.8785 84.8636 38.203 83.9808 36.1923C83.0979 34.0699 84.3118 30.6071 85.5258 27.3676C87.1811 22.7877 88.8364 18.0961 85.7465 14.9684C82.6565 11.8407 78.2423 12.9577 73.828 13.9631C70.7381 14.6333 67.5378 15.4152 65.441 14.5216C63.3442 13.628 61.5785 10.8353 59.9232 8.15444C57.4954 4.35648 54.8468 0 50.2119 0C45.577 0 42.9284 4.35648 40.6109 8.26614C38.9556 11.0588 37.3003 13.8514 35.2035 14.745C33.1067 15.6386 29.7961 14.8567 26.7061 14.0748C22.2919 12.9577 17.7673 11.8407 14.7877 14.8567C11.6977 17.9844 13.2427 22.676 14.6773 27.2559C15.7809 30.6071 16.7741 33.9582 15.8912 36.1923C15.0084 38.3147 11.9184 39.8785 8.93882 41.4424C4.7453 43.6765 0 46.134 0 50.8256C0 50.9373 -1.06888e-07 51.1607 0.110356 51.2724C0.110356 51.3841 0 51.6075 0 51.7192C0 56.4108 4.7453 58.98 8.93882 61.1024C11.9184 62.6663 15.0084 64.2301 15.8912 66.3525C16.7741 68.4749 15.6705 71.9378 14.6773 75.2889C13.2427 79.8688 11.6977 84.5604 14.7877 87.6881C17.8776 90.8158 22.4022 89.5871 26.7061 88.47C29.7961 87.6881 33.1067 86.9062 35.2035 87.7998C37.3003 88.6935 38.9556 91.4861 40.6109 94.2787C42.9284 98.1883 45.577 102.545 50.2119 102.545C54.8468 102.545 57.6057 98.1883 59.9232 94.3904C61.5785 91.7095 63.3442 88.9169 65.441 88.0232C67.6481 87.1296 70.7381 87.7998 73.828 88.5817C78.1319 89.5871 82.6565 90.7041 85.7465 87.5764C88.8364 84.4487 87.1811 79.7571 85.5258 75.1772C84.3118 71.826 83.0979 68.4749 83.9808 66.3525C84.8636 64.2301 88.0639 62.6663 91.2643 61.1024C95.5681 58.8683 100.534 56.4108 100.534 51.7192C100.534 51.4958 100.424 51.3841 100.424 51.2724ZM89.7193 58.0864C86.0775 59.9854 82.2151 61.8843 80.8908 65.1238C79.4562 68.4749 81.0012 72.4963 82.3254 76.4059C83.6497 80.0922 84.974 83.6667 83.3186 85.2306C81.5529 87.0179 78.1319 86.236 74.4902 85.3423C70.8484 84.4487 67.2067 83.6667 64.0064 85.0072C60.9164 86.3477 58.93 89.4754 57.054 92.6031C54.9572 95.9543 52.9708 99.1937 50.1015 99.1937C47.3426 99.1937 45.3562 95.9542 43.2595 92.4914C41.3834 89.252 39.397 86.0125 36.3071 84.6721C33.1067 83.3316 29.3546 84.2253 25.7129 85.2306C22.0712 86.1242 18.6501 87.0179 16.8844 85.3423C15.2291 83.6667 16.3327 80.0922 17.5466 76.4059C18.7605 72.4963 20.0848 68.4749 18.6501 65.2355C17.3259 61.9961 13.6841 60.0971 10.1527 58.3098C6.51099 56.4108 3.08996 54.6235 3.08996 51.8309C3.08996 51.7192 3.08996 51.4958 2.97961 51.3841C2.97961 51.2724 3.08996 51.049 3.08996 50.9373C3.08996 48.2564 6.51099 46.4691 10.1527 44.4584C13.6841 42.6712 17.3259 40.7722 18.6501 37.5327C19.9744 34.1816 18.7605 30.1602 17.5466 26.3623C16.3327 22.5643 15.2291 18.9898 16.8844 17.4259C18.6501 15.6386 22.0712 16.5323 25.7129 17.5376C29.3546 18.4313 33.1067 19.4366 36.3071 18.0961C39.397 16.7557 41.3834 13.5163 43.2595 10.2768C45.3562 6.81398 47.2323 3.57455 50.1015 3.57455C52.9708 3.57455 54.9572 6.81398 57.054 10.1651C59.0404 13.2928 61.0268 16.4206 64.0064 17.761C67.2067 19.1015 70.8484 18.2078 74.4902 17.4259C78.1319 16.5323 81.5529 15.7503 83.3186 17.5376C84.974 19.1015 83.6497 22.676 82.3254 26.3623C80.8908 30.2719 79.4562 34.2933 80.8908 37.6444C82.2151 40.8839 86.0775 42.7829 89.7193 44.6818C93.5817 46.5808 97.1131 48.4798 97.1131 51.1607C97.1131 51.2724 97.1131 51.4958 97.2235 51.6075C97.2235 51.7192 97.1131 51.9426 97.1131 52.0543C97.2235 54.2884 93.5817 56.1874 89.7193 58.0864Z" fill="url(#paint3_angular_357:752)"/>
<defs>
<radialGradient id="paint0_angular_357:752" cx="0" cy="0" r="1" gradientUnits="userSpaceOnUse" gradientTransform="translate(50.2672 52.3825) rotate(90) scale(15.0871 18.3326)">
<stop offset="0.336458" stop-color="#8DD4EE"/>
<stop offset="0.680208" stop-color="#FF8A00"/>
</radialGradient>
<radialGradient id="paint1_angular_357:752" cx="0" cy="0" r="1" gradientUnits="userSpaceOnUse" gradientTransform="translate(41.5045 41.0598) rotate(90) scale(8.53705 8.38122)">
<stop offset="0.336458" stop-color="#8DD4EE"/>
<stop offset="0.680208" stop-color="#FF8A00"/>
</radialGradient>
<radialGradient id="paint2_angular_357:752" cx="0" cy="0" r="1" gradientUnits="userSpaceOnUse" gradientTransform="translate(59.1507 63.6716) rotate(90) scale(8.48955 8.38704)">
<stop offset="0.336458" stop-color="#8DD4EE"/>
<stop offset="0.680208" stop-color="#FF8A00"/>
</radialGradient>
<radialGradient id="paint3_angular_357:752" cx="0" cy="0" r="1" gradientUnits="userSpaceOnUse" gradientTransform="translate(50.2671 51.2724) rotate(90) scale(51.2724 50.2671)">
<stop offset="0.336458" stop-color="#8DD4EE"/>
<stop offset="0.680208" stop-color="#FF8A00"/>
</radialGradient>
</defs>
</svg>
