<svg width="82" height="95" viewBox="0 0 82 95" fill="none" xmlns="http://www.w3.org/2000/svg">
<path d="M41.8144 55.0027C31.93 55.0212 22.4563 58.9584 15.4702 65.9511C8.48417 72.9437 4.5559 82.4211 4.54663 92.3055C4.54663 92.7706 4.73138 93.2166 5.06022 93.5454C5.38907 93.8743 5.83508 94.059 6.30013 94.059H77.3754C77.8405 94.059 78.2865 93.8743 78.6153 93.5454C78.9442 93.2166 79.1289 92.7706 79.1289 92.3055C79.1197 82.413 75.185 72.9285 68.1888 65.9346C61.1926 58.9406 51.7069 55.0089 41.8144 55.0027ZM8.05364 90.552C8.48032 81.8902 12.2216 73.7241 18.503 67.7446C24.7843 61.7651 33.1245 58.4301 41.7969 58.4301C50.4692 58.4301 58.8095 61.7651 65.0908 67.7446C71.3721 73.7241 75.1134 81.8902 75.5401 90.552H8.05364Z" fill="url(#paint0_linear_357:758)"/>
<path d="M41.195 8.33606C36.9306 8.33375 32.7613 9.59634 29.2146 11.9641C25.6678 14.3319 22.9031 17.6984 21.2701 21.6378C19.6371 25.5772 19.2092 29.9124 20.0406 34.095C20.872 38.2776 22.9253 42.1197 25.9407 45.1351C28.9561 48.1505 32.7982 50.2038 36.9808 51.0352C41.1634 51.8666 45.4986 51.4387 49.438 49.8057C53.3774 48.1727 56.7439 45.408 59.1117 41.8612C61.4795 38.3145 62.7421 34.1452 62.7397 29.8808C62.7336 24.1687 60.4617 18.6923 56.4226 14.6532C52.3835 10.6141 46.9072 8.34225 41.195 8.33606ZM41.195 47.9301C37.6247 47.9325 34.1339 46.8758 31.1642 44.894C28.1944 42.9121 25.8792 40.094 24.5112 36.7961C23.1433 33.4982 22.7842 29.8687 23.4794 26.3667C24.1745 22.8647 25.8926 19.6475 28.4164 17.1221C30.9402 14.5966 34.1562 12.8764 37.6578 12.1791C41.1593 11.4817 44.7891 11.8384 48.0878 13.2042C51.3866 14.57 54.2062 16.8834 56.1901 19.8518C58.1739 22.8203 59.2327 26.3104 59.2327 29.8808C59.2296 34.6648 57.3286 39.2521 53.9469 42.6361C50.5652 46.02 45.9791 47.924 41.195 47.9301Z" fill="url(#paint1_linear_357:758)"/>
<path d="M14.6937 41.4539C15.1587 41.4539 15.6048 41.2691 15.9336 40.9403C16.2624 40.6115 16.4472 40.1654 16.4472 39.7004V20.4119C16.5064 20.3315 16.5573 20.2453 16.5992 20.1547C18.5395 15.2372 21.9098 11.0146 26.2747 8.03235C30.6396 5.05009 35.7985 3.44521 41.0848 3.42508C46.3712 3.40494 51.5421 4.97046 55.9296 7.91938C60.3171 10.8683 63.7195 15.0651 65.6972 19.9676V39.7238C64.4005 42.9911 62.4605 45.9647 59.9925 48.4679C59.6641 48.7967 59.4797 49.2424 59.4797 49.707C59.4797 50.1717 59.6641 50.6174 59.9925 50.9462C60.3042 51.2561 60.7221 51.4359 61.1615 51.4488C61.3936 51.4495 61.6235 51.4045 61.8381 51.3162C62.0528 51.228 62.2479 51.0982 62.4123 50.9345C65.1467 48.2183 67.3299 44.999 68.8418 41.4539H69.6835C72.7839 41.4539 75.7573 40.2223 77.9496 38.03C80.1419 35.8377 81.3735 32.8643 81.3735 29.7639C81.3735 26.6635 80.1419 23.6901 77.9496 21.4978C75.7573 19.3055 72.7839 18.0738 69.6835 18.0738H68.7249C66.4118 12.7072 62.5774 8.13563 57.6953 4.92365C52.8133 1.71168 47.0973 0 41.2534 0C35.4095 0 29.6935 1.71168 24.8115 4.92365C19.9294 8.13563 16.095 12.7072 13.7819 18.0738H12.6129C9.51248 18.0738 6.53908 19.3055 4.34678 21.4978C2.15447 23.6901 0.922852 26.6635 0.922852 29.7639C0.922852 32.8643 2.15447 35.8377 4.34678 38.03C6.53908 40.2223 9.51248 41.4539 12.6129 41.4539H14.6937ZM69.2159 21.5809H69.6368C71.807 21.5809 73.8884 22.443 75.423 23.9776C76.9576 25.5122 77.8198 27.5936 77.8198 29.7639C77.8198 31.9341 76.9576 34.0155 75.423 35.5501C73.8884 37.0847 71.807 37.9469 69.6368 37.9469H69.2159V21.5809ZM4.33634 29.7639C4.33634 27.5936 5.19847 25.5122 6.73308 23.9776C8.2677 22.443 10.3491 21.5809 12.5193 21.5809H12.9402V37.9469H12.5193C10.3491 37.9469 8.2677 37.0847 6.73308 35.5501C5.19847 34.0155 4.33634 31.9341 4.33634 29.7639Z" fill="url(#paint2_linear_357:758)"/>
<defs>
<linearGradient id="paint0_linear_357:758" x1="41.8378" y1="55.0027" x2="41.8378" y2="94.059" gradientUnits="userSpaceOnUse">
<stop offset="0.180208" stop-color="#FF8A00"/>
<stop offset="0.70625" stop-color="#00A3E0"/>
</linearGradient>
<linearGradient id="paint1_linear_357:758" x1="41.1833" y1="8.33606" x2="41.1833" y2="51.4489" gradientUnits="userSpaceOnUse">
<stop offset="0.180208" stop-color="#FF8A00"/>
<stop offset="0.70625" stop-color="#00A3E0"/>
</linearGradient>
<linearGradient id="paint2_linear_357:758" x1="41.1482" y1="0" x2="41.1482" y2="51.4489" gradientUnits="userSpaceOnUse">
<stop offset="0.180208" stop-color="#FF8A00"/>
<stop offset="0.70625" stop-color="#00A3E0"/>
</linearGradient>
</defs>
</svg>
