<svg width="106" height="70" viewBox="0 0 106 70" fill="none" xmlns="http://www.w3.org/2000/svg">
<path d="M103.51 34.1909H94.6122V18.8384C94.6122 17.8664 93.8416 17.0796 92.8921 17.0796H65.0257V1.75873C65.0257 0.78674 64.2551 0 63.3057 0H1.72008C0.769447 0 0 0.78674 0 1.75873V59.4276C0 60.3984 0.769447 61.1863 1.72008 61.1863H16.0976C16.6939 65.7203 20.4918 69.2308 25.0856 69.2308C29.6793 69.2308 33.4773 65.7203 34.0735 61.1863H63.3057H74.4128C75.009 65.7203 78.8092 69.2308 83.4076 69.2308C88.0059 69.2308 91.8061 65.7203 92.4036 61.1863H103.511C104.46 61.1863 105.231 60.3984 105.231 59.4276V35.9497C105.23 34.9777 104.459 34.1909 103.51 34.1909ZM25.0856 65.7133C21.9768 65.7133 19.4472 63.1256 19.4472 59.9446C19.4472 56.7637 21.9768 54.176 25.0856 54.176C28.1943 54.176 30.724 56.7637 30.724 59.9446C30.724 63.1256 28.1955 65.7133 25.0856 65.7133ZM25.0856 50.6585C20.8485 50.6585 17.2913 53.6472 16.2948 57.6689H3.44015V3.51747H61.5856V18.8384V35.9497V57.6677H33.8775C32.881 53.6472 29.3227 50.6585 25.0856 50.6585ZM83.4076 65.7133C80.2943 65.7133 77.7623 63.1256 77.7623 59.9446C77.7623 56.7637 80.2943 54.176 83.4076 54.176C86.5209 54.176 89.054 56.7637 89.054 59.9446C89.054 63.1256 86.5198 65.7133 83.4076 65.7133ZM101.789 57.6677H92.2064C91.2087 53.646 87.6481 50.6574 83.4076 50.6574C79.167 50.6574 75.6065 53.646 74.61 57.6677H65.0269V35.9497V20.5971H91.1732V35.9497C91.1732 36.9205 91.9437 37.7084 92.8932 37.7084H101.791V57.6677H101.789Z" fill="url(#paint0_linear_357:750)"/>
<defs>
<linearGradient id="paint0_linear_357:750" x1="52.6154" y1="0" x2="52.6154" y2="69.2308" gradientUnits="userSpaceOnUse">
<stop offset="0.180208" stop-color="#FF8A00"/>
<stop offset="0.70625" stop-color="#00A3E0"/>
</linearGradient>
</defs>
</svg>
